<?xml version="1.0" standalone="no"?>
<svg width="567" height="544" viewBox="0 0 567 544" xmlns="http://www.w3.org/2000/svg">
<title>
gisasfw_loc.svg
</title>
<desc>
Creator: ROOT Version 5.34/00
CreationDate: Mon Aug  6 21:39:24 2012</desc>
<defs>
</defs>
<rect x="0" y="0" width="567" height="544" fill="white"/>
<rect x="57" y="54" width="453" height="425" fill="white"/>
<rect x="57" y="54" width="453" height="425" fill="none" stroke="black"/>
<path d="M57,479h 453" fill="none" stroke="black"/>
<path d="M93,54v 425" fill="none" stroke="black" stroke-dasharray=" 1, 2"/>
<path d="M137,54v 425" fill="none" stroke="black" stroke-dasharray=" 1, 2"/>
<path d="M181,54v 425" fill="none" stroke="black" stroke-dasharray=" 1, 2"/>
<path d="M225,54v 425" fill="none" stroke="black" stroke-dasharray=" 1, 2"/>
<path d="M268,54v 425" fill="none" stroke="black" stroke-dasharray=" 1, 2"/>
<path d="M312,54v 425" fill="none" stroke="black" stroke-dasharray=" 1, 2"/>
<path d="M356,54v 425" fill="none" stroke="black" stroke-dasharray=" 1, 2"/>
<path d="M400,54v 425" fill="none" stroke="black" stroke-dasharray=" 1, 2"/>
<path d="M444,54v 425" fill="none" stroke="black" stroke-dasharray=" 1, 2"/>
<path d="M487,54v 425" fill="none" stroke="black" stroke-dasharray=" 1, 2"/>
<path d="M93,54v 425" fill="none" stroke="black" stroke-dasharray=" 1, 2"/>
<path d="M487,54v 425" fill="none" stroke="black" stroke-dasharray=" 1, 2"/>
<path d="M57,479v -425" fill="none" stroke="black"/>
<path d="M510,479h -453" fill="none" stroke="black" stroke-dasharray=" 1, 2"/>
<path d="M510,402h -453" fill="none" stroke="black" stroke-dasharray=" 1, 2"/>
<path d="M510,326h -453" fill="none" stroke="black" stroke-dasharray=" 1, 2"/>
<path d="M510,250h -453" fill="none" stroke="black" stroke-dasharray=" 1, 2"/>
<path d="M510,174h -453" fill="none" stroke="black" stroke-dasharray=" 1, 2"/>
<path d="M510,97h -453" fill="none" stroke="black" stroke-dasharray=" 1, 2"/>
<path d="M510,97h -453" fill="none" stroke="black" stroke-dasharray=" 1, 2"/>
<path d="M57,479h 453" fill="none" stroke="black"/>
<path d="M93,466v 13" fill="none" stroke="black"/>
<path d="M115,472v 7" fill="none" stroke="black"/>
<path d="M137,466v 13" fill="none" stroke="black"/>
<path d="M159,472v 7" fill="none" stroke="black"/>
<path d="M181,466v 13" fill="none" stroke="black"/>
<path d="M203,472v 7" fill="none" stroke="black"/>
<path d="M225,466v 13" fill="none" stroke="black"/>
<path d="M247,472v 7" fill="none" stroke="black"/>
<path d="M268,466v 13" fill="none" stroke="black"/>
<path d="M290,472v 7" fill="none" stroke="black"/>
<path d="M312,466v 13" fill="none" stroke="black"/>
<path d="M334,472v 7" fill="none" stroke="black"/>
<path d="M356,466v 13" fill="none" stroke="black"/>
<path d="M378,472v 7" fill="none" stroke="black"/>
<path d="M400,466v 13" fill="none" stroke="black"/>
<path d="M422,472v 7" fill="none" stroke="black"/>
<path d="M444,466v 13" fill="none" stroke="black"/>
<path d="M466,472v 7" fill="none" stroke="black"/>
<path d="M487,466v 13" fill="none" stroke="black"/>
<path d="M93,466v 13" fill="none" stroke="black"/>
<path d="M71,472v 7" fill="none" stroke="black"/>
<path d="M487,466v 13" fill="none" stroke="black"/>
<path d="M509,472v 7" fill="none" stroke="black"/>
<text x="74" y="505" fill="black" font-size="15" font-family="Helvetica">
08/04
</text>
<text x="118" y="505" fill="black" font-size="15" font-family="Helvetica">
22/04
</text>
<text x="162" y="505" fill="black" font-size="15" font-family="Helvetica">
06/05
</text>
<text x="205" y="505" fill="black" font-size="15" font-family="Helvetica">
20/05
</text>
<text x="249" y="505" fill="black" font-size="15" font-family="Helvetica">
03/06
</text>
<text x="293" y="505" fill="black" font-size="15" font-family="Helvetica">
17/06
</text>
<text x="337" y="505" fill="black" font-size="15" font-family="Helvetica">
01/07
</text>
<text x="380" y="505" fill="black" font-size="15" font-family="Helvetica">
15/07
</text>
<text x="424" y="505" fill="black" font-size="15" font-family="Helvetica">
29/07
</text>
<text x="468" y="505" fill="black" font-size="15" font-family="Helvetica">
12/08
</text>
<path d="M57,479v -425" fill="none" stroke="black"/>
<path d="M70,479h -13" fill="none" stroke="black"/>
<path d="M63,463h -6" fill="none" stroke="black"/>
<path d="M63,448h -6" fill="none" stroke="black"/>
<path d="M63,433h -6" fill="none" stroke="black"/>
<path d="M63,418h -6" fill="none" stroke="black"/>
<path d="M70,402h -13" fill="none" stroke="black"/>
<path d="M63,387h -6" fill="none" stroke="black"/>
<path d="M63,372h -6" fill="none" stroke="black"/>
<path d="M63,357h -6" fill="none" stroke="black"/>
<path d="M63,341h -6" fill="none" stroke="black"/>
<path d="M70,326h -13" fill="none" stroke="black"/>
<path d="M63,311h -6" fill="none" stroke="black"/>
<path d="M63,296h -6" fill="none" stroke="black"/>
<path d="M63,280h -6" fill="none" stroke="black"/>
<path d="M63,265h -6" fill="none" stroke="black"/>
<path d="M70,250h -13" fill="none" stroke="black"/>
<path d="M63,235h -6" fill="none" stroke="black"/>
<path d="M63,219h -6" fill="none" stroke="black"/>
<path d="M63,204h -6" fill="none" stroke="black"/>
<path d="M63,189h -6" fill="none" stroke="black"/>
<path d="M70,174h -13" fill="none" stroke="black"/>
<path d="M63,158h -6" fill="none" stroke="black"/>
<path d="M63,143h -6" fill="none" stroke="black"/>
<path d="M63,128h -6" fill="none" stroke="black"/>
<path d="M63,113h -6" fill="none" stroke="black"/>
<path d="M70,97h -13" fill="none" stroke="black"/>
<path d="M70,97h -13" fill="none" stroke="black"/>
<path d="M63,82h -6" fill="none" stroke="black"/>
<path d="M63,67h -6" fill="none" stroke="black"/>
<text x="44" y="485" fill="black" font-size="17" font-family="Helvetica">
0
</text>
<text x="13" y="409" fill="black" font-size="17" font-family="Helvetica">
5000
</text>
<text x="4" y="332" fill="black" font-size="17" font-family="Helvetica">
10000
</text>
<text x="4" y="256" fill="black" font-size="17" font-family="Helvetica">
15000
</text>
<text x="4" y="180" fill="black" font-size="17" font-family="Helvetica">
20000
</text>
<text x="4" y="104" fill="black" font-size="17" font-family="Helvetica">
25000
</text>
<text x="172" y="27" fill="black" font-size="23" font-family="Helvetica">
Lines of code vs time
</text>
<path d="M79,479v -5h 6l 1, -3v -1l 15, -5l 3, -1l 3, -1v -1l 1, -2h 2l 1, -1h 9l 3, -2l 6, -3v -6l 3, -4h 1v -2l 9, -4l 2, -1h 1v -1l 27, -7l 3, -10h 1v -8l 10, -5l 3, -4l 2, -2l 4, -2v -1l 2, -6h 10l 3, 2l 1, -1l 2, -1h 1l 21, -5v -1l 1, -1h 3l 2,
 -1l 45, -21l 9, 6v 1l 3, -1v -13h 3v 13l 16, -7l 3, -6l 3, -9v 1v -3h 3l 12, -9l 4, -5v -11l 2, 1l 1, 1v -7l 2, -3h 1l 3, -5v -7h 9l 1, -4l 6, -4l 7, -3h 8l 1, -3h 2l 1, -1v -5l 1, -1h 1v -1h 1l 3, -1l 4, -16h 1l 10, -10l 4, -44l 2, -5l 1, -6v -3l
 3, -5l 12, -35l 1, -7l 3, 2l 16, -5v -1l 2, -1v -14l 1, -18v -1l 3, -1h 3l 2, -8h 1l 6, -1l 3, -1l 1, -3" fill="none" stroke="#0000ff" stroke-width="2"/>
<text x="172" y="27" fill="black" font-size="23" font-family="Helvetica">
Lines of code vs time
</text></svg>
