<?xml version="1.0" encoding="UTF-8" standalone="no"?>
<!-- Created with Inkscape (http://www.inkscape.org/) -->

<svg
   xmlns:dc="http://purl.org/dc/elements/1.1/"
   xmlns:cc="http://creativecommons.org/ns#"
   xmlns:rdf="http://www.w3.org/1999/02/22-rdf-syntax-ns#"
   xmlns:svg="http://www.w3.org/2000/svg"
   xmlns="http://www.w3.org/2000/svg"
   xmlns:sodipodi="http://sodipodi.sourceforge.net/DTD/sodipodi-0.dtd"
   xmlns:inkscape="http://www.inkscape.org/namespaces/inkscape"
   id="svg14568"
   version="1.1"
   inkscape:version="0.48.2 r9819"
   width="1713.8661"
   height="1338.5"
   xml:space="preserve"
   sodipodi:docname="Pyramid2dxz.svg"><metadata
     id="metadata14574"><rdf:RDF><cc:Work
         rdf:about=""><dc:format>image/svg+xml</dc:format><dc:type
           rdf:resource="http://purl.org/dc/dcmitype/StillImage" /><dc:title /></cc:Work></rdf:RDF></metadata><defs
     id="defs14572"><marker
       inkscape:stockid="Arrow1Lend"
       orient="auto"
       refY="0"
       refX="0"
       id="Arrow1Lend"
       style="overflow:visible"><path
         id="path4395"
         d="M 0,0 5,-5 -12.5,0 5,5 0,0 z"
         style="fill-rule:evenodd;stroke:#000000;stroke-width:1pt;marker-start:none"
         transform="matrix(-0.8,0,0,-0.8,-10,0)"
         inkscape:connector-curvature="0" /></marker><inkscape:path-effect
       effect="spiro"
       id="path-effect15534"
       is_visible="true" /><inkscape:path-effect
       effect="spiro"
       id="path-effect15530"
       is_visible="true" /><marker
       inkscape:stockid="Arrow2Lend"
       orient="auto"
       refY="0"
       refX="0"
       id="Arrow2Lend"
       style="overflow:visible"><path
         id="path4413"
         style="font-size:12px;fill-rule:evenodd;stroke-width:0.625;stroke-linejoin:round"
         d="M 8.7185878,4.0337352 -2.2072895,0.01601326 8.7185884,-4.0017078 c -1.7454984,2.3720609 -1.7354408,5.6174519 -6e-7,8.035443 z"
         transform="matrix(-1.1,0,0,-1.1,-1.1,0)"
         inkscape:connector-curvature="0" /></marker><marker
       inkscape:stockid="Arrow1Lstart"
       orient="auto"
       refY="0"
       refX="0"
       id="Arrow1Lstart"
       style="overflow:visible"><path
         id="path4392"
         d="M 0,0 5,-5 -12.5,0 5,5 0,0 z"
         style="fill-rule:evenodd;stroke:#000000;stroke-width:1pt;marker-start:none"
         transform="matrix(0.8,0,0,0.8,10,0)"
         inkscape:connector-curvature="0" /></marker><clipPath
       clipPathUnits="userSpaceOnUse"
       id="clipPath14598"><path
         d="m -0.03,-0.03 2384,0 0,3370.45 -2384,0"
         id="path14600"
         inkscape:connector-curvature="0" /></clipPath><clipPath
       clipPathUnits="userSpaceOnUse"
       id="clipPath14618"><path
         d="m -0.03,-0.03 2384,0 0,3370.45 -2384,0"
         id="path14620"
         inkscape:connector-curvature="0" /></clipPath></defs><sodipodi:namedview
     pagecolor="#ffffff"
     bordercolor="#666666"
     borderopacity="1"
     objecttolerance="10"
     gridtolerance="10"
     guidetolerance="10"
     inkscape:pageopacity="0"
     inkscape:pageshadow="2"
     inkscape:window-width="1803"
     inkscape:window-height="1090"
     id="namedview14570"
     showgrid="true"
     inkscape:zoom="0.91100744"
     inkscape:cx="797.36523"
     inkscape:cy="870.18898"
     inkscape:window-x="135"
     inkscape:window-y="0"
     inkscape:window-maximized="0"
     inkscape:current-layer="g14576"
     units="px"
     fit-margin-top="15"
     fit-margin-left="15"
     fit-margin-bottom="15"
     fit-margin-right="15"><inkscape:grid
       type="xygrid"
       id="grid15526"
       empspacing="5"
       visible="true"
       enabled="true"
       snapvisiblegridlinesonly="true" /></sodipodi:namedview><g
     id="g14576"
     inkscape:groupmode="layer"
     inkscape:label="Pyramid_Blatt__2"
     transform="matrix(1.25,0,0,-1.25,-619.62891,2843.6)"><path
   d="m 651.04247,1290.63 -126.12734,0"
   style="fill:none;stroke:#000000;stroke-width:3.20000005;stroke-linecap:butt;stroke-linejoin:miter;stroke-miterlimit:2;stroke-opacity:1;stroke-dasharray:none"
   id="path14578"
   inkscape:connector-curvature="0" /><path
   d="m 873.2548,2076.08 -348.34,0"
   style="fill:none;stroke:#000000;stroke-width:3.20000005;stroke-linecap:butt;stroke-linejoin:miter;stroke-miterlimit:2;stroke-opacity:1;stroke-dasharray:none"
   id="path14580"
   inkscape:connector-curvature="0" /><path
   d="m 1151.24,1295.43 220.15,0"
   style="fill:none;stroke:#804000;stroke-width:0.37;stroke-linecap:butt;stroke-linejoin:miter;stroke-miterlimit:2;stroke-opacity:1;stroke-dasharray:none"
   id="path14582"
   inkscape:connector-curvature="0" /><path
   d="m 581.6,1296.075 0,775.1296"
   style="fill:none;stroke:#000000;stroke-width:3.19155216;stroke-linecap:butt;stroke-linejoin:miter;stroke-miterlimit:2;stroke-opacity:1;stroke-dasharray:none;marker-start:url(#Arrow1Lstart);marker-end:url(#Arrow1Lend)"
   id="path14610"
   inkscape:connector-curvature="0" /><path
   d="m 1579.57,1564.27 -0.69,-0.16 -0.69,-0.16 -0.69,-0.17 -0.69,-0.16 -0.69,-0.17 -0.69,-0.17 -0.69,-0.17 -0.68,-0.17 -0.69,-0.18 -0.69,-0.17 -0.68,-0.18 -0.69,-0.18 -0.68,-0.18 -0.69,-0.19 -0.68,-0.18 -0.69,-0.19 -0.68,-0.19 -0.68,-0.19 -0.68,-0.19 -0.69,-0.19 -0.68,-0.2 -0.68,-0.2 -0.68,-0.2 -0.68,-0.2 -0.68,-0.2 -0.67,-0.2 -0.68,-0.21 -0.68,-0.21 -0.68,-0.21 -0.67,-0.21 -0.68,-0.21 -0.68,-0.21 -0.67,-0.22 -0.67,-0.22 -0.68,-0.22 -0.67,-0.22 -0.67,-0.22 -0.68,-0.23 -0.67,-0.23 -0.67,-0.22 -0.67,-0.23 -0.67,-0.24 -0.67,-0.23 -0.66,-0.24 -0.67,-0.23 -0.67,-0.24 -0.67,-0.24 -0.66,-0.24 -0.67,-0.25 -0.66,-0.24 -0.67,-0.25 -0.66,-0.25 -0.66,-0.25 -0.66,-0.25 -0.67,-0.26 -0.66,-0.25 -0.66,-0.26 -0.66,-0.26 -0.66,-0.26 -0.65,-0.26 -0.66,-0.27 -0.66,-0.27 -0.65,-0.26 -0.66,-0.27 -0.65,-0.27 -0.66,-0.28 -0.65,-0.27 -0.65,-0.28 -0.66,-0.27 -0.65,-0.28 -0.65,-0.29 -0.65,-0.28 -0.65,-0.28 -0.65,-0.29 -0.64,-0.29 -0.65,-0.29 -0.65,-0.29 -0.64,-0.29 -0.65,-0.29 -0.64,-0.3 -0.64,-0.3 -0.65,-0.3 -0.64,-0.3 -0.64,-0.3 -0.64,-0.31 -0.64,-0.3 -0.64,-0.31 -0.63,-0.31 -0.64,-0.31 -0.64,-0.31 -0.63,-0.32 -0.64,-0.31 -0.63,-0.32 -0.63,-0.32 -0.63,-0.32 -0.63,-0.32 -0.63,-0.33 -0.63,-0.32 -0.63,-0.33 -0.63,-0.33 -0.63,-0.33 -0.62,-0.33 -0.63,-0.33 -0.62,-0.34 -0.63,-0.34 -0.62,-0.33 -0.62,-0.34 -0.62,-0.35 -0.62,-0.34 -0.62,-0.34 -0.62,-0.35 -0.62,-0.35 -0.61,-0.35 -0.62,-0.35 -0.61,-0.35 -0.62,-0.36 -0.61,-0.35 -0.61,-0.36 -0.61,-0.36 -0.61,-0.36 -0.61,-0.36 -0.61,-0.36 -0.61,-0.37 -0.6,-0.37 -0.61,-0.37 -0.6,-0.37 -0.61,-0.37 -0.6,-0.37 -0.6,-0.37 -0.6,-0.38 -0.6,-0.38 -0.6,-0.38 -0.6,-0.38 -0.59,-0.38 -0.6,-0.38 -0.59,-0.39 -0.6,-0.39 -0.59,-0.38 -0.59,-0.39 -0.59,-0.4 -0.59,-0.39 -0.59,-0.39 -0.59,-0.4 -0.59,-0.4 -0.58,-0.4 -0.59,-0.4 -0.58,-0.4 -0.58,-0.4 -0.58,-0.41 -0.59,-0.4 -0.57,-0.41 -0.58,-0.41 -0.58,-0.41 -0.58,-0.41 -0.57,-0.42 -0.58,-0.41 -0.57,-0.42 -0.57,-0.42 -0.57,-0.42 -0.57,-0.42 -0.57,-0.42 -0.57,-0.43 -0.57,-0.42 -0.56,-0.43 -0.57,-0.43 -0.56,-0.43 -0.56,-0.43 -0.56,-0.43 -0.56,-0.44 -0.56,-0.43 -0.56,-0.44 -0.55,-0.44 -0.56,-0.44 -0.55,-0.44 -0.56,-0.44 -0.55,-0.45 -0.55,-0.44 -0.55,-0.45 -0.55,-0.45 -0.55,-0.45 -0.54,-0.45 -0.55,-0.45 -0.54,-0.46 -0.55,-0.45 -0.54,-0.46 -0.54,-0.46 -0.54,-0.46 -0.53,-0.46 -0.54,-0.46 -0.54,-0.46 -0.53,-0.47 -0.54,-0.47 -0.53,-0.46 -0.53,-0.47 -0.53,-0.47 -0.53,-0.48 -0.52,-0.47 -0.53,-0.47 -0.52,-0.48 -0.53,-0.48 -0.52,-0.48 -0.52,-0.48 -0.52,-0.48 -0.52,-0.48 -0.52,-0.49 -0.51,-0.48 -0.52,-0.49 -0.51,-0.49 -0.52,-0.49 -0.51,-0.49 -0.51,-0.49 -0.51,-0.49 -0.5,-0.5 -0.51,-0.49 -0.5,-0.5 -0.51,-0.5 -0.5,-0.5 -0.5,-0.5 -0.5,-0.5 -0.5,-0.51 -0.5,-0.5 -0.49,-0.51 -0.5,-0.5 -0.49,-0.51 -0.49,-0.51 -0.49,-0.51 -0.49,-0.52 -0.49,-0.51 -0.49,-0.52 -0.48,-0.51 -0.49,-0.52 -0.48,-0.52 -0.48,-0.52 -0.48,-0.52 -0.48,-0.52 -0.48,-0.53 -0.47,-0.52 -0.48,-0.53 -0.47,-0.53 -0.47,-0.52 -0.47,-0.53 -0.47,-0.54 -0.47,-0.53 -0.47,-0.53 -0.46,-0.54 -0.46,-0.53 -0.47,-0.54 -0.46,-0.54 -0.46,-0.54 -0.46,-0.54 -0.45,-0.54 -0.46,-0.54 -0.45,-0.55 -0.45,-0.54 -0.46,-0.55 -0.45,-0.55 -0.44,-0.54 -0.45,-0.55 -0.45,-0.55 -0.44,-0.56 -0.44,-0.55 -0.44,-0.56 -0.44,-0.55 -0.44,-0.56 -0.44,-0.56 -0.44,-0.55 -0.43,-0.56 -0.43,-0.57 -0.43,-0.56 -0.43,-0.56 -0.43,-0.57 -0.43,-0.56 -0.42,-0.57 -0.43,-0.57 -0.42,-0.56 -0.42,-0.57 -0.42,-0.58 -0.42,-0.57 -0.42,-0.57 -0.41,-0.58 -0.42,-0.57 -0.41,-0.58 -0.41,-0.57 -0.41,-0.58 -0.41,-0.58 -0.4,-0.58 -0.41,-0.59 -0.4,-0.58 -0.4,-0.58 -0.4,-0.59 -0.4,-0.58 -0.4,-0.59 -0.39,-0.59 -0.4,-0.59 -0.39,-0.59 -0.39,-0.59 -0.39,-0.59 -0.39,-0.59 -0.39,-0.59 -0.38,-0.6 -0.39,-0.6 -0.38,-0.59 -0.38,-0.6 -0.38,-0.6 -0.38,-0.6 -0.37,-0.6 -0.38,-0.6 -0.37,-0.6 -0.37,-0.61 -0.37,-0.6 -0.37,-0.61 -0.36,-0.6 -0.37,-0.61 -0.36,-0.61 -0.37,-0.61 -0.36,-0.61 -0.35,-0.61 -0.36,-0.61 -0.36,-0.61 -0.35,-0.62 -0.35,-0.61 -0.36,-0.62 -0.34,-0.62 -0.35,-0.61 -0.35,-0.62 -0.34,-0.62 -0.35,-0.62 -0.34,-0.62 -0.34,-0.62 -0.34,-0.63 -0.33,-0.62 -0.34,-0.62 -0.33,-0.63 -0.33,-0.63 -0.33,-0.62 -0.33,-0.63 -0.33,-0.63 -0.32,-0.63 -0.33,-0.63 -0.32,-0.63 -0.32,-0.63 -0.32,-0.64 -0.32,-0.63 -0.31,-0.63 -0.32,-0.64 -0.31,-0.63 -0.31,-0.64 -0.31,-0.64 -0.31,-0.64 -0.3,-0.64 -0.31,-0.64 -0.3,-0.64 -0.3,-0.64 -0.3,-0.64 -0.3,-0.65 -0.29,-0.64 -0.3,-0.64 -0.29,-0.65 -0.29,-0.65 -0.29,-0.64 -0.29,-0.65 -0.28,-0.65 -0.29,-0.65 -0.28,-0.65 -0.28,-0.65 -0.28,-0.65 -0.28,-0.65 -0.27,-0.65 -0.28,-0.66 -0.27,-0.65 -0.27,-0.66 -0.27,-0.65 -0.27,-0.66 -0.26,-0.65 -0.27,-0.66 -0.26,-0.66 -0.26,-0.66 -0.26,-0.66 -0.26,-0.66 -0.25,-0.66 -0.26,-0.66 -0.25,-0.66 -0.25,-0.67 -0.25,-0.66 -0.25,-0.66 -0.24,-0.67 -0.25,-0.66 -0.24,-0.67 -0.24,-0.67 -0.24,-0.66 -0.23,-0.67 -0.24,-0.67 -0.23,-0.67 -0.24,-0.67 -0.23,-0.67 -0.22,-0.67 -0.23,-0.67 -0.22,-0.67 -0.23,-0.68 -0.22,-0.67 -0.22,-0.67 -0.22,-0.68 -0.21,-0.67 -0.22,-0.68 -0.21,-0.67 -0.21,-0.68 -0.21,-0.68 -0.21,-0.68 -0.2,-0.67 -0.21,-0.68 -0.2,-0.68 -0.2,-0.68 -0.2,-0.68 -0.2,-0.68 -0.19,-0.68 -0.2,-0.69 -0.19,-0.68 -0.19,-0.68 -0.19,-0.68 -0.18,-0.69 -0.19,-0.68 -0.18,-0.69 -0.18,-0.68 -0.18,-0.69 -0.18,-0.68 -0.18,-0.69 -0.17,-0.69 -0.17,-0.68 -0.17,-0.69 -0.17,-0.69 -0.17,-0.69 -0.16,-0.69 -0.17,-0.69 -0.16,-0.69 -0.16,-0.69 -0.16,-0.69 -0.16,-0.69 -0.15,-0.69 -0.15,-0.69 -0.15,-0.69 -0.15,-0.7 -0.15,-0.69 -0.15,-0.69 -0.14,-0.7 -0.14,-0.69 -0.14,-0.7 -0.14,-0.69 -0.14,-0.7 -0.14,-0.69 -0.13,-0.7 -0.13,-0.69 -0.13,-0.7 -0.13,-0.7 -0.12,-0.7 -0.13,-0.69 -0.12,-0.7 -0.12,-0.7 -0.12,-0.7 -0.12,-0.7 -0.11,-0.7 -0.12,-0.7 -0.11,-0.7 -0.11,-0.7 -0.11,-0.7 -0.1,-0.7 -0.11,-0.7 -0.1,-0.7 -0.1,-0.7 -0.1,-0.7 -0.1,-0.7 -0.1,-0.71 -0.09,-0.7 -0.09,-0.7 -0.09,-0.7 -0.09,-0.71 -0.09,-0.7 -0.08,-0.7 -0.08,-0.71 -0.09,-0.7 -0.08,-0.71 -0.07,-0.7 -0.08,-0.7 -0.07,-0.71 -0.08,-0.7 -0.07,-0.71 -0.06,-0.7 -0.07,-0.71 -0.07,-0.71 -0.06,-0.7 -0.06,-0.71 -0.06,-0.7 -0.06,-0.71 -0.05,-0.71 -0.06,-0.7 -0.05,-0.71 -0.05,-0.71 -0.05,-0.7 -0.05,-0.71 -0.04,-0.71 -0.04,-0.71 -0.04,-0.7 -0.04,-0.71 -0.04,-0.71 -0.04,-0.71 -0.03,-0.7 -0.03,-0.71 -0.03,-0.71 -0.03,-0.71 -0.03,-0.71 -0.03,-0.7 -0.02,-0.71 -0.02,-0.71 -0.02,-0.71 -0.02,-0.71 -0.01,-0.71 -0.02,-0.7 -0.01,-0.71 -0.01,-0.71 -0.01,-0.71 0,-0.71 -0.01,-0.71 0,-0.71 0,-0.7 0,-0.17"
   style="fill:none;stroke:#000000;stroke-width:3.2;stroke-linecap:butt;stroke-linejoin:miter;stroke-miterlimit:2;stroke-opacity:1;stroke-dasharray:none"
   id="path14630"
   inkscape:connector-curvature="0" /><text
   xml:space="preserve"
   style="font-size:80px;font-style:normal;font-variant:normal;font-weight:normal;font-stretch:normal;text-align:start;line-height:125%;letter-spacing:0px;word-spacing:0px;writing-mode:lr-tb;text-anchor:start;fill:#000000;fill-opacity:1;stroke:none;font-family:Monospace;-inkscape-font-specification:Monospace"
   x="502.35156"
   y="-1631.5598"
   id="text15510"
   sodipodi:linespacing="125%"
   transform="scale(1,-1)"><tspan
     sodipodi:role="line"
     id="tspan15512"
     x="502.35156"
     y="-1631.5598">H</tspan></text>






<text
   xml:space="preserve"
   style="font-size:80px;font-style:normal;font-variant:normal;font-weight:normal;font-stretch:normal;text-align:start;line-height:125%;letter-spacing:0px;word-spacing:0px;writing-mode:lr-tb;text-anchor:start;fill:#000000;fill-opacity:1;stroke:none;font-family:Monospace;-inkscape-font-specification:Monospace"
   x="1809.6007"
   y="-1216.08"
   id="text15514"
   sodipodi:linespacing="125%"
   transform="scale(1,-1)"><tspan
     sodipodi:role="line"
     id="tspan15516"
     x="1809.6007"
     y="-1216.08">x</tspan></text>






<text
   xml:space="preserve"
   style="font-size:80px;font-style:normal;font-variant:normal;font-weight:normal;font-stretch:normal;text-align:start;line-height:125%;letter-spacing:0px;word-spacing:0px;writing-mode:lr-tb;text-anchor:start;fill:#000000;fill-opacity:1;stroke:none;font-family:Monospace;-inkscape-font-specification:Monospace"
   x="1201.6007"
   y="-2208.0801"
   id="text15518"
   sodipodi:linespacing="125%"
   transform="scale(1,-1)"><tspan
     sodipodi:role="line"
     id="tspan15520"
     x="1201.6007"
     y="-2208.0801">z</tspan></text>






<text
   xml:space="preserve"
   style="font-size:80px;font-style:normal;font-variant:normal;font-weight:normal;font-stretch:normal;text-align:start;line-height:125%;letter-spacing:0px;word-spacing:0px;writing-mode:lr-tb;text-anchor:start;fill:#000000;fill-opacity:1;stroke:none;font-family:SymbolPi;-inkscape-font-specification:SymbolPi"
   x="1368.9849"
   y="-1481.3181"
   id="text15522"
   sodipodi:linespacing="125%"
   transform="scale(1,-1)"><tspan
     sodipodi:role="line"
     id="tspan15524"
     x="1368.9849"
     y="-1481.3181">a</tspan></text>






<path
   style="fill:none;stroke:#000000;stroke-width:4.8;stroke-linecap:butt;stroke-linejoin:miter;stroke-miterlimit:4;stroke-opacity:1;stroke-dasharray:none;marker-start:none;marker-end:url(#Arrow1Lend)"
   d="m 1137.6,1300.88 0,960"
   id="path15528"
   inkscape:path-effect="#path-effect15530"
   inkscape:original-d="m 1137.6,1300.88 c 0,960 0,960 0,960"
   inkscape:connector-curvature="0" /><path
   style="fill:none;stroke:#000000;stroke-width:4.8;stroke-linecap:butt;stroke-linejoin:miter;stroke-miterlimit:4;stroke-opacity:1;stroke-dasharray:none;marker-start:none;marker-end:url(#Arrow1Lend)"
   d="m 1137.6,1291.28 704,0"
   id="path15532"
   inkscape:path-effect="#path-effect15534"
   inkscape:original-d="m 1137.6,1291.28 c 672,0 704,0 704,0"
   inkscape:connector-curvature="0" /><path
   style="fill:#808080;fill-opacity:0.25;fill-rule:nonzero;stroke:#000000;stroke-width:12.07519436;stroke-linejoin:round;stroke-miterlimit:4;stroke-opacity:1;stroke-dasharray:none"
   d="m 828.63321,2071.9115 638.18279,0 173.2789,-778.1433 -989.18348,0 z"
   id="rect3497"
   inkscape:connector-curvature="0"
   sodipodi:nodetypes="ccccc" /></g></svg>