<?xml version="1.0" encoding="UTF-8" standalone="no"?>
<!-- Created with Inkscape (http://www.inkscape.org/) -->

<svg
   xmlns:dc="http://purl.org/dc/elements/1.1/"
   xmlns:cc="http://creativecommons.org/ns#"
   xmlns:rdf="http://www.w3.org/1999/02/22-rdf-syntax-ns#"
   xmlns:svg="http://www.w3.org/2000/svg"
   xmlns="http://www.w3.org/2000/svg"
   xmlns:sodipodi="http://sodipodi.sourceforge.net/DTD/sodipodi-0.dtd"
   xmlns:inkscape="http://www.inkscape.org/namespaces/inkscape"
   id="svg3093"
   version="1.1"
   inkscape:version="0.48.2 r9819"
   width="1785.3105"
   height="1006.2548"
   xml:space="preserve"
   sodipodi:docname="Ripple12dyz.svg"><metadata
     id="metadata3099"><rdf:RDF><cc:Work
         rdf:about=""><dc:format>image/svg+xml</dc:format><dc:type
           rdf:resource="http://purl.org/dc/dcmitype/StillImage" /><dc:title /></cc:Work></rdf:RDF></metadata><defs
     id="defs3097"><inkscape:path-effect
       effect="spiro"
       id="path-effect5606"
       is_visible="true" /><inkscape:path-effect
       effect="spiro"
       id="path-effect5598"
       is_visible="true" /><inkscape:path-effect
       effect="spiro"
       id="path-effect4949"
       is_visible="true" /><marker
       inkscape:stockid="Arrow1Lend"
       orient="auto"
       refY="0"
       refX="0"
       id="Arrow1Lend"
       style="overflow:visible"><path
         id="path3937"
         d="M 0,0 5,-5 -12.5,0 5,5 0,0 z"
         style="fill-rule:evenodd;stroke:#000000;stroke-width:1pt;marker-start:none"
         transform="matrix(-0.8,0,0,-0.8,-10,0)"
         inkscape:connector-curvature="0" /></marker><marker
       inkscape:stockid="Arrow1Lstart"
       orient="auto"
       refY="0"
       refX="0"
       id="Arrow1Lstart"
       style="overflow:visible"><path
         id="path3934"
         d="M 0,0 5,-5 -12.5,0 5,5 0,0 z"
         style="fill-rule:evenodd;stroke:#000000;stroke-width:1pt;marker-start:none"
         transform="matrix(0.8,0,0,0.8,10,0)"
         inkscape:connector-curvature="0" /></marker><clipPath
       clipPathUnits="userSpaceOnUse"
       id="clipPath3129"><path
         d="m -0.03,-0.03 2384,0 0,3370.45 -2384,0"
         id="path3131"
         inkscape:connector-curvature="0" /></clipPath><clipPath
       clipPathUnits="userSpaceOnUse"
       id="clipPath3149"><path
         d="m -0.03,-0.03 2384,0 0,3370.45 -2384,0"
         id="path3151"
         inkscape:connector-curvature="0" /></clipPath></defs><sodipodi:namedview
     pagecolor="#ffffff"
     bordercolor="#666666"
     borderopacity="1"
     objecttolerance="10"
     gridtolerance="10"
     guidetolerance="10"
     inkscape:pageopacity="0"
     inkscape:pageshadow="2"
     inkscape:window-width="1693"
     inkscape:window-height="1081"
     id="namedview3095"
     showgrid="true"
     fit-margin-top="15"
     fit-margin-left="15"
     fit-margin-bottom="15"
     fit-margin-right="15"
     units="px"
     inkscape:zoom="1.55"
     inkscape:cx="820.55463"
     inkscape:cy="810.22175"
     inkscape:window-x="6"
     inkscape:window-y="0"
     inkscape:window-maximized="0"
     inkscape:current-layer="g3101"><inkscape:grid
       type="xygrid"
       id="grid4945"
       empspacing="5"
       visible="true"
       enabled="true"
       snapvisiblegridlinesonly="true" /></sodipodi:namedview><g
     id="g3101"
     inkscape:groupmode="layer"
     inkscape:label="Sinus_Blatt__2"
     transform="matrix(1.25,0,0,-1.25,-499.62891,2587.5903)"><path
   d="m 531.25426,1434.3235 -83.28017,0"
   style="fill:none;stroke:#000000;stroke-width:3.2;stroke-linecap:butt;stroke-linejoin:miter;stroke-miterlimit:2;stroke-opacity:1;stroke-dasharray:none"
   id="path3103"
   inkscape:connector-curvature="0" /><path
   d="m 1080.4666,1965.0177 -632.19023,0"
   style="fill:none;stroke:#000000;stroke-width:3.2;stroke-linecap:butt;stroke-linejoin:miter;stroke-miterlimit:2;stroke-opacity:1;stroke-dasharray:none"
   id="path3105"
   inkscape:connector-curvature="0" /><path
   d="m 503.47576,1436.4859 0,-121.7962"
   style="fill:none;stroke:#000000;stroke-width:3.2;stroke-linecap:butt;stroke-linejoin:miter;stroke-miterlimit:2;stroke-opacity:1;stroke-dasharray:none"
   id="path3107"
   inkscape:connector-curvature="0" /><path
   d="m 1667.7652,1436.4895 0,-121.8032"
   style="fill:none;stroke:#000000;stroke-width:3.2;stroke-linecap:butt;stroke-linejoin:miter;stroke-miterlimit:2;stroke-opacity:1;stroke-dasharray:none"
   id="path3109"
   inkscape:connector-curvature="0" /><path
   d="m 1085.6204,1434.5686 582.1448,0"
   style="fill:none;stroke:#000000;stroke-width:7.70109034;stroke-linecap:butt;stroke-linejoin:miter;stroke-miterlimit:2;stroke-opacity:1;stroke-dasharray:none"
   id="path3111"
   inkscape:connector-curvature="0" /><path
   d="m 1667.7652,1434.5686 0,0.8182"
   style="fill:none;stroke:#000000;stroke-width:1.92527258;stroke-linecap:butt;stroke-linejoin:miter;stroke-miterlimit:2;stroke-opacity:1;stroke-dasharray:none"
   id="path3113"
   inkscape:connector-curvature="0" /><path
   d="m 1667.7652,1435.3868 -18.2806,2.0119 -17.9627,2.9938 -17.6452,3.9468 -17.3178,4.9094 -16.9905,5.8528 -16.6632,6.7482 -9.8671,4.4858 -9.7322,4.7747 -19.0891,10.3868 -18.55,11.388 -17.9917,12.2448 -20.1576,15.1423 -19.4068,16.0567 -18.6751,16.8847 -17.9628,17.7028 -17.26,18.4827 -14.0545,16.2589 -13.4962,16.7498 -12.8993,17.2024 -12.2544,17.5777 -7.7973,11.9078 -7.4894,12.0426 -14.0737,24.4221 -12.0522,22.9877 -7.6144,15.5274 -14.5936,31.5456 -14.4877,32.1231 -7.5182,16.1819 -5.8528,12.1292 -6.1128,12.0523 -6.3629,11.8308 -6.7193,11.6093 -6.8251,10.8778 -7.2294,10.5024 -5.1693,6.8924 -5.3812,6.6422 -7.5278,8.4424 -7.9514,7.8936 -8.3845,7.3064 -5.6218,4.3511 -5.8143,4.072 -8.0477,4.9769 -8.4038,4.457 -8.7503,3.9179 -9.1162,3.3596 -9.4723,2.8012 -9.8382,2.2333 -7.5855,1.2996 -7.7974,0.9818 -8.0476,0.6643 -8.2499,0.3466"
   style="fill:none;stroke:#000000;stroke-width:12;stroke-linecap:butt;stroke-linejoin:miter;stroke-miterlimit:2;stroke-opacity:1;stroke-dasharray:none"
   id="path3115"
   inkscape:connector-curvature="0" /><path
   d="m 503.47576,1435.3868 18.28047,2.0119 17.96279,2.9938 17.64513,3.9468 17.31782,4.9094 16.99053,5.8528 16.66323,6.7482 9.86702,4.4858 9.73226,4.7747 19.08907,10.3868 18.55001,11.388 17.98205,12.2448 20.16723,15.1423 19.40674,16.0567 18.67514,16.8847 17.9628,17.7028 17.25044,18.4827 14.06412,16.2589 13.49616,16.7498 12.89933,17.2024 12.25436,17.5777 7.78773,11.9078 7.48931,12.0426 14.07374,24.4221 12.06183,22.9877 7.60483,15.5274 14.6032,31.5456 14.48767,32.1231 7.50856,16.1819 5.86245,12.1292 6.11275,12.0523 6.36302,11.8308 6.70958,11.6093 6.82508,10.8778 7.23904,10.5024 5.16935,6.8924 5.38113,6.6422 7.52781,8.4424 7.94172,7.8936 8.39423,7.3064 5.62184,4.3511 5.80467,4.072 8.0573,4.9769 8.4037,4.457 8.7504,3.9179 9.1162,3.3596 9.4723,2.8012 9.8382,2.2333 7.5855,1.2996 7.7974,0.9818 8.0476,0.6643 8.2498,0.3466"
   style="fill:none;stroke:#000000;stroke-width:12;stroke-linecap:butt;stroke-linejoin:miter;stroke-miterlimit:2;stroke-opacity:1;stroke-dasharray:none"
   id="path3117"
   inkscape:connector-curvature="0" /><path
   d="m 503.47576,1434.5686 0,0.8182"
   style="fill:none;stroke:#000000;stroke-width:2;stroke-linecap:butt;stroke-linejoin:miter;stroke-miterlimit:2;stroke-opacity:1;stroke-dasharray:none"
   id="path3119"
   inkscape:connector-curvature="0" /><path
   d="m 1085.6204,1434.5686 -582.14464,0"
   style="fill:none;stroke:#000000;stroke-width:8;stroke-linecap:butt;stroke-linejoin:miter;stroke-miterlimit:2;stroke-opacity:1;stroke-dasharray:none"
   id="path3121"
   inkscape:connector-curvature="0" /><path
   d="m 481.44101,1439.3573 0,521.7311"
   style="fill:none;stroke:#000000;stroke-width:3.19210744;stroke-linecap:butt;stroke-linejoin:miter;stroke-miterlimit:2;stroke-opacity:1;stroke-dasharray:none;marker-start:url(#Arrow1Lstart);marker-end:url(#Arrow1Lend)"
   id="path3141"
   inkscape:connector-curvature="0" /><path
   d="m 506.73981,1354.2846 1157.15609,0"
   style="fill:none;stroke:#000000;stroke-width:3.2;stroke-linecap:butt;stroke-linejoin:miter;stroke-miterlimit:2;stroke-opacity:1;stroke-dasharray:none;marker-start:url(#Arrow1Lstart);marker-end:url(#Arrow1Lend)"
   id="path3161"
   inkscape:connector-curvature="0" /><text
   xml:space="preserve"
   style="font-size:80px;font-style:normal;font-variant:normal;font-weight:normal;font-stretch:normal;text-align:start;line-height:125%;letter-spacing:0px;word-spacing:0px;writing-mode:lr-tb;text-anchor:start;fill:#000000;fill-opacity:1;stroke:none;font-family:Monospace;-inkscape-font-specification:Monospace"
   x="1054.3519"
   y="-1277.0684"
   id="text4929"
   sodipodi:linespacing="125%"
   transform="scale(1,-1)"><tspan
     sodipodi:role="line"
     id="tspan4931"
     x="1054.3519"
     y="-1277.0684">W</tspan></text>





<text
   xml:space="preserve"
   style="font-size:80px;font-style:normal;font-variant:normal;font-weight:normal;font-stretch:normal;text-align:start;line-height:125%;letter-spacing:0px;word-spacing:0px;writing-mode:lr-tb;text-anchor:start;fill:#000000;fill-opacity:1;stroke:none;font-family:Monospace;-inkscape-font-specification:Monospace"
   x="406.35156"
   y="-1667.4683"
   id="text4933"
   sodipodi:linespacing="125%"
   transform="scale(1,-1)"><tspan
     sodipodi:role="line"
     id="tspan4935"
     x="406.35156"
     y="-1667.4683">H</tspan></text>





<text
   xml:space="preserve"
   style="font-size:80px;font-style:normal;font-variant:normal;font-weight:normal;font-stretch:normal;text-align:start;line-height:125%;letter-spacing:0px;word-spacing:0px;writing-mode:lr-tb;text-anchor:start;fill:#000000;fill-opacity:1;stroke:none;font-family:Monospace;-inkscape-font-specification:Monospace"
   x="1759.9514"
   y="-1353.8682"
   id="text4937"
   sodipodi:linespacing="125%"
   transform="scale(1,-1)"><tspan
     sodipodi:role="line"
     id="tspan4939"
     x="1759.9514"
     y="-1353.8682">y</tspan></text>





<text
   xml:space="preserve"
   style="font-size:80px;font-style:normal;font-variant:normal;font-weight:normal;font-stretch:normal;text-align:start;line-height:125%;letter-spacing:0px;word-spacing:0px;writing-mode:lr-tb;text-anchor:start;fill:#000000;fill-opacity:1;stroke:none;font-family:Monospace;-inkscape-font-specification:Monospace"
   x="1111.9515"
   y="-2009.8684"
   id="text4941"
   sodipodi:linespacing="125%"
   transform="scale(1,-1)"><tspan
     sodipodi:role="line"
     id="tspan4943"
     x="1111.9515"
     y="-2009.8684">z</tspan></text>





<path
   style="fill:none;stroke:#000000;stroke-width:4.8;stroke-linecap:butt;stroke-linejoin:miter;stroke-miterlimit:4;stroke-opacity:1;stroke-dasharray:none;marker-start:url(#Arrow1Lstart);marker-end:url(#Arrow1Lend)"
   d="m 1086.9662,2056.4722 0,-621.3087 727.3854,0"
   id="path4947"
   inkscape:path-effect="#path-effect4949"
   inkscape:original-d="m 1086.9662,2056.4722 c 0,0 0,0 0,-621.3087 727.3854,0 727.3854,0 727.3854,0"
   inkscape:connector-curvature="0" /><path
   style="fill:#808080;fill-opacity:0.25;stroke:#000000;stroke-width:0.80000001px;stroke-linecap:butt;stroke-linejoin:miter;stroke-opacity:1"
   d="m 503.70313,1434.7483 1159.99997,0 -104,32 -40,16 -72,56 -40,40 -40,40 -32,48 -64,128 -32,64 -24,40 -40,40 -32,16 -40,8 -24,0 -32,0 c -10.6667,-5.3333 -21.3333,-10.6667 -32,-16 -10.6667,-5.3333 -21.33331,-10.6667 -31.99997,-16 l -24,-24 c -5.47818,-7.9022 -10.81269,-15.9039 -16,-24 -8.38974,-13.0943 -16.39435,-26.4353 -24,-40 l -24,-56 -24,-56 c -7.62617,-13.5529 -15.63032,-26.8932 -24,-40 -10.34971,-16.2075 -21.25433,-32.0522 -32,-48 -5.37269,-7.9737 -10.70611,-15.9738 -16,-24 l -40,-48 -40,-32 -16,-16 -32,-24 -40,-24 c -13.21786,-5.6162 -26.55522,-10.9511 -40,-16 -23.6889,-8.8958 -47.71138,-16.9033 -72,-24"
   id="path5604"
   inkscape:path-effect="#path-effect5606"
   inkscape:original-d="m 503.70313,1434.7483 1159.99997,0 -104,32 -40,16 -72,56 -40,40 -40,40 -32,48 -64,128 -32,64 -24,40 -40,40 -32,16 -40,8 -24,0 -32,0 -32,-16 -31.99997,-16 -24,-24 -16,-24 -24,-40 -24,-56 -24,-56 -24,-40 -32,-48 -16,-24 -40,-48 -40,-32 -16,-16 -32,-24 -40,-24 -40,-16 -72,-24"
   inkscape:connector-curvature="0" /></g></svg>