<?xml version="1.0" encoding="UTF-8" standalone="no"?>
<!-- Created with Inkscape (http://www.inkscape.org/) -->

<svg
   xmlns:dc="http://purl.org/dc/elements/1.1/"
   xmlns:cc="http://creativecommons.org/ns#"
   xmlns:rdf="http://www.w3.org/1999/02/22-rdf-syntax-ns#"
   xmlns:svg="http://www.w3.org/2000/svg"
   xmlns="http://www.w3.org/2000/svg"
   xmlns:sodipodi="http://sodipodi.sourceforge.net/DTD/sodipodi-0.dtd"
   xmlns:inkscape="http://www.inkscape.org/namespaces/inkscape"
   id="svg5524"
   version="1.1"
   inkscape:version="0.48.2 r9819"
   width="1861.8475"
   height="2320.4978"
   xml:space="preserve"
   sodipodi:docname="Spheroid2dxz.svg"><metadata
     id="metadata5530"><rdf:RDF><cc:Work
         rdf:about=""><dc:format>image/svg+xml</dc:format><dc:type
           rdf:resource="http://purl.org/dc/dcmitype/StillImage" /><dc:title /></cc:Work></rdf:RDF></metadata><defs
     id="defs5528"><inkscape:path-effect
       effect="spiro"
       id="path-effect7404"
       is_visible="true" /><inkscape:path-effect
       effect="spiro"
       id="path-effect7400"
       is_visible="true" /><inkscape:path-effect
       effect="spiro"
       id="path-effect7396"
       is_visible="true" /><inkscape:path-effect
       effect="spiro"
       id="path-effect6840"
       is_visible="true" /><marker
       inkscape:stockid="Arrow1Lend"
       orient="auto"
       refY="0"
       refX="0"
       id="Arrow1Lend"
       style="overflow:visible"><path
         id="path4395"
         d="M 0,0 5,-5 -12.5,0 5,5 0,0 z"
         style="fill-rule:evenodd;stroke:#000000;stroke-width:1pt;marker-start:none"
         transform="matrix(-0.8,0,0,-0.8,-10,0)"
         inkscape:connector-curvature="0" /></marker><marker
       inkscape:stockid="Arrow1Lstart"
       orient="auto"
       refY="0"
       refX="0"
       id="Arrow1Lstart"
       style="overflow:visible"><path
         id="path4392"
         d="M 0,0 5,-5 -12.5,0 5,5 0,0 z"
         style="fill-rule:evenodd;stroke:#000000;stroke-width:1pt;marker-start:none"
         transform="matrix(0.8,0,0,0.8,10,0)"
         inkscape:connector-curvature="0" /></marker><clipPath
       clipPathUnits="userSpaceOnUse"
       id="clipPath5556"><path
         d="m -0.03,-0.03 2384,0 0,3370.45 -2384,0"
         id="path5558"
         inkscape:connector-curvature="0" /></clipPath><clipPath
       clipPathUnits="userSpaceOnUse"
       id="clipPath5576"><path
         d="m -0.03,-0.03 2384,0 0,3370.45 -2384,0"
         id="path5578"
         inkscape:connector-curvature="0" /></clipPath><clipPath
       clipPathUnits="userSpaceOnUse"
       id="clipPath4939"><rect
         style="fill:#ffffff;fill-opacity:1;fill-rule:nonzero;stroke:none"
         id="rect4941"
         width="483.23834"
         height="596.9826"
         x="-919.10553"
         y="362.76535" /></clipPath></defs><sodipodi:namedview
     pagecolor="#ffffff"
     bordercolor="#666666"
     borderopacity="1"
     objecttolerance="10"
     gridtolerance="10"
     guidetolerance="10"
     inkscape:pageopacity="0"
     inkscape:pageshadow="2"
     inkscape:window-width="1398"
     inkscape:window-height="1069"
     id="namedview5526"
     showgrid="true"
     fit-margin-left="15"
     units="px"
     fit-margin-top="15"
     fit-margin-bottom="15"
     fit-margin-right="15"
     inkscape:zoom="1"
     inkscape:cx="499.54359"
     inkscape:cy="419.25134"
     inkscape:window-x="220"
     inkscape:window-y="37"
     inkscape:window-maximized="0"
     inkscape:current-layer="g5532"><inkscape:grid
       type="xygrid"
       id="grid6836"
       empspacing="5"
       visible="true"
       enabled="true"
       snapvisiblegridlinesonly="true" /></sodipodi:namedview><g
     id="g5532"
     inkscape:groupmode="layer"
     inkscape:label="Spheroid_Blatt__2"
     transform="matrix(1.25,0,0,-1.25,-529.68945,3110.9475)"><path
   d="m 748.80156,837.13995 -312.05,0"
   style="fill:none;stroke:#000000;stroke-width:2;stroke-linecap:butt;stroke-linejoin:miter;stroke-miterlimit:2;stroke-opacity:1;stroke-dasharray:none"
   id="path5534"
   inkscape:connector-curvature="0" /><path
   d="m 1146.7605,2282.0896 -710.03796,0"
   style="fill:none;stroke:#000000;stroke-width:3.2;stroke-linecap:butt;stroke-linejoin:miter;stroke-miterlimit:2;stroke-opacity:1;stroke-dasharray:none"
   id="path5536"
   inkscape:connector-curvature="0" /><path
   d="m 1132.6316,1238.79 634.07,0"
   style="fill:none;stroke:#000000;stroke-width:3.2;stroke-linecap:butt;stroke-linejoin:miter;stroke-miterlimit:2;stroke-opacity:1;stroke-dasharray:none"
   id="path5538"
   inkscape:connector-curvature="0" /><path
   d="m 1139.0316,2282.07 634.07,0"
   style="fill:none;stroke:#000000;stroke-width:3.2;stroke-linecap:butt;stroke-linejoin:miter;stroke-miterlimit:2;stroke-opacity:1;stroke-dasharray:none"
   id="path5540"
   inkscape:connector-curvature="0" /><path
   d="m 717.67156,841.93995 614.98004,0"
   style="fill:none;stroke:#000000;stroke-width:12;stroke-linecap:butt;stroke-linejoin:miter;stroke-miterlimit:2;stroke-opacity:1;stroke-dasharray:none;fill-opacity:0.25000000000000000"
   id="path5542"
   inkscape:connector-curvature="0" /><path
   d="m 1332.6516,841.93995 216.39,0"
   style="fill:none;stroke:#000000;stroke-width:12;stroke-linecap:round;stroke-linejoin:miter;stroke-miterlimit:2;stroke-opacity:1;stroke-dasharray:none"
   id="path5544"
   inkscape:connector-curvature="0" /><path
   d="m 1133.3616,2277.27 -0.31,0 -0.31,0 -0.3,-0.01 -0.31,0 -0.31,0 -0.31,0 -0.3,-0.01 -0.31,0 -0.31,0 -0.3,-0.01 -0.31,0 -0.31,-0.01 -0.3,0 -0.31,-0.01 -0.31,-0.01 -0.3,-0.01 -0.31,0 -0.31,-0.01 -0.31,-0.01 -0.3,-0.01 -0.31,-0.01 -0.31,-0.01 -0.3,-0.01 -0.31,-0.01 -0.31,-0.02 -0.3,-0.01 -0.31,-0.01 -0.31,-0.01 -0.3,-0.02 -0.31,-0.01 -0.31,-0.02 -0.31,-0.01 -0.3,-0.02 -0.31,-0.01 -0.31,-0.02 -0.3,-0.02 -0.31,-0.01 -0.31,-0.02 -0.3,-0.02 -0.31,-0.02 -0.31,-0.02 -0.3,-0.02 -0.31,-0.02 -0.31,-0.02 -0.3,-0.02 -0.31,-0.03 -0.31,-0.02 -0.31,-0.02 -0.3,-0.02 -0.31,-0.03 -0.31,-0.02 -0.3,-0.03 -0.31,-0.02 -0.31,-0.03 -0.3,-0.03 -0.31,-0.02 -0.31,-0.03 -0.3,-0.03 -0.31,-0.03 -0.31,-0.02 -0.3,-0.03 -0.31,-0.03 -0.31,-0.03 -0.3,-0.03 -0.31,-0.04 -0.31,-0.03 -0.3,-0.03 -0.31,-0.03 -0.31,-0.04 -0.3,-0.03 -0.31,-0.03 -0.31,-0.04 -0.3,-0.03 -0.31,-0.04 -0.31,-0.03 -0.3,-0.04 -0.31,-0.04 -0.31,-0.03 -0.3,-0.04 -0.31,-0.04 -0.3,-0.04 -0.31,-0.04 -0.31,-0.04 -0.3,-0.04 -0.31,-0.04 -0.31,-0.04 -0.3,-0.04 -0.31,-0.05 -0.31,-0.04 -0.3,-0.04 -0.31,-0.05 -0.31,-0.04 -0.3,-0.04 -0.31,-0.05 -0.3,-0.05 -0.31,-0.04 -0.31,-0.05 -0.3,-0.05 -0.31,-0.04 -0.31,-0.05 -0.3,-0.05 -0.31,-0.05 -0.3,-0.05 -0.31,-0.05 -0.31,-0.05 -0.3,-0.05 -0.31,-0.05 -0.31,-0.05 -0.3,-0.06 -0.31,-0.05 -0.3,-0.05 -0.31,-0.06 -0.31,-0.05 -0.3,-0.05 -0.31,-0.06 -0.3,-0.06 -0.31,-0.05 -0.31,-0.06 -0.3,-0.06 -0.31,-0.05 -0.3,-0.06 -0.31,-0.06 -0.31,-0.06 -0.3,-0.06 -0.31,-0.06 -0.3,-0.06 -0.31,-0.06 -0.3,-0.06 -0.31,-0.07 -0.31,-0.06 -0.3,-0.06 -0.31,-0.06 -0.3,-0.07 -0.31,-0.06 -0.31,-0.07 -0.3,-0.06 -0.31,-0.07 -0.3,-0.07 -0.31,-0.06 -0.3,-0.07 -0.31,-0.07 -0.3,-0.07 -0.31,-0.06 -0.31,-0.07 -0.3,-0.07 -0.31,-0.07 -0.3,-0.07 -0.31,-0.08 -0.3,-0.07 -0.31,-0.07 -0.3,-0.07 -0.31,-0.08 -0.3,-0.07 -0.31,-0.07 -0.3,-0.08 -0.31,-0.07 -0.3,-0.08 -0.31,-0.07 -0.31,-0.08 -0.3,-0.08 -0.31,-0.08 -0.3,-0.07 -0.31,-0.08 -0.3,-0.08 -0.31,-0.08 -0.3,-0.08 -0.31,-0.08 -0.3,-0.08 -0.31,-0.08 -0.3,-0.08 -0.31,-0.09 -0.3,-0.08 -0.31,-0.08 -0.3,-0.09 -0.3,-0.08 -0.31,-0.08 -0.3,-0.09 -0.31,-0.09 -0.3,-0.08 -0.31,-0.09 -0.3,-0.09 -0.31,-0.08 -0.3,-0.09 -0.31,-0.09 -0.3,-0.09 -0.31,-0.09 -0.3,-0.09 -0.3,-0.09 -0.31,-0.09 -0.3,-0.09 -0.31,-0.09 -0.3,-0.09 -0.31,-0.1 -0.3,-0.09 -0.31,-0.09 -0.3,-0.1 -0.3,-0.09 -0.31,-0.1 -0.3,-0.09 -0.31,-0.1 -0.3,-0.1 -0.3,-0.09 -0.31,-0.1 -0.3,-0.1 -0.31,-0.1 -0.3,-0.1 -0.3,-0.1 -0.31,-0.1 -0.3,-0.1 -0.31,-0.1 -0.3,-0.1 -0.3,-0.1 -0.31,-0.1 -0.3,-0.11 -0.3,-0.1 -0.31,-0.1 -0.3,-0.11 -0.31,-0.1 -0.3,-0.11 -0.3,-0.11 -0.31,-0.1 -0.3,-0.11 -0.3,-0.11 -0.31,-0.1 -0.3,-0.11 -0.3,-0.11 -0.31,-0.11 -0.3,-0.11 -0.3,-0.11 -0.31,-0.11 -0.3,-0.11 -0.3,-0.11 -0.31,-0.11 -0.3,-0.12 -0.3,-0.11 -0.3,-0.11 -0.31,-0.12 -0.3,-0.11 -0.3,-0.12 -0.31,-0.11 -0.3,-0.12 -0.3,-0.11 -0.3,-0.12 -0.31,-0.12 -0.3,-0.11 -0.3,-0.12 -0.31,-0.12 -0.3,-0.12 -0.3,-0.12 -0.3,-0.12 -0.31,-0.12 -0.3,-0.12 -0.3,-0.12 -0.3,-0.12 -0.3,-0.13 -0.31,-0.12 -0.3,-0.12 -0.3,-0.13 -0.3,-0.12 -0.31,-0.13 -0.3,-0.12 -0.3,-0.13 -0.3,-0.12 -0.3,-0.13 -0.31,-0.13 -0.3,-0.13 -0.3,-0.12 -0.3,-0.13 -0.3,-0.13 -0.31,-0.13 -0.3,-0.13 -0.3,-0.13 -0.3,-0.13 -0.3,-0.13 -0.3,-0.14 -0.31,-0.13 -0.3,-0.13 -0.3,-0.14 -0.3,-0.13 -0.3,-0.13 -0.3,-0.14 -0.3,-0.13 -0.31,-0.14 -0.3,-0.14 -0.3,-0.13 -0.3,-0.14 -0.3,-0.14 -0.3,-0.14 -0.3,-0.13 -0.3,-0.14 -0.3,-0.14 -0.3,-0.14 -0.31,-0.14 -0.3,-0.14 -0.3,-0.15 -0.3,-0.14 -0.3,-0.14 -0.3,-0.14 -0.3,-0.15 -0.3,-0.14 -0.3,-0.14 -0.3,-0.15 -0.3,-0.14 -0.3,-0.15 -0.3,-0.15 -0.3,-0.14 -0.3,-0.15 -0.3,-0.15 -0.3,-0.15 -0.3,-0.14 -0.3,-0.15 -0.3,-0.15 -0.3,-0.15 -0.3,-0.15 -0.3,-0.15 -0.3,-0.16 -0.3,-0.15 -0.3,-0.15 -0.3,-0.15 -0.3,-0.16 -0.3,-0.15 -0.3,-0.15 -0.3,-0.16 -0.3,-0.15 -0.3,-0.16 -0.3,-0.16 -0.3,-0.15 -0.3,-0.16 -0.3,-0.16 -0.3,-0.15 -0.3,-0.16 -0.3,-0.16 -0.3,-0.16 -0.29,-0.16 -0.3,-0.16 -0.3,-0.16 -0.3,-0.16 -0.3,-0.17 -0.3,-0.16 -0.3,-0.16 -0.3,-0.16 -0.29,-0.17 -0.3,-0.16 -0.3,-0.17 -0.3,-0.16 -0.3,-0.17 -0.3,-0.16 -0.3,-0.17 -0.29,-0.17 -0.3,-0.16 -0.3,-0.17 -0.3,-0.17 -0.3,-0.17 -0.29,-0.17 -0.3,-0.17 -0.3,-0.17 -0.3,-0.17 -0.3,-0.17 -0.29,-0.17 -0.3,-0.17 -0.3,-0.18 -0.3,-0.17 -0.3,-0.17 -0.29,-0.18 -0.3,-0.17 -0.3,-0.18 -0.3,-0.17 -0.29,-0.18 -0.3,-0.17 -0.3,-0.18 -0.29,-0.18 -0.3,-0.18 -0.3,-0.17 -0.3,-0.18 -0.29,-0.18 -0.3,-0.18 -0.3,-0.18 -0.29,-0.18 -0.3,-0.18 -0.3,-0.18 -0.29,-0.19 -0.3,-0.18 -0.3,-0.18 -0.29,-0.18 -0.3,-0.19 -0.3,-0.18 -0.29,-0.19 -0.3,-0.18 -0.3,-0.19 -0.29,-0.18 -0.3,-0.19 -0.29,-0.19 -0.3,-0.19 -0.3,-0.18 -0.29,-0.19 -0.3,-0.19 -0.29,-0.19 -0.3,-0.19 -0.29,-0.19 -0.3,-0.19 -0.3,-0.19 -0.29,-0.19 -0.3,-0.2 -0.29,-0.19 -0.3,-0.19 -0.29,-0.2 -0.3,-0.19 -0.29,-0.2 -0.3,-0.19 -0.29,-0.2 -0.3,-0.19 -0.29,-0.2 -0.3,-0.19 -0.29,-0.2 -0.3,-0.2 -0.29,-0.2 -0.3,-0.2 -0.29,-0.2 -0.3,-0.2 -0.29,-0.2 -0.3,-0.2 -0.29,-0.2 -0.29,-0.2 -0.3,-0.2 -0.29,-0.2 -0.3,-0.21 -0.29,-0.2 -0.29,-0.2 -0.3,-0.21 -0.29,-0.2 -0.3,-0.21 -0.29,-0.2 -0.29,-0.21 -0.3,-0.21 -0.29,-0.2 -0.29,-0.21 -0.3,-0.21 -0.29,-0.21 -0.29,-0.21 -0.3,-0.21 -0.29,-0.21 -0.29,-0.21 -0.3,-0.21 -0.29,-0.21 -0.29,-0.21 -0.3,-0.21 -0.29,-0.21 -0.29,-0.22 -0.29,-0.21 -0.3,-0.21 -0.29,-0.22 -0.29,-0.21 -0.29,-0.22 -0.3,-0.21 -0.29,-0.22 -0.29,-0.22 -0.29,-0.22 -0.3,-0.21 -0.29,-0.22 -0.29,-0.22 -0.29,-0.22 -0.29,-0.22 -0.29,-0.22 -0.3,-0.22 -0.29,-0.22 -0.29,-0.22 -0.29,-0.22 -0.29,-0.22 -0.29,-0.23 -0.3,-0.22 -0.29,-0.22 -0.29,-0.23 -0.29,-0.22 -0.29,-0.23 -0.29,-0.22 -0.29,-0.23 -0.29,-0.23 -0.29,-0.22 -0.29,-0.23 -0.3,-0.23 -0.29,-0.23 -0.29,-0.22 -0.29,-0.23 -0.29,-0.23 -0.29,-0.23 -0.29,-0.23 -0.29,-0.23 -0.29,-0.24 -0.29,-0.23 -0.29,-0.23 -0.29,-0.23 -0.29,-0.24 -0.29,-0.23 -0.29,-0.23 -0.29,-0.24 -0.29,-0.23 -0.29,-0.24 -0.29,-0.24 -0.29,-0.23 -0.28,-0.24 -0.29,-0.24 -0.29,-0.23 -0.29,-0.24 -0.29,-0.24 -0.29,-0.24 -0.29,-0.24 -0.29,-0.24 -0.29,-0.24 -0.29,-0.24 -0.28,-0.24 -0.29,-0.24 -0.29,-0.25 -0.29,-0.24 -0.29,-0.24 -0.29,-0.25 -0.28,-0.24 -0.29,-0.25 -0.29,-0.24 -0.29,-0.25 -0.29,-0.24 -0.28,-0.25 -0.29,-0.25 -0.29,-0.24 -0.29,-0.25 -0.28,-0.25 -0.29,-0.25 -0.29,-0.25 -0.29,-0.25 -0.28,-0.25 -0.29,-0.25 -0.29,-0.25 -0.28,-0.25 -0.29,-0.25 -0.29,-0.25 -0.29,-0.26 -0.28,-0.25 -0.29,-0.25 -0.29,-0.26 -0.28,-0.25 -0.29,-0.26 -0.28,-0.25 -0.29,-0.26 -0.29,-0.26 -0.28,-0.25 -0.29,-0.26 -0.28,-0.26 -0.29,-0.26 -0.29,-0.25 -0.28,-0.26 -0.29,-0.26 -0.28,-0.26 -0.29,-0.26 -0.28,-0.26 -0.29,-0.27 -0.28,-0.26 -0.29,-0.26 -0.29,-0.26 -0.28,-0.27 -0.29,-0.26 -0.28,-0.26 -0.28,-0.27 -0.29,-0.26 -0.28,-0.27 -0.29,-0.26 -0.28,-0.27 -0.29,-0.27 -0.28,-0.26 -0.29,-0.27 -0.28,-0.27 -0.28,-0.27 -0.29,-0.27 -0.28,-0.27 -0.29,-0.27 -0.28,-0.27 -0.28004,-0.27 -0.29,-0.27 -0.28,-0.27 -0.28,-0.27 -0.29,-0.28 -0.28,-0.27 -0.28,-0.27 -0.29,-0.28 -0.28,-0.27 -0.28,-0.27 -0.29,-0.28 -0.28,-0.28 -0.28,-0.27 -0.28,-0.28 -0.29,-0.28 -0.28,-0.27 -0.28,-0.28 -0.28,-0.28 -0.29,-0.28 -0.28,-0.28 -0.28,-0.28 -0.28,-0.28 -0.28,-0.28 -0.29,-0.28 -0.28,-0.28 -0.28,-0.28 -0.28,-0.28 -0.28,-0.29 -0.28,-0.28 -0.28,-0.28 -0.29,-0.29 -0.28,-0.28 -0.28,-0.29 -0.28,-0.28 -0.28,-0.29 -0.28,-0.29 -0.28,-0.28 -0.28,-0.29 -0.28,-0.29 -0.28,-0.28 -0.28,-0.29 -0.28,-0.29 -0.28,-0.29 -0.28,-0.29 -0.28,-0.29 -0.28,-0.29 -0.28,-0.29 -0.28,-0.3 -0.28,-0.29 -0.28,-0.29 -0.28,-0.29 -0.28,-0.3 -0.28,-0.29 -0.28,-0.29 -0.28,-0.3 -0.28,-0.29 -0.28,-0.3 -0.28,-0.3 -0.28,-0.29 -0.27,-0.3 -0.28,-0.3 -0.28,-0.29 -0.28,-0.3 -0.28,-0.3 -0.28,-0.3 -0.27,-0.3 -0.28,-0.3 -0.28,-0.3 -0.28,-0.3 -0.28,-0.3 -0.27,-0.3 -0.28,-0.31 -0.28,-0.3 -0.28,-0.3 -0.27,-0.31 -0.28,-0.3 -0.28,-0.3 -0.28,-0.31 -0.27,-0.3 -0.28,-0.31 -0.28,-0.31 -0.27,-0.3 -0.28,-0.31 -0.28,-0.31 -0.27,-0.3 -0.28,-0.31 -0.28,-0.31 -0.27,-0.31 -0.28,-0.31 -0.27,-0.31 -0.28,-0.31 -0.28,-0.31 -0.27,-0.31 -0.28,-0.31 -0.27,-0.32 -0.28,-0.31 -0.27,-0.31 -0.28,-0.32 -0.27,-0.31 -0.28,-0.31 -0.27,-0.32 -0.28,-0.31 -0.27,-0.32 -0.28,-0.32 -0.27,-0.31 -0.28,-0.32 -0.27,-0.32 -0.28,-0.31 -0.27,-0.32 -0.28,-0.32 -0.27,-0.32 -0.27,-0.32 -0.28,-0.32 -0.27,-0.32 -0.27,-0.32 -0.28,-0.32 -0.27,-0.32 -0.28,-0.33 -0.27,-0.32 -0.27,-0.32 -0.28,-0.33 -0.27,-0.32 -0.27,-0.32 -0.27,-0.33 -0.28,-0.32 -0.27,-0.33 -0.27,-0.32 -0.27,-0.33 -0.28,-0.33 -0.27,-0.33 -0.27,-0.32 -0.27,-0.33 -0.28,-0.33 -0.27,-0.33 -0.27,-0.33 -0.27,-0.33 -0.27,-0.33 -0.27,-0.33 -0.27,-0.33 -0.28,-0.33 -0.27,-0.33 -0.27,-0.34 -0.27,-0.33 -0.27,-0.33 -0.27,-0.34 -0.27,-0.33 -0.27,-0.33 -0.27,-0.34 -0.27,-0.33 -0.27,-0.34 -0.27,-0.34 -0.27,-0.33 -0.27,-0.34 -0.27,-0.34 -0.27,-0.34 -0.27,-0.33 -0.27,-0.34 -0.27,-0.34 -0.27,-0.34 -0.27,-0.34 -0.27,-0.34 -0.27,-0.34 -0.27,-0.35 -0.27,-0.34 -0.27,-0.34 -0.27,-0.34 -0.26,-0.35 -0.27,-0.34 -0.27,-0.34 -0.27,-0.35 -0.27,-0.34 -0.27,-0.35 -0.26,-0.34 -0.27,-0.35 -0.27,-0.34 -0.27,-0.35 -0.26,-0.35 -0.27,-0.35 -0.27,-0.34 -0.27,-0.35 -0.26,-0.35 -0.27,-0.35 -0.27,-0.35 -0.26,-0.35 -0.27,-0.35 -0.27,-0.35 -0.26,-0.35 -0.27,-0.36 -0.27,-0.35 -0.26,-0.35 -0.27,-0.35 -0.27,-0.36 -0.26,-0.35 -0.27,-0.36 -0.26,-0.35 -0.27,-0.36 -0.26,-0.35 -0.27,-0.36 -0.26,-0.36 -0.27,-0.35 -0.26,-0.36 -0.27,-0.36 -0.26,-0.36 -0.27,-0.35 -0.26,-0.36 -0.27,-0.36 -0.26,-0.36 -0.27,-0.36 -0.26,-0.36 -0.27,-0.36 -0.26,-0.37 -0.26,-0.36 -0.27,-0.36 -0.26,-0.36 -0.26,-0.37 -0.27,-0.36 -0.26,-0.36 -0.26,-0.37 -0.27,-0.36 -0.26,-0.37 -0.26,-0.36 -0.27,-0.37 -0.26,-0.37 -0.26,-0.36 -0.26,-0.37 -0.27,-0.37 -0.26,-0.37 -0.26,-0.37 -0.26,-0.36 -0.27,-0.37 -0.26,-0.37 -0.26,-0.37 -0.26,-0.37 -0.26,-0.38 -0.26,-0.37 -0.27,-0.37 -0.26,-0.37 -0.26,-0.37 -0.26,-0.38 -0.26,-0.37 -0.26,-0.37 -0.26,-0.38 -0.26,-0.37 -0.26,-0.38 -0.26,-0.37 -0.26,-0.38 -0.26,-0.38 -0.26,-0.37 -0.26,-0.38 -0.26,-0.38 -0.26,-0.38 -0.26,-0.37 -0.26,-0.38 -0.26,-0.38 -0.26,-0.38 -0.26,-0.38 -0.26,-0.38 -0.26,-0.38 -0.25,-0.38 -0.26,-0.39 -0.26,-0.38 -0.26,-0.38 -0.26,-0.38 -0.26,-0.39 -0.25,-0.38 -0.26,-0.39 -0.26,-0.38 -0.26,-0.38 -0.26,-0.39 -0.25,-0.39 -0.26,-0.38 -0.26,-0.39 -0.26,-0.39 -0.25,-0.38 -0.26,-0.39 -0.26,-0.39 -0.25,-0.39 -0.26,-0.39 -0.26,-0.39 -0.25,-0.39 -0.26,-0.39 -0.25,-0.39 -0.26,-0.39 -0.26,-0.39 -0.25,-0.39 -0.26,-0.39 -0.25,-0.4 -0.26,-0.39 -0.25,-0.39 -0.26,-0.4 -0.25,-0.39 -0.26,-0.39 -0.25,-0.4 -0.26,-0.4 -0.25,-0.39 -0.26,-0.4 -0.25,-0.39 -0.26,-0.4 -0.25,-0.4 -0.25,-0.4 -0.26,-0.39 -0.25,-0.4 -0.26,-0.4 -0.25,-0.4 -0.25,-0.4 -0.26,-0.4 -0.25,-0.4 -0.25,-0.4 -0.26,-0.4 -0.25,-0.41 -0.25,-0.4 -0.25,-0.4 -0.26,-0.4 -0.25,-0.41 -0.25,-0.4 -0.25,-0.41 -0.26,-0.4 -0.25,-0.41 -0.25,-0.4 -0.25,-0.41 -0.25,-0.4 -0.25,-0.41 -0.25,-0.41 -0.26,-0.4 -0.25,-0.41 -0.25,-0.41 -0.25,-0.41 -0.25,-0.41 -0.25,-0.41 -0.25,-0.41 -0.25,-0.41 -0.25,-0.41 -0.25,-0.41 -0.25,-0.41 -0.25,-0.41 -0.25,-0.41 -0.25,-0.42 -0.25,-0.41 -0.25,-0.41 -0.25,-0.42 -0.25,-0.41 -0.25,-0.41 -0.25,-0.42 -0.24,-0.41 -0.25,-0.42 -0.25,-0.42 -0.25,-0.41 -0.25,-0.42 -0.25,-0.42 -0.24,-0.41 -0.25,-0.42 -0.25,-0.42 -0.25,-0.42 -0.24,-0.42 -0.25,-0.42 -0.25,-0.42 -0.25,-0.42 -0.24,-0.42 -0.25,-0.42 -0.25,-0.42 -0.24,-0.42 -0.25,-0.43 -0.25,-0.42 -0.24,-0.42 -0.25,-0.43 -0.24,-0.42 -0.25,-0.42 -0.25,-0.43 -0.24,-0.42 -0.25,-0.43 -0.24,-0.42 -0.25,-0.43 -0.24,-0.43 -0.25,-0.42 -0.24,-0.43 -0.25,-0.43 -0.24,-0.43 -0.25,-0.43 -0.24,-0.42 -0.25,-0.43 -0.24,-0.43 -0.24,-0.43 -0.25,-0.43 -0.24,-0.43 -0.24,-0.44 -0.25,-0.43 -0.24,-0.43 -0.24,-0.43 -0.25,-0.43 -0.24,-0.44 -0.24,-0.43 -0.25,-0.43 -0.24,-0.44 -0.24,-0.43 -0.24,-0.44 -0.25,-0.43 -0.24,-0.44 -0.24,-0.44 -0.24,-0.43 -0.24,-0.44 -0.25,-0.44 -0.24,-0.43 -0.24,-0.44 -0.24,-0.44 -0.24,-0.44 -0.24,-0.44 -0.24,-0.44 -0.24,-0.44 -0.24,-0.44 -0.24,-0.44 -0.24,-0.44 -0.24,-0.44 -0.24,-0.44 -0.24,-0.45 -0.24,-0.44 -0.24,-0.44 -0.24,-0.44 -0.24,-0.45 -0.24,-0.44 -0.24,-0.45 -0.24,-0.44 -0.24,-0.45 -0.24,-0.44 -0.24,-0.45 -0.23,-0.45 -0.24,-0.44 -0.24,-0.45 -0.24,-0.45 -0.24,-0.44 -0.23,-0.45 -0.24,-0.45 -0.24,-0.45 -0.24,-0.45 -0.23,-0.45 -0.24,-0.45 -0.24,-0.45 -0.23,-0.45 -0.24,-0.45 -0.24,-0.45 -0.23,-0.46 -0.24,-0.45 -0.24,-0.45 -0.23,-0.45 -0.24,-0.46 -0.23,-0.45 -0.24,-0.46 -0.24,-0.45 -0.23,-0.45 -0.24,-0.46 -0.23,-0.46 -0.24,-0.45 -0.23,-0.46 -0.24,-0.46 -0.23,-0.45 -0.23,-0.46 -0.24,-0.46 -0.23,-0.46 -0.24,-0.45 -0.23,-0.46 -0.23,-0.46 -0.24,-0.46 -0.23,-0.46 -0.23,-0.46 -0.24,-0.46 -0.23,-0.47 -0.23,-0.46 -0.24,-0.46 -0.23,-0.46 -0.23,-0.46 -0.23,-0.47 -0.24,-0.46 -0.23,-0.46 -0.23,-0.47 -0.23,-0.46 -0.23,-0.47 -0.24,-0.46 -0.23,-0.47 -0.23,-0.46 -0.23,-0.47 -0.23,-0.47 -0.23,-0.46 -0.23,-0.47 -0.23,-0.47 -0.23,-0.47 -0.23,-0.47 -0.23,-0.47 -0.23,-0.46 -0.23,-0.47 -0.23,-0.47 -0.23,-0.47 -0.23,-0.48 -0.23,-0.47 -0.23,-0.47 -0.23,-0.47 -0.23,-0.47 -0.23,-0.47 -0.23,-0.48 -0.22,-0.47 -0.23,-0.47 -0.23,-0.48 -0.23,-0.47 -0.23,-0.48 -0.22,-0.47 -0.23,-0.48 -0.23,-0.47 -0.23,-0.48 -0.22,-0.48 -0.23,-0.47 -0.23,-0.48 -0.23,-0.48 -0.22,-0.47 -0.23,-0.48 -0.23,-0.48 -0.22,-0.48 -0.23,-0.48 -0.22,-0.48 -0.23,-0.48 -0.22,-0.48 -0.23,-0.48 -0.23,-0.48 -0.22,-0.48 -0.23,-0.48 -0.22,-0.49 -0.23,-0.48 -0.22,-0.48 -0.23,-0.49 -0.22,-0.48 -0.22,-0.48 -0.23,-0.49 -0.22,-0.48 -0.23,-0.49 -0.22,-0.48 -0.22,-0.49 -0.23,-0.48 -0.22,-0.49 -0.22,-0.49 -0.23,-0.48 -0.22,-0.49 -0.22,-0.49 -0.22,-0.49 -0.23,-0.49 -0.22,-0.48 -0.22,-0.49 -0.22,-0.49 -0.22,-0.49 -0.23,-0.49 -0.22,-0.49 -0.22,-0.5 -0.22,-0.49 -0.22,-0.49 -0.22,-0.49 -0.22,-0.49 -0.22,-0.5 -0.22,-0.49 -0.22,-0.49 -0.22,-0.5 -0.22,-0.49 -0.22,-0.49 -0.22,-0.5 -0.22,-0.49 -0.22,-0.5 -0.22,-0.49 -0.22,-0.5 -0.22,-0.5 -0.22,-0.49 -0.22,-0.5 -0.22,-0.5 -0.22,-0.5 -0.21,-0.5 -0.22,-0.49 -0.22,-0.5 -0.22,-0.5 -0.22,-0.5 -0.21,-0.5 -0.22,-0.5 -0.22,-0.5 -0.21,-0.5 -0.22,-0.5 -0.22,-0.51 -0.22,-0.5 -0.21,-0.5 -0.22,-0.5 -0.21,-0.51 -0.22,-0.5 -0.22,-0.5 -0.21,-0.51 -0.22,-0.5 -0.21,-0.51 -0.22,-0.5 -0.21,-0.51 -0.22,-0.5 -0.21,-0.51 -0.22,-0.5 -0.21,-0.51 -0.22,-0.51 -0.21,-0.51 -0.22,-0.5 -0.21,-0.51 -0.21,-0.51 -0.22,-0.51 -0.21,-0.51 -0.21,-0.51 -0.22,-0.51 -0.21,-0.51 -0.21,-0.51 -0.22,-0.51 -0.21,-0.51 -0.21,-0.51 -0.21,-0.51 -0.22,-0.52 -0.21,-0.51 -0.21,-0.51 -0.21,-0.51 -0.21,-0.52 -0.21,-0.51 -0.22,-0.51 -0.21,-0.52 -0.21,-0.51 -0.21,-0.52 -0.21,-0.51 -0.21,-0.52 -0.21,-0.52 -0.21,-0.51 -0.21,-0.52 -0.21,-0.52 -0.21,-0.51 -0.21,-0.52 -0.21,-0.52 -0.21,-0.52 -0.21,-0.52 -0.21,-0.52 -0.21,-0.52 -0.2,-0.52 -0.21,-0.52 -0.21,-0.52 -0.21,-0.52 -0.21,-0.52 -0.21,-0.52 -0.2,-0.52 -0.21,-0.52 -0.21,-0.53 -0.21,-0.52 -0.2,-0.52 -0.21,-0.52 -0.21,-0.53 -0.2,-0.52 -0.21,-0.53 -0.21,-0.52 -0.2,-0.53 -0.21,-0.52 -0.2,-0.53 -0.21,-0.52 -0.21,-0.53 -0.2,-0.53 -0.21,-0.52 -0.2,-0.53 -0.21,-0.53 -0.2,-0.53 -0.21,-0.52 -0.2,-0.53 -0.2,-0.53 -0.21,-0.53 -0.2,-0.53 -0.21,-0.53 -0.2,-0.53 -0.2,-0.53 -0.21,-0.53 -0.2,-0.53 -0.2,-0.53 -0.21,-0.53 -0.2,-0.54 -0.2,-0.53 -0.2,-0.53 -0.21,-0.53 -0.2,-0.54 -0.2,-0.53 -0.2,-0.54 -0.2,-0.53 -0.21,-0.53 -0.2,-0.54 -0.2,-0.53 -0.2,-0.54 -0.2,-0.54 -0.2,-0.53 -0.2,-0.54 -0.2,-0.54 -0.2,-0.53 -0.2,-0.54 -0.2,-0.54 -0.2,-0.54 -0.2,-0.53 -0.2,-0.54 -0.2,-0.54 -0.2,-0.54 -0.2,-0.54 -0.2,-0.54 -0.2,-0.54 -0.19,-0.54 -0.2,-0.54 -0.2,-0.54 -0.2,-0.55 -0.2,-0.54 -0.19,-0.54 -0.2,-0.54 -0.2,-0.54 -0.2,-0.55 -0.19,-0.54 -0.2,-0.55 -0.2,-0.54 -0.19,-0.54 -0.2,-0.55 -0.2,-0.54 -0.19,-0.55 -0.2,-0.54 -0.19,-0.55 -0.2,-0.55 -0.19,-0.54 -0.2,-0.55 -0.19,-0.55 -0.2,-0.54 -0.19,-0.55 -0.2,-0.55 -0.19,-0.55 -0.2,-0.55 -0.19,-0.55 -0.2,-0.54 -0.19,-0.55 -0.19,-0.55 -0.2,-0.55 -0.19,-0.55 -0.19,-0.56 -0.2,-0.55 -0.19,-0.55 -0.19,-0.55 -0.19,-0.55 -0.2,-0.55 -0.19,-0.56 -0.19,-0.55 -0.19,-0.55 -0.19,-0.56 -0.2,-0.55 -0.19,-0.55 -0.19,-0.56 -0.19,-0.55 -0.19,-0.56 -0.19,-0.55 -0.19,-0.56 -0.19,-0.55 -0.19,-0.56 -0.19,-0.56 -0.19,-0.55 -0.19,-0.56 -0.19,-0.56 -0.19,-0.56 -0.19,-0.55 -0.19,-0.56 -0.19,-0.56 -0.19,-0.56 -0.19,-0.56 -0.18,-0.56 -0.19,-0.56 -0.19,-0.56 -0.19,-0.56 -0.19,-0.56 -0.18,-0.56 -0.19,-0.56 -0.19,-0.56 -0.19,-0.57 -0.18,-0.56 -0.19,-0.56 -0.19,-0.56 -0.18,-0.57 -0.19,-0.56 -0.18,-0.56 -0.19,-0.57 -0.19,-0.56 -0.18,-0.57 -0.19,-0.56 -0.18,-0.57 -0.19,-0.56 -0.18,-0.57 -0.19,-0.56 -0.18,-0.57 -0.19,-0.56 -0.18,-0.57 -0.18,-0.57 -0.19,-0.57 -0.18,-0.56 -0.19,-0.57 -0.18,-0.57 -0.18,-0.57 -0.19,-0.57 -0.18,-0.57 -0.18,-0.57 -0.18,-0.57 -0.19,-0.57 -0.18,-0.57 -0.18,-0.57 -0.18,-0.57 -0.18,-0.57 -0.19,-0.57 -0.18,-0.57 -0.18,-0.57 -0.18,-0.58 -0.18,-0.57 -0.18,-0.57 -0.18,-0.57 -0.18,-0.58 -0.18,-0.57 -0.18,-0.58 -0.18,-0.57 -0.18,-0.57 -0.18,-0.58 -0.18,-0.57 -0.18,-0.58 -0.18,-0.58 -0.18,-0.57 -0.18,-0.58 -0.17,-0.57 -0.18,-0.58 -0.18,-0.58 -0.18,-0.58 -0.18,-0.57 -0.17,-0.58 -0.18,-0.58 -0.18,-0.58 -0.18,-0.58 -0.17,-0.58 -0.18,-0.58 -0.18,-0.58 -0.17,-0.57 -0.18,-0.59 -0.17,-0.58 -0.18,-0.58 -0.18,-0.58 -0.17,-0.58 -0.18,-0.58 -0.17,-0.58 -0.18,-0.58 -0.17,-0.59 -0.18,-0.58 -0.17,-0.58 -0.18,-0.59 -0.17,-0.58 -0.17,-0.58 -0.18,-0.59 -0.17,-0.58 -0.18,-0.59 -0.17,-0.58 -0.17,-0.59 -0.18,-0.58 -0.17,-0.59 -0.17,-0.58 -0.17,-0.59 -0.18,-0.58 -0.17,-0.59 -0.17,-0.59 -0.17,-0.59 -0.17,-0.58 -0.17,-0.59 -0.18,-0.59 -0.17,-0.59 -0.17,-0.59 -0.17,-0.59 -0.17,-0.58 -0.17,-0.59 -0.17,-0.59 -0.17,-0.59 -0.17,-0.59 -0.17,-0.59 -0.17,-0.6 -0.17,-0.59 -0.17,-0.59 -0.17,-0.59 -0.17,-0.59 -0.16,-0.59 -0.17,-0.6 -0.17,-0.59 -0.17,-0.59 -0.17,-0.59 -0.16,-0.6 -0.17,-0.59 -0.17,-0.6 -0.17,-0.59 -0.16,-0.59 -0.17,-0.6 -0.17,-0.59 -0.16,-0.6 -0.17,-0.6 -0.17,-0.59 -0.16,-0.6 -0.17,-0.59 -0.16,-0.6 -0.17,-0.6 -0.16,-0.59 -0.17,-0.6 -0.16,-0.6 -0.17,-0.6 -0.16,-0.6 -0.17,-0.59 -0.16,-0.6 -0.17,-0.6 -0.16,-0.6 -0.16,-0.6 -0.17,-0.6 -0.16,-0.6 -0.16,-0.6 -0.17,-0.6 -0.16,-0.6 -0.16,-0.6 -0.17,-0.6 -0.16,-0.6 -0.16,-0.61 -0.16,-0.6 -0.16,-0.6 -0.17,-0.6 -0.16,-0.61 -0.16,-0.6 -0.16,-0.6 -0.16,-0.61 -0.16,-0.6 -0.16,-0.6 -0.16,-0.61 -0.16,-0.6 -0.16,-0.61 -0.16,-0.6 -0.16,-0.61 -0.16,-0.6 -0.16,-0.61 -0.16,-0.61 -0.16,-0.6 -0.16,-0.61 -0.15,-0.61 -0.16,-0.6 -0.16,-0.61 -0.16,-0.61 -0.16,-0.6 -0.15,-0.61 -0.16,-0.61 -0.16,-0.61 -0.16,-0.61 -0.15,-0.61 -0.16,-0.61 -0.16,-0.61 -0.15,-0.61 -0.16,-0.61 -0.16,-0.61 -0.15,-0.61 -0.16,-0.61 -0.15,-0.61 -0.16,-0.61 -0.15,-0.61 -0.16,-0.61 -0.15,-0.62 -0.16,-0.61 -0.15,-0.61 -0.16,-0.61 -0.15,-0.62 -0.15,-0.61 -0.16,-0.61 -0.15,-0.62 -0.15,-0.61 -0.16,-0.61 -0.15,-0.62 -0.15,-0.61 -0.16,-0.62 -0.15,-0.61 -0.15,-0.62 -0.15,-0.61 -0.15,-0.62 -0.16,-0.62 -0.15,-0.61 -0.15,-0.62 -0.15,-0.62 -0.15,-0.61 -0.15,-0.62 -0.15,-0.62 -0.15,-0.62 -0.15,-0.61 -0.15,-0.62 -0.15,-0.62 -0.15,-0.62 -0.15,-0.62 -0.15,-0.62 -0.15,-0.62 -0.15,-0.62 -0.15,-0.62 -0.15,-0.62 -0.14,-0.62 -0.15,-0.62 -0.15,-0.62 -0.15,-0.62 -0.15,-0.62 -0.14,-0.62 -0.15,-0.62 -0.15,-0.63 -0.15,-0.62 -0.14,-0.62 -0.15,-0.62 -0.15,-0.63 -0.14,-0.62 -0.15,-0.62 -0.14,-0.63 -0.15,-0.62 -0.14,-0.62 -0.15,-0.63 -0.14,-0.62 -0.15,-0.63 -0.14,-0.62 -0.15,-0.63 -0.14,-0.62 -0.15,-0.63 -0.14,-0.63 -0.14,-0.62 -0.15,-0.63 -0.14,-0.62 -0.15,-0.63 -0.14,-0.63 -0.14,-0.63 -0.14,-0.62 -0.15,-0.63 -0.14,-0.63 -0.14,-0.63 -0.14,-0.62 -0.14,-0.63 -0.15,-0.63 -0.14,-0.63 -0.14,-0.63 -0.14,-0.63 -0.14,-0.63 -0.14,-0.63 -0.14,-0.63 -0.14,-0.63 -0.14,-0.63 -0.14,-0.63 -0.14,-0.63 -0.14,-0.63 -0.14,-0.64 -0.14,-0.63 -0.14,-0.63 -0.14,-0.63 -0.14,-0.63 -0.13,-0.64 -0.14,-0.63 -0.14,-0.63 -0.14,-0.63 -0.14,-0.64 -0.13,-0.63 -0.14,-0.64 -0.14,-0.63 -0.13,-0.63 -0.14,-0.64 -0.14,-0.63 -0.13,-0.64 -0.14,-0.63 -0.14,-0.64 -0.13,-0.63 -0.14,-0.64 -0.13,-0.64 -0.14,-0.63 -0.13,-0.64 -0.14,-0.64 -0.13,-0.63 -0.14,-0.64 -0.13,-0.64 -0.13,-0.63 -0.14,-0.64 -0.13,-0.64 -0.14,-0.64 -0.13,-0.64 -0.13,-0.63 -0.14,-0.64 -0.13,-0.64 -0.13,-0.64 -0.13,-0.64 -0.14,-0.64 -0.13,-0.64 -0.13,-0.64 -0.13,-0.64 -0.13,-0.64 -0.13,-0.64 -0.13,-0.64 -0.14,-0.64 -0.13,-0.65 -0.13,-0.64 -0.13,-0.64 -0.13,-0.64 -0.13,-0.64 -0.13,-0.64 -0.13,-0.65 -0.13,-0.64 -0.12,-0.64 -0.13,-0.65 -0.13,-0.64 -0.13,-0.64 -0.13,-0.65 -0.13,-0.64 -0.13,-0.64 -0.12,-0.65 -0.13,-0.64 -0.13,-0.65 -0.13,-0.64 -0.12,-0.65 -0.13,-0.64 -0.13,-0.65 -0.12,-0.64 -0.13,-0.65 -0.12,-0.65 -0.13,-0.64 -0.13,-0.65 -0.12,-0.65 -0.13,-0.64 -0.12,-0.65 -0.13,-0.65 -0.12,-0.64 -0.13,-0.65 -0.12,-0.65 -0.13,-0.65 -0.12,-0.65 -0.12,-0.64 -0.13,-0.65 -0.12,-0.65 -0.12,-0.65 -0.13,-0.65 -0.12,-0.65 -0.12,-0.65 -0.12,-0.65 -0.13,-0.65 -0.12,-0.65 -0.12,-0.65 -0.12,-0.65 -0.12,-0.65 -0.13,-0.65 -0.12,-0.65 -0.12,-0.65 -0.12,-0.66 -0.12,-0.65 -0.12,-0.65 -0.12,-0.65 -0.12,-0.65 -0.12,-0.66 -0.12,-0.65 -0.12,-0.65 -0.12,-0.66 -0.12,-0.65 -0.11,-0.65 -0.12,-0.66 -0.12,-0.65 -0.12,-0.65 -0.12,-0.66 -0.12,-0.65 -0.11,-0.66 -0.12,-0.65 -0.12,-0.66 -0.12,-0.65 -0.11,-0.66 -0.12,-0.65 -0.12,-0.66 -0.11,-0.65 -0.12,-0.66 -0.11,-0.66 -0.12,-0.65 -0.11,-0.66 -0.12,-0.66 -0.12,-0.65 -0.11,-0.66 -0.11,-0.66 -0.12,-0.65 -0.11,-0.66 -0.12,-0.66 -0.11,-0.66 -0.12,-0.66 -0.11,-0.65 -0.11,-0.66 -0.12,-0.66 -0.11,-0.66 -0.11,-0.66 -0.11,-0.66 -0.12,-0.66 -0.11,-0.66 -0.11,-0.66 -0.11,-0.66 -0.11,-0.66 -0.12,-0.66 -0.11,-0.66 -0.11,-0.66 -0.11,-0.66 -0.11,-0.66 -0.11,-0.66 -0.11,-0.66 -0.11,-0.67 -0.11,-0.66 -0.11,-0.66 -0.11,-0.66 -0.11,-0.66 -0.11,-0.67 -0.11,-0.66 -0.1,-0.66 -0.11,-0.66 -0.11,-0.67 -0.11,-0.66 -0.11,-0.66 -0.11,-0.67 -0.1,-0.66 -0.11,-0.67 -0.11,-0.66 -0.1,-0.66 -0.11,-0.67 -0.11,-0.66 -0.1,-0.67 -0.11,-0.66 -0.11,-0.67 -0.1,-0.66 -0.11,-0.67 -0.1,-0.66 -0.11,-0.67 -0.1,-0.67 -0.11,-0.66 -0.1,-0.67 -0.11,-0.66 -0.1,-0.67 -0.1,-0.67 -0.11,-0.67 -0.1,-0.66 -0.11,-0.67 -0.1,-0.67 -0.1,-0.66 -0.1,-0.67 -0.11,-0.67 -0.1,-0.67 -0.1,-0.67 -0.1,-0.66 -0.11,-0.67 -0.1,-0.67 -0.1,-0.67 -0.1,-0.67 -0.1,-0.67 -0.1,-0.67 -0.1,-0.67 -0.1,-0.67 -0.1,-0.67 -0.1,-0.67 -0.1,-0.67 -0.1,-0.67 -0.1,-0.67 -0.1,-0.67 -0.1,-0.67 -0.1,-0.67 -0.1,-0.67 -0.1,-0.67 -0.09,-0.67 -0.1,-0.68 -0.1,-0.67 -0.1,-0.67 -0.09,-0.67 -0.1,-0.67 -0.1,-0.68 -0.1,-0.67 -0.09,-0.67 -0.1,-0.67 -0.1,-0.68 -0.09,-0.67 -0.1,-0.67 -0.09,-0.68 -0.1,-0.67 -0.09,-0.67 -0.1,-0.68 -0.09,-0.67 -0.1,-0.68 -0.09,-0.67 -0.1,-0.67 -0.09,-0.68 -0.09,-0.67 -0.1,-0.68 -0.09,-0.67 -0.09,-0.68 -0.1,-0.67 -0.09,-0.68 -0.09,-0.68 -0.1,-0.67 -0.09,-0.68 -0.09,-0.67 -0.09,-0.68 -0.09,-0.68 -0.1,-0.67 -0.09,-0.68 -0.09,-0.68 -0.09,-0.67 -0.09,-0.68 -0.09,-0.68 -0.09,-0.67 -0.09,-0.68 -0.09,-0.68 -0.09,-0.68 -0.09,-0.67 -0.09,-0.68 -0.09,-0.68 -0.09,-0.68 -0.08,-0.68 -0.09,-0.68 -0.09,-0.67 -0.09,-0.68 -0.09,-0.68 -0.09,-0.68 -0.08,-0.68 -0.09,-0.68 -0.09,-0.68 -0.08,-0.68 -0.09,-0.68 -0.09,-0.68 -0.08,-0.68 -0.09,-0.68 -0.08,-0.68 -0.09,-0.68 -0.09,-0.68 -0.08,-0.68 -0.09,-0.68 -0.08,-0.68 -0.09,-0.69 -0.08,-0.68 -0.08,-0.68 -0.09,-0.68 -0.08,-0.68 -0.09,-0.68 -0.08,-0.69 -0.08,-0.68 -0.09,-0.68 -0.08,-0.68 -0.08,-0.68 -0.08,-0.69 -0.09,-0.68 -0.08,-0.68 -0.08,-0.69 -0.08,-0.68 -0.08,-0.68 -0.08,-0.69 -0.08,-0.68 -0.09,-0.68 -0.08,-0.69 -0.08,-0.68 -0.08,-0.69 -0.08,-0.68 -0.08,-0.68 -0.08,-0.69 -0.08,-0.68 -0.07,-0.69 -0.08,-0.68 -0.08,-0.69 -0.08,-0.68 -0.08,-0.69 -0.08,-0.68 -0.08,-0.69 -0.07,-0.68 -0.08,-0.69 -0.08,-0.68 -0.08,-0.69 -0.07,-0.69 -0.08,-0.68 -0.08,-0.69 -0.07,-0.69 -0.08,-0.68 -0.07,-0.69 -0.08,-0.69 -0.08,-0.68 -0.07,-0.69 -0.08,-0.69 -0.07,-0.68 -0.08,-0.69 -0.07,-0.69 -0.07,-0.69 -0.08,-0.68 -0.07,-0.69 -0.08,-0.69 -0.07,-0.69 -0.07,-0.69 -0.08,-0.68 -0.07,-0.69 -0.07,-0.69 -0.07,-0.69 -0.08,-0.69 -0.07,-0.69 -0.07,-0.69 -0.07,-0.68 -0.07,-0.69 -0.07,-0.69 -0.08,-0.69 -0.07,-0.69 -0.07,-0.69 -0.07,-0.69 -0.07,-0.69 -0.07,-0.69 -0.07,-0.69 -0.07,-0.69 -0.07,-0.69 -0.07,-0.69 -0.07,-0.69 -0.06,-0.69 -0.07,-0.69 -0.07,-0.7 -0.07,-0.69 -0.07,-0.69 -0.07,-0.69 -0.06,-0.69 -0.07,-0.69 -0.07,-0.69 -0.06,-0.69 -0.07,-0.7 -0.07,-0.69 -0.06,-0.69 -0.07,-0.69 -0.07,-0.69 -0.06,-0.7 -0.07,-0.69 -0.06,-0.69 -0.07,-0.69 -0.06,-0.7 -0.07,-0.69 -0.06,-0.69 -0.07,-0.69 -0.06,-0.7 -0.06,-0.69 -0.07,-0.69 -0.06,-0.7 -0.07,-0.69 -0.06,-0.69 -0.06,-0.7 -0.06,-0.69 -0.07,-0.7 -0.06,-0.69 -0.06,-0.69 -0.06,-0.7 -0.06,-0.69 -0.07,-0.7 -0.06,-0.69 -0.06,-0.69 -0.06,-0.7 -0.06,-0.69 -0.06,-0.7 -0.06,-0.69 -0.06,-0.7 -0.06,-0.69 -0.06,-0.7 -0.06,-0.69 -0.06,-0.7 -0.06,-0.69 -0.06,-0.7 -0.05,-0.7 -0.06,-0.69 -0.06,-0.7 -0.06,-0.69 -0.06,-0.7 -0.05,-0.7 -0.06,-0.69 -0.06,-0.7 -0.06,-0.69 -0.05,-0.7 -0.06,-0.7 -0.05,-0.69 -0.06,-0.7 -0.06,-0.7 -0.05,-0.69 -0.06,-0.7 -0.05,-0.7 -0.06,-0.7 -0.05,-0.69 -0.06,-0.7 -0.05,-0.7 -0.06,-0.7 -0.05,-0.69 -0.05,-0.7 -0.06,-0.7 -0.05,-0.7 -0.05,-0.69 -0.06,-0.7 -0.05,-0.7 -0.05,-0.7 -0.06,-0.7 -0.05,-0.69 -0.05,-0.7 -0.05,-0.7 -0.05,-0.7 -0.05,-0.7 -0.06,-0.7 -0.05,-0.7 -0.05,-0.7 -0.05,-0.69 -0.05,-0.7 -0.05,-0.7 -0.05,-0.7 -0.05,-0.7 -0.05,-0.7 -0.05,-0.7 -0.05,-0.7 -0.04,-0.7 -0.05,-0.7 -0.05,-0.7 -0.05,-0.7 -0.05,-0.7 -0.05,-0.7 -0.04,-0.7 -0.05,-0.7 -0.05,-0.7 -0.05,-0.7 -0.04,-0.7 -0.05,-0.7 -0.05,-0.7 -0.04,-0.7 -0.05,-0.7 -0.04,-0.7 -0.05,-0.7 -0.04,-0.7 -0.05,-0.71 -0.04,-0.7 -0.05,-0.7 -0.04,-0.7 -0.05,-0.7 -0.04,-0.7 -0.05,-0.7 -0.04,-0.7 -0.04,-0.71 -0.05,-0.7 -0.04,-0.7 -0.04,-0.7 -0.04,-0.7 -0.05,-0.7 -0.04,-0.71 -0.04,-0.7 -0.04,-0.7 -0.05,-0.7 -0.04,-0.7 -0.04,-0.71 -0.04,-0.7 -0.04,-0.7 -0.04,-0.7 -0.04,-0.71 -0.04,-0.7 -0.04,-0.7 -0.04,-0.7 -0.04,-0.71 -0.04,-0.7 -0.04,-0.7 -0.04,-0.71 -0.04,-0.7 -0.03,-0.7 -0.04,-0.7 -0.04,-0.71 -0.04,-0.7 -0.04,-0.7 -0.03,-0.71 -0.04,-0.7 -0.04,-0.7 -0.04,-0.71 -0.03,-0.7 -0.04,-0.71 -0.03,-0.7 -0.04,-0.7 -0.04,-0.71 -0.03,-0.7 -0.04,-0.7 -0.03,-0.71 -0.04,-0.7 -0.03,-0.71 -0.04,-0.7 -0.03,-0.7 -0.04,-0.71 -0.03,-0.7 -0.03,-0.71 -0.04,-0.7 -0.03,-0.71 -0.03,-0.7 -0.04,-0.71 -0.03,-0.7 -0.03,-0.71 -0.03,-0.7 -0.04,-0.7 -0.03,-0.71 -0.03,-0.7 -0.03,-0.71 -0.03,-0.7 -0.03,-0.71 -0.03,-0.7 -0.03,-0.71 -0.03,-0.7 -0.03,-0.71 -0.03,-0.71 -0.03,-0.7 -0.03,-0.71 -0.03,-0.7 -0.03,-0.71 -0.03,-0.7 -0.03,-0.71 -0.03,-0.7 -0.03,-0.71 -0.03,-0.7 -0.02,-0.71 -0.03,-0.71 -0.03,-0.7 -0.03,-0.71 -0.02,-0.7 -0.03,-0.71 -0.03,-0.71 -0.02,-0.7 -0.03,-0.71 -0.02,-0.7 -0.03,-0.71 -0.03,-0.71 -0.02,-0.7 -0.03,-0.71 -0.02,-0.71 -0.03,-0.7 -0.02,-0.71 -0.03,-0.7 -0.02,-0.71 -0.02,-0.71 -0.03,-0.7 -0.02,-0.71 -0.02,-0.71 -0.03,-0.7 -0.02,-0.71 -0.02,-0.71 -0.03,-0.7 -0.02,-0.71 -0.02,-0.71 -0.02,-0.7 -0.02,-0.71 -0.02,-0.71 -0.03,-0.71 -0.02,-0.7 -0.02,-0.71 -0.02,-0.71 -0.02,-0.7 -0.02,-0.71 -0.02,-0.71 -0.02,-0.7 -0.02,-0.71 -0.02,-0.71 -0.02,-0.71 -0.02,-0.7 -0.01,-0.71 -0.02,-0.71 -0.02,-0.71 -0.02,-0.7 -0.02,-0.71 -0.01,-0.71 -0.02,-0.71 -0.02,-0.7 -0.02,-0.71 -0.01,-0.71 -0.02,-0.71 -0.02,-0.7 -0.01,-0.71 -0.02,-0.71 -0.01,-0.71 -0.02,-0.7 -0.01,-0.71 -0.02,-0.71 -0.01,-0.71 -0.02,-0.71 -0.01,-0.7 -0.02,-0.71 -0.01,-0.71 -0.02,-0.71 -0.01,-0.71 -0.01,-0.7 -0.02,-0.71 -0.01,-0.71 -0.01,-0.71 -0.02,-0.71 -0.01,-0.7 -0.01,-0.71 -0.01,-0.71 -0.01,-0.71 -0.02,-0.71 -0.01,-0.7 -0.01,-0.71 -0.01,-0.71 -0.01,-0.71 -0.01,-0.71 -0.01,-0.71 -0.01,-0.7 -0.01,-0.71 -0.01,-0.71 -0.01,-0.71 -0.01,-0.71 -0.01,-0.71 -0.01,-0.7 -0.01,-0.71 0,-0.71 -0.01,-0.71 -0.01,-0.71 -0.01,-0.71 -0.01,-0.7 0,-0.71 -0.01,-0.71 -0.01,-0.71 0,-0.71 -0.01,-0.71 -0.01,-0.71 0,-0.7 -0.01,-0.71 -0.01,-0.71 0,-0.71 -0.01,-0.71 0,-0.71 -0.01,-0.71 0,-0.7 0,-0.71 -0.01,-0.71 0,-0.71 -0.01,-0.71 0,-0.71 0,-0.71 -0.01,-0.7 0,-0.71 0,-0.71 -0.01,-0.71 0,-0.71 0,-0.71 0,-0.71 0,-0.7 -0.01,-0.71 0,-0.71 0,-0.71 0,-0.71 0,-0.71 0,-0.71 0,-0.71 0,-0.7 0,-0.71 0,-0.71 0,-0.71 0,-0.71 0,-0.71 0,-0.71 0,-0.7 0.01,-0.71 0,-0.71 0,-0.71 0,-0.71 0,-0.71 0.01,-0.71 0,-0.7 0,-0.71 0.01,-0.71 0,-0.71 0,-0.71 0.01,-0.71 0,-0.71 0.01,-0.71 0,-0.7 0.01,-0.71 0,-0.71 0.01,-0.71 0,-0.71 0.01,-0.71 0,-0.7 0.01,-0.71 0,-0.71 0.01,-0.71 0.01,-0.71 0,-0.71 0.01,-0.71 0.01,-0.7 0.01,-0.71 0,-0.71 0.01,-0.71 0.01,-0.71 0.01,-0.71 0.01,-0.7 0.01,-0.71 0,-0.71 0.01,-0.71 0.01,-0.71 0.01,-0.71 0.01,-0.71 0.01,-0.7 0.01,-0.71 0.01,-0.71 0.01,-0.71 0.01,-0.71 0.02,-0.7 0.01,-0.71 0.01,-0.71 0.01,-0.71 0.01,-0.71 0.01,-0.71 0.02,-0.7 0.01,-0.71 0.01,-0.71 0.01,-0.71 0.02,-0.71 0.01,-0.7 0.01,-0.71 0.02,-0.71 0.01,-0.71 0.02,-0.71 0.01,-0.7 0.01,-0.71 0.02,-0.71 0.01,-0.71 0.02,-0.7 0.02,-0.71 0.01,-0.71 0.02,-0.71 0.01,-0.71 0.02,-0.7 0.02,-0.71 0.01,-0.71 0.02,-0.71 0.02,-0.7 0.01,-0.71 0.02,-0.71 0.02,-0.71 0.02,-0.7 0.01,-0.71 0.02,-0.71 0.02,-0.71 0.02,-0.7 0.02,-0.71 0.02,-0.71 0.02,-0.7 0.02,-0.71 0.02,-0.71 0.02,-0.71 0.02,-0.7 0.02,-0.71 0.02,-0.71 0.02,-0.7 0.02,-0.71 0.02,-0.71 0.02,-0.71 0.02,-0.7 0.03,-0.71 0.02,-0.71 0.02,-0.7 0.02,-0.71 0.03,-0.71 0.02,-0.7 0.02,-0.71 0.03,-0.71 0.02,-0.7 0.02,-0.71 0.03,-0.71 0.02,-0.7 0.03,-0.71 0.02,-0.7 0.03,-0.71 0.02,-0.71 0.03,-0.7 0.02,-0.71 0.03,-0.71 0.02,-0.7 0.03,-0.71 0.03,-0.7 0.02,-0.71 0.03,-0.71 0.03,-0.7 0.02,-0.71 0.03,-0.7 0.03,-0.71 0.02,-0.71 0.03,-0.7 0.03,-0.71 0.03,-0.7 0.03,-0.71 0.03,-0.7 0.03,-0.71 0.02,-0.7 0.03,-0.71 0.03,-0.71 0.03,-0.7 0.03,-0.71 0.03,-0.7 0.03,-0.71 0.04,-0.7 0.03,-0.71 0.03,-0.7 0.03,-0.71 0.03,-0.7 0.03,-0.71 0.03,-0.7 0.04,-0.71 0.03,-0.7 0.03,-0.71 0.03,-0.7 0.04,-0.7 0.03,-0.71 0.03,-0.7 0.04,-0.71 0.03,-0.7 0.03,-0.71 0.04,-0.7 0.03,-0.71 0.04,-0.7 0.03,-0.7 0.04,-0.71 0.03,-0.7 0.04,-0.71 0.03,-0.7 0.04,-0.7 0.04,-0.71 0.03,-0.7 0.04,-0.7 0.04,-0.71 0.03,-0.7 0.04,-0.7 0.04,-0.71 0.03,-0.7 0.04,-0.7 0.04,-0.71 0.04,-0.7 0.04,-0.7 0.03,-0.71 0.04,-0.7 0.04,-0.7 0.04,-0.71 0.04,-0.7 0.04,-0.7 0.04,-0.7 0.04,-0.71 0.04,-0.7 0.04,-0.7 0.04,-0.7 0.04,-0.71 0.04,-0.7 0.05,-0.7 0.04,-0.7 0.04,-0.71 0.04,-0.7 0.04,-0.7 0.04,-0.7 0.05,-0.7 0.04,-0.7 0.04,-0.71 0.05,-0.7 0.04,-0.7 0.04,-0.7 0.05,-0.7 0.04,-0.7 0.04,-0.71 0.05,-0.7 0.04,-0.7 0.05,-0.7 0.04,-0.7 0.05,-0.7 0.04,-0.7 0.05,-0.7 0.05,-0.7 0.04,-0.7 0.05,-0.7 0.04,-0.7 0.05,-0.71 0.05,-0.7 0.05,-0.7 0.04,-0.7 0.05,-0.7 0.05,-0.7 0.05,-0.7 0.04,-0.7 0.05,-0.7 0.05,-0.7 0.05,-0.7 0.05,-0.69 0.05,-0.7 0.05,-0.7 0.05,-0.7 0.05,-0.7 0.05,-0.7 0.05,-0.7 0.05,-0.7 0.05,-0.7 0.05,-0.7 0.05,-0.7 0.05,-0.7 0.05,-0.69 0.05,-0.7 0.06,-0.7 0.05,-0.7 0.05,-0.7 0.05,-0.7 0.05,-0.69 0.06,-0.7 0.05,-0.7 0.05,-0.7 0.06,-0.7 0.05,-0.69 0.05,-0.7 0.06,-0.7 0.05,-0.7 0.06,-0.69 0.05,-0.7 0.06,-0.7 0.05,-0.7 0.06,-0.69 0.05,-0.7 0.06,-0.7 0.06,-0.69 0.05,-0.7 0.06,-0.7 0.05,-0.69 0.06,-0.7 0.06,-0.7 0.06,-0.69 0.05,-0.7 0.06,-0.69 0.06,-0.7 0.06,-0.7 0.05,-0.69 0.06,-0.7 0.06,-0.69 0.06,-0.7 0.06,-0.69 0.06,-0.7 0.06,-0.69 0.06,-0.7 0.06,-0.69 0.06,-0.7 0.06,-0.69 0.06,-0.7 0.06,-0.69 0.06,-0.7 0.06,-0.69 0.06,-0.7 0.06,-0.69 0.07,-0.7 0.06,-0.69 0.06,-0.69 0.06,-0.7 0.06,-0.69 0.07,-0.7 0.06,-0.69 0.06,-0.69 0.07,-0.7 0.06,-0.69 0.06,-0.69 0.07,-0.7 0.06,-0.69 0.07,-0.69 0.06,-0.69 0.07,-0.7 0.06,-0.69 0.07,-0.69 0.06,-0.69 0.07,-0.7 0.06,-0.69 0.07,-0.69 0.07,-0.69 0.06,-0.69 0.07,-0.7 0.07,-0.69 0.06,-0.69 0.07,-0.69 0.07,-0.69 0.06,-0.6901 0.07,-0.7 0.07,-0.69 0.07,-0.69 0.07,-0.69 0.07,-0.69 0.06,-0.69 0.07,-0.69 0.07,-0.69 0.07,-0.69 0.07,-0.69 0.07,-0.69 0.07,-0.69 0.07,-0.69 0.07,-0.68995 0.07,-0.69 0.07,-0.69 0.08,-0.69 0.07,-0.69 0.07,-0.69 0.07,-0.69 0.07,-0.68 0.07,-0.69 0.08,-0.69 0.07,-0.69 0.07,-0.69 0.08,-0.69 0.07,-0.69 0.07,-0.68 0.08,-0.69 0.07,-0.69 0.07,-0.69 0.08,-0.69 0.07,-0.68 0.08,-0.69 0.07,-0.69 0.08,-0.68 0.07,-0.69 0.08,-0.69 0.07,-0.69 0.08,-0.68 0.07,-0.69 0.08,-0.69 0.08,-0.68 0.07,-0.69 0.08,-0.68 0.08,-0.69 0.07,-0.69 0.08,-0.68 0.08,-0.69 0.08,-0.68 0.08,-0.69 0.07,-0.68 0.08,-0.69 0.08,-0.68 0.08,-0.69 0.08,-0.68 0.08,-0.69 0.08,-0.68 0.08,-0.69 0.08,-0.68 0.08,-0.69 0.08,-0.68 0.08,-0.68 0.08,-0.69 0.08,-0.68 0.08,-0.68 0.08,-0.69 0.08,-0.68 0.08,-0.68 0.09,-0.69 0.08,-0.68 0.08,-0.68 0.08,-0.68 0.09,-0.69 0.08,-0.68 0.08,-0.68 0.08,-0.68 0.09,-0.69 0.08,-0.68 0.09,-0.68 0.08,-0.68 0.08,-0.68 0.09,-0.68 0.08,-0.68 0.09,-0.69 0.08,-0.68 0.09,-0.68 0.08,-0.68 0.09,-0.68 0.09,-0.68 0.08,-0.68 0.09,-0.68 0.08,-0.68 0.09,-0.68 0.09,-0.68 0.09,-0.68 0.08,-0.68 0.09,-0.68 0.09,-0.68 0.09,-0.67 0.08,-0.68 0.09,-0.68 0.09,-0.68 0.09,-0.68 0.09,-0.68 0.09,-0.68 0.09,-0.67 0.09,-0.68 0.09,-0.68 0.09,-0.68 0.09,-0.67 0.09,-0.68 0.09,-0.68 0.09,-0.68 0.09,-0.67 0.09,-0.68 0.09,-0.68 0.09,-0.67 0.09,-0.68 0.1,-0.68 0.09,-0.67 0.09,-0.68 0.09,-0.67 0.1,-0.68 0.09,-0.67 0.09,-0.68 0.1,-0.67 0.09,-0.68 0.09,-0.67 0.1,-0.68 0.09,-0.67 0.09,-0.68 0.1,-0.67 0.09,-0.68 0.1,-0.67 0.09,-0.67 0.1,-0.68 0.09,-0.67 0.1,-0.67 0.1,-0.68 0.09,-0.67 0.1,-0.67 0.1,-0.68 0.09,-0.67 0.1,-0.67 0.1,-0.67 0.09,-0.68 0.1,-0.67 0.1,-0.67 0.1,-0.67 0.09,-0.67 0.1,-0.67 0.1,-0.67 0.1,-0.68 0.1,-0.67 0.1,-0.67 0.1,-0.67 0.1,-0.67 0.1,-0.67 0.1,-0.67 0.1,-0.67 0.1,-0.67 0.1,-0.67 0.1,-0.67 0.1,-0.67 0.1,-0.67 0.1,-0.66 0.1,-0.67 0.1,-0.67 0.11,-0.67 0.1,-0.67 0.1,-0.67 0.1,-0.67 0.11,-0.66 0.1,-0.67 0.1,-0.67 0.1,-0.67 0.11,-0.66 0.1,-0.67 0.11,-0.67 0.1,-0.66 0.1,-0.67 0.11,-0.67 0.1,-0.66 0.11,-0.67 0.1,-0.66 0.11,-0.67 0.1,-0.67 0.11,-0.66 0.1,-0.67 0.11,-0.66 0.11,-0.67 0.1,-0.66 0.11,-0.67 0.11,-0.66 0.1,-0.66 0.11,-0.67 0.11,-0.66 0.11,-0.67 0.1,-0.66 0.11,-0.66 0.11,-0.67 0.11,-0.66 0.11,-0.66 0.11,-0.67 0.1,-0.66 0.11,-0.66 0.11,-0.66 0.11,-0.66 0.11,-0.67 0.11,-0.66 0.11,-0.66 0.11,-0.66 0.11,-0.66 0.11,-0.66 0.11,-0.66 0.12,-0.66 0.11,-0.66 0.11,-0.67 0.11,-0.66 0.11,-0.66 0.11,-0.65 0.12,-0.66 0.11,-0.66 0.11,-0.66 0.11,-0.66 0.12,-0.66 0.11,-0.66 0.11,-0.66 0.12,-0.66 0.11,-0.65 0.12,-0.66 0.11,-0.66 0.11,-0.66 0.12,-0.66 0.11,-0.65 0.12,-0.66 0.11,-0.66 0.12,-0.65 0.11,-0.66 0.12,-0.66 0.12,-0.65 0.11,-0.66 0.12,-0.65 0.11,-0.66 0.12,-0.66 0.12,-0.65 0.12,-0.66 0.05,-0.3"
   style="fill:none;stroke:#000000;stroke-width:12;stroke-linecap:round;stroke-linejoin:miter;stroke-miterlimit:2;stroke-opacity:1;stroke-dasharray:none;fill-opacity:0.25000000000000000"
   id="path5546"
   inkscape:connector-curvature="0" /><path
   d="m 1549.0416,841.93995 0.12,0.65 0.12,0.66 0.11,0.65 0.12,0.66 0.12,0.65 0.11,0.66 0.12,0.66 0.11,0.65 0.12,0.66 0.12,0.66 0.11,0.65 0.12,0.66 0.11,0.66 0.12,0.65 0.11,0.66 0.11,0.66 0.12,0.66 0.11,0.66 0.12,0.65 0.11,0.66 0.11,0.66 0.12,0.66 0.11,0.66 0.11,0.66 0.11,0.66 0.12,0.66 0.11,0.66 0.11,0.66 0.11,0.66 0.11,0.66 0.12,0.66 0.11,0.66 0.11,0.66 0.11,0.66 0.11,0.66 0.11,0.66 0.11,0.66 0.11,0.66 0.11,0.67 0.11,0.66 0.11,0.66 0.11,0.66 0.11,0.66 0.11,0.67 0.1,0.66 0.11,0.66 0.11,0.67 0.11,0.66 0.11,0.66 0.1,0.67 0.11,0.66 0.11,0.66 0.11,0.67 0.1,0.66 0.11,0.67 0.11,0.66 0.1,0.67 0.11,0.66 0.1,0.67 0.11,0.66 0.11,0.67 0.1,0.66 0.11,0.67 0.1,0.67 0.11,0.66 0.1,0.67 0.1,0.66 0.11,0.67 0.1,0.67 0.11,0.66 0.1,0.67 0.1,0.67 0.11,0.67 0.1,0.66 0.1,0.67 0.1,0.67 0.11,0.67 0.1,0.67 0.1,0.66 0.1,0.67 0.1,0.67 0.11,0.67 0.1,0.67 0.1,0.67 0.1,0.67 0.1,0.67 0.1,0.67 0.1,0.67 0.1,0.67 0.1,0.67 0.1,0.67 0.1,0.67 0.1,0.67 0.1,0.67 0.1,0.67 0.09,0.67 0.1,0.67 0.1,0.68 0.1,0.67 0.1,0.67 0.09,0.67 0.1,0.67 0.1,0.67 0.1,0.68 0.09,0.67 0.1,0.67 0.1,0.68 0.09,0.67 0.1,0.67 0.09,0.67 0.1,0.68 0.09,0.67 0.1,0.68 0.09,0.67 0.1,0.67 0.09,0.68 0.1,0.67 0.09,0.68 0.1,0.67 0.09,0.68 0.09,0.67 0.1,0.68 0.09,0.67 0.09,0.68 0.1,0.67 0.09,0.68 0.09,0.67 0.09,0.68 0.1,0.67 0.09,0.68 0.09,0.68 0.09,0.67 0.09,0.68 0.09,0.68 0.09,0.67 0.09,0.68 0.09,0.68 0.1,0.68 0.09,0.67 0.08,0.68 0.09,0.68 0.09,0.68 0.09,0.67 0.09,0.68 0.09,0.68 0.09,0.68 0.09,0.68 0.09,0.68 0.08,0.68 0.09,0.68 0.09,0.67 0.09,0.68 0.08,0.68 0.09,0.68 0.09,0.68 0.08,0.68 0.09,0.68 0.09,0.68 0.08,0.68 0.09,0.68 0.08,0.68 0.09,0.68 0.09,0.69 0.08,0.68 0.08,0.68 0.09,0.68 0.08,0.68 0.09,0.68 0.08,0.68 0.09,0.68 0.08,0.69 0.08,0.68 0.09,0.68 0.08,0.68 0.08,0.69 0.08,0.68 0.09,0.68 0.08,0.68 0.08,0.69 0.08,0.68 0.08,0.68 0.09,0.69 0.08,0.68 0.08,0.68 0.08,0.69 0.08,0.68 0.08,0.68 0.08,0.69 0.08,0.68 0.08,0.69 0.08,0.68 0.08,0.69 0.08,0.68 0.08,0.69 0.07,0.68 0.08,0.69 0.08,0.68 0.08,0.69 0.08,0.68 0.08,0.69 0.07,0.68 0.08,0.69 0.08,0.68 0.07,0.69 0.08,0.69 0.08,0.68 0.07,0.69 0.08,0.69 0.08,0.68 0.07,0.69 0.08,0.69 0.07,0.68 0.08,0.69 0.07,0.69 0.08,0.69 0.07,0.68 0.08,0.69 0.07,0.69 0.07,0.69 0.08,0.68 0.07,0.69 0.07,0.69 0.08,0.69 0.07,0.69 0.07,0.69 0.07,0.68 0.08,0.69 0.07,0.69 0.07,0.69 0.07,0.69 0.07,0.69 0.08,0.69 0.07,0.69 0.07,0.69 0.07,0.68995 0.07,0.69 0.07,0.69 0.07,0.69 0.07,0.69 0.07,0.69 0.07,0.69 0.07,0.69 0.07,0.69 0.06,0.69 0.07,0.69 0.07,0.69 0.07,0.69 0.07,0.69 0.06,0.6901 0.07,0.7 0.07,0.69 0.07,0.69 0.06,0.69 0.07,0.69 0.07,0.69 0.06,0.7 0.07,0.69 0.07,0.69 0.06,0.69 0.07,0.69 0.06,0.7 0.07,0.69 0.06,0.69 0.07,0.69 0.06,0.7 0.07,0.69 0.06,0.69 0.06,0.7 0.07,0.69 0.06,0.69 0.06,0.7 0.07,0.69 0.06,0.69 0.06,0.7 0.06,0.69 0.07,0.7 0.06,0.69 0.06,0.69 0.06,0.7 0.06,0.69 0.06,0.7 0.07,0.69 0.06,0.7 0.06,0.69 0.06,0.7 0.06,0.69 0.06,0.69 0.06,0.7 0.06,0.7 0.06,0.69 0.06,0.7 0.05,0.69 0.06,0.7 0.06,0.69 0.06,0.7 0.06,0.69 0.06,0.7 0.05,0.7 0.06,0.69 0.06,0.7 0.06,0.69 0.05,0.7 0.06,0.7 0.06,0.69 0.05,0.7 0.06,0.7 0.05,0.69 0.06,0.7 0.05,0.7 0.06,0.7 0.05,0.69 0.06,0.7 0.05,0.7 0.06,0.69 0.05,0.7 0.06,0.7 0.05,0.7 0.05,0.7 0.06,0.69 0.05,0.7 0.05,0.7 0.06,0.7 0.05,0.7 0.05,0.69 0.05,0.7 0.06,0.7 0.05,0.7 0.05,0.7 0.05,0.7 0.05,0.7 0.05,0.69 0.05,0.7 0.05,0.7 0.05,0.7 0.05,0.7 0.05,0.7 0.05,0.7 0.05,0.7 0.05,0.7 0.05,0.7 0.05,0.7 0.05,0.7 0.05,0.7 0.05,0.7 0.04,0.7 0.05,0.7 0.05,0.7 0.05,0.7 0.04,0.7 0.05,0.7 0.05,0.7 0.04,0.7 0.05,0.7 0.05,0.7 0.04,0.7 0.05,0.7 0.04,0.7 0.05,0.7 0.04,0.7 0.05,0.7 0.04,0.71 0.05,0.7 0.04,0.7 0.05,0.7 0.04,0.7 0.04,0.7 0.05,0.7 0.04,0.71 0.04,0.7 0.05,0.7 0.04,0.7 0.04,0.7 0.04,0.7 0.05,0.71 0.04,0.7 0.04,0.7 0.04,0.7 0.04,0.7 0.04,0.71 0.04,0.7 0.04,0.7 0.04,0.7 0.04,0.71 0.04,0.7 0.04,0.7 0.04,0.71 0.04,0.7 0.04,0.7 0.04,0.7 0.04,0.71 0.04,0.7 0.04,0.7 0.03,0.71 0.04,0.7 0.04,0.7 0.04,0.71 0.03,0.7 0.04,0.7 0.04,0.71 0.03,0.7 0.04,0.7 0.04,0.71 0.03,0.7 0.04,0.71 0.03,0.7 0.04,0.7 0.03,0.71 0.04,0.7 0.03,0.71 0.04,0.7 0.03,0.7 0.04,0.71 0.03,0.7 0.03,0.71 0.04,0.7 0.03,0.71 0.03,0.7 0.04,0.7 0.03,0.71 0.03,0.7 0.03,0.71 0.04,0.7 0.03,0.71 0.03,0.7 0.03,0.71 0.03,0.7 0.03,0.71 0.03,0.7 0.03,0.71 0.04,0.7 0.03,0.71 0.03,0.7 0.02,0.71 0.03,0.71 0.03,0.7 0.03,0.71 0.03,0.7 0.03,0.71 0.03,0.7 0.03,0.71 0.03,0.7 0.02,0.71 0.03,0.71 0.03,0.7 0.03,0.71 0.02,0.7 0.03,0.71 0.03,0.71 0.02,0.7 0.03,0.71 0.02,0.7 0.03,0.71 0.03,0.71 0.02,0.7 0.03,0.71 0.02,0.7 0.03,0.71 0.02,0.71 0.02,0.7 0.03,0.71 0.02,0.71 0.03,0.7 0.02,0.71 0.02,0.71 0.03,0.7 0.02,0.71 0.02,0.71 0.02,0.7 0.03,0.71 0.02,0.71 0.02,0.7 0.02,0.71 0.02,0.71 0.02,0.7 0.02,0.71 0.03,0.71 0.02,0.71 0.02,0.7 0.02,0.71 0.02,0.71 0.02,0.7 0.02,0.71 0.01,0.71 0.02,0.71 0.02,0.7 0.02,0.71 0.02,0.71 0.02,0.71 0.02,0.7 0.01,0.71 0.02,0.71 0.02,0.71 0.02,0.7 0.01,0.71 0.02,0.71 0.02,0.71 0.01,0.7 0.02,0.71 0.02,0.71 0.01,0.71 0.02,0.7 0.01,0.71 0.02,0.71 0.01,0.71 0.02,0.71 0.01,0.7 0.01,0.71 0.02,0.71 0.01,0.71 0.02,0.71 0.01,0.7 0.01,0.71 0.02,0.71 0.01,0.71 0.01,0.71 0.01,0.7 0.02,0.71 0.01,0.71 0.01,0.71 0.01,0.71 0.01,0.7 0.01,0.71 0.01,0.71 0.02,0.71 0.01,0.71 0.01,0.71 0.01,0.7 0.01,0.71 0.01,0.71 0.01,0.71 0,0.71 0.01,0.71 0.01,0.7 0.01,0.71 0.01,0.71 0.01,0.71 0.01,0.71 0,0.71 0.01,0.7 0.01,0.71 0.01,0.71 0,0.71 0.01,0.71 0.01,0.71 0,0.71 0.01,0.7 0,0.71 0.01,0.71 0,0.71 0.01,0.71 0.01,0.71 0,0.7 0,0.71 0.01,0.71 0,0.71 0.01,0.71 0,0.71 0,0.71 0.01,0.71 0,0.7 0,0.71 0.01,0.71 0,0.71 0,0.71 0,0.71 0.01,0.71 0,0.7 0,0.71 0,0.71 0,0.71 0,0.71 0,0.71 0,0.71 0,0.7 0,0.71 0,0.71 0,0.71 0,0.71 0,0.71 0,0.71 0,0.71 0,0.7 0,0.71 -0.01,0.71 0,0.71 0,0.71 0,0.71 -0.01,0.71 0,0.7 0,0.71 0,0.71 -0.01,0.71 0,0.71 -0.01,0.71 0,0.71 0,0.7 -0.01,0.71 0,0.71 -0.01,0.71 0,0.71 -0.01,0.71 0,0.71 -0.01,0.7 -0.01,0.71 0,0.71 -0.01,0.71 -0.01,0.71 0,0.71 -0.01,0.71 -0.01,0.7 -0.01,0.71 0,0.71 -0.01,0.71 -0.01,0.71 -0.01,0.71 -0.01,0.7 0,0.71 -0.01,0.71 -0.01,0.71 -0.01,0.71 -0.01,0.71 -0.01,0.7 -0.01,0.71 -0.01,0.71 -0.01,0.71 -0.01,0.71 -0.01,0.71 -0.01,0.7 -0.02,0.71 -0.01,0.71 -0.01,0.71 -0.01,0.71 -0.01,0.7 -0.02,0.71 -0.01,0.71 -0.01,0.71 -0.01,0.71 -0.02,0.71 -0.01,0.7 -0.01,0.71 -0.02,0.71 -0.01,0.71 -0.02,0.7 -0.01,0.71 -0.02,0.71 -0.01,0.71 -0.01,0.71 -0.02,0.7 -0.02,0.71 -0.01,0.71 -0.02,0.71 -0.01,0.7 -0.02,0.71 -0.02,0.71 -0.01,0.71 -0.02,0.71 -0.02,0.7 -0.01,0.71 -0.02,0.71 -0.02,0.71 -0.02,0.7 -0.02,0.71 -0.01,0.71 -0.02,0.71 -0.02,0.7 -0.02,0.71 -0.02,0.71 -0.02,0.7 -0.02,0.71 -0.02,0.71 -0.02,0.71 -0.02,0.7 -0.02,0.71 -0.02,0.71 -0.02,0.7 -0.02,0.71 -0.02,0.71 -0.03,0.7 -0.02,0.71 -0.02,0.71 -0.02,0.71 -0.02,0.7 -0.03,0.71 -0.02,0.71 -0.02,0.7 -0.03,0.71 -0.02,0.71 -0.02,0.7 -0.03,0.71 -0.02,0.7 -0.02,0.71 -0.03,0.71 -0.02,0.7 -0.03,0.71 -0.02,0.71 -0.03,0.7 -0.02,0.71 -0.03,0.71 -0.03,0.7 -0.02,0.71 -0.03,0.7 -0.02,0.71 -0.03,0.71 -0.03,0.7 -0.03,0.71 -0.02,0.7 -0.03,0.71 -0.03,0.7 -0.03,0.71 -0.02,0.71 -0.03,0.7 -0.03,0.71 -0.03,0.7 -0.03,0.71 -0.03,0.7 -0.03,0.71 -0.03,0.7 -0.03,0.71 -0.03,0.71 -0.03,0.7 -0.03,0.71 -0.03,0.7 -0.03,0.71 -0.03,0.7 -0.03,0.71 -0.03,0.7 -0.04,0.71 -0.03,0.7 -0.03,0.7 -0.03,0.71 -0.04,0.7 -0.03,0.71 -0.03,0.7 -0.03,0.71 -0.04,0.7 -0.03,0.71 -0.04,0.7 -0.03,0.71 -0.03,0.7 -0.04,0.7 -0.03,0.71 -0.04,0.7 -0.03,0.71 -0.04,0.7 -0.03,0.7 -0.04,0.71 -0.04,0.7 -0.03,0.71 -0.04,0.7 -0.03,0.7 -0.04,0.71 -0.04,0.7 -0.04,0.7 -0.03,0.71 -0.04,0.7 -0.04,0.7 -0.04,0.71 -0.03,0.7 -0.04,0.7 -0.04,0.71 -0.04,0.7 -0.04,0.7 -0.04,0.7 -0.04,0.71 -0.04,0.7 -0.04,0.7 -0.04,0.71 -0.04,0.7 -0.04,0.7 -0.04,0.7 -0.04,0.7 -0.04,0.71 -0.04,0.7 -0.04,0.7 -0.05,0.7 -0.04,0.71 -0.04,0.7 -0.04,0.7 -0.04,0.7 -0.05,0.7 -0.04,0.7 -0.04,0.71 -0.05,0.7 -0.04,0.7 -0.04,0.7 -0.05,0.7 -0.04,0.7 -0.05,0.7 -0.04,0.71 -0.05,0.7 -0.04,0.7 -0.05,0.7 -0.04,0.7 -0.05,0.7 -0.04,0.7 -0.05,0.7 -0.05,0.7 -0.04,0.7 -0.05,0.7 -0.05,0.7 -0.04,0.7 -0.05,0.7 -0.05,0.7 -0.05,0.7 -0.04,0.7 -0.05,0.7 -0.05,0.7 -0.05,0.7 -0.05,0.7 -0.05,0.7 -0.05,0.7 -0.05,0.7 -0.05,0.7 -0.05,0.7 -0.05,0.7 -0.05,0.7 -0.05,0.7 -0.05,0.7 -0.05,0.7 -0.05,0.69 -0.05,0.7 -0.05,0.7 -0.05,0.7 -0.05,0.7 -0.06,0.7 -0.05,0.69 -0.05,0.7 -0.05,0.7 -0.06,0.7 -0.05,0.7 -0.05,0.7 -0.06,0.69 -0.05,0.7 -0.05,0.7 -0.06,0.7 -0.05,0.69 -0.06,0.7 -0.05,0.7 -0.06,0.7 -0.05,0.69 -0.06,0.7 -0.05,0.7 -0.06,0.69 -0.06,0.7 -0.05,0.7 -0.06,0.69 -0.05,0.7 -0.06,0.7 -0.06,0.69 -0.06,0.7 -0.05,0.69 -0.06,0.7 -0.06,0.7 -0.06,0.69 -0.06,0.7 -0.05,0.69 -0.06,0.7 -0.06,0.7 -0.06,0.69 -0.06,0.7 -0.06,0.69 -0.06,0.7 -0.06,0.69 -0.06,0.7 -0.06,0.69 -0.06,0.7 -0.06,0.69 -0.06,0.7 -0.06,0.69 -0.06,0.69 -0.07,0.7 -0.06,0.69 -0.06,0.7 -0.06,0.69 -0.06,0.69 -0.07,0.7 -0.06,0.69 -0.06,0.7 -0.07,0.69 -0.06,0.69 -0.06,0.7 -0.07,0.69 -0.06,0.69 -0.06,0.69 -0.07,0.7 -0.06,0.69 -0.07,0.69 -0.06,0.7 -0.07,0.69 -0.06,0.69 -0.07,0.69 -0.07,0.69 -0.06,0.7 -0.07,0.69 -0.06,0.69 -0.07,0.69 -0.07,0.69 -0.07,0.7 -0.06,0.69 -0.07,0.69 -0.07,0.69 -0.07,0.69 -0.06,0.69 -0.07,0.69 -0.07,0.69 -0.07,0.69 -0.07,0.69 -0.07,0.69 -0.07,0.7 -0.07,0.69 -0.07,0.69 -0.07,0.69 -0.07,0.69 -0.07,0.69 -0.07,0.68 -0.07,0.69 -0.07,0.69 -0.07,0.69 -0.07,0.69 -0.07,0.69 -0.07,0.69 -0.08,0.69 -0.07,0.69 -0.07,0.69 -0.07,0.69 -0.08,0.68 -0.07,0.69 -0.07,0.69 -0.08,0.69 -0.07,0.69 -0.07,0.68 -0.08,0.69 -0.07,0.69 -0.08,0.69 -0.07,0.68 -0.08,0.69 -0.07,0.69 -0.08,0.69 -0.07,0.68 -0.08,0.69 -0.07,0.69 -0.08,0.68 -0.08,0.69 -0.07,0.69 -0.08,0.68 -0.08,0.69 -0.07,0.68 -0.08,0.69 -0.08,0.69 -0.07,0.68 -0.08,0.69 -0.08,0.68 -0.08,0.69 -0.08,0.68 -0.08,0.69 -0.08,0.68 -0.07,0.69 -0.08,0.68 -0.08,0.69 -0.08,0.68 -0.08,0.68 -0.08,0.69 -0.08,0.68 -0.08,0.69 -0.08,0.68 -0.09,0.68 -0.08,0.69 -0.08,0.68 -0.08,0.68 -0.08,0.69 -0.08,0.68 -0.09,0.68 -0.08,0.69 -0.08,0.68 -0.08,0.68 -0.09,0.68 -0.08,0.69 -0.08,0.68 -0.09,0.68 -0.08,0.68 -0.08,0.68 -0.09,0.68 -0.08,0.69 -0.09,0.68 -0.08,0.68 -0.09,0.68 -0.08,0.68 -0.09,0.68 -0.08,0.68 -0.09,0.68 -0.08,0.68 -0.09,0.68 -0.09,0.68 -0.08,0.68 -0.09,0.68 -0.09,0.68 -0.08,0.68 -0.09,0.68 -0.09,0.68 -0.09,0.68 -0.08,0.68 -0.09,0.68 -0.09,0.67 -0.09,0.68 -0.09,0.68 -0.09,0.68 -0.09,0.68 -0.09,0.68 -0.09,0.67 -0.08,0.68 -0.09,0.68 -0.1,0.68 -0.09,0.67 -0.09,0.68 -0.09,0.68 -0.09,0.67 -0.09,0.68 -0.09,0.68 -0.09,0.67 -0.09,0.68 -0.1,0.68 -0.09,0.67 -0.09,0.68 -0.09,0.67 -0.1,0.68 -0.09,0.68 -0.09,0.67 -0.09,0.68 -0.1,0.67 -0.09,0.68 -0.1,0.67 -0.09,0.67 -0.09,0.68 -0.1,0.67 -0.09,0.68 -0.1,0.67 -0.09,0.67 -0.1,0.68 -0.1,0.67 -0.09,0.68 -0.1,0.67 -0.09,0.67 -0.1,0.67 -0.1,0.68 -0.09,0.67 -0.1,0.67 -0.1,0.67 -0.09,0.68 -0.1,0.67 -0.1,0.67 -0.1,0.67 -0.1,0.67 -0.09,0.67 -0.1,0.68 -0.1,0.67 -0.1,0.67 -0.1,0.67 -0.1,0.67 -0.1,0.67 -0.1,0.67 -0.1,0.67 -0.1,0.67 -0.1,0.67 -0.1,0.67 -0.1,0.67 -0.1,0.67 -0.1,0.67 -0.1,0.66 -0.1,0.67 -0.11,0.67 -0.1,0.67 -0.1,0.67 -0.1,0.67 -0.1,0.67 -0.11,0.66 -0.1,0.67 -0.1,0.67 -0.11,0.67 -0.1,0.66 -0.1,0.67 -0.11,0.67 -0.1,0.66 -0.11,0.67 -0.1,0.67 -0.11,0.66 -0.1,0.67 -0.11,0.66 -0.1,0.67 -0.11,0.67 -0.1,0.66 -0.11,0.67 -0.1,0.66 -0.11,0.67 -0.11,0.66 -0.1,0.67 -0.11,0.66 -0.11,0.66 -0.1,0.67 -0.11,0.66 -0.11,0.67 -0.11,0.66 -0.1,0.66 -0.11,0.67 -0.11,0.66 -0.11,0.66 -0.11,0.66 -0.11,0.67 -0.11,0.66 -0.11,0.66 -0.11,0.66 -0.11,0.66 -0.11,0.67 -0.11,0.66 -0.11,0.66 -0.11,0.66 -0.11,0.66 -0.11,0.66 -0.11,0.66 -0.11,0.66 -0.11,0.66 -0.11,0.66 -0.12,0.66 -0.11,0.66 -0.11,0.66 -0.11,0.66 -0.12,0.66 -0.11,0.66 -0.11,0.66 -0.11,0.66 -0.12,0.66 -0.11,0.65 -0.12,0.66 -0.11,0.66 -0.11,0.66 -0.12,0.66 -0.11,0.65 -0.12,0.66 -0.11,0.66 -0.12,0.65 -0.11,0.66 -0.12,0.66 -0.11,0.65 -0.12,0.66 -0.12,0.66 -0.11,0.65 -0.12,0.66 -0.12,0.65 -0.11,0.66 -0.12,0.65 -0.12,0.66 -0.12,0.65 -0.11,0.66 -0.12,0.65 -0.12,0.65 -0.12,0.66 -0.12,0.65 -0.12,0.66 -0.11,0.65 -0.12,0.65 -0.12,0.65 -0.12,0.66 -0.12,0.65 -0.12,0.65 -0.12,0.65 -0.12,0.66 -0.12,0.65 -0.12,0.65 -0.12,0.65 -0.12,0.65 -0.13,0.65 -0.12,0.65 -0.12,0.66 -0.12,0.65 -0.12,0.65 -0.13,0.65 -0.12,0.65 -0.12,0.65 -0.12,0.65 -0.13,0.65 -0.12,0.64 -0.12,0.65 -0.13,0.65 -0.12,0.65 -0.12,0.65 -0.13,0.65 -0.12,0.64 -0.13,0.65 -0.12,0.65 -0.13,0.65 -0.12,0.64 -0.13,0.65 -0.12,0.65 -0.13,0.65 -0.12,0.64 -0.13,0.65 -0.13,0.64 -0.12,0.65 -0.13,0.65 -0.12,0.64 -0.13,0.65 -0.13,0.64 -0.13,0.65 -0.12,0.64 -0.13,0.64 -0.13,0.65 -0.13,0.64 -0.13,0.65 -0.12,0.64 -0.13,0.64 -0.13,0.65 -0.13,0.64 -0.13,0.64 -0.13,0.64 -0.13,0.65 -0.13,0.64 -0.13,0.64 -0.13,0.64 -0.13,0.64 -0.13,0.65 -0.13,0.64 -0.13,0.64 -0.13,0.64 -0.13,0.64 -0.14,0.64 -0.13,0.64 -0.13,0.64 -0.13,0.64 -0.13,0.64 -0.14,0.64 -0.13,0.64 -0.13,0.64 -0.14,0.63 -0.13,0.64 -0.13,0.64 -0.14,0.64 -0.13,0.64 -0.13,0.63 -0.14,0.64 -0.13,0.64 -0.14,0.64 -0.13,0.63 -0.14,0.64 -0.13,0.64 -0.14,0.63 -0.13,0.64 -0.14,0.63 -0.13,0.64 -0.14,0.63 -0.14,0.64 -0.13,0.63 -0.14,0.64 -0.14,0.63 -0.13,0.64 -0.14,0.63 -0.14,0.64 -0.13,0.63 -0.14,0.63 -0.14,0.64 -0.14,0.63 -0.14,0.63 -0.14,0.63 -0.13,0.64 -0.14,0.63 -0.14,0.63 -0.14,0.63 -0.14,0.63 -0.14,0.63 -0.14,0.63 -0.14,0.63 -0.14,0.64 -0.14,0.63 -0.14,0.63 -0.14,0.63 -0.14,0.62 -0.14,0.63 -0.14,0.63 -0.15,0.63 -0.14,0.63 -0.14,0.63 -0.14,0.63 -0.14,0.63 -0.15,0.62 -0.14,0.63 -0.14,0.63 -0.14,0.63 -0.15,0.62 -0.14,0.63 -0.14,0.63 -0.15,0.62 -0.14,0.63 -0.15,0.62 -0.14,0.63 -0.15,0.62 -0.14,0.63 -0.14,0.62 -0.15,0.63 -0.14,0.62 -0.15,0.63 -0.15,0.62 -0.14,0.63 -0.15,0.62 -0.14,0.62 -0.15,0.63 -0.15,0.62 -0.14,0.62 -0.15,0.62 -0.15,0.62 -0.14,0.63 -0.15,0.62 -0.15,0.62 -0.15,0.62 -0.14,0.62 -0.15,0.62 -0.15,0.62 -0.15,0.62 -0.15,0.62 -0.15,0.62 -0.15,0.62 -0.15,0.62 -0.14,0.62 -0.15,0.62 -0.15,0.62 -0.15,0.62 -0.15,0.61 -0.15,0.62 -0.15,0.62 -0.16,0.62 -0.15,0.61 -0.15,0.62 -0.15,0.62 -0.15,0.61 -0.15,0.62 -0.15,0.62 -0.16,0.61 -0.15,0.62 -0.15,0.61 -0.15,0.62 -0.15,0.61 -0.16,0.62 -0.15,0.61 -0.15,0.62 -0.16,0.61 -0.15,0.61 -0.15,0.62 -0.16,0.61 -0.15,0.61 -0.16,0.62 -0.15,0.61 -0.16,0.61 -0.15,0.61 -0.16,0.61 -0.15,0.61 -0.16,0.62 -0.15,0.61 -0.16,0.61 -0.15,0.61 -0.16,0.61 -0.16,0.61 -0.15,0.61 -0.16,0.61 -0.16,0.61 -0.15,0.61 -0.16,0.6 -0.16,0.61 -0.16,0.61 -0.15,0.61 -0.16,0.61 -0.16,0.6 -0.16,0.61 -0.16,0.61 -0.15,0.6 -0.16,0.61 -0.16,0.61 -0.16,0.6 -0.16,0.61 -0.16,0.6 -0.16,0.61 -0.16,0.6 -0.16,0.61 -0.16,0.6 -0.16,0.61 -0.16,0.6 -0.16,0.61 -0.16,0.6 -0.16,0.6 -0.17,0.6 -0.16,0.61 -0.16,0.6 -0.16,0.6 -0.16,0.6 -0.17,0.61 -0.16,0.6 -0.16,0.6 -0.16,0.6 -0.17,0.6 -0.16,0.6 -0.16,0.6 -0.17,0.6 -0.16,0.6 -0.16,0.6 -0.17,0.6 -0.16,0.6 -0.17,0.59 -0.16,0.6 -0.17,0.6 -0.16,0.6 -0.17,0.6 -0.16,0.59 -0.17,0.6 -0.16,0.6 -0.17,0.59 -0.16,0.6 -0.17,0.6 -0.17,0.59 -0.16,0.6 -0.17,0.59 -0.17,0.6 -0.16,0.59 -0.17,0.6 -0.17,0.59 -0.16,0.59 -0.17,0.6 -0.17,0.59 -0.17,0.59 -0.17,0.6 -0.16,0.59 -0.17,0.59 -0.17,0.59 -0.17,0.6 -0.17,0.59 -0.17,0.59 -0.17,0.59 -0.17,0.59 -0.17,0.59 -0.17,0.59 -0.17,0.59 -0.17,0.59 -0.17,0.59 -0.17,0.59 -0.17,0.59 -0.17,0.59 -0.17,0.58 -0.17,0.59 -0.18,0.59 -0.17,0.59 -0.17,0.58 -0.17,0.59 -0.17,0.59 -0.18,0.58 -0.17,0.59 -0.17,0.59 -0.17,0.58 -0.18,0.59 -0.17,0.58 -0.17,0.59 -0.18,0.58 -0.17,0.58 -0.17,0.59 -0.18,0.58 -0.17,0.59 -0.18,0.58 -0.17,0.58 -0.18,0.58 -0.17,0.59 -0.18,0.58 -0.17,0.58 -0.18,0.58 -0.17,0.58 -0.18,0.58 -0.18,0.58 -0.17,0.58 -0.18,0.58 -0.17,0.58 -0.18,0.58 -0.18,0.58 -0.18,0.58 -0.17,0.58 -0.18,0.58 -0.18,0.58 -0.18,0.57 -0.17,0.58 -0.18,0.58 -0.18,0.58 -0.18,0.57 -0.18,0.58 -0.18,0.57 -0.17,0.58 -0.18,0.58 -0.18,0.57 -0.18,0.58 -0.18,0.57 -0.18,0.58 -0.18,0.57 -0.18,0.57 -0.18,0.58 -0.18,0.57 -0.18,0.57 -0.18,0.58 -0.18,0.57 -0.19,0.57 -0.18,0.57 -0.18,0.57 -0.18,0.58 -0.18,0.57 -0.18,0.57 -0.19,0.57 -0.18,0.57 -0.18,0.57 -0.18,0.57 -0.19,0.57 -0.18,0.57 -0.18,0.56 -0.19,0.57 -0.18,0.57 -0.18,0.57 -0.19,0.57 -0.18,0.56 -0.18,0.57 -0.19,0.57 -0.18,0.56 -0.19,0.57 -0.18,0.56 -0.19,0.57 -0.18,0.57 -0.19,0.56 -0.18,0.57 -0.19,0.56 -0.19,0.56 -0.18,0.57 -0.19,0.56 -0.18,0.56 -0.19,0.57 -0.19,0.56 -0.18,0.56 -0.19,0.56 -0.19,0.57 -0.19,0.56 -0.18,0.56 -0.19,0.56 -0.19,0.56 -0.19,0.56 -0.18,0.56 -0.19,0.56 -0.19,0.56 -0.19,0.56 -0.19,0.56 -0.19,0.55 -0.19,0.56 -0.19,0.56 -0.19,0.56 -0.19,0.56 -0.19,0.55 -0.19,0.56 -0.19,0.56 -0.19,0.55 -0.19,0.56 -0.19,0.55 -0.19,0.56 -0.19,0.55 -0.19,0.56 -0.19,0.55 -0.19,0.56 -0.19,0.55 -0.2,0.55 -0.19,0.56 -0.19,0.55 -0.19,0.55 -0.19,0.55 -0.2,0.55 -0.19,0.56 -0.19,0.55 -0.2,0.55 -0.19,0.55 -0.19,0.55 -0.2,0.55 -0.19,0.55 -0.19,0.55 -0.2,0.55 -0.19,0.55 -0.2,0.54 -0.19,0.55 -0.2,0.55 -0.19,0.55 -0.2,0.54 -0.19,0.55 -0.2,0.55 -0.19,0.54 -0.2,0.55 -0.19,0.55 -0.2,0.54 -0.2,0.55 -0.19,0.54 -0.2,0.55 -0.19,0.54 -0.2,0.54 -0.2,0.55 -0.2,0.54 -0.19,0.54 -0.2,0.55 -0.2,0.54 -0.2,0.54 -0.19,0.54 -0.2,0.54 -0.2,0.54 -0.2,0.55 -0.2,0.54 -0.2,0.54 -0.19,0.54 -0.2,0.54 -0.2,0.53 -0.2,0.54 -0.2,0.54 -0.2,0.54 -0.2,0.54 -0.2,0.54 -0.2,0.53 -0.2,0.54 -0.2,0.54 -0.2,0.53 -0.2,0.54 -0.2,0.53 -0.21,0.54 -0.2,0.54 -0.2,0.53 -0.2,0.53 -0.2,0.54 -0.2,0.53 -0.21,0.54 -0.2,0.53 -0.2,0.53 -0.2,0.53 -0.21,0.54 -0.2,0.53 -0.2,0.53 -0.2,0.53 -0.21,0.53 -0.2,0.53 -0.21,0.53 -0.2,0.53 -0.2,0.53 -0.21,0.53 -0.2,0.53 -0.21,0.53 -0.2,0.53 -0.21,0.53 -0.2,0.52 -0.2,0.53 -0.21,0.53 -0.21,0.52 -0.2,0.53 -0.21,0.53 -0.2,0.52 -0.21,0.53 -0.2,0.52 -0.21,0.53 -0.21,0.52 -0.2,0.53 -0.21,0.52 -0.21,0.52 -0.2,0.53 -0.21,0.52 -0.21,0.52 -0.21,0.53 -0.2,0.52 -0.21,0.52 -0.21,0.52 -0.21,0.52 -0.21,0.52 -0.2,0.52 -0.21,0.52 -0.21,0.52 -0.21,0.52 -0.21,0.52 -0.21,0.52 -0.21,0.52 -0.21,0.51 -0.21,0.52 -0.21,0.52 -0.21,0.52 -0.21,0.51 -0.21,0.52 -0.21,0.51 -0.21,0.52 -0.21,0.52 -0.21,0.51 -0.21,0.51 -0.21,0.52 -0.21,0.51 -0.22,0.52 -0.21,0.51 -0.21,0.51 -0.21,0.52 -0.21,0.51 -0.22,0.51 -0.21,0.51 -0.21,0.51 -0.21,0.51 -0.22,0.51 -0.21,0.51 -0.21,0.51 -0.22,0.51 -0.21,0.51 -0.21,0.51 -0.22,0.51 -0.21,0.51 -0.21,0.51 -0.22,0.5 -0.21,0.51 -0.22,0.51 -0.21,0.5 -0.22,0.51 -0.21,0.51 -0.22,0.5 -0.21,0.51 -0.22,0.5 -0.21,0.51 -0.22,0.5 -0.22,0.51 -0.21,0.5 -0.22,0.5 -0.21,0.5 -0.22,0.51 -0.22,0.5 -0.21,0.5 -0.22,0.5 -0.22,0.5 -0.21,0.5 -0.22,0.5 -0.22,0.5 -0.22,0.5 -0.21,0.5 -0.22,0.5 -0.22,0.5 -0.22,0.5 -0.22,0.5 -0.22,0.5 -0.21,0.49 -0.22,0.5 -0.22,0.5 -0.22,0.49 -0.22,0.5 -0.22,0.49 -0.22,0.5 -0.22,0.49 -0.22,0.5 -0.22,0.49 -0.22,0.5 -0.22,0.49 -0.22,0.49 -0.22,0.5 -0.22,0.49 -0.22,0.49 -0.22,0.49 -0.22,0.49 -0.23,0.5 -0.22,0.49 -0.22,0.49 -0.22,0.49 -0.22,0.49 -0.22,0.49 -0.23,0.49 -0.22,0.48 -0.22,0.49 -0.22,0.49 -0.23,0.49 -0.22,0.48 -0.22,0.49 -0.23,0.49 -0.22,0.48 -0.22,0.49 -0.23,0.49 -0.22,0.48 -0.22,0.49 -0.23,0.48 -0.22,0.48 -0.23,0.49 -0.22,0.48 -0.23,0.48 -0.22,0.49 -0.23,0.48 -0.22,0.48 -0.23,0.48 -0.22,0.48 -0.23,0.49 -0.22,0.48 -0.23,0.48 -0.22,0.48 -0.23,0.48 -0.23,0.47 -0.22,0.48 -0.23,0.48 -0.23,0.48 -0.22,0.48 -0.23,0.47 -0.23,0.48 -0.22,0.48 -0.23,0.47 -0.23,0.48 -0.23,0.48 -0.22,0.47 -0.23,0.48 -0.23,0.47 -0.23,0.47 -0.23,0.48 -0.22,0.47 -0.23,0.47 -0.23,0.48 -0.23,0.47 -0.23,0.47 -0.23,0.47 -0.23,0.47 -0.23,0.48 -0.23,0.47 -0.23,0.47 -0.23,0.47 -0.23,0.46 -0.23,0.47 -0.23,0.47 -0.23,0.47 -0.23,0.47 -0.23,0.47 -0.23,0.46 -0.23,0.47 -0.23,0.47 -0.23,0.46 -0.23,0.47 -0.23,0.46 -0.24,0.47 -0.23,0.46 -0.23,0.47 -0.23,0.46 -0.23,0.47 -0.24,0.46 -0.23,0.46 -0.23,0.46 -0.23,0.47 -0.24,0.46 -0.23,0.46 -0.23,0.46 -0.24,0.46 -0.23,0.46 -0.23,0.46 -0.24,0.46 -0.23,0.46 -0.23,0.46 -0.24,0.46 -0.23,0.46 -0.24,0.45 -0.23,0.46 -0.24,0.46 -0.23,0.45 -0.24,0.46 -0.23,0.46 -0.24,0.45 -0.23,0.46 -0.24,0.45 -0.23,0.46 -0.24,0.45 -0.23,0.45 -0.24,0.46 -0.24,0.45 -0.23,0.45 -0.24,0.45 -0.24,0.46 -0.23,0.45 -0.24,0.45 -0.24,0.45 -0.23,0.45 -0.24,0.45 -0.24,0.45 -0.23,0.45 -0.24,0.45 -0.24,0.45 -0.24,0.44 -0.24,0.45 -0.23,0.45 -0.24,0.45 -0.24,0.44 -0.24,0.45 -0.24,0.44 -0.24,0.45 -0.23,0.44 -0.24,0.45 -0.24,0.44 -0.24,0.45 -0.24,0.44 -0.24,0.44 -0.24,0.45 -0.24,0.44 -0.24,0.44 -0.24,0.44 -0.24,0.44 -0.24,0.44 -0.24,0.45 -0.24,0.44 -0.24,0.44 -0.24,0.43 -0.25,0.44 -0.24,0.44 -0.24,0.44 -0.24,0.44 -0.24,0.44 -0.24,0.43 -0.24,0.44 -0.25,0.44 -0.24,0.43 -0.24,0.44 -0.24,0.43 -0.24,0.44 -0.25,0.43 -0.24,0.44 -0.24,0.43 -0.25,0.43 -0.24,0.44 -0.24,0.43 -0.24,0.43 -0.25,0.43 -0.24,0.43 -0.25,0.43 -0.24,0.44 -0.24,0.43 -0.25,0.43 -0.24,0.42 -0.25,0.43 -0.24,0.43 -0.24,0.43 -0.25,0.43 -0.24,0.43 -0.25,0.42 -0.24,0.43 -0.25,0.43 -0.24,0.42 -0.25,0.43 -0.25,0.42 -0.24,0.43 -0.25,0.42 -0.24,0.43 -0.25,0.42 -0.25,0.42 -0.24,0.43 -0.25,0.42 -0.24,0.42 -0.25,0.42 -0.25,0.42 -0.25,0.42 -0.24,0.42 -0.25,0.42 -0.25,0.42 -0.24,0.42 -0.25,0.42 -0.25,0.42 -0.25,0.42 -0.25,0.42 -0.24,0.42 -0.25,0.41 -0.25,0.42 -0.25,0.42 -0.25,0.41 -0.25,0.42 -0.24,0.41 -0.25,0.42 -0.25,0.41 -0.25,0.41 -0.25,0.42 -0.25,0.41 -0.25,0.41 -0.25,0.42 -0.25,0.41 -0.25,0.41 -0.25,0.41 -0.25,0.41 -0.25,0.41 -0.25,0.41 -0.25,0.41 -0.25,0.41 -0.25,0.41 -0.25,0.41 -0.25,0.41 -0.25,0.4 -0.26,0.41 -0.25,0.41 -0.25,0.4 -0.25,0.41 -0.25,0.4 -0.25,0.41 -0.26,0.4 -0.25,0.41 -0.25,0.4 -0.25,0.41 -0.25,0.4 -0.26,0.4 -0.25,0.41 -0.25,0.4 -0.26,0.4 -0.25,0.4 -0.25,0.4 -0.26,0.4 -0.25,0.4 -0.25,0.4 -0.26,0.4 -0.25,0.4 -0.25,0.4 -0.26,0.4 -0.25,0.39 -0.26,0.4 -0.25,0.4 -0.25,0.39 -0.26,0.4 -0.25,0.4 -0.26,0.39 -0.25,0.4 -0.26,0.39 -0.25,0.39 -0.26,0.4 -0.25,0.39 -0.26,0.39 -0.26,0.4 -0.25,0.39 -0.26,0.39 -0.25,0.39 -0.26,0.39 -0.26,0.39 -0.25,0.39 -0.26,0.39 -0.25,0.39 -0.26,0.39 -0.26,0.39 -0.25,0.39 -0.26,0.38 -0.26,0.39 -0.26,0.39 -0.25,0.38 -0.26,0.39 -0.26,0.39 -0.26,0.38 -0.25,0.38 -0.26,0.39 -0.26,0.38 -0.26,0.39 -0.26,0.38 -0.25,0.38 -0.26,0.38 -0.26,0.39 -0.26,0.38 -0.26,0.38 -0.26,0.38 -0.26,0.38 -0.26,0.38 -0.26,0.38 -0.25,0.38 -0.26,0.38 -0.26,0.38 -0.26,0.37 -0.26,0.38 -0.26,0.38 -0.26,0.37 -0.26,0.38 -0.26,0.38 -0.26,0.37 -0.26,0.38 -0.26,0.37 -0.27,0.37 -0.26,0.38 -0.26,0.37 -0.26,0.37 -0.26,0.38 -0.26,0.37 -0.26,0.37 -0.26,0.37 -0.27,0.37 -0.26,0.37 -0.26,0.37 -0.26,0.37 -0.26,0.37 -0.26,0.37 -0.27,0.37 -0.26,0.37 -0.26,0.36 -0.26,0.37 -0.27,0.37 -0.26,0.36 -0.26,0.37 -0.27,0.37 -0.26,0.36 -0.26,0.37 -0.27,0.36 -0.26,0.36 -0.26,0.37 -0.27,0.36 -0.26,0.36 -0.26,0.36 -0.27,0.37 -0.26,0.36 -0.27,0.36 -0.26,0.36 -0.26,0.36 -0.27,0.36 -0.26,0.36 -0.27,0.36 -0.26,0.35 -0.27,0.36 -0.26,0.36 -0.27,0.36 -0.26,0.35 -0.27,0.36 -0.26,0.36 -0.27,0.35 -0.27,0.36 -0.26,0.35 -0.27,0.36 -0.26,0.35 -0.27,0.35 -0.27,0.36 -0.26,0.35 -0.27,0.35 -0.26,0.35 -0.27,0.35 -0.27,0.35 -0.26,0.35 -0.27,0.35 -0.27,0.35 -0.27,0.35 -0.26,0.35 -0.27,0.35 -0.27,0.35 -0.27,0.35 -0.26,0.34 -0.27,0.35 -0.27,0.35 -0.27,0.34 -0.26,0.35 -0.27,0.34 -0.27,0.35 -0.27,0.34 -0.27,0.34 -0.27,0.35 -0.26,0.34 -0.27,0.34 -0.27,0.34 -0.27,0.35 -0.27,0.34 -0.27,0.34 -0.27,0.34 -0.27,0.34 -0.27,0.34 -0.27,0.34 -0.27,0.34 -0.27,0.33 -0.27,0.34 -0.27,0.34 -0.27,0.34 -0.27,0.33 -0.27,0.34 -0.27,0.33 -0.27,0.34 -0.27,0.33 -0.27,0.34 -0.27,0.33 -0.27,0.34 -0.27,0.33 -0.27,0.33 -0.27,0.33 -0.28,0.33 -0.27,0.34 -0.27,0.33 -0.27,0.33 -0.27,0.33 -0.27,0.33 -0.27,0.33 -0.28,0.33 -0.27,0.32 -0.27,0.33 -0.27,0.33 -0.28,0.33 -0.27,0.32 -0.27,0.33 -0.27,0.32 -0.28,0.33 -0.27,0.32 -0.27,0.33 -0.27,0.32 -0.28,0.33 -0.27,0.32 -0.27,0.32 -0.28,0.33 -0.27,0.32 -0.27,0.32 -0.28,0.32 -0.27,0.32 -0.28,0.32 -0.27,0.32 -0.27,0.32 -0.28,0.32 -0.27,0.32 -0.28,0.32 -0.27,0.31 -0.27,0.32 -0.28,0.32 -0.27,0.31 -0.28,0.32 -0.27,0.31 -0.28,0.32 -0.27,0.31 -0.28,0.32 -0.27,0.31 -0.28,0.31 -0.28,0.32 -0.27,0.31 -0.28,0.31 -0.27,0.31 -0.28,0.31 -0.27,0.32 -0.28,0.31 -0.28,0.31 -0.27,0.3 -0.28,0.31 -0.27,0.31 -0.28,0.31 -0.28,0.31 -0.27,0.3 -0.28,0.31 -0.28,0.31 -0.27,0.3 -0.28,0.31 -0.28,0.3 -0.28,0.31 -0.27,0.3 -0.28,0.31 -0.28,0.3 -0.28,0.3 -0.27,0.3 -0.28,0.31 -0.28,0.3 -0.28,0.3 -0.27,0.3 -0.28,0.3 -0.28,0.3 -0.28,0.3 -0.28,0.3 -0.28,0.3 -0.27,0.29 -0.28,0.3 -0.28,0.3 -0.28,0.3 -0.28,0.29 -0.28,0.3 -0.28,0.29 -0.28,0.3 -0.28,0.29 -0.27,0.3 -0.28,0.29 -0.28,0.29 -0.28,0.3 -0.28,0.29 -0.28,0.29 -0.28,0.29 -0.28,0.29 -0.28,0.29 -0.28,0.29 -0.28,0.29 -0.28,0.29 -0.28,0.29 -0.28,0.29 -0.28,0.29 -0.28,0.28 -0.28,0.29 -0.29,0.29 -0.28,0.28 -0.28,0.29 -0.28,0.28 -0.28,0.29 -0.28,0.28 -0.28,0.29 -0.28,0.28 -0.28,0.28 -0.29,0.29 -0.28,0.28 -0.28,0.28 -0.28,0.28 -0.28,0.28 -0.29,0.28 -0.28,0.28 -0.28,0.28 -0.28,0.28 -0.28,0.28 -0.29,0.28 -0.28,0.27 -0.28,0.28 -0.28,0.28 -0.29,0.28 -0.28,0.27 -0.28,0.28 -0.28,0.27 -0.29,0.28 -0.28,0.27 -0.28,0.27 -0.29,0.28 -0.28,0.27 -0.28,0.27 -0.29,0.27 -0.28,0.28 -0.28,0.27 -0.29,0.27 -0.28,0.27 -0.29,0.27 -0.28,0.27 -0.28,0.26 -0.29,0.27 -0.28,0.27 -0.29,0.27 -0.28,0.27 -0.29,0.26 -0.28,0.27 -0.28,0.26 -0.29,0.27 -0.28,0.26 -0.29,0.27 -0.28,0.26 -0.29,0.26 -0.28,0.27 -0.29,0.26 -0.28,0.26 -0.29,0.26 -0.28,0.26 -0.29,0.27 -0.29,0.26 -0.28,0.26 -0.29,0.25 -0.28,0.26 -0.29,0.26 -0.28,0.26 -0.29,0.26 -0.29,0.25 -0.28,0.26 -0.29,0.26 -0.28,0.25 -0.29,0.26 -0.29,0.25 -0.28,0.26 -0.29,0.25 -0.29,0.25 -0.28,0.26 -0.29,0.25 -0.29,0.25 -0.28,0.25 -0.29,0.26 -0.29,0.25 -0.29,0.25 -0.28,0.25 -0.29,0.25 -0.29,0.24 -0.29,0.25 -0.28,0.25 -0.29,0.25 -0.29,0.25 -0.29,0.24 -0.28,0.25 -0.29,0.24 -0.29,0.25 -0.29,0.24 -0.29,0.25 -0.28,0.24 -0.29,0.25 -0.29,0.24 -0.29,0.24 -0.29,0.24 -0.29,0.25 -0.29,0.24 -0.28,0.24 -0.29,0.24 -0.29,0.24 -0.29,0.24 -0.29,0.24 -0.29,0.23 -0.29,0.24 -0.29,0.24 -0.29,0.24 -0.29,0.23 -0.28,0.24 -0.29,0.24 -0.29,0.23 -0.29,0.24 -0.29,0.23 -0.29,0.23 -0.29,0.24 -0.29,0.23 -0.29,0.23 -0.29,0.24 -0.29,0.23 -0.29,0.23 -0.29,0.23 -0.29,0.23 -0.29,0.23 -0.29,0.23 -0.29,0.23 -0.3,0.23 -0.29,0.22 -0.29,0.23 -0.29,0.23 -0.29,0.22 -0.29,0.23 -0.29,0.23 -0.29,0.22 -0.29,0.23 -0.29,0.22 -0.29,0.22 -0.3,0.23 -0.29,0.22 -0.29,0.22 -0.29,0.23 -0.29,0.22 -0.29,0.22 -0.3,0.22 -0.29,0.22 -0.29,0.22 -0.29,0.22 -0.29,0.22 -0.29,0.22 -0.3,0.21 -0.29,0.22 -0.29,0.22 -0.29,0.21 -0.3,0.22 -0.29,0.22 -0.29,0.21 -0.29,0.22 -0.3,0.21 -0.29,0.21 -0.29,0.22 -0.29,0.21 -0.3,0.21 -0.29,0.21 -0.29,0.22 -0.3,0.21 -0.29,0.21 -0.29,0.21 -0.3,0.21 -0.29,0.21 -0.29,0.2 -0.3,0.21 -0.29,0.21 -0.29,0.21 -0.3,0.2 -0.29,0.21 -0.29,0.21 -0.3,0.2 -0.29,0.21 -0.3,0.2 -0.29,0.21 -0.29,0.2 -0.3,0.2 -0.29,0.2 -0.3,0.21 -0.29,0.2 -0.29,0.2 -0.3,0.2 -0.29,0.2 -0.3,0.2 -0.29,0.2 -0.3,0.2 -0.29,0.2 -0.3,0.2 -0.29,0.19 -0.3,0.2 -0.29,0.2 -0.3,0.19 -0.29,0.2 -0.3,0.19 -0.29,0.2 -0.3,0.19 -0.29,0.2 -0.3,0.19 -0.29,0.19 -0.3,0.2 -0.29,0.19 -0.3,0.19 -0.29,0.19 -0.3,0.19 -0.3,0.19 -0.29,0.19 -0.3,0.19 -0.29,0.19 -0.3,0.19 -0.3,0.18 -0.29,0.19 -0.3,0.19 -0.29,0.18 -0.3,0.19 -0.3,0.19 -0.29,0.18 -0.3,0.19 -0.29,0.18 -0.3,0.18 -0.3,0.19 -0.29,0.18 -0.3,0.18 -0.3,0.18 -0.29,0.18 -0.3,0.18 -0.3,0.18 -0.3,0.18 -0.29,0.18 -0.3,0.18 -0.3,0.18 -0.29,0.18 -0.3,0.18 -0.3,0.17 -0.3,0.18 -0.29,0.18 -0.3,0.17 -0.3,0.18 -0.29,0.17 -0.3,0.18 -0.3,0.17 -0.3,0.17 -0.3,0.18 -0.29,0.17 -0.3,0.17 -0.3,0.17 -0.3,0.17 -0.29,0.17 -0.3,0.17 -0.3,0.17 -0.3,0.17 -0.3,0.17 -0.3,0.17 -0.29,0.17 -0.3,0.16 -0.3,0.17 -0.3,0.17 -0.3,0.16 -0.3,0.17 -0.29,0.16 -0.3,0.17 -0.3,0.16 -0.3,0.16 -0.3,0.17 -0.3,0.16 -0.3,0.16 -0.3,0.16 -0.29,0.16 -0.3,0.16 -0.3,0.16 -0.3,0.16 -0.3,0.16 -0.3,0.16 -0.3,0.16 -0.3,0.16 -0.3,0.15 -0.3,0.16 -0.3,0.16 -0.3,0.15 -0.29,0.16 -0.3,0.15 -0.3,0.16 -0.3,0.15 -0.3,0.16 -0.3,0.15 -0.3,0.15 -0.3,0.15 -0.3,0.16 -0.3,0.15 -0.3,0.15 -0.3,0.15 -0.3,0.15 -0.3,0.15 -0.3,0.15 -0.3,0.14 -0.3,0.15 -0.3,0.15 -0.3,0.15 -0.3,0.14 -0.3,0.15 -0.3,0.14 -0.31,0.15 -0.3,0.14 -0.3,0.15 -0.3,0.14 -0.3,0.14 -0.3,0.15 -0.3,0.14 -0.3,0.14 -0.3,0.14 -0.3,0.14 -0.3,0.14 -0.3,0.14 -0.3,0.14 -0.3,0.14 -0.31,0.14 -0.3,0.14 -0.3,0.13 -0.3,0.14 -0.3,0.14 -0.3,0.13 -0.3,0.14 -0.3,0.13 -0.31,0.14 -0.3,0.13 -0.3,0.14 -0.3,0.13 -0.3,0.13 -0.3,0.13 -0.3,0.14 -0.31,0.13 -0.3,0.13 -0.3,0.13 -0.3,0.13 -0.3,0.13 -0.31,0.13 -0.3,0.12 -0.3,0.13 -0.3,0.13 -0.3,0.13 -0.31,0.12 -0.3,0.13 -0.3,0.12 -0.3,0.13 -0.3,0.12 -0.31,0.13 -0.3,0.12 -0.3,0.13 -0.3,0.12 -0.31,0.12 -0.3,0.12 -0.3,0.12 -0.3,0.12 -0.31,0.12 -0.3,0.12 -0.3,0.12 -0.3,0.12 -0.31,0.12 -0.3,0.12 -0.3,0.12 -0.3,0.11 -0.31,0.12 -0.3,0.12 -0.3,0.11 -0.3,0.12 -0.31,0.11 -0.3,0.11 -0.3,0.12 -0.31,0.11 -0.3,0.11 -0.3,0.12 -0.31,0.11 -0.3,0.11 -0.3,0.11 -0.31,0.11 -0.3,0.11 -0.3,0.11 -0.31,0.11 -0.3,0.11 -0.3,0.1 -0.31,0.11 -0.3,0.11 -0.3,0.11 -0.31,0.1 -0.3,0.11 -0.3,0.1 -0.31,0.11 -0.3,0.1 -0.3,0.1 -0.31,0.11 -0.3,0.1 -0.31,0.1 -0.3,0.1 -0.3,0.1 -0.31,0.11 -0.3,0.1 -0.3,0.1 -0.31,0.09 -0.3,0.1 -0.31,0.1 -0.3,0.1 -0.3,0.1 -0.31,0.09 -0.3,0.1 -0.31,0.1 -0.3,0.09 -0.31,0.1 -0.3,0.09 -0.3,0.1 -0.31,0.09 -0.3,0.09 -0.31,0.09 -0.3,0.1 -0.31,0.09 -0.3,0.09 -0.3,0.09 -0.31,0.09 -0.3,0.09 -0.31,0.09 -0.3,0.09 -0.31,0.09 -0.3,0.08 -0.31,0.09 -0.3,0.09 -0.31,0.08 -0.3,0.09 -0.31,0.09 -0.3,0.08 -0.3,0.08 -0.31,0.09 -0.3,0.08 -0.31,0.09 -0.3,0.08 -0.31,0.08 -0.3,0.08 -0.31,0.08 -0.3,0.08 -0.31,0.08 -0.3,0.08 -0.31,0.08 -0.3,0.08 -0.31,0.08 -0.3,0.08 -0.31,0.07 -0.3,0.08 -0.31,0.08 -0.3,0.07 -0.31,0.08 -0.31,0.07 -0.3,0.08 -0.31,0.07 -0.3,0.07 -0.31,0.08 -0.3,0.07 -0.31,0.07 -0.3,0.07 -0.31,0.07 -0.3,0.07 -0.31,0.07 -0.3,0.07 -0.31,0.07 -0.31,0.07 -0.3,0.07 -0.31,0.07 -0.3,0.06 -0.31,0.07 -0.3,0.07 -0.31,0.06 -0.3,0.07 -0.31,0.06 -0.31,0.07 -0.3,0.06 -0.31,0.06 -0.3,0.07 -0.31,0.06 -0.3,0.06 -0.31,0.06 -0.31,0.06 -0.3,0.06 -0.31,0.06 -0.3,0.06 -0.31,0.06 -0.31,0.06 -0.3,0.06 -0.31,0.05 -0.3,0.06 -0.31,0.06 -0.31,0.05 -0.3,0.06 -0.31,0.05 -0.3,0.06 -0.31,0.05 -0.31,0.06 -0.3,0.05 -0.31,0.05 -0.3,0.05 -0.31,0.06 -0.31,0.05 -0.3,0.05 -0.31,0.05 -0.31,0.05 -0.3,0.05 -0.31,0.05 -0.3,0.04 -0.31,0.05 -0.31,0.05 -0.3,0.05 -0.31,0.04 -0.31,0.05 -0.3,0.04 -0.31,0.05 -0.3,0.04 -0.31,0.05 -0.31,0.04 -0.3,0.04 -0.31,0.05 -0.31,0.04 -0.3,0.04 -0.31,0.04 -0.31,0.04 -0.3,0.04 -0.31,0.04 -0.31,0.04 -0.3,0.04 -0.31,0.04 -0.3,0.04 -0.31,0.03 -0.31,0.04 -0.3,0.04 -0.31,0.03 -0.31,0.04 -0.3,0.03 -0.31,0.04 -0.31,0.03 -0.3,0.03 -0.31,0.04 -0.31,0.03 -0.3,0.03 -0.31,0.03 -0.31,0.03 -0.3,0.03 -0.31,0.03 -0.31,0.03 -0.3,0.03 -0.31,0.03 -0.31,0.03 -0.3,0.03 -0.31,0.02 -0.31,0.03 -0.3,0.02 -0.31,0.03 -0.31,0.03 -0.3,0.02 -0.31,0.02 -0.31,0.03 -0.31,0.02 -0.3,0.02 -0.31,0.03 -0.31,0.02 -0.3,0.02 -0.31,0.02 -0.31,0.02 -0.3,0.02 -0.31,0.02 -0.31,0.02 -0.3,0.02 -0.31,0.01 -0.31,0.02 -0.3,0.02 -0.31,0.02 -0.31,0.01 -0.3,0.02 -0.31,0.01 -0.31,0.02 -0.31,0.01 -0.3,0.01 -0.31,0.02 -0.31,0.01 -0.3,0.01 -0.31,0.01 -0.31,0.01 -0.3,0.01 -0.31,0.01 -0.31,0.01 -0.3,0.01 -0.31,0.01 -0.31,0.01 -0.31,0.01 -0.3,0.01 -0.31,0 -0.31,0.01 -0.3,0 -0.31,0.01 -0.31,0 -0.3,0.01 -0.31,0 -0.31,0.01 -0.3,0 -0.31,0 -0.31,0 -0.31,0 -0.3,0.01 -0.31,0 -0.14,0"
   style="fill:none;stroke:#000000;stroke-width:12;stroke-linecap:butt;stroke-linejoin:miter;stroke-miterlimit:2;stroke-opacity:1;stroke-dasharray:none;fill-opacity:0.25000000000000000"
   id="path5548"
   inkscape:connector-curvature="0" /><path
   d="m 568.82156,841.93995 0,1435.33005"
   style="fill:none;stroke:#000000;stroke-width:3.2;stroke-linecap:butt;stroke-linejoin:miter;stroke-miterlimit:2;stroke-opacity:1;stroke-dasharray:none;marker-start:url(#Arrow1Lstart);marker-end:url(#Arrow1Lend)"
   id="path5568"
   inkscape:connector-curvature="0" /><path
   d="m 1674.6316,1243.5849 0,1033.1291"
   style="fill:none;stroke:#000000;stroke-width:3.19222713;stroke-linecap:butt;stroke-linejoin:miter;stroke-miterlimit:2;stroke-opacity:1;stroke-dasharray:none;marker-start:url(#Arrow1Lstart);marker-end:url(#Arrow1Lend)"
   id="path5588"
   inkscape:connector-curvature="0" /><path
   style="fill:none;stroke:#000000;stroke-width:4.8;stroke-linecap:butt;stroke-linejoin:miter;stroke-miterlimit:4;stroke-opacity:1;stroke-dasharray:none;marker-start:url(#Arrow1Lstart);marker-end:url(#Arrow1Lend)"
   d="m 1131.2316,2469.96 0,-1632.00005 768,0"
   id="path6838"
   inkscape:path-effect="#path-effect6840"
   inkscape:original-d="m 1131.2316,2469.96 c 0,0 0,0 0,-1632.00005 768,0 768,0 768,0"
   inkscape:connector-curvature="0" /><path
   style="fill:none;stroke:#000000;stroke-width:3.2;stroke-linecap:butt;stroke-linejoin:miter;stroke-miterlimit:4;stroke-opacity:1;stroke-dasharray:none"
   d="m 1587.2316,1236.36 0,-560.00005"
   id="path7394"
   inkscape:path-effect="#path-effect7396"
   inkscape:original-d="m 1587.2316,1236.36 c 0,-560.00005 0,-560.00005 0,-560.00005"
   inkscape:connector-curvature="0" /><path
   style="fill:none;stroke:#000000;stroke-width:3.2;stroke-linecap:butt;stroke-linejoin:miter;stroke-miterlimit:4;stroke-opacity:1;stroke-dasharray:none"
   d="m 678.43156,1236.36 0,-560.00005"
   id="path7398"
   inkscape:path-effect="#path-effect7400"
   inkscape:original-d="m 678.43156,1236.36 0,-560.00005"
   inkscape:connector-curvature="0" /><path
   style="fill:none;stroke:#000000;stroke-width:3.2;stroke-linecap:butt;stroke-linejoin:miter;stroke-miterlimit:4;stroke-opacity:1;stroke-dasharray:none;marker-start:url(#Arrow1Lstart);marker-end:url(#Arrow1Lend)"
   d="m 681.63156,724.35995 896.00004,0"
   id="path7402"
   inkscape:path-effect="#path-effect7404"
   inkscape:original-d="m 681.63156,724.35995 c 896.00004,0 896.00004,0 896.00004,0"
   inkscape:connector-curvature="0" /><text
   xml:space="preserve"
   style="font-size:80px;font-style:normal;font-variant:normal;font-weight:normal;font-stretch:normal;text-align:start;line-height:125%;letter-spacing:0px;word-spacing:0px;writing-mode:lr-tb;text-anchor:start;fill:#000000;fill-opacity:1;stroke:none;font-family:Monospace;-inkscape-font-specification:Monospace"
   x="1078.4329"
   y="-644.3598"
   id="text7774"
   sodipodi:linespacing="125%"
   transform="scale(1,-1)"><tspan
     sodipodi:role="line"
     id="tspan7776"
     x="1078.4329"
     y="-644.3598">2R</tspan></text>






<text
   xml:space="preserve"
   style="font-size:80px;font-style:normal;font-variant:normal;font-weight:normal;font-stretch:normal;text-align:start;line-height:125%;letter-spacing:0px;word-spacing:0px;writing-mode:lr-tb;text-anchor:start;fill:#000000;fill-opacity:1;stroke:none;font-family:Monospace;-inkscape-font-specification:Monospace"
   x="467.1832"
   y="-1461.4397"
   id="text7778"
   sodipodi:linespacing="125%"
   transform="scale(1,-1)"><tspan
     sodipodi:role="line"
     id="tspan7780"
     x="467.1832"
     y="-1461.4397">H</tspan></text>






<text
   xml:space="preserve"
   style="font-size:80px;font-style:normal;font-variant:normal;font-weight:normal;font-stretch:normal;text-align:start;line-height:125%;letter-spacing:0px;word-spacing:0px;writing-mode:lr-tb;text-anchor:start;fill:#000000;fill-opacity:1;stroke:none;font-family:Monospace;-inkscape-font-specification:Monospace"
   x="1731.2341"
   y="-1716.3597"
   id="text7782"
   sodipodi:linespacing="125%"
   transform="scale(1,-1)"><tspan
     sodipodi:role="line"
     id="tspan7784"
     x="1731.2341"
     y="-1716.3597">f<tspan
   style="font-size:52.00073242px;baseline-shift:sub"
   id="tspan7786">p</tspan>R</tspan></text>






<text
   xml:space="preserve"
   style="font-size:73.2986908px;font-style:normal;font-variant:normal;font-weight:normal;font-stretch:normal;text-align:start;line-height:125%;letter-spacing:0px;word-spacing:0px;writing-mode:lr-tb;text-anchor:start;fill:#000000;fill-opacity:1;stroke:none;font-family:Monospace;-inkscape-font-specification:Monospace"
   x="1076.0553"
   y="-2641.6409"
   id="text7788"
   sodipodi:linespacing="125%"
   transform="scale(1.0914247,-0.91623362)"><tspan
     sodipodi:role="line"
     id="tspan7790"
     x="1076.0553"
     y="-2641.6409">z</tspan></text>






<text
   xml:space="preserve"
   style="font-size:80px;font-style:normal;font-variant:normal;font-weight:normal;font-stretch:normal;text-align:start;line-height:125%;letter-spacing:0px;word-spacing:0px;writing-mode:lr-tb;text-anchor:start;fill:#000000;fill-opacity:1;stroke:none;font-family:Monospace;-inkscape-font-specification:Monospace"
   x="1846.4329"
   y="-756.3598"
   id="text7792"
   sodipodi:linespacing="125%"
   transform="scale(1,-1)"><tspan
     sodipodi:role="line"
     id="tspan7794"
     x="1846.4329"
     y="-756.3598">x</tspan></text>






<path
   sodipodi:type="arc"
   style="fill:#818181;fill-opacity:0.23999999;stroke:none"
   id="path4927"
   sodipodi:cx="-640"
   sodipodi:cy="800.39783"
   sodipodi:rx="200"
   sodipodi:ry="400"
   d="m -440,800.39783 c 0,220.91387 -89.54305,399.99997 -200,399.99997 -110.45695,0 -200,-179.0861 -200,-399.99997 0,-220.9139 89.54305,-400 200,-400 110.45695,0 200,179.0861 200,400 z"
   transform="matrix(2.251477,0,0,-2.5729392,2574.6965,3313.0128)"
   clip-path="url(#clipPath4939)" /></g></svg>