<?xml version="1.0" encoding="UTF-8" standalone="no"?>
<!-- Created with Inkscape (http://www.inkscape.org/) -->

<svg
   xmlns:dc="http://purl.org/dc/elements/1.1/"
   xmlns:cc="http://creativecommons.org/ns#"
   xmlns:rdf="http://www.w3.org/1999/02/22-rdf-syntax-ns#"
   xmlns:svg="http://www.w3.org/2000/svg"
   xmlns="http://www.w3.org/2000/svg"
   xmlns:sodipodi="http://sodipodi.sourceforge.net/DTD/sodipodi-0.dtd"
   xmlns:inkscape="http://www.inkscape.org/namespaces/inkscape"
   id="svg11026"
   version="1.1"
   inkscape:version="0.48.2 r9819"
   width="1687.3047"
   height="1195.0997"
   xml:space="preserve"
   sodipodi:docname="Tetrahedron2dxz.svg"><metadata
     id="metadata11032"><rdf:RDF><cc:Work
         rdf:about=""><dc:format>image/svg+xml</dc:format><dc:type
           rdf:resource="http://purl.org/dc/dcmitype/StillImage" /><dc:title /></cc:Work></rdf:RDF></metadata><defs
     id="defs11030"><inkscape:path-effect
       effect="spiro"
       id="path-effect11988"
       is_visible="true" /><marker
       inkscape:stockid="Arrow1Lend"
       orient="auto"
       refY="0"
       refX="0"
       id="Arrow1Lend"
       style="overflow:visible"><path
         id="path4395"
         d="M 0,0 5,-5 -12.5,0 5,5 0,0 z"
         style="fill-rule:evenodd;stroke:#000000;stroke-width:1pt;marker-start:none"
         transform="matrix(-0.8,0,0,-0.8,-10,0)"
         inkscape:connector-curvature="0" /></marker><marker
       inkscape:stockid="Arrow1Lstart"
       orient="auto"
       refY="0"
       refX="0"
       id="Arrow1Lstart"
       style="overflow:visible"><path
         id="path4392"
         d="M 0,0 5,-5 -12.5,0 5,5 0,0 z"
         style="fill-rule:evenodd;stroke:#000000;stroke-width:1pt;marker-start:none"
         transform="matrix(0.8,0,0,0.8,10,0)"
         inkscape:connector-curvature="0" /></marker><clipPath
       clipPathUnits="userSpaceOnUse"
       id="clipPath11056"><path
         d="m -0.03,-0.03 2384,0 0,3370.45 -2384,0"
         id="path11058"
         inkscape:connector-curvature="0" /></clipPath><clipPath
       clipPathUnits="userSpaceOnUse"
       id="clipPath11076"><path
         d="m -0.03,-0.03 2384,0 0,3370.45 -2384,0"
         id="path11078"
         inkscape:connector-curvature="0" /></clipPath></defs><sodipodi:namedview
     pagecolor="#ffffff"
     bordercolor="#666666"
     borderopacity="1"
     objecttolerance="10"
     gridtolerance="10"
     guidetolerance="10"
     inkscape:pageopacity="0"
     inkscape:pageshadow="2"
     inkscape:window-width="1894"
     inkscape:window-height="1095"
     id="namedview11028"
     showgrid="true"
     units="pt"
     fit-margin-top="15"
     fit-margin-left="15"
     fit-margin-bottom="15"
     fit-margin-right="15"
     inkscape:zoom="0.59"
     inkscape:cx="683.8264"
     inkscape:cy="614.16546"
     inkscape:window-x="1"
     inkscape:window-y="0"
     inkscape:window-maximized="0"
     inkscape:current-layer="g11034"><inkscape:grid
       type="xygrid"
       id="grid11984"
       empspacing="5"
       visible="true"
       enabled="true"
       snapvisiblegridlinesonly="true" /></sodipodi:namedview><g
     id="g11034"
     inkscape:groupmode="layer"
     inkscape:label="Tetrahedron_Blatt__2"
     transform="matrix(1.25,0,0,-1.25,-647.93945,2736.4497)"><path
   d="m 697.23171,1327.67 -125.88342,0"
   style="fill:none;stroke:#000000;stroke-width:3.20000005;stroke-linecap:butt;stroke-linejoin:miter;stroke-miterlimit:2;stroke-opacity:1;stroke-dasharray:none"
   id="path11036"
   inkscape:connector-curvature="0" /><path
   d="m 934.1798,2042.73 -361.27939,0"
   style="fill:none;stroke:#000000;stroke-width:3.20000005;stroke-linecap:butt;stroke-linejoin:miter;stroke-miterlimit:2;stroke-opacity:1;stroke-dasharray:none"
   id="path11038"
   inkscape:connector-curvature="0" /><path
   d="m 1197.64,1330.87 212.82,0"
   style="fill:none;stroke:#804000;stroke-width:0.37;stroke-linecap:butt;stroke-linejoin:miter;stroke-miterlimit:2;stroke-opacity:1;stroke-dasharray:none"
   id="path11040"
   inkscape:connector-curvature="0" /><path
   d="m 695.91,1330.87 992.12,0"
   style="fill:none;stroke:#000000;stroke-width:12;stroke-linecap:butt;stroke-linejoin:miter;stroke-miterlimit:2;stroke-opacity:1;stroke-dasharray:none"
   id="path11042"
   inkscape:connector-curvature="0" /><path
   d="m 934.5,2039.53 514.94,0"
   style="fill:none;stroke:#000000;stroke-width:12;stroke-linecap:butt;stroke-linejoin:miter;stroke-miterlimit:2;stroke-opacity:1;stroke-dasharray:none"
   id="path11044"
   inkscape:connector-curvature="0" /><path
   d="m 1688.03,1330.87 -238.59,708.66"
   style="fill:none;stroke:#000000;stroke-width:12;stroke-linecap:round;stroke-linejoin:miter;stroke-miterlimit:2;stroke-opacity:1;stroke-dasharray:none"
   id="path11046"
   inkscape:connector-curvature="0" /><path
   d="M 695.91,1330.87 934.5,2039.53"
   style="fill:none;stroke:#000000;stroke-width:12;stroke-linecap:round;stroke-linejoin:miter;stroke-miterlimit:2;stroke-opacity:1;stroke-dasharray:none"
   id="path11048"
   inkscape:connector-curvature="0" /><path
   d="m 613.76,1330.87 0,708.66"
   style="fill:none;stroke:#000000;stroke-width:3.2;stroke-linecap:butt;stroke-linejoin:miter;stroke-miterlimit:2;stroke-opacity:1;stroke-dasharray:none;marker-start:url(#Arrow1Lstart);marker-end:url(#Arrow1Lend)"
   id="path11068"
   inkscape:connector-curvature="0" /><path
   d="m 1403.33,1336.34 1.47,-5.47 1.46,5.47"
   style="fill:none;stroke:#804000;stroke-width:0.37;stroke-linecap:butt;stroke-linejoin:miter;stroke-miterlimit:2;stroke-opacity:1;stroke-dasharray:none"
   id="path11086"
   inkscape:connector-curvature="0" /><path
   d="m 1597.66,1599.3 -0.67,-0.23 -0.67,-0.23 -0.67,-0.23 -0.67,-0.23 -0.67,-0.23 -0.67,-0.24 -0.67,-0.24 -0.67,-0.24 -0.66,-0.24 -0.67,-0.24 -0.67,-0.24 -0.66,-0.25 -0.66,-0.24 -0.67,-0.25 -0.66,-0.25 -0.66,-0.25 -0.66,-0.26 -0.67,-0.25 -0.66,-0.26 -0.66,-0.26 -0.66,-0.26 -0.65,-0.26 -0.66,-0.26 -0.66,-0.27 -0.66,-0.27 -0.65,-0.27 -0.66,-0.27 -0.65,-0.27 -0.65,-0.27 -0.66,-0.28 -0.65,-0.27 -0.65,-0.28 -0.65,-0.28 -0.65,-0.28 -0.65,-0.29 -0.65,-0.28 -0.65,-0.29 -0.65,-0.28 -0.64,-0.29 -0.65,-0.3 -0.65,-0.29 -0.64,-0.29 -0.64,-0.3 -0.65,-0.3 -0.64,-0.3 -0.64,-0.3 -0.64,-0.3 -0.64,-0.3 -0.64,-0.31 -0.64,-0.31 -0.64,-0.31 -0.63,-0.31 -0.64,-0.31 -0.64,-0.31 -0.63,-0.32 -0.63,-0.31 -0.64,-0.32 -0.63,-0.32 -0.63,-0.32 -0.63,-0.33 -0.63,-0.32 -0.63,-0.33 -0.63,-0.33 -0.63,-0.33 -0.62,-0.33 -0.63,-0.33 -0.62,-0.33 -0.63,-0.34 -0.62,-0.34 -0.62,-0.34 -0.62,-0.34 -0.63,-0.34 -0.62,-0.34 -0.61,-0.35 -0.62,-0.34 -0.62,-0.35 -0.62,-0.35 -0.61,-0.35 -0.62,-0.36 -0.61,-0.35 -0.61,-0.36 -0.61,-0.35 -0.62,-0.36 -0.61,-0.36 -0.6,-0.37 -0.61,-0.36 -0.61,-0.36 -0.61,-0.37 -0.6,-0.37 -0.61,-0.37 -0.6,-0.37 -0.6,-0.37 -0.61,-0.38 -0.6,-0.37 -0.6,-0.38 -0.6,-0.38 -0.59,-0.38 -0.6,-0.38 -0.6,-0.38 -0.59,-0.39 -0.6,-0.38 -0.59,-0.39 -0.59,-0.39 -0.59,-0.39 -0.59,-0.39 -0.59,-0.4 -0.59,-0.39 -0.59,-0.4 -0.58,-0.4 -0.59,-0.4 -0.58,-0.4 -0.59,-0.4 -0.58,-0.4 -0.58,-0.41 -0.58,-0.4 -0.58,-0.41 -0.58,-0.41 -0.58,-0.41 -0.57,-0.42 -0.58,-0.41 -0.57,-0.41 -0.58,-0.42 -0.57,-0.42 -0.57,-0.42 -0.57,-0.42 -0.57,-0.42 -0.57,-0.43 -0.56,-0.42 -0.57,-0.43 -0.56,-0.43 -0.57,-0.43 -0.56,-0.43 -0.56,-0.43 -0.56,-0.43 -0.56,-0.44 -0.56,-0.44 -0.56,-0.43 -0.55,-0.44 -0.56,-0.44 -0.55,-0.45 -0.55,-0.44 -0.55,-0.44 -0.55,-0.45 -0.55,-0.45 -0.55,-0.45 -0.55,-0.45 -0.55,-0.45 -0.54,-0.45 -0.54,-0.46 -0.55,-0.45 -0.54,-0.46 -0.54,-0.46 -0.54,-0.46 -0.54,-0.46 -0.53,-0.46 -0.54,-0.47 -0.53,-0.46 -0.54,-0.47 -0.53,-0.47 -0.53,-0.47 -0.53,-0.47 -0.53,-0.47 -0.52,-0.47 -0.53,-0.48 -0.53,-0.47 -0.52,-0.48 -0.52,-0.48 -0.52,-0.48 -0.52,-0.48 -0.52,-0.48 -0.52,-0.49 -0.52,-0.48 -0.51,-0.49 -0.52,-0.49 -0.51,-0.48 -0.51,-0.49 -0.51,-0.5 -0.51,-0.49 -0.51,-0.49 -0.51,-0.5 -0.5,-0.49 -0.51,-0.5 -0.5,-0.5 -0.5,-0.5 -0.5,-0.5 -0.5,-0.51 -0.5,-0.5 -0.5,-0.51 -0.49,-0.5 -0.5,-0.51 -0.49,-0.51 -0.49,-0.51 -0.49,-0.51 -0.49,-0.51 -0.49,-0.52 -0.49,-0.51 -0.48,-0.52 -0.48,-0.52 -0.49,-0.52 -0.48,-0.52 -0.48,-0.52 -0.48,-0.52 -0.48,-0.52 -0.47,-0.53 -0.48,-0.52 -0.47,-0.53 -0.47,-0.53 -0.47,-0.53 -0.47,-0.53 -0.47,-0.53 -0.47,-0.53 -0.46,-0.54 -0.47,-0.53 -0.46,-0.54 -0.46,-0.54 -0.46,-0.54 -0.46,-0.54 -0.46,-0.54 -0.46,-0.54 -0.45,-0.54 -0.45,-0.55 -0.46,-0.54 -0.45,-0.55 -0.45,-0.55 -0.44,-0.55 -0.45,-0.55 -0.45,-0.55 -0.44,-0.55 -0.44,-0.56 -0.44,-0.55 -0.44,-0.56 -0.44,-0.55 -0.44,-0.56 -0.43,-0.56 -0.44,-0.56 -0.43,-0.56 -0.43,-0.56 -0.43,-0.57 -0.43,-0.56 -0.43,-0.57 -0.42,-0.56 -0.43,-0.57 -0.42,-0.57 -0.42,-0.57 -0.42,-0.57 -0.42,-0.57 -0.42,-0.58 -0.41,-0.57 -0.42,-0.57 -0.41,-0.58 -0.41,-0.58 -0.41,-0.58 -0.41,-0.57 -0.41,-0.58 -0.4,-0.59 -0.41,-0.58 -0.4,-0.58 -0.4,-0.59 -0.4,-0.58 -0.4,-0.59 -0.39,-0.58 -0.4,-0.59 -0.39,-0.59 -0.4,-0.59 -0.39,-0.59 -0.39,-0.59 -0.38,-0.6 -0.39,-0.59 -0.39,-0.6 -0.38,-0.59 -0.38,-0.6 -0.38,-0.6 -0.38,-0.6 -0.38,-0.6 -0.37,-0.6 -0.38,-0.6 -0.37,-0.6 -0.37,-0.6 -0.37,-0.61 -0.37,-0.6 -0.37,-0.61 -0.36,-0.61 -0.37,-0.61 -0.36,-0.6 -0.36,-0.61 -0.36,-0.62 -0.36,-0.61 -0.35,-0.61 -0.36,-0.61 -0.35,-0.62 -0.35,-0.61 -0.35,-0.62 -0.35,-0.62 -0.35,-0.61 -0.34,-0.62 -0.35,-0.62 -0.34,-0.62 -0.34,-0.62 -0.34,-0.63 -0.34,-0.62 -0.33,-0.62 -0.34,-0.63 -0.33,-0.62 -0.33,-0.63 -0.33,-0.63 -0.33,-0.62 -0.33,-0.63 -0.32,-0.63 -0.33,-0.63 -0.32,-0.64 -0.32,-0.63 -0.32,-0.63 -0.32,-0.63 -0.31,-0.64 -0.32,-0.63 -0.31,-0.64 -0.31,-0.64 -0.31,-0.63 -0.31,-0.64 -0.3,-0.64 -0.31,-0.64 -0.3,-0.64 -0.3,-0.64 -0.3,-0.65 -0.3,-0.64 -0.29,-0.64 -0.3,-0.65 -0.29,-0.64 -0.29,-0.65 -0.29,-0.64 -0.29,-0.65 -0.29,-0.65 -0.28,-0.65 -0.29,-0.65 -0.28,-0.65 -0.28,-0.65 -0.28,-0.65 -0.28,-0.65 -0.27,-0.66 -0.28,-0.65 -0.27,-0.65 -0.27,-0.66 -0.27,-0.65 -0.26,-0.66 -0.27,-0.66 -0.26,-0.66 -0.27,-0.65 -0.26,-0.66 -0.26,-0.66 -0.25,-0.66 -0.26,-0.66 -0.25,-0.67 -0.25,-0.66 -0.26,-0.66 -0.24,-0.66 -0.25,-0.67 -0.25,-0.66 -0.24,-0.67 -0.24,-0.66 -0.24,-0.67 -0.24,-0.67 -0.24,-0.67 -0.24,-0.66 -0.23,-0.67 -0.23,-0.67 -0.23,-0.67 -0.23,-0.67 -0.23,-0.67 -0.23,-0.68 -0.22,-0.67 -0.22,-0.67 -0.22,-0.67 -0.22,-0.68 -0.22,-0.67 -0.21,-0.68 -0.22,-0.67 -0.21,-0.68 -0.21,-0.68 -0.21,-0.67 -0.21,-0.68 -0.2,-0.68 -0.21,-0.68 -0.2,-0.68 -0.2,-0.68 -0.2,-0.68 -0.19,-0.68 -0.2,-0.68 -0.19,-0.68 -0.19,-0.68 -0.19,-0.69 -0.19,-0.68 -0.19,-0.68 -0.18,-0.69 -0.19,-0.68 -0.18,-0.69 -0.18,-0.68 -0.18,-0.69 -0.17,-0.68 -0.18,-0.69 -0.17,-0.69 -0.17,-0.69 -0.17,-0.68 -0.17,-0.69 -0.16,-0.69 -0.17,-0.69 -0.16,-0.69 -0.16,-0.69 -0.16,-0.69 -0.16,-0.69 -0.15,-0.69 -0.16,-0.7 -0.15,-0.69 -0.15,-0.69 -0.15,-0.69 -0.15,-0.7 -0.14,-0.69 -0.15,-0.69 -0.14,-0.7 -0.14,-0.69 -0.14,-0.7 -0.13,-0.69 -0.14,-0.7 -0.13,-0.7 -0.13,-0.69 -0.13,-0.7 -0.13,-0.7 -0.12,-0.69 -0.13,-0.7 -0.12,-0.7 -0.12,-0.7 -0.12,-0.7 -0.12,-0.69 -0.12,-0.7 -0.11,-0.7 -0.11,-0.7 -0.11,-0.7 -0.11,-0.7 -0.11,-0.7 -0.1,-0.7 -0.11,-0.71 -0.1,-0.7 -0.1,-0.7 -0.1,-0.7 -0.09,-0.7 -0.1,-0.7 -0.09,-0.71 -0.09,-0.7 -0.09,-0.7 -0.09,-0.71 -0.08,-0.7 -0.09,-0.7 -0.08,-0.71 -0.08,-0.7 -0.08,-0.71 -0.08,-0.7 -0.07,-0.7 -0.07,-0.71 -0.08,-0.7 -0.07,-0.71 -0.06,-0.71 -0.07,-0.7 -0.06,-0.71 -0.07,-0.7 -0.06,-0.71 -0.06,-0.7 -0.06,-0.71 -0.05,-0.71 -0.06,-0.7 -0.05,-0.71 -0.05,-0.71 -0.05,-0.7 -0.04,-0.71 -0.05,-0.71 -0.04,-0.71 -0.04,-0.7 -0.04,-0.71 -0.04,-0.71 -0.04,-0.71 -0.03,-0.7 -0.04,-0.71 -0.03,-0.71 -0.03,-0.71 -0.02,-0.71 -0.03,-0.7 -0.02,-0.71 -0.03,-0.71 -0.02,-0.71 -0.02,-0.71 -0.01,-0.71 -0.02,-0.7 -0.01,-0.71 -0.01,-0.71 -0.01,-0.71 -0.01,-0.71 -0.01,-0.71 0,-0.71 0,-0.7 0,-0.71 0,-0.01"
   style="fill:none;stroke:#000000;stroke-width:3.2;stroke-linecap:butt;stroke-linejoin:miter;stroke-miterlimit:2;stroke-opacity:1;stroke-dasharray:none"
   id="path11088"
   inkscape:connector-curvature="0" /><text
   xml:space="preserve"
   style="font-size:80px;font-style:normal;font-variant:normal;font-weight:normal;font-stretch:normal;text-align:start;line-height:125%;letter-spacing:0px;word-spacing:0px;writing-mode:lr-tb;text-anchor:start;fill:#000000;fill-opacity:1;stroke:none;font-family:Monospace;-inkscape-font-specification:Monospace"
   x="528"
   y="-1648.08"
   id="text11968"
   sodipodi:linespacing="125%"
   transform="scale(1,-1)"><tspan
     sodipodi:role="line"
     id="tspan11970"
     x="528"
     y="-1648.08">H</tspan></text>





<text
   xml:space="preserve"
   style="font-size:80px;font-style:normal;font-variant:normal;font-weight:normal;font-stretch:normal;text-align:start;line-height:125%;letter-spacing:0px;word-spacing:0px;writing-mode:lr-tb;text-anchor:start;fill:#000000;fill-opacity:1;stroke:none;font-family:SymbolPi;-inkscape-font-specification:SymbolPi"
   x="1390.6471"
   y="-1495.9719"
   id="text11972"
   sodipodi:linespacing="125%"
   transform="scale(1,-1)"><tspan
     sodipodi:role="line"
     id="tspan11974"
     x="1390.6471"
     y="-1495.9719">b</tspan></text>





<text
   xml:space="preserve"
   style="font-size:80px;font-style:normal;font-variant:normal;font-weight:normal;font-stretch:normal;text-align:start;line-height:125%;letter-spacing:0px;word-spacing:0px;writing-mode:lr-tb;text-anchor:start;fill:#000000;fill-opacity:1;stroke:none;font-family:Monospace;-inkscape-font-specification:Monospace"
   x="1232"
   y="-2128.0801"
   id="text11976"
   sodipodi:linespacing="125%"
   transform="scale(1,-1)"><tspan
     sodipodi:role="line"
     id="tspan11978"
     x="1232"
     y="-2128.0801">z</tspan></text>





<text
   xml:space="preserve"
   style="font-size:80px;font-style:normal;font-variant:normal;font-weight:normal;font-stretch:normal;text-align:start;line-height:125%;letter-spacing:0px;word-spacing:0px;writing-mode:lr-tb;text-anchor:start;fill:#000000;fill-opacity:1;stroke:none;font-family:Monospace;-inkscape-font-specification:Monospace"
   x="1808"
   y="-1248.08"
   id="text11980"
   sodipodi:linespacing="125%"
   transform="scale(1,-1)"><tspan
     sodipodi:role="line"
     id="tspan11982"
     x="1808"
     y="-1248.08">x</tspan></text>





<path
   style="fill:none;stroke:#000000;stroke-width:4.80000019;stroke-linecap:butt;stroke-linejoin:miter;stroke-miterlimit:4;stroke-opacity:1;stroke-dasharray:none;marker-start:url(#Arrow1Lstart);marker-end:url(#Arrow1Lend)"
   d="m 1195.2236,2172.548 0,-844.2799 655.9639,0"
   id="path11986"
   inkscape:path-effect="#path-effect11988"
   inkscape:original-d="m 1195.2236,2172.548 c 0,0 0,0 0,-844.2799 l 655.9639,0"
   inkscape:connector-curvature="0" /><path
   style="fill:#808080;fill-opacity:0.25;fill-rule:nonzero;stroke:none"
   d="m 934.35156,2033.16 520.00004,0 225.1999,-695.1204 -978.80004,0 z"
   id="rect3793"
   inkscape:connector-curvature="0"
   sodipodi:nodetypes="ccccc" /></g></svg>