<?xml version="1.0" encoding="UTF-8" standalone="no"?>
<!-- Created with Inkscape (http://www.inkscape.org/) -->

<svg
   xmlns:dc="http://purl.org/dc/elements/1.1/"
   xmlns:cc="http://creativecommons.org/ns#"
   xmlns:rdf="http://www.w3.org/1999/02/22-rdf-syntax-ns#"
   xmlns:svg="http://www.w3.org/2000/svg"
   xmlns="http://www.w3.org/2000/svg"
   xmlns:xlink="http://www.w3.org/1999/xlink"
   xmlns:sodipodi="http://sodipodi.sourceforge.net/DTD/sodipodi-0.dtd"
   xmlns:inkscape="http://www.inkscape.org/namespaces/inkscape"
   width="32"
   height="32"
   id="svg3955"
   version="1.1"
   inkscape:version="0.48.5 r10040"
   sodipodi:docname="maskeditor_toolpanel.svg">
  <defs
     id="defs3957">
    <linearGradient
       id="linearGradient3818">
      <stop
         style="stop-color:#000000;stop-opacity:1;"
         offset="0"
         id="stop3820" />
      <stop
         style="stop-color:#000000;stop-opacity:0;"
         offset="1"
         id="stop3822" />
    </linearGradient>
    <linearGradient
       id="linearGradient3782">
      <stop
         style="stop-color:#969696;stop-opacity:1;"
         offset="0"
         id="stop3784" />
      <stop
         style="stop-color:#646464;stop-opacity:1;"
         offset="1"
         id="stop3786" />
    </linearGradient>
    <linearGradient
       id="linearGradient3774">
      <stop
         style="stop-color:#bebebe;stop-opacity:1;"
         offset="0"
         id="stop3776" />
      <stop
         style="stop-color:#e6e6e6;stop-opacity:1;"
         offset="1"
         id="stop3778" />
    </linearGradient>
    <linearGradient
       inkscape:collect="always"
       xlink:href="#linearGradient3774"
       id="linearGradient3780"
       x1="25.39061"
       y1="1047.4788"
       x2="4.8050866"
       y2="1024.0441"
       gradientUnits="userSpaceOnUse"
       gradientTransform="translate(1.0274071,30.724364)" />
    <linearGradient
       inkscape:collect="always"
       xlink:href="#linearGradient3782"
       id="linearGradient3788"
       x1="6.9462075"
       y1="1036.3729"
       x2="25.059683"
       y2="1036.3729"
       gradientUnits="userSpaceOnUse"
       gradientTransform="translate(1.0274071,30.724364)" />
    <linearGradient
       inkscape:collect="always"
       xlink:href="#linearGradient3782"
       id="linearGradient3824"
       x1="0.90324998"
       y1="239.89554"
       x2="478.8862"
       y2="239.89554"
       gradientUnits="userSpaceOnUse" />
    <linearGradient
       inkscape:collect="always"
       xlink:href="#linearGradient3782"
       id="linearGradient3826"
       gradientUnits="userSpaceOnUse"
       x1="429.29108"
       y1="44.773693"
       x2="-27.256935"
       y2="498.1019" />
  </defs>
  <sodipodi:namedview
     id="base"
     pagecolor="#ffffff"
     bordercolor="#666666"
     borderopacity="1.0"
     inkscape:pageopacity="0.0"
     inkscape:pageshadow="2"
     inkscape:zoom="16.290264"
     inkscape:cx="22.952114"
     inkscape:cy="6.8610739"
     inkscape:document-units="px"
     inkscape:current-layer="layer1"
     showgrid="true"
     inkscape:window-width="1862"
     inkscape:window-height="1130"
     inkscape:window-x="-2"
     inkscape:window-y="-3"
     inkscape:window-maximized="1"
     showguides="false"
     inkscape:snap-global="false">
    <inkscape:grid
       type="xygrid"
       id="grid3963"
       empspacing="5"
       visible="true"
       enabled="true"
       snapvisiblegridlinesonly="true" />
  </sodipodi:namedview>
  <metadata
     id="metadata3960">
    <rdf:RDF>
      <cc:Work
         rdf:about="">
        <dc:format>image/svg+xml</dc:format>
        <dc:type
           rdf:resource="http://purl.org/dc/dcmitype/StillImage" />
        <dc:title></dc:title>
      </cc:Work>
    </rdf:RDF>
  </metadata>
  <g
     inkscape:label="Layer 1"
     inkscape:groupmode="layer"
     id="layer1"
     transform="translate(0,-1020.3622)">
    <rect
       style="fill:url(#linearGradient3780);fill-opacity:1;stroke:url(#linearGradient3788);stroke-width:1;stroke-opacity:1"
       id="rect3004"
       width="17.113476"
       height="20.902134"
       x="8.4736147"
       y="1056.6462"
       ry="0.50821292" />
    <g
       transform="matrix(0.0418425,0,0,0.0418425,5.9642231,1025.2886)"
       id="g3"
       style="fill-opacity:1.0;fill:url(#linearGradient3824)">
      <path
         inkscape:connector-curvature="0"
         d="m 478.409,116.617 c -0.368,-4.271 -3.181,-7.94 -7.2,-9.403 -4.029,-1.472 -8.539,-0.47 -11.57,2.556 l -62.015,62.011 -68.749,-21.768 -21.768,-68.748 62.016,-62.016 c 3.035,-3.032 4.025,-7.543 2.563,-11.565 -1.477,-4.03 -5.137,-6.837 -9.417,-7.207 -37.663,-3.245 -74.566,10.202 -101.247,36.887 -36.542,36.545 -46.219,89.911 -29.083,135.399 -1.873,1.578 -3.721,3.25 -5.544,5.053 L 19.386,373.152 c -0.073,0.071 -0.145,0.149 -0.224,0.219 -24.345,24.346 -24.345,63.959 0,88.309 24.349,24.344 63.672,24.048 88.013,-0.298 0.105,-0.098 0.201,-0.196 0.297,-0.305 L 301.104,252.456 c 1.765,-1.773 3.404,-3.628 4.949,-5.532 45.5,17.167 98.9,7.513 135.474,-29.056 26.675,-26.687 40.131,-63.593 36.882,-101.251 z M 75.98,435.38 c -8.971,8.969 -23.5,8.963 -32.47,0 -8.967,-8.961 -8.967,-23.502 0,-32.466 8.97,-8.963 23.499,-8.963 32.47,0 8.967,8.964 8.967,23.505 0,32.466 z"
         id="path5"
         style="fill-opacity:1.0;fill:url(#linearGradient3826)" />
    </g>
  </g>
</svg>
