<?xml version="1.0" encoding="UTF-8" standalone="no"?>
<!-- Created with Inkscape (http://www.inkscape.org/) -->

<svg
   xmlns:dc="http://purl.org/dc/elements/1.1/"
   xmlns:cc="http://creativecommons.org/ns#"
   xmlns:rdf="http://www.w3.org/1999/02/22-rdf-syntax-ns#"
   xmlns:svg="http://www.w3.org/2000/svg"
   xmlns="http://www.w3.org/2000/svg"
   xmlns:xlink="http://www.w3.org/1999/xlink"
   xmlns:sodipodi="http://sodipodi.sourceforge.net/DTD/sodipodi-0.dtd"
   xmlns:inkscape="http://www.inkscape.org/namespaces/inkscape"
   width="32"
   height="32"
   id="svg3955"
   version="1.1"
   inkscape:version="0.48.5 r10040"
   sodipodi:docname="maskeditor_lightbulb.svg">
  <defs
     id="defs3957">
    <linearGradient
       id="linearGradient3931">
      <stop
         id="stop3933"
         offset="0"
         style="stop-color:#b4b4b4;stop-opacity:1;" />
      <stop
         id="stop3935"
         offset="1"
         style="stop-color:#646464;stop-opacity:1;" />
    </linearGradient>
    <linearGradient
       id="linearGradient3818">
      <stop
         style="stop-color:#000000;stop-opacity:1;"
         offset="0"
         id="stop3820" />
      <stop
         style="stop-color:#000000;stop-opacity:0;"
         offset="1"
         id="stop3822" />
    </linearGradient>
    <linearGradient
       id="linearGradient3782">
      <stop
         style="stop-color:#969696;stop-opacity:1;"
         offset="0"
         id="stop3784" />
      <stop
         style="stop-color:#646464;stop-opacity:1;"
         offset="1"
         id="stop3786" />
    </linearGradient>
    <linearGradient
       id="linearGradient3774">
      <stop
         style="stop-color:#bebebe;stop-opacity:1;"
         offset="0"
         id="stop3776" />
      <stop
         style="stop-color:#e6e6e6;stop-opacity:1;"
         offset="1"
         id="stop3778" />
    </linearGradient>
    <linearGradient
       inkscape:collect="always"
       xlink:href="#linearGradient3774"
       id="linearGradient3780"
       x1="25.39061"
       y1="1047.4788"
       x2="4.8050866"
       y2="1024.0441"
       gradientUnits="userSpaceOnUse"
       gradientTransform="matrix(1.1147846,0,0,0.18649351,26.658726,836.54288)" />
    <linearGradient
       inkscape:collect="always"
       xlink:href="#linearGradient3782"
       id="linearGradient3788"
       x1="6.9462075"
       y1="1036.3729"
       x2="25.059683"
       y2="1036.3729"
       gradientUnits="userSpaceOnUse"
       gradientTransform="matrix(1.1147846,0,0,0.18649351,26.658726,836.54288)" />
    <linearGradient
       inkscape:collect="always"
       xlink:href="#linearGradient3782"
       id="linearGradient3824"
       x1="0.90324998"
       y1="239.89554"
       x2="478.8862"
       y2="239.89554"
       gradientUnits="userSpaceOnUse" />
    <linearGradient
       inkscape:collect="always"
       xlink:href="#linearGradient3782"
       id="linearGradient3826"
       gradientUnits="userSpaceOnUse"
       x1="429.29108"
       y1="44.773693"
       x2="-27.256935"
       y2="498.1019" />
    <linearGradient
       inkscape:collect="always"
       xlink:href="#linearGradient3931"
       id="linearGradient3929"
       x1="0.00050000002"
       y1="207.79124"
       x2="415.58099"
       y2="207.79124"
       gradientUnits="userSpaceOnUse" />
    <linearGradient
       inkscape:collect="always"
       xlink:href="#linearGradient3931"
       id="linearGradient3937"
       gradientUnits="userSpaceOnUse"
       x1="0.00050000002"
       y1="207.79124"
       x2="415.58099"
       y2="207.79124" />
    <linearGradient
       inkscape:collect="always"
       xlink:href="#linearGradient3931"
       id="linearGradient3885"
       x1="208.43869"
       y1="146.88605"
       x2="445.53009"
       y2="486.65384"
       gradientUnits="userSpaceOnUse" />
    <linearGradient
       inkscape:collect="always"
       xlink:href="#linearGradient3931"
       id="linearGradient3887"
       gradientUnits="userSpaceOnUse"
       x1="208.43869"
       y1="146.88605"
       x2="445.53009"
       y2="486.65384" />
    <linearGradient
       inkscape:collect="always"
       xlink:href="#linearGradient3931"
       id="linearGradient3889"
       gradientUnits="userSpaceOnUse"
       x1="208.43869"
       y1="146.88605"
       x2="445.53009"
       y2="486.65384" />
    <linearGradient
       inkscape:collect="always"
       xlink:href="#linearGradient3931"
       id="linearGradient3891"
       gradientUnits="userSpaceOnUse"
       x1="208.43869"
       y1="146.88605"
       x2="445.53009"
       y2="486.65384" />
    <linearGradient
       inkscape:collect="always"
       xlink:href="#linearGradient3931"
       id="linearGradient3893"
       gradientUnits="userSpaceOnUse"
       x1="208.43869"
       y1="146.88605"
       x2="445.53009"
       y2="486.65384" />
    <linearGradient
       inkscape:collect="always"
       xlink:href="#linearGradient3931"
       id="linearGradient3895"
       gradientUnits="userSpaceOnUse"
       x1="208.43869"
       y1="146.88605"
       x2="445.53009"
       y2="486.65384" />
    <linearGradient
       inkscape:collect="always"
       xlink:href="#linearGradient3931"
       id="linearGradient3897"
       gradientUnits="userSpaceOnUse"
       x1="208.43869"
       y1="146.88605"
       x2="445.53009"
       y2="486.65384" />
    <linearGradient
       inkscape:collect="always"
       xlink:href="#linearGradient3931"
       id="linearGradient3899"
       gradientUnits="userSpaceOnUse"
       x1="208.43869"
       y1="146.88605"
       x2="445.53009"
       y2="486.65384" />
    <linearGradient
       inkscape:collect="always"
       xlink:href="#linearGradient3931"
       id="linearGradient3901"
       gradientUnits="userSpaceOnUse"
       x1="208.43869"
       y1="146.88605"
       x2="445.53009"
       y2="486.65384" />
    <linearGradient
       inkscape:collect="always"
       xlink:href="#linearGradient3931"
       id="linearGradient3903"
       gradientUnits="userSpaceOnUse"
       x1="208.43869"
       y1="146.88605"
       x2="445.53009"
       y2="486.65384" />
    <linearGradient
       inkscape:collect="always"
       xlink:href="#linearGradient3931"
       id="linearGradient3905"
       gradientUnits="userSpaceOnUse"
       x1="208.43869"
       y1="146.88605"
       x2="445.53009"
       y2="486.65384" />
    <linearGradient
       inkscape:collect="always"
       xlink:href="#linearGradient3931"
       id="linearGradient3907"
       gradientUnits="userSpaceOnUse"
       x1="208.43869"
       y1="146.88605"
       x2="445.53009"
       y2="486.65384" />
    <linearGradient
       inkscape:collect="always"
       xlink:href="#linearGradient3931"
       id="linearGradient3909"
       gradientUnits="userSpaceOnUse"
       x1="208.43869"
       y1="146.88605"
       x2="445.53009"
       y2="486.65384" />
    <linearGradient
       inkscape:collect="always"
       xlink:href="#linearGradient3931"
       id="linearGradient3911"
       gradientUnits="userSpaceOnUse"
       x1="208.43869"
       y1="146.88605"
       x2="445.53009"
       y2="486.65384" />
    <linearGradient
       inkscape:collect="always"
       xlink:href="#linearGradient3931"
       id="linearGradient3913"
       gradientUnits="userSpaceOnUse"
       x1="208.43869"
       y1="146.88605"
       x2="445.53009"
       y2="486.65384" />
  </defs>
  <sodipodi:namedview
     id="base"
     pagecolor="#ffffff"
     bordercolor="#666666"
     borderopacity="1.0"
     inkscape:pageopacity="0.0"
     inkscape:pageshadow="2"
     inkscape:zoom="21.194787"
     inkscape:cx="16"
     inkscape:cy="20.264074"
     inkscape:document-units="px"
     inkscape:current-layer="layer1"
     showgrid="true"
     inkscape:window-width="1862"
     inkscape:window-height="1130"
     inkscape:window-x="-2"
     inkscape:window-y="-3"
     inkscape:window-maximized="1"
     showguides="false"
     inkscape:snap-global="false">
    <inkscape:grid
       type="xygrid"
       id="grid3963"
       empspacing="5"
       visible="true"
       enabled="true"
       snapvisiblegridlinesonly="true" />
  </sodipodi:namedview>
  <metadata
     id="metadata3960">
    <rdf:RDF>
      <cc:Work
         rdf:about="">
        <dc:format>image/svg+xml</dc:format>
        <dc:type
           rdf:resource="http://purl.org/dc/dcmitype/StillImage" />
        <dc:title />
      </cc:Work>
    </rdf:RDF>
  </metadata>
  <g
     inkscape:label="Layer 1"
     inkscape:groupmode="layer"
     id="layer1"
     transform="translate(0,-1020.3622)">
    <g
       id="g5"
       transform="matrix(0.04631876,0,0,0.04631876,4.5686949,1023.4701)"
       style="fill:url(#linearGradient3885);fill-opacity:1">
      <g
         id="Icons_15_"
         style="fill:url(#linearGradient3913);fill-opacity:1">
        <g
           id="g8"
           style="fill:url(#linearGradient3911);fill-opacity:1">
          <path
             id="path10"
             d="m 290.652,402.646 h -87.595 c -6.781,0 -12.283,5.503 -12.283,12.283 0,6.785 5.502,12.287 12.283,12.287 h 87.595 c 6.781,0 12.289,-5.502 12.289,-12.287 0.001,-6.78 -5.506,-12.283 -12.289,-12.283 z"
             inkscape:connector-curvature="0"
             style="fill:url(#linearGradient3887);fill-opacity:1" />
          <path
             id="path12"
             d="m 224.299,474.245 c 1.666,11.026 11.086,19.517 22.586,19.517 11.488,0 20.93,-8.487 22.589,-19.517 15.037,-0.888 26.987,-13.245 26.987,-28.504 H 197.25 c 0,15.268 11.985,27.634 27.049,28.504 z"
             inkscape:connector-curvature="0"
             style="fill:url(#linearGradient3889);fill-opacity:1" />
          <path
             id="path14"
             d="m 246.884,70.87 c 9.062,0 16.387,-7.335 16.387,-16.381 V 16.381 C 263.271,7.332 255.947,0 246.884,0 237.831,0 230.507,7.332 230.507,16.381 v 38.108 c 0.001,9.046 7.325,16.381 16.377,16.381 z"
             inkscape:connector-curvature="0"
             style="fill:url(#linearGradient3891);fill-opacity:1" />
          <path
             id="path16"
             d="m 139.39,94.736 c 3.217,4.417 8.209,6.761 13.283,6.761 3.326,0 6.699,-1.017 9.609,-3.129 7.313,-5.312 8.945,-15.555 3.633,-22.873 l -22.396,-30.84 c -5.326,-7.312 -15.549,-8.96 -22.887,-3.632 -7.311,5.309 -8.943,15.555 -3.631,22.873 l 22.389,30.84 z"
             inkscape:connector-curvature="0"
             style="fill:url(#linearGradient3893);fill-opacity:1" />
          <path
             id="path18"
             d="m 354.354,334.861 c -5.313,-7.312 -15.549,-8.934 -22.881,-3.621 -7.306,5.317 -8.937,15.562 -3.61,22.879 l 22.409,30.841 c 3.196,4.407 8.188,6.753 13.265,6.753 3.338,0 6.698,-1.017 9.608,-3.128 7.312,-5.319 8.942,-15.565 3.619,-22.884 l -22.41,-30.84 z"
             inkscape:connector-curvature="0"
             style="fill:url(#linearGradient3895);fill-opacity:1" />
          <path
             id="path20"
             d="M 99.502,149.684 63.25,137.894 c -8.686,-2.799 -17.846,1.911 -20.648,10.518 -2.803,8.597 1.904,17.843 10.508,20.642 l 36.252,11.79 c 1.693,0.544 3.387,0.809 5.066,0.809 6.91,0 13.324,-4.4 15.582,-11.327 2.802,-8.597 -1.904,-17.844 -10.508,-20.642 z"
             inkscape:connector-curvature="0"
             style="fill:url(#linearGradient3897);fill-opacity:1" />
          <path
             id="path22"
             d="m 440.649,260.538 -36.243,-11.773 c -8.611,-2.778 -17.841,1.918 -20.638,10.516 -2.802,8.606 1.918,17.848 10.521,20.646 l 36.252,11.772 c 1.681,0.545 3.373,0.807 5.054,0.807 6.909,0 13.323,-4.407 15.581,-11.324 2.795,-8.61 -1.918,-17.845 -10.527,-20.644 z"
             inkscape:connector-curvature="0"
             style="fill:url(#linearGradient3899);fill-opacity:1" />
          <path
             id="path24"
             d="M 89.375,248.765 53.11,260.522 c -8.604,2.79 -13.324,12.026 -10.521,20.635 2.238,6.927 8.664,11.334 15.574,11.334 1.668,0 3.381,-0.267 5.061,-0.811 l 36.258,-11.756 c 8.611,-2.792 13.33,-12.03 10.529,-20.635 -2.782,-8.6 -11.952,-13.303 -20.636,-10.524 z"
             inkscape:connector-curvature="0"
             style="fill:url(#linearGradient3901);fill-opacity:1" />
          <path
             id="path26"
             d="m 399.35,181.653 c 1.681,0 3.373,-0.265 5.056,-0.809 l 36.243,-11.773 c 8.608,-2.799 13.322,-12.039 10.526,-20.642 -2.803,-8.6 -12.077,-13.3 -20.635,-10.518 l -36.252,11.772 c -8.604,2.798 -13.322,12.038 -10.521,20.642 2.253,6.921 8.673,11.328 15.583,11.328 z"
             inkscape:connector-curvature="0"
             style="fill:url(#linearGradient3903);fill-opacity:1" />
          <path
             id="path28"
             d="m 139.412,334.855 -22.431,30.822 c -5.326,7.318 -3.707,17.563 3.619,22.883 2.896,2.119 6.27,3.138 9.609,3.138 5.074,0 10.066,-2.336 13.264,-6.744 l 22.43,-30.824 c 5.326,-7.316 3.707,-17.562 -3.619,-22.883 -7.293,-5.349 -17.582,-3.709 -22.872,3.608 z"
             inkscape:connector-curvature="0"
             style="fill:url(#linearGradient3905);fill-opacity:1" />
          <path
             id="path30"
             d="m 350.258,44.654 -22.396,30.84 c -5.312,7.318 -3.681,17.562 3.633,22.873 2.91,2.112 6.283,3.129 9.608,3.129 5.074,0 10.065,-2.343 13.276,-6.761 l 22.396,-30.841 c 5.311,-7.318 3.68,-17.564 -3.634,-22.873 -7.355,-5.341 -17.557,-3.695 -22.883,3.633 z"
             inkscape:connector-curvature="0"
             style="fill:url(#linearGradient3907);fill-opacity:1" />
          <path
             id="path32"
             d="m 365.194,215.404 c 0,-65.354 -52.976,-118.333 -118.322,-118.333 -65.359,0 -118.336,52.979 -118.336,118.333 0,27.569 9.482,52.884 25.322,72.981 13.881,17.612 27.027,36.839 38.42,56.187 v 39.306 h 108.516 v -38.263 c 11.288,-18.818 25.881,-40.484 39.065,-57.211 15.854,-20.103 25.335,-45.413 25.335,-73 z"
             inkscape:connector-curvature="0"
             style="fill:url(#linearGradient3909);fill-opacity:1" />
        </g>
      </g>
    </g>
  </g>
</svg>
