<?xml version="1.0" encoding="UTF-8" standalone="no"?>
<!-- Created with Inkscape (http://www.inkscape.org/) -->

<svg
   xmlns:dc="http://purl.org/dc/elements/1.1/"
   xmlns:cc="http://creativecommons.org/ns#"
   xmlns:rdf="http://www.w3.org/1999/02/22-rdf-syntax-ns#"
   xmlns:svg="http://www.w3.org/2000/svg"
   xmlns="http://www.w3.org/2000/svg"
   xmlns:sodipodi="http://sodipodi.sourceforge.net/DTD/sodipodi-0.dtd"
   xmlns:inkscape="http://www.inkscape.org/namespaces/inkscape"
   id="svg9639"
   version="1.1"
   inkscape:version="0.48.2 r9819"
   width="1762.7627"
   height="737.59424"
   xml:space="preserve"
   sodipodi:docname="AnisoPyramid2dxz.eps"><metadata
     id="metadata9645"><rdf:RDF><cc:Work
         rdf:about=""><dc:format>image/svg+xml</dc:format><dc:type
           rdf:resource="http://purl.org/dc/dcmitype/StillImage" /><dc:title></dc:title></cc:Work></rdf:RDF></metadata><defs
     id="defs9643"><inkscape:path-effect
       effect="spiro"
       id="path-effect10585"
       is_visible="true" /><marker
       inkscape:stockid="Arrow1Lend"
       orient="auto"
       refY="0"
       refX="0"
       id="Arrow1Lend"
       style="overflow:visible"><path
         id="path4395"
         d="M 0,0 5,-5 -12.5,0 5,5 0,0 z"
         style="fill-rule:evenodd;stroke:#000000;stroke-width:1pt;marker-start:none"
         transform="matrix(-0.8,0,0,-0.8,-10,0)"
         inkscape:connector-curvature="0" /></marker><marker
       inkscape:stockid="Arrow1Lstart"
       orient="auto"
       refY="0"
       refX="0"
       id="Arrow1Lstart"
       style="overflow:visible"><path
         id="path4392"
         d="M 0,0 5,-5 -12.5,0 5,5 0,0 z"
         style="fill-rule:evenodd;stroke:#000000;stroke-width:1pt;marker-start:none"
         transform="matrix(0.8,0,0,0.8,10,0)"
         inkscape:connector-curvature="0" /></marker><clipPath
       clipPathUnits="userSpaceOnUse"
       id="clipPath9667"><path
         d="m -0.03,-0.03 2384,0 0,3370.45 -2384,0"
         id="path9669"
         inkscape:connector-curvature="0" /></clipPath><clipPath
       clipPathUnits="userSpaceOnUse"
       id="clipPath9687"><path
         d="m -0.03,-0.03 2384,0 0,3370.45 -2384,0"
         id="path9689"
         inkscape:connector-curvature="0" /></clipPath></defs><sodipodi:namedview
     pagecolor="#ffffff"
     bordercolor="#666666"
     borderopacity="1"
     objecttolerance="10"
     gridtolerance="10"
     guidetolerance="10"
     inkscape:pageopacity="0"
     inkscape:pageshadow="2"
     inkscape:window-width="2114"
     inkscape:window-height="1103"
     id="namedview9641"
     showgrid="true"
     fit-margin-top="15"
     fit-margin-left="15"
     fit-margin-bottom="15"
     fit-margin-right="15"
     units="px"
     inkscape:zoom="1.0341613"
     inkscape:cx="469.4952"
     inkscape:cy="291.08653"
     inkscape:window-x="20"
     inkscape:window-y="0"
     inkscape:window-maximized="0"
     inkscape:current-layer="g9647"><inkscape:grid
       type="xygrid"
       id="grid10967"
       empspacing="5"
       visible="true"
       enabled="true"
       snapvisiblegridlinesonly="true" /></sodipodi:namedview><g
     id="g9647"
     inkscape:groupmode="layer"
     inkscape:label="Anistropic_Pyramid_Blatt__3"
     transform="matrix(1.25,0,0,-1.25,-27.677326,2674.0443)"><path
   d="m 170.33465,1642.0289 -91.893589,0"
   style="fill:none;stroke:#000000;stroke-width:3.20000005;stroke-linecap:butt;stroke-linejoin:miter;stroke-miterlimit:2;stroke-opacity:1;stroke-dasharray:none"
   id="path9649"
   inkscape:connector-curvature="0" /><path
   d="m 235.06149,1979.2658 -156.620357,0"
   style="fill:none;stroke:#000000;stroke-width:3.20000005;stroke-linecap:butt;stroke-linejoin:miter;stroke-miterlimit:2;stroke-opacity:1;stroke-dasharray:none"
   id="path9651"
   inkscape:connector-curvature="0" /><path
   d="m 101.63321,1646.5666 0,327.5126"
   style="fill:none;stroke:#000000;stroke-width:3.2;stroke-linecap:butt;stroke-linejoin:miter;stroke-miterlimit:2;stroke-opacity:1;stroke-dasharray:none;marker-start:url(#Arrow1Lstart);marker-end:url(#Arrow1Lend)"
   id="path9679"
   inkscape:connector-curvature="0" /><path
   d="m 1198.1857,1815.4286 -0.501,-0.094 -0.5083,-0.1017 -0.501,-0.1016 -0.5082,-0.1017 -0.501,-0.1089 -0.5083,-0.1017 -0.501,-0.1089 -0.501,-0.1089 -0.501,-0.1162 -0.501,-0.1089 -0.5082,-0.1162 -0.501,-0.1161 -0.501,-0.1162 -0.501,-0.1162 -0.4938,-0.1234 -0.501,-0.1162 -0.501,-0.1234 -0.501,-0.1235 -0.501,-0.1307 -0.4937,-0.1234 -0.501,-0.1307 -0.4938,-0.1307 -0.501,-0.1307 -0.4937,-0.1307 -0.501,-0.1379 -0.4938,-0.138 -0.4937,-0.1379 -0.501,-0.138 -0.4937,-0.138 -0.4938,-0.1452 -0.4937,-0.1452 -0.4938,-0.1452 -0.4937,-0.1452 -0.4937,-0.1452 -0.4938,-0.1525 -0.4865,-0.1525 -0.4937,-0.1525 -0.4937,-0.1525 -0.4865,-0.1524 -0.4938,-0.1598 -0.4864,-0.1597 -0.4865,-0.1598 -0.4938,-0.1597 -0.4864,-0.1597 -0.4865,-0.167 -0.4865,-0.167 -0.4865,-0.167 -0.4864,-0.167 -0.4865,-0.167 -0.4865,-0.1743 -0.4865,-0.1743 -0.4792,-0.1742 -0.4865,-0.1743 -0.4865,-0.1742 -0.4792,-0.1816 -0.4792,-0.1815 -0.4865,-0.1815 -0.4792,-0.1815 -0.4792,-0.1816 -0.4792,-0.1887 -0.4792,-0.1816 -0.4793,-0.1887 -0.4792,-0.1961 -0.4792,-0.1888 -0.472,-0.196 -0.4792,-0.1888 -0.4792,-0.196 -0.472,-0.1961 -0.4719,-0.2033 -0.4792,-0.196 -0.472,-0.2033 -0.4719,-0.2033 -0.472,-0.2033 -0.472,-0.2033 -0.4719,-0.2106 -0.472,-0.2106 -0.4647,-0.2033 -0.4719,-0.2178 -0.472,-0.2106 -0.4647,-0.2105 -0.4647,-0.2179 -0.4719,-0.2178 -0.4647,-0.2178 -0.4647,-0.2178 -0.4647,-0.2251 -0.4647,-0.2179 -0.4647,-0.225 -0.4575,-0.2251 -0.4647,-0.2251 -0.4646,-0.2324 -0.4575,-0.2251 -0.4574,-0.2323 -0.4647,-0.2324 -0.4575,-0.2323 -0.4574,-0.2324 -0.4574,-0.2396 -0.4575,-0.2396 -0.4574,-0.2323 -0.4502,-0.2396 -0.4574,-0.2469 -0.4502,-0.2396 -0.4574,-0.2469 -0.4502,-0.2468 -0.4502,-0.2469 -0.4501,-0.2469 -0.4502,-0.2469 -0.4502,-0.2541 -0.4502,-0.2469 -0.4429,-0.2541 -0.4502,-0.2614 -0.4429,-0.2541 -0.4501,-0.2541 -0.443,-0.2614 -0.4429,-0.2614 -0.4429,-0.2614 -0.4429,-0.2614 -0.4429,-0.2614 -0.4429,-0.2687 -0.4357,-0.2686 -0.4429,-0.2687 -0.4356,-0.2686 -0.4357,-0.2687 -0.4357,-0.2686 -0.4429,-0.2759 -0.4284,-0.2759 -0.4356,-0.276 -0.4357,-0.2759 -0.4356,-0.2759 -0.4284,-0.2832 -0.4284,-0.2831 -0.4357,-0.2832 -0.4283,-0.2832 -0.4284,-0.2832 -0.4284,-0.2831 -0.4212,-0.2905 -0.4284,-0.2904 -0.4283,-0.2904 -0.4212,-0.2905 -0.4211,-0.2904 -0.4284,-0.2977 -0.4211,-0.2904 -0.4212,-0.2977 -0.4138,-0.2977 -0.4212,-0.2977 -0.4211,-0.2977 -0.4139,-0.305 -0.4138,-0.3049 -0.4212,-0.2977 -0.4138,-0.305 -0.4139,-0.3122 -0.4066,-0.305 -0.4139,-0.3122 -0.4139,-0.3049 -0.4066,-0.3123 -0.4066,-0.3122 -0.4138,-0.3122 -0.4067,-0.3195 -0.4066,-0.3122 -0.3993,-0.3195 -0.4066,-0.3195 -0.4066,-0.3194 -0.3994,-0.3195 -0.3993,-0.3195 -0.3994,-0.3267 -0.3993,-0.3195 -0.3994,-0.3267 -0.3993,-0.3268 -0.3994,-0.334 -0.3921,-0.3267 -0.392,-0.3268 -0.3994,-0.334 -0.3921,-0.334 -0.3921,-0.334 -0.3848,-0.334 -0.3921,-0.334 -0.3848,-0.3412 -0.3921,-0.334 -0.3848,-0.3413 -0.3849,-0.3413 -0.3848,-0.3412 -0.3848,-0.3413 -0.3848,-0.3485 -0.3776,-0.3413 -0.3848,-0.3485 -0.3776,-0.3485 -0.3776,-0.3485 -0.3775,-0.3486 -0.3776,-0.3557 -0.3703,-0.3486 -0.3776,-0.3557 -0.3703,-0.3558 -0.3703,-0.3485 -0.3775,-0.3631 -0.3631,-0.3558 -0.3703,-0.3558 -0.3703,-0.363 -0.363,-0.363 -0.3703,-0.3558 -0.3631,-0.3631 -0.363,-0.3703 -0.3631,-0.363 -0.363,-0.3631 -0.3558,-0.3703 -0.363,-0.3703 -0.3558,-0.3703 -0.3558,-0.3703 -0.3558,-0.3703 -0.3558,-0.3703 -0.3558,-0.3776 -0.3485,-0.3703 -0.3558,-0.3775 -0.3485,-0.3776 -0.3485,-0.3776 -0.3485,-0.3775 -0.3486,-0.3849 -0.3412,-0.3775 -0.3485,-0.3848 -0.3413,-0.3849 -0.3413,-0.3848 -0.3412,-0.3848 -0.3413,-0.3849 -0.3412,-0.3848 -0.3341,-0.3921 -0.334,-0.3848 -0.3412,-0.3921 -0.334,-0.3921 -0.3268,-0.3921 -0.334,-0.392 -0.334,-0.3921 -0.3267,-0.3994 -0.3267,-0.3921 -0.3268,-0.3993 -0.3267,-0.3994 -0.3268,-0.3993 -0.3194,-0.3994 -0.3268,-0.3993 -0.3195,-0.4066 -0.3194,-0.3994 -0.3195,-0.4066 -0.3195,-0.4066 -0.3122,-0.3993 -0.3195,-0.4067 -0.3122,-0.4138 -0.3122,-0.4066 -0.3122,-0.4066 -0.3123,-0.4139 -0.3049,-0.4066 -0.3122,-0.4139 -0.305,-0.4139 -0.3049,-0.4138 -0.305,-0.4139 -0.2977,-0.4211 -0.305,-0.4139 -0.2977,-0.4211 -0.3049,-0.4139 -0.2977,-0.4211 -0.2904,-0.4212 -0.2977,-0.4211 -0.2977,-0.4211 -0.2905,-0.4212 -0.2904,-0.4284 -0.2904,-0.4211 -0.2905,-0.4284 -0.2904,-0.4284 -0.2832,-0.4284 -0.2832,-0.4284 -0.2831,-0.4283 -0.2832,-0.4284 -0.2832,-0.4284 -0.2832,-0.4357 -0.2759,-0.4284 -0.2759,-0.4356 -0.2759,-0.4357 -0.2759,-0.4356 -0.2759,-0.4357 -0.2687,-0.4356 -0.2759,-0.4357 -0.2686,-0.4356 -0.2687,-0.443 -0.2686,-0.4356 -0.2614,-0.4429 -0.2687,-0.4429 -0.2614,-0.443 -0.2614,-0.4429 -0.2614,-0.4429 -0.2614,-0.4429 -0.2541,-0.4429 -0.2541,-0.4502 -0.2614,-0.4429 -0.2541,-0.4502 -0.2469,-0.4501 -0.2541,-0.4502 -0.2469,-0.4429 -0.2541,-0.4575 -0.2469,-0.4501 -0.2396,-0.4502 -0.2469,-0.4502 -0.2469,-0.4574 -0.2396,-0.4502 -0.2396,-0.4574 -0.2396,-0.4575 -0.2396,-0.4574 -0.2324,-0.4574 -0.2396,-0.4575 -0.2323,-0.4574 -0.2324,-0.4575 -0.2323,-0.4574 -0.2251,-0.4647 -0.2323,-0.4574 -0.2251,-0.4647 -0.2251,-0.4647 -0.2251,-0.4575 -0.2178,-0.4646 -0.2251,-0.4647 -0.2178,-0.4647 -0.2179,-0.4647 -0.2178,-0.472 -0.2178,-0.4647 -0.2106,-0.4647 -0.2178,-0.4719 -0.2106,-0.472 -0.2105,-0.4647 -0.2106,-0.472 -0.2033,-0.4719 -0.2033,-0.472 -0.2106,-0.4719 -0.2033,-0.472 -0.196,-0.4719 -0.2033,-0.472 -0.1961,-0.4792 -0.2033,-0.472 -0.196,-0.4792 -0.1888,-0.472 -0.1961,-0.4792 -0.1887,-0.4792 -0.1961,-0.4792 -0.1888,-0.4792 -0.1815,-0.4792 -0.1888,-0.4793 -0.1815,-0.4792 -0.1888,-0.4792 -0.1815,-0.4792 -0.1815,-0.4865 -0.1743,-0.4792 -0.1815,-0.4865 -0.1743,-0.4792 -0.1742,-0.4865 -0.1743,-0.4865 -0.167,-0.4792 -0.1743,-0.4865 -0.167,-0.4864 -0.167,-0.4865 -0.167,-0.4865 -0.167,-0.4865 -0.1597,-0.4937 -0.1597,-0.4865 -0.1598,-0.4865 -0.1597,-0.4937 -0.1597,-0.4865 -0.1525,-0.4937 -0.1598,-0.4865 -0.1524,-0.4938 -0.1453,-0.4937 -0.1524,-0.4937 -0.1525,-0.4865 -0.1452,-0.4938 -0.1453,-0.4937 -0.1452,-0.4937 -0.1379,-0.4938 -0.1452,-0.501 -0.138,-0.4937 -0.138,-0.4938 -0.1379,-0.4937 -0.1307,-0.501 -0.138,-0.4937 -0.1307,-0.501 -0.1307,-0.4938 -0.1307,-0.501 -0.1234,-0.4937 -0.1307,-0.501 -0.1234,-0.501 -0.1235,-0.501 -0.1234,-0.501 -0.1162,-0.4938 -0.1234,-0.501 -0.1162,-0.501 -0.1162,-0.501 -0.1089,-0.5082 -0.1161,-0.501 -0.109,-0.501 -0.1089,-0.501 -0.1089,-0.501 -0.1089,-0.5083 -0.1089,-0.501 -0.1017,-0.5083 -0.1016,-0.501 -0.1017,-0.501 -0.094,-0.5082 -0.1016,-0.5083 -0.094,-0.501 -0.094,-0.5083 -0.094,-0.5082 -0.094,-0.501 -0.087,-0.5083 -0.087,-0.5082 -0.087,-0.5083 -0.087,-0.5083 -0.087,-0.501 -0.08,-0.5082 -0.08,-0.5083 -0.08,-0.5082 -0.08,-0.5083 -0.08,-0.5155 -0.073,-0.5083 -0.073,-0.5083 -0.073,-0.5082 -0.073,-0.5083 -0.065,-0.5082 -0.073,-0.5156 -0.065,-0.5082 -0.065,-0.5083 -0.058,-0.5155 -0.065,-0.5083 -0.058,-0.5082 -0.058,-0.5156 -0.058,-0.5082 -0.051,-0.5155 -0.058,-0.5083 -0.051,-0.5155 -0.051,-0.5083 -0.051,-0.5155 -0.044,-0.5083 -0.051,-0.5155 -0.044,-0.5083 -0.044,-0.5155 -0.043,-0.5155 -0.036,-0.5083 -0.036,-0.5155 -0.036,-0.5155 -0.036,-0.5083 -0.036,-0.5155 -0.029,-0.5155 -0.036,-0.5083 -0.029,-0.5155 -0.029,-0.5155 -0.022,-0.5155 -0.029,-0.5156 -0.022,-0.5082 -0.022,-0.5156 -0.022,-0.5155 -0.014,-0.5155 -0.022,-0.5155 -0.014,-0.5083 -0.014,-0.5155 -0.01,-0.5155 -0.014,-0.5156 -0.01,-0.5155 -0.01,-0.5155 -0.01,-0.5155 -0.01,-0.5083 0,-0.5155 0,-0.5155 0,-0.334"
   style="fill:none;stroke:#000000;stroke-width:3.2;stroke-linecap:butt;stroke-linejoin:miter;stroke-miterlimit:2;stroke-opacity:1;stroke-dasharray:none"
   id="path9699"
   inkscape:connector-curvature="0" /><text
   xml:space="preserve"
   style="font-size:80px;font-style:normal;font-variant:normal;font-weight:normal;font-stretch:normal;text-align:start;line-height:125%;letter-spacing:0px;word-spacing:0px;writing-mode:lr-tb;text-anchor:start;fill:#000000;fill-opacity:1;stroke:none;font-family:Monospace;-inkscape-font-specification:Monospace"
   x="35.190296"
   y="-1780.3606"
   id="text10579"
   sodipodi:linespacing="125%"
   transform="scale(1,-1)"><tspan
     sodipodi:role="line"
     id="tspan10581"
     x="35.190296"
     y="-1780.3606">H</tspan></text>






<path
   style="fill:none;stroke:#000000;stroke-width:4.8;stroke-linecap:butt;stroke-linejoin:miter;stroke-miterlimit:4;stroke-opacity:1;stroke-dasharray:none;marker-start:url(#Arrow1Lstart);marker-end:url(#Arrow1Lend)"
   d="m 677.83183,2122.8737 2.25683,-480.6982 739.10164,0"
   id="path10583"
   inkscape:path-effect="#path-effect10585"
   inkscape:original-d="m 677.83183,2122.8737 c 0,0 1.12841,0 2.25683,-480.6982 l 739.10164,0"
   inkscape:connector-curvature="0" /><text
   xml:space="preserve"
   style="font-size:80px;font-style:normal;font-variant:normal;font-weight:normal;font-stretch:normal;text-align:start;line-height:125%;letter-spacing:0px;word-spacing:0px;writing-mode:lr-tb;text-anchor:start;fill:#000000;fill-opacity:1;stroke:none;font-family:Monospace;-inkscape-font-specification:Monospace"
   x="715.19031"
   y="-2073.1599"
   id="text10955"
   sodipodi:linespacing="125%"
   transform="scale(1,-1)"><tspan
     sodipodi:role="line"
     id="tspan10957"
     x="715.19031"
     y="-2073.1599">z</tspan></text>






<text
   xml:space="preserve"
   style="font-size:80px;font-style:normal;font-variant:normal;font-weight:normal;font-stretch:normal;text-align:start;line-height:125%;letter-spacing:0px;word-spacing:0px;writing-mode:lr-tb;text-anchor:start;fill:#000000;fill-opacity:1;stroke:none;font-family:Monospace;-inkscape-font-specification:Monospace"
   x="1355.1903"
   y="-1561.16"
   id="text10959"
   sodipodi:linespacing="125%"
   transform="scale(1,-1)"><tspan
     sodipodi:role="line"
     id="tspan10961"
     x="1355.1903"
     y="-1561.16">x</tspan></text>






<text
   xml:space="preserve"
   style="font-size:80px;font-style:normal;font-variant:normal;font-weight:normal;font-stretch:normal;text-align:start;line-height:125%;letter-spacing:0px;word-spacing:0px;writing-mode:lr-tb;text-anchor:start;fill:#000000;fill-opacity:1;stroke:none;font-family:SymbolPi;-inkscape-font-specification:SymbolPi"
   x="1035.1903"
   y="-1785.16"
   id="text10963"
   sodipodi:linespacing="125%"
   transform="scale(1,-1)"><tspan
     sodipodi:role="line"
     id="tspan10965"
     x="1035.1903"
     y="-1785.16">a</tspan></text>






<path
   style="fill:#808080;fill-opacity:0.25;fill-rule:nonzero;stroke:#000000;stroke-width:12.64659405;stroke-linecap:butt;stroke-linejoin:round;stroke-miterlimit:4;stroke-opacity:1;stroke-dasharray:none"
   d="m 206.17943,1976.2368 959.92417,0 66.0661,-331.7631 -1097.98458,0 z"
   id="rect3009"
   inkscape:connector-curvature="0"
   sodipodi:nodetypes="ccccc" /></g></svg>