<?xml version="1.0" encoding="UTF-8" standalone="no"?>
<!-- Created with Inkscape (http://www.inkscape.org/) -->

<svg
   xmlns:dc="http://purl.org/dc/elements/1.1/"
   xmlns:cc="http://creativecommons.org/ns#"
   xmlns:rdf="http://www.w3.org/1999/02/22-rdf-syntax-ns#"
   xmlns:svg="http://www.w3.org/2000/svg"
   xmlns="http://www.w3.org/2000/svg"
   xmlns:sodipodi="http://sodipodi.sourceforge.net/DTD/sodipodi-0.dtd"
   xmlns:inkscape="http://www.inkscape.org/namespaces/inkscape"
   id="svg18781"
   version="1.1"
   inkscape:version="0.48.2 r9819"
   width="1784.9105"
   height="610.65027"
   xml:space="preserve"
   sodipodi:docname="HemiEllipsoid2dxz.svg"><metadata
     id="metadata18787"><rdf:RDF><cc:Work
         rdf:about=""><dc:format>image/svg+xml</dc:format><dc:type
           rdf:resource="http://purl.org/dc/dcmitype/StillImage" /><dc:title /></cc:Work></rdf:RDF></metadata><defs
     id="defs18785"><inkscape:path-effect
   effect="spiro"
   id="path-effect5233"
   is_visible="true" /><marker
   inkscape:stockid="Arrow1Lend"
   orient="auto"
   refY="0"
   refX="0"
   id="Arrow1Lend"
   style="overflow:visible"><path
     id="path3871"
     d="M 0,0 5,-5 -12.5,0 5,5 0,0 z"
     style="fill-rule:evenodd;stroke:#000000;stroke-width:1pt;marker-start:none"
     transform="matrix(-0.8,0,0,-0.8,-10,0)"
     inkscape:connector-curvature="0" /></marker><marker
   inkscape:stockid="Arrow1Lstart"
   orient="auto"
   refY="0"
   refX="0"
   id="Arrow1Lstart"
   style="overflow:visible"><path
     id="path3868"
     d="M 0,0 5,-5 -12.5,0 5,5 0,0 z"
     style="fill-rule:evenodd;stroke:#000000;stroke-width:1pt;marker-start:none"
     transform="matrix(0.8,0,0,0.8,10,0)"
     inkscape:connector-curvature="0" /></marker>
</defs><sodipodi:namedview
     pagecolor="#ffffff"
     bordercolor="#666666"
     borderopacity="1"
     objecttolerance="10"
     gridtolerance="10"
     guidetolerance="10"
     inkscape:pageopacity="0"
     inkscape:pageshadow="2"
     inkscape:window-width="1634"
     inkscape:window-height="954"
     id="namedview18783"
     showgrid="true"
     fit-margin-top="15"
     units="px"
     fit-margin-left="14.6"
     fit-margin-bottom="15"
     fit-margin-right="15"
     inkscape:zoom="1.55"
     inkscape:cx="152.79537"
     inkscape:cy="235.42754"
     inkscape:window-x="124"
     inkscape:window-y="182"
     inkscape:window-maximized="0"
     inkscape:current-layer="g18789"><inkscape:grid
       type="xygrid"
       id="grid3095"
       empspacing="5"
       visible="true"
       enabled="true"
       snapvisiblegridlinesonly="true" /></sodipodi:namedview><g
     id="g18789"
     inkscape:groupmode="layer"
     inkscape:label="Hemi_Ellipsoid_Blatt_3a"
     transform="matrix(1.25,0,0,-1.25,-214.32385,2677.1)"><path
   inkscape:connector-curvature="0"
   id="path18793"
   style="fill:none;stroke:#000000;stroke-width:3.20000005;stroke-linecap:butt;stroke-linejoin:miter;stroke-miterlimit:2;stroke-opacity:1;stroke-dasharray:none"
   d="m 266.1617,1728.4326 -61.28034,0" /><path
   inkscape:connector-curvature="0"
   id="path18795"
   style="fill:none;stroke:#000000;stroke-width:3.2;stroke-linecap:butt;stroke-linejoin:miter;stroke-miterlimit:2;stroke-opacity:1;stroke-dasharray:none"
   d="m 831.13725,2032.4254 -627.57776,0" /><path
   inkscape:connector-curvature="0"
   id="path18797"
   style="fill:none;stroke:#000000;stroke-width:12;stroke-linecap:butt;stroke-linejoin:miter;stroke-miterlimit:2;stroke-opacity:1;stroke-dasharray:none"
   d="m 265.29546,1732.8902 1204.06614,0" /><path
   inkscape:connector-curvature="0"
   id="path18799"
   style="fill:#808080;stroke:#000000;stroke-width:12;stroke-linecap:square;stroke-linejoin:miter;stroke-miterlimit:2;stroke-opacity:1;stroke-dasharray:none;fill-opacity:0.25000000000000000"
   d="m 1472.137,1734.0259 0,0.9751 -0.01,0.2482 0,0.4893 -0.01,0.2454 0,0.2404 -0.01,0.2489 -0.01,0.2461 0,0.2425 -0.01,0.2461 -0.01,0.2489 -0.01,0.2397 -0.01,0.2461 -0.01,0.2489 -0.01,0.2397 -0.01,0.2489 -0.01,0.2461 -0.01,0.2397 -0.01,0.2489 -0.014,0.2461 -0.01,0.2404 -0.01,0.2482 -0.014,0.2405 -0.01,0.2489 -0.013,0.2453 -0.014,0.2405 -0.016,0.2489 -0.01,0.2482 -0.013,0.2404 -0.014,0.2461 -0.016,0.2482 -0.014,0.2404 -0.013,0.2461 -0.014,0.2482 -0.022,0.2404 -0.014,0.2489 -0.014,0.2404 -0.02,0.2454 -0.016,0.2489 -0.019,0.2404 -0.014,0.2482 -0.022,0.2461 -0.014,0.2404 -0.022,0.2482 -0.022,0.2404 -0.02,0.2461 -0.022,0.2482 -0.022,0.2404 -0.019,0.2489 -0.023,0.2454 -0.022,0.2404 -0.019,0.2489 -0.023,0.2405 -0.027,0.2482 -0.022,0.246 -0.028,0.2405 -0.022,0.2482 -0.027,0.246 -0.022,0.2404 -0.028,0.2482 -0.028,0.2405 -0.028,0.2489 -0.022,0.2453 -0.028,0.2405 -0.03,0.2489 -0.028,0.2404 -0.028,0.2482 -0.036,0.2461 -0.028,0.2404 -0.028,0.2482 -0.03,0.2404 -0.033,0.2461 -0.03,0.2482 -0.033,0.2404 -0.03,0.2489 -0.035,0.2404 -0.033,0.2454 -0.03,0.2404 -0.033,0.2489 -0.036,0.2482 -0.036,0.2405 -0.035,0.246 -0.036,0.2397 -0.033,0.249 -0.036,0.2404 -0.036,0.2461 -0.041,0.2482 -0.036,0.2404 -0.036,0.2489 -0.041,0.2397 -0.036,0.2461 -0.042,0.2404 -0.044,0.2482 -0.036,0.2404 -0.042,0.2489 -0.041,0.2404 -0.044,0.2454 -0.041,0.2489 -0.042,0.2404 -0.044,0.2454 -0.042,0.2433 -0.042,0.246 -0.044,0.2405 -0.042,0.2482 -0.049,0.2404 -0.042,0.2461 -0.05,0.2404 -0.044,0.2482 -0.05,0.2404 -0.041,0.2489 -0.05,0.2397 -0.049,0.2461 -0.05,0.2404 -0.042,0.2482 -0.049,0.2404 -0.05,0.2489 -0.05,0.2405 -0.049,0.2453 -0.055,0.2405 -0.05,0.2489 -0.049,0.2404 -0.05,0.2454 -0.058,0.2404 -0.047,0.2432 -0.058,0.2454 -0.05,0.2404 -0.055,0.2489 -0.058,0.2404 -0.049,0.2454 -0.056,0.2404 -0.058,0.2489 -0.055,0.2405 -0.058,0.2397 -0.055,0.2489 -0.058,0.2404 -0.055,0.2461 -0.058,0.2397 -0.064,0.2489 -0.055,0.2404 -0.058,0.2404 -0.064,0.2482 -0.055,0.2405 -0.064,0.246 -0.064,0.2405 -0.058,0.2397 -0.064,0.2489 -0.063,0.2404 -0.064,0.2482 -0.055,0.2404 -0.064,0.2404 -0.064,0.2461 -0.072,0.2404 -0.064,0.2398 -0.063,0.2489 -0.064,0.2404 -0.072,0.2482 -0.1265,0.4808 -0.072,0.2461 -0.064,0.2404 -0.069,0.2397 -0.071,0.2489 -0.064,0.2405 -0.072,0.2404 -0.069,0.2482 -0.1435,0.4808 -0.069,0.2404 -0.072,0.2454 -0.071,0.2404 -0.069,0.2405 -0.077,0.2489 -0.1436,0.4801 -0.078,0.2489 -0.071,0.2404 -0.078,0.2404 -0.069,0.2398 -0.08,0.246 -0.1548,0.4809 -0.072,0.2404 -0.077,0.2482 -0.078,0.2404 -0.08,0.2404 -0.077,0.2405 -0.078,0.2482 -0.085,0.2404 -0.1542,0.4808 -0.086,0.2404 -0.078,0.2454 -0.077,0.2404 -0.086,0.2433 -0.086,0.2404 -0.078,0.2404 -0.086,0.2397 -0.085,0.2461 -0.086,0.2404 -0.077,0.2405 -0.1718,0.4801 -0.083,0.2404 -0.094,0.2489 -0.083,0.2404 -0.1712,0.4802 -0.091,0.2404 -0.085,0.2404 -0.091,0.2404 -0.085,0.2405 -0.094,0.2482 -0.083,0.2404 -0.094,0.2404 -0.1825,0.4808 -0.085,0.2405 -0.094,0.2397 -0.1817,0.4808 -0.1,0.2404 -0.094,0.2405 -0.1824,0.4801 -0.099,0.2404 -0.094,0.2404 -0.091,0.2405 -0.1,0.2489 -0.091,0.2397 -0.2984,0.7212 -0.091,0.2405 -0.1994,0.4801 -0.099,0.2348 -0.2984,0.7212 -0.1047,0.2404 -0.1994,0.4809 -0.1075,0.2397 -0.1,0.2404 -0.096,0.2404 -0.2157,0.4809 -0.1,0.2404 -0.1047,0.2397 -0.1074,0.2348 -0.2101,0.4808 -0.1081,0.2405 -0.1047,0.2404 -0.1075,0.2404 -0.1053,0.2404 -0.1075,0.2397 -0.1054,0.2327 -0.1075,0.2397 -0.1131,0.2404 -0.1054,0.2404 -0.1159,0.2433 -0.1047,0.2404 -0.1131,0.2319 -0.1132,0.2405 -0.1082,0.2397 -0.1131,0.2404 -0.1131,0.2348 -0.4533,0.9616 -0.1131,0.232 -0.2263,0.4808 -0.1132,0.2348 -0.1216,0.2397 -0.1131,0.2404 -0.1188,0.2404 -0.116,0.232 -0.1188,0.2404 -0.1138,0.2404 -0.1209,0.2348 -0.1188,0.2404 -0.1217,0.2404 -0.1131,0.2319 -0.1216,0.2426 -0.1188,0.2404 -0.1217,0.2319 -0.1216,0.2405 -0.1273,0.2404 -0.1188,0.2348 -0.1216,0.2404 -0.1209,0.2319 -0.1273,0.2404 -0.1188,0.2405 -0.1273,0.2347 -0.1216,0.2404 -0.1266,0.232 -0.1216,0.2404 -0.1273,0.2348 -0.1272,0.2404 -0.1294,0.2397 -0.1273,0.2326 -0.1273,0.2397 -0.1266,0.2348 -0.1273,0.2404 -0.1272,0.232 -0.1294,0.2404 -0.1273,0.2348 -0.1273,0.2404 -0.1351,0.2319 -0.1273,0.2404 -0.135,0.2348 -0.1273,0.2319 -0.1351,0.2405 -0.1272,0.2347 -0.1351,0.2404 -0.1329,0.232 -0.1266,0.2404 -0.1358,0.2348 -0.135,0.2319 -0.1358,0.2404 -0.1351,0.2348 -0.1329,0.2404 -0.1351,0.2319 -0.1407,0.2348 -0.1357,0.2404 -0.1351,0.232 -0.1407,0.2347 -0.1358,0.2404 -0.1351,0.232 -0.1407,0.2347 -0.1407,0.2405 -0.1358,0.2319 -0.1435,0.2348 -0.1407,0.2319 -0.1358,0.2404 -0.1407,0.2348 -0.1407,0.2319 -0.1407,0.2404 -0.1436,0.2348 -0.1414,0.2319 -0.1492,0.2348 -0.1407,0.2319 -0.1436,0.2405 -0.1407,0.2347 -0.1492,0.232 -0.1407,0.2347 -0.1492,0.232 -0.1407,0.2404 -0.1492,0.2347 -0.1492,0.232 -0.1415,0.2347 -0.1484,0.2327 -0.1492,0.2347 -0.1493,0.232 -0.1492,0.2347 -0.1492,0.2405 -0.1492,0.2319 -0.1492,0.2348 -0.1463,0.2319 -0.1492,0.2348 -0.1577,0.2319 -0.1492,0.2348 -0.1492,0.2319 -0.1542,0.2348 -0.1492,0.2319 -0.1548,0.2348 -0.1492,0.2319 -0.1577,0.2326 -0.1542,0.2348 -0.1548,0.2319 -0.1492,0.2348 -0.1577,0.2319 -0.157,0.2348 -0.1549,0.2319 -0.1548,0.2348 -0.1627,0.2319 -0.1577,0.2348 -0.1548,0.2319 -0.157,0.227 -0.1633,0.2348 -0.1549,0.2319 -0.1626,0.2348 -0.1577,0.2319 -0.1627,0.2348 -0.1548,0.2319 -0.1627,0.2263 -0.1633,0.2326 -0.1549,0.2348 -0.1626,0.2319 -0.1634,0.2348 -0.1654,0.2263 -0.1627,0.2319 -0.1633,0.2348 -0.1626,0.2319 -0.169,0.227 -0.1627,0.2348 -0.1633,0.2319 -0.1711,0.2348 -0.1627,0.2262 -0.1633,0.232 -0.1712,0.2347 -0.1605,0.2242 -0.1711,0.2348 -0.1711,0.2319 -0.1683,0.2263 -0.1634,0.2347 -0.1711,0.232 -0.1683,0.227 -0.1711,0.2347 -0.1711,0.232 -0.169,0.2262 -0.1711,0.232 -0.1768,0.227 -0.1683,0.2347 -0.1711,0.2263 -0.169,0.2319 -0.1797,0.2263 -0.1682,0.2348 -0.1797,0.227 -0.1682,0.2319 -0.1768,0.2263 -0.1768,0.2319 -0.1711,0.227 -0.1768,0.2348 -0.1768,0.2262 -0.1768,0.232 -0.1796,0.2263 -0.1768,0.2347 -0.3535,0.4533 -0.1768,0.2319 -0.1853,0.2263 -0.1767,0.2326 -0.1768,0.2263 -0.1853,0.2263 -0.1768,0.2348 -0.1845,0.227 -0.1768,0.2262 -0.1853,0.232 -0.1824,0.2262 -0.1768,0.227 -0.1853,0.232 -0.3698,0.4525 -0.1824,0.227 -0.1853,0.2348 -0.1845,0.2234 -0.1825,0.2263 -0.3705,0.4533 -0.1902,0.2347 -0.3699,0.4533 -0.1909,0.2234 -0.1852,0.2263 -0.1903,0.227 -0.1824,0.2263 -0.193,0.2348 -0.191,0.2262 -0.193,0.227 -0.1824,0.2235 -0.191,0.2262 -0.193,0.227 -0.5721,0.6796 -0.1987,0.2262 -0.1937,0.2263 -0.3812,0.4533 -0.1987,0.2263 -0.1902,0.2241 -0.1994,0.2263 -0.1902,0.2263 -0.1987,0.227 -0.1937,0.2262 -0.1959,0.2178 -1.1936,1.3591 -0.1959,0.2185 -0.7955,0.9058 -0.2044,0.2185 -0.1987,0.2263 -0.2043,0.2263 -0.1994,0.227 -0.2072,0.2178 -0.1987,0.227 -0.2044,0.2262 -0.2043,0.2207 -0.2072,0.227 -0.1987,0.2234 -0.2044,0.2213 -0.2044,0.2263 -0.2071,0.2263 -0.2044,0.2185 -0.2072,0.2263 -0.2128,0.2185 -0.2044,0.2262 -0.2043,0.2214 -0.2072,0.2263 -0.2129,0.2234 -0.2043,0.2213 -0.2129,0.2263 -0.2072,0.2185 -0.2128,0.2263 -0.2044,0.2185 -0.2121,0.2263 -0.2128,0.2206 -0.2129,0.2185 -0.2128,0.2263 -0.2044,0.2185 -0.2128,0.2262 -0.2122,0.2214 -0.2213,0.2178 -0.2128,0.227 -0.2122,0.2178 -0.2128,0.2269 -0.2129,0.2178 -0.2185,0.2214 -0.2121,0.2178 -0.2213,0.2269 -0.2129,0.2178 -0.2178,0.2214 -0.2128,0.2262 -0.4419,0.4363 -0.2101,0.2214 -0.2206,0.2178 -0.2213,0.2269 -0.2185,0.2178 -0.2178,0.2214 -0.2213,0.2178 -0.4392,0.4391 -0.2206,0.227 -0.227,0.2178 -0.2178,0.2213 -0.2213,0.2178 -0.2263,0.2185 -0.2206,0.2206 -0.227,0.2185 -0.2178,0.2185 -0.227,0.2206 -0.2206,0.2185 -0.2263,0.2178 -0.2269,0.2213 -0.4526,0.4363 -0.227,0.2214 -0.2206,0.2178 -0.2348,0.2213 -0.4532,0.4363 -0.2263,0.2128 -0.2263,0.2178 -0.227,0.2213 -0.2347,0.2178 -0.2263,0.2214 -0.2348,0.2178 -0.227,0.2128 -0.2347,0.2185 -0.2263,0.2178 -0.2319,0.2213 -0.2348,0.2129 -0.2348,0.2178 -0.2262,0.2185 -0.232,0.2206 -0.2347,0.21 -0.2355,0.2213 -0.232,0.2178 -0.2347,0.2129 -0.2348,0.2185 -0.2404,0.2121 -0.2348,0.2185 -0.2319,0.2213 -0.2348,0.2122 -0.2404,0.2185 -0.2348,0.2128 -0.2397,0.2178 -0.2347,0.2128 -0.2404,0.2185 -0.2405,0.2122 -0.2347,0.2185 -0.2405,0.2128 -0.2432,0.2206 -0.2404,0.2101 -0.2404,0.2213 -0.2398,0.2121 -0.2404,0.2185 -0.2432,0.2129 -0.2405,0.2128 -0.2404,0.2178 -0.2425,0.2128 -0.2404,0.2129 -0.2461,0.2178 -0.2433,0.2128 -0.2482,0.21 -0.2404,0.2214 -0.2489,0.2121 -0.2397,0.21 -0.2489,0.2129 -0.2404,0.2128 -0.2482,0.2178 -0.2489,0.2128 -0.2461,0.2129 -0.4971,0.425 -0.2482,0.21 -0.2489,0.2213 -0.2461,0.2128 -0.2482,0.2094 -0.4971,0.4256 -0.2546,0.2129 -0.2482,0.2128 -0.2489,0.2093 -0.2538,0.2129 -0.2489,0.2128 -0.2539,0.2129 -0.2567,0.2128 -0.2489,0.2093 -0.5084,0.4257 -0.2567,0.2128 -0.2461,0.2129 -0.2567,0.2043 -0.2538,0.2122 -0.2567,0.21 -0.2546,0.2128 -0.2623,0.2129 -0.2539,0.2128 -0.2573,0.2044 -0.5078,0.425 -0.2623,0.21 -0.2574,0.2072 -0.2623,0.21 -0.2539,0.2128 -0.2623,0.2044 -0.2546,0.2128 -0.2623,0.2122 -0.2624,0.2043 -0.2623,0.2129 -0.2539,0.2128 -0.2651,0.2044 -0.2603,0.2128 -0.2623,0.2044 -0.2624,0.2128 -0.2623,0.2044 -0.2623,0.2128 -0.2709,0.2121 -0.5246,0.4088 -0.2596,0.2128 -0.2708,0.2044 -0.2623,0.2128 -0.268,0.2044 -0.2624,0.2128 -0.2708,0.2044 -0.268,0.2071 -0.2623,0.2101 -0.2709,0.2072 -0.268,0.2043 -0.2701,0.2129 -0.2623,0.2043 -0.268,0.2044 -0.2708,0.2043 -0.268,0.2129 -0.2709,0.2072 -0.2765,0.2043 -0.2672,0.2044 -0.2709,0.2128 -0.2708,0.2044 -0.2737,0.2043 -0.2708,0.2072 -0.2673,0.2044 -0.2765,0.2043 -0.2708,0.2044 -0.2765,0.2043 -0.2757,0.2072 -0.2709,0.2044 -0.2765,0.2043 -0.2757,0.2129 -0.2765,0.1987 -0.268,0.2043 -0.5523,0.4088 -0.2793,0.2072 -0.5523,0.4087 -0.2814,0.2043 -0.2765,0.2072 -0.2757,0.2044 -0.2794,0.2043 -0.2814,0.1994 -0.2765,0.2044 -0.2842,0.2044 -0.2765,0.2043 -0.2815,0.1987 -0.2793,0.2044 -0.2814,0.2072 -0.285,0.2043 -0.2758,0.1987 -0.2849,0.2051 -0.2815,0.2043 -0.2849,0.1987 -0.2843,0.2044 -0.2814,0.2044 -0.285,0.1987 -0.2814,0.2043 -0.2843,0.1994 -0.285,0.2044 -0.2899,0.1987 -0.2842,0.2043 -0.2822,0.1987 -0.2927,0.2044 -0.2815,0.1987 -0.2899,0.2051 -0.2849,0.1958 -0.29,0.2072 -0.2842,0.1959 -0.29,0.1987 -0.2906,0.2043 -0.2899,0.1995 -0.2843,0.1987 -0.2899,0.2043 -0.2899,0.1987 -0.2927,0.1966 -0.2907,0.1987 -0.2899,0.2044 -0.2899,0.1987 -0.2928,0.1987 -0.2955,0.1965 -0.29,0.2044 -0.2927,0.1987 -0.2956,0.1987 -0.2927,0.1994 -0.2899,0.1959 -0.2984,0.1987 -0.29,0.1987 -0.2955,0.1966 -0.2985,0.1987 -0.2927,0.1987 -0.2956,0.1965 -0.5968,0.3974 -0.2984,0.1959 -0.2899,0.1994 -0.2984,0.1987 -0.2956,0.1959 -0.3062,0.1994 -0.2984,0.1987 -0.2956,0.1959 -0.2984,0.1987 -0.2984,0.1909 -0.304,0.1987 -0.2984,0.1966 -0.2977,0.1987 -0.3041,0.1902 -0.2984,0.1994 -0.3041,0.1987 -0.2984,0.1959 -0.3033,0.1909 -0.3041,0.1987 -0.2984,0.1987 -0.3062,0.1909 -0.304,0.1987 -0.3041,0.1909 -0.3062,0.1959 -0.304,0.1987 -0.3041,0.1909 -0.3062,0.1987 -0.304,0.1903 -0.3041,0.1994 -0.3062,0.1902 -0.304,0.1966 -0.3119,0.193 -0.304,0.1909 -0.3126,0.1959 -0.3033,0.1902 -0.3069,0.1994 -0.3119,0.1902 -0.3097,0.191 -0.3062,0.1987 -0.3125,0.1902 -0.3034,0.1909 -0.3125,0.1909 -0.3119,0.1987 -0.9362,0.5714 -0.3125,0.1937 -0.3091,0.1959 -0.6243,0.3811 -0.3126,0.1938 -0.3118,0.1902 -0.3175,0.1909 -0.6244,0.3812 -0.3203,0.1902 -0.3126,0.1909 -0.3175,0.1902 -0.3118,0.1909 -0.3175,0.1931 -0.3126,0.1909 -0.3203,0.1902 -0.3175,0.1909 -0.3203,0.1903 -0.3126,0.1852 -0.3175,0.1909 -0.3203,0.1903 -0.635,0.3811 -0.321,0.1853 -0.3203,0.1909 -0.635,0.3811 -0.326,0.1846 -0.3203,0.1909 -0.3175,0.1902 -0.326,0.1825 -0.3203,0.1909 -0.326,0.1845 -0.3182,0.191 -0.326,0.1852 -0.3203,0.1902 -0.326,0.191 -0.3175,0.1824 -0.326,0.1846 -0.326,0.1909 -0.326,0.1852 -0.326,0.1903 -0.3203,0.1824 -0.326,0.193 -0.3259,0.1825 -0.326,0.1852 -0.3338,0.1903 -0.326,0.1824 -0.3259,0.1853 -0.326,0.1902 -0.326,0.1852 -0.3317,0.1825 -0.3259,0.1852 -0.326,0.1825 -0.3338,0.1902 -0.326,0.1853 -0.3344,0.1824 -0.326,0.1846 -0.3309,0.1852 -0.3345,0.1825 -0.326,0.1852 -0.3345,0.1818 -0.3316,0.1852 -0.3338,0.1825 -0.3316,0.1852 -0.3345,0.1846 -0.3337,0.1824 -0.3317,0.1853 -0.3344,0.1824 -0.331,0.1846 -0.3344,0.1824 -0.3345,0.1853 -0.3309,0.1824 -0.3402,0.1768 -0.3344,0.1846 -0.331,0.1852 -0.3429,0.1825 -0.3309,0.1767 -0.3402,0.1853 -0.3344,0.1824 -0.3395,0.1846 -0.3344,0.1768 -0.3394,0.1824 -0.3402,0.1768 -0.3394,0.1853 -0.3345,0.1824 -0.3394,0.1768 -0.3401,0.1845 -0.3394,0.1768 -0.3401,0.1853 -0.3423,0.1768 -0.3394,0.1824 -0.3401,0.1768 -0.3394,0.1853 -0.3487,0.1767 -0.3394,0.1768 -0.3401,0.1817 -0.3394,0.1768 -0.3479,0.1768 -0.3401,0.1853 -0.348,0.1767 -0.3394,0.1768 -0.3479,0.1825 -0.3401,0.1767 -0.6958,0.3536 -0.3401,0.1768 -0.3451,0.1768 -0.3479,0.1852 -0.3479,0.1768 -0.3401,0.1768 -0.3479,0.1768 -0.3451,0.1767 -0.6965,0.3536 -0.3536,0.1768 -1.0437,0.5303 -0.3458,0.1768 -0.3535,0.1768 -0.3479,0.1683 -0.3479,0.1768 -0.3536,0.1767 -0.3479,0.1768 -0.3536,0.1768 -0.3479,0.1768 -0.3535,0.1711 -0.3564,0.1768 -0.3458,0.1768 -0.3557,0.1683 -0.7071,0.3535 -0.3564,0.1719 -0.3458,0.1767 -0.3564,0.1768 -0.3535,0.1683 -0.3536,0.1768 -0.3535,0.1711 -0.3614,0.1768 -0.3564,0.1683 -0.3535,0.1768 -0.3536,0.169 -0.3564,0.1767 -0.3592,0.1712 -0.3564,0.1683 -0.3535,0.1767 -0.3621,0.1712 -0.3535,0.169 -0.3614,0.1768 -0.3535,0.1711 -0.7241,0.3366 -0.3536,0.1767 -0.3613,0.1712 -0.3621,0.169 -0.362,0.1711 -0.3621,0.1683 -0.3535,0.1711 -0.3614,0.1768 -0.362,0.169 -0.3621,0.1711 -0.3592,0.1683 -0.3698,0.1683 -0.3621,0.1718 -0.3613,0.1683 -0.3592,0.1712 -0.3621,0.1682 -0.3698,0.1634 -0.362,0.1711 -0.3592,0.1683 -0.3699,0.169 -0.362,0.1711 -0.3677,0.1683 -0.3613,0.1634 -0.3678,0.1711 -0.362,0.1683 -0.3698,0.1683 -0.3677,0.1633 -0.3698,0.1712 -0.3621,0.1682 -0.367,0.1634 -0.3677,0.1711 -0.3698,0.1683 -0.3677,0.1634 -0.3698,0.1682 -0.3677,0.1627 -0.367,0.1718 -0.3706,0.1598 -0.367,0.1711 -0.3705,0.1634 -0.3755,0.1683 -0.367,0.1633 -0.3705,0.1627 -0.3755,0.1683 -0.3677,0.1633 -0.3698,0.1626 -0.3755,0.1712 -0.3677,0.1633 -0.3755,0.1598 -0.3755,0.1634 -0.3677,0.1711 -0.3754,0.1633 -0.3755,0.1598 -0.3706,0.1634 -2.6297,1.1406 -0.3755,0.1598 -1.8781,0.8153 -0.3812,0.1626 -0.3754,0.1634 -0.3762,0.1541 -0.384,0.1634 -0.3755,0.1626 -0.3811,0.1634 -0.3783,0.1548 -0.7623,0.326 -0.3755,0.1542 -0.7679,0.3259 -0.3762,0.1549 -0.3811,0.1626 -0.384,0.1549 -0.3811,0.1633 -0.384,0.1542 -0.3812,0.1633 -0.3839,0.1577 -0.384,0.1598 -0.3811,0.1577 -0.384,0.1627 -0.3811,0.1548 -0.384,0.1549 -0.3811,0.1626 -0.3897,0.1577 -0.7679,0.309 -0.3889,0.1634 -0.3811,0.1548 -0.384,0.157 -0.3896,0.1549 -0.3812,0.1548 -0.3924,0.157 -0.3896,0.1605 -0.3812,0.1577 -0.3889,0.1542 -0.3924,0.1548 -0.3812,0.1577 -0.7792,0.309 -0.3918,0.1577 -0.3896,0.1464 -0.3896,0.1577 -0.7793,0.309 -0.3889,0.1577 -0.7792,0.309 -0.3925,0.1492 -0.3889,0.1548 -0.3896,0.1577 -0.3953,0.1492 -0.3925,0.1542 -0.3889,0.1548 -0.3953,0.1492 -0.3896,0.1549 -0.3917,0.157 -0.3953,0.1464 -0.3896,0.1576 -0.3974,0.1464 -0.3981,0.1577 -0.3897,0.1464 -0.3974,0.157 -0.3952,0.1492 -0.3918,0.1463 -0.3953,0.1577 -0.3974,0.1464 -0.3981,0.1492 -0.3945,0.1549 -0.7956,0.2984 -0.3952,0.1541 -0.7956,0.2984 -0.3952,0.1492 -0.3974,0.1464 -0.3981,0.1492 -0.3946,0.1549 -0.4059,0.1492 -0.3981,0.1492 -0.3953,0.1492 -0.3974,0.1463 -0.4031,0.1492 -0.3981,0.1492 -0.403,0.1492 -0.3981,0.1464 -0.4031,0.1436 -0.3974,0.1463 -0.8068,0.2984 -0.3981,0.1492 -0.4031,0.1464 -0.403,0.1436 -0.3981,0.1463 -0.4031,0.1492 -0.4059,0.1408 -0.8068,0.2984 -0.4031,0.1407 -0.4059,0.1492 -0.4037,0.1492 -0.4031,0.1407 -0.403,0.1492 -0.4038,0.1407 -0.4059,0.1492 -0.4115,0.1407 -0.4031,0.1471 -0.4038,0.1436 -0.4059,0.1407 -0.4087,0.1492 -0.4059,0.1407 -0.403,0.1407 -0.4116,0.1492 -0.4037,0.1407 -0.4116,0.1415 -0.403,0.1407 -0.4116,0.1492 -0.4115,0.1407 -0.4031,0.1435 -0.8238,0.2822 -0.403,0.1407 -0.4087,0.1407 -0.4116,0.1436 -2.0577,0.7043 -0.4087,0.1435 -1.2347,0.4229 -0.4115,0.135 -0.4094,0.1414 -0.4193,0.1408 -0.4116,0.1407 -0.4115,0.135 -0.4095,0.1415 -0.4193,0.1435 -0.4087,0.1322 -0.42,0.1415 -0.4116,0.1435 -0.4172,0.1322 -0.4115,0.1408 -0.4172,0.1357 -0.4116,0.1407 -0.42,0.1351 -0.4165,0.1414 -0.4122,0.1351 -0.4165,0.1329 -0.4172,0.1436 -0.4201,0.1322 -0.4115,0.1358 -0.4172,0.1407 -0.42,0.135 -0.4165,0.133 -0.4172,0.1435 -0.4201,0.1323 -0.4172,0.1357 -0.42,0.1323 -0.8337,0.2708 -0.42,0.1329 -0.4257,0.1351 -0.4165,0.135 -0.42,0.133 -0.4172,0.135 -0.4257,0.133 -0.4165,0.135 -0.42,0.1358 -0.4257,0.1322 -0.4172,0.1351 -0.425,0.1358 -0.4172,0.1322 -0.4257,0.1358 -0.4193,0.1265 -0.4257,0.1358 -0.425,0.1322 -0.4172,0.1273 -0.8506,0.2708 -0.4172,0.1273 -0.4257,0.1323 -0.425,0.135 -0.4257,0.1273 -0.4257,0.1358 -0.425,0.1265 -0.4256,0.133 -0.425,0.1294 -0.4257,0.1329 -0.8507,0.2539 -0.425,0.1357 -0.8513,0.2539 -0.425,0.1351 -0.4313,0.1272 -0.8507,0.2539 -0.4307,0.1273 -0.4256,0.1357 -0.425,0.1266 -0.4335,0.1273 -0.4257,0.1273 -0.4334,0.1266 -0.4229,0.1272 -0.4335,0.1273 -0.4256,0.1266 -0.4307,0.1273 -0.4257,0.1273 -0.4334,0.1294 -0.4307,0.1272 -0.4341,0.1273 -0.425,0.1188 -0.4314,0.1266 -0.4334,0.1273 -0.4307,0.1273 -0.4341,0.1265 -0.4335,0.1217 -0.4221,0.1272 -0.4342,0.1273 -0.4307,0.1217 -0.4334,0.1265 -0.4399,0.1273 -0.4334,0.1188 -0.4307,0.1273 -0.4334,0.1209 -0.4314,0.1273 -0.4334,0.1216 -0.4307,0.1273 -0.4398,0.1188 -0.4335,0.1216 -0.4306,0.1266 -0.4391,0.1188 -0.4342,0.1216 -0.4391,0.1273 -0.4335,0.1188 -0.4306,0.1216 -0.4391,0.1188 -0.4342,0.1266 -0.8782,0.2432 -0.4307,0.1188 -0.4391,0.1217 -0.442,0.1187 -0.4313,0.1217 -0.4391,0.1188 -0.4391,0.1216 -0.4392,0.1188 -0.4334,0.1209 -0.4391,0.1188 -0.4399,0.1216 -0.4391,0.1188 -0.4391,0.1216 -0.4391,0.1132 -0.4392,0.1188 -0.4419,0.1216 -0.4391,0.1188 -0.4392,0.1131 -0.4391,0.1217 -0.4391,0.1188 -0.4391,0.1131 -0.4476,0.1216 -0.4392,0.1188 -0.4391,0.1132 -0.4391,0.1216 -0.4476,0.1131 -0.4363,0.1188 -0.4419,0.1132 -0.4448,0.1216 -0.4391,0.1131 -0.4477,0.1139 -0.4391,0.1188 -0.4476,0.1131 -0.4391,0.1131 -0.4476,0.1217 -0.4391,0.1103 -0.4448,0.1131 -0.4476,0.1132 -0.4391,0.1216 -0.4476,0.1131 -0.4448,0.1132 -0.4391,0.1138 -0.8946,0.2263 -0.4447,0.1131 -0.8952,0.2263 -0.4392,0.1139 -0.4447,0.1131 -0.4477,0.1103 -0.4476,0.1131 -0.444,0.1132 -0.4476,0.1082 -0.4476,0.1131 -0.4533,0.1132 -0.4476,0.1131 -0.4441,0.1131 -0.4476,0.1054 -0.4476,0.1131 -0.4448,0.1132 -0.4532,0.1046 -0.4469,0.1139 -0.4477,0.1075 -0.4532,0.1131 -0.4448,0.1054 -0.4476,0.1131 -0.4526,0.1046 -0.4476,0.1132 -0.4532,0.1082 -0.4469,0.1131 -0.4533,0.1047 -0.4476,0.1082 -0.4533,0.1131 -0.4525,0.1046 -0.4476,0.1054 -0.4533,0.1075 -0.4469,0.1131 -0.9065,0.21 -0.4554,0.1075 -0.4448,0.1054 -0.4533,0.1075 -0.4553,0.1053 -0.4533,0.1047 -0.4526,0.1075 -0.4532,0.1053 -0.4533,0.1075 -0.4554,0.1054 -0.4532,0.1046 -0.4526,0.1075 -0.4533,0.1054 -0.4561,0.099 -0.4525,0.1053 -0.4533,0.1075 -0.4532,0.1054 -0.4526,0.099 -0.4561,0.1053 -0.4582,0.1075 -0.4561,0.1 -0.4526,0.1047 -0.4617,0.1046 -0.4526,0.1 -0.4532,0.1075 -0.4611,0.1 -0.4532,0.1054 -0.4526,0.099 -0.4617,0.1053 -0.4526,0.099 -0.4617,0.1 -0.4526,0.1047 -0.4617,0.1 -0.4526,0.1 -0.4618,0.1046 -0.461,0.1 -0.4533,0.099 -0.461,0.1 -0.4533,0.099 -0.461,0.1 -0.4611,0.1053 -0.4589,0.099 -0.4554,0.1 -0.4617,0.096 -0.4582,0.1 -1.3839,0.2984 -0.4589,0.091 -1.3838,0.2984 -0.4582,0.096 -0.4611,0.1 -0.4617,0.094 -0.4611,0.097 -0.461,0.099 -0.4589,0.094 -0.4611,0.097 -0.4617,0.099 -0.4667,0.094 -0.4611,0.097 -0.461,0.094 -0.4617,0.096 -0.4667,0.094 -0.4611,0.1 -0.4617,0.091 -0.4667,0.091 -0.4611,0.099 -0.461,0.091 -0.4674,0.094 -0.4611,0.097 -0.4667,0.094 -0.461,0.091 -0.4674,0.09 -0.4611,0.1 -0.4667,0.091 -0.461,0.094 -0.4674,0.091 -0.4695,0.091 -0.4611,0.091 -0.4667,0.094 -0.4667,0.091 -0.4617,0.091 -0.4667,0.094 -0.4696,0.091 -0.4667,0.091 -0.461,0.091 -0.4674,0.085 -0.4695,0.091 -0.4667,0.093 -0.4667,0.091 -0.4696,0.091 -0.4667,0.086 -0.4667,0.091 -0.4695,0.094 -0.4667,0.083 -0.4674,0.094 -0.4695,0.083 -0.4667,0.094 -0.4667,0.083 -0.4696,0.094 -0.4666,0.083 -0.4696,0.094 -0.4723,0.083 -0.4696,0.094 -0.4667,0.083 -0.4674,0.086 -0.4695,0.085 -0.4752,0.091 -0.4667,0.086 -0.4695,0.083 -0.4724,0.086 -0.4695,0.091 -0.4667,0.086 -0.4752,0.086 -0.4667,0.086 -0.4752,0.083 -0.4695,0.086 -0.4752,0.086 -0.4667,0.083 -0.4752,0.086 -0.4667,0.085 -0.4751,0.086 -0.4696,0.077 -0.4723,0.085 -0.4752,0.083 -0.4695,0.086 -0.4752,0.086 -0.4724,0.077 -0.4695,0.085 -0.4752,0.083 -0.4752,0.078 -0.4745,0.086 -0.4674,0.086 -0.4744,0.077 -0.4752,0.086 -0.4752,0.078 -0.4752,0.085 -0.4724,0.077 -0.4695,0.086 -0.9503,0.1548 -0.4752,0.086 -0.4752,0.077 -0.4724,0.078 -0.4745,0.085 -1.4255,0.232 -0.4837,0.077 -0.4723,0.078 -0.4773,0.086 -0.4724,0.077 -0.4752,0.078 -0.4752,0.08 -0.4836,0.077 -0.4752,0.078 -0.4724,0.077 -0.4745,0.072 -0.4836,0.077 -1.4256,0.2319 -0.4801,0.077 -0.4752,0.072 -0.4837,0.077 -0.4723,0.078 -0.4752,0.071 -0.483,0.078 -0.4752,0.077 -0.4808,0.072 -0.4752,0.077 -0.4829,0.072 -0.4752,0.077 -0.4809,0.069 -0.4801,0.08 -0.4752,0.069 -0.4837,0.071 -0.4752,0.078 -0.4808,0.071 -0.483,0.069 -0.4751,0.077 -0.4809,0.072 -0.4829,0.071 -0.4809,0.069 -0.4752,0.077 -0.4829,0.072 -0.4809,0.069 -0.4808,0.072 -0.4752,0.072 -0.483,0.069 -0.4808,0.072 -0.4837,0.069 -0.4801,0.072 -0.4837,0.072 -0.4808,0.069 -0.483,0.072 -0.4808,0.064 -0.483,0.071 -0.4808,0.069 -0.4837,0.071 -0.4801,0.064 -0.4837,0.069 -0.4809,0.072 -0.4829,0.063 -0.4809,0.072 -0.4836,0.069 -0.4802,0.063 -0.4836,0.072 -0.4809,0.064 -0.4829,0.069 -0.4887,0.066 -0.4808,0.069 -0.4837,0.064 -0.4801,0.064 -0.4893,0.071 -0.483,0.064 -0.4808,0.064 -0.4837,0.069 -0.4886,0.066 -0.4809,0.064 -0.4829,0.064 -0.4894,0.064 -0.4808,0.064 -0.483,0.063 -0.4893,0.069 -0.4801,0.064 -0.4894,0.064 -0.4829,0.064 -0.4893,0.058 -0.4802,0.064 -0.4893,0.063 -0.483,0.064 -0.4893,0.064 -0.4801,0.064 -0.4894,0.064 -0.4829,0.058 -0.978,0.1266 -0.4808,0.056 -0.4886,0.063 -0.4837,0.064 -0.4886,0.058 -0.4893,0.064 -0.4802,0.055 -0.4921,0.064 -0.4887,0.058 -0.4893,0.064 -0.4801,0.055 -0.4893,0.058 -0.4887,0.064 -0.4886,0.055 -0.4837,0.058 -0.4886,0.064 -0.4893,0.055 -0.4886,0.058 -0.4894,0.055 -0.4886,0.064 -0.4886,0.058 -0.4837,0.055 -0.4886,0.058 -0.4893,0.055 -0.4886,0.058 -0.4894,0.056 -0.4886,0.058 -0.4893,0.055 -0.4886,0.058 -0.4886,0.055 -0.4894,0.058 -0.4886,0.05 -0.9779,0.1103 -0.4887,0.059 -0.4893,0.05 -0.4971,0.055 -0.4886,0.058 -0.4893,0.05 -0.4887,0.055 -0.4893,0.058 -0.48861,0.05 -0.48862,0.055 -0.49711,0.049 -0.48932,0.058 -0.48862,0.047 -0.48933,0.049 -0.49428,0.058 -0.49145,0.05 -0.48932,0.05 -0.48862,0.055 -0.49428,0.05 -0.97795,0.1 -0.4971,0.055 -0.97795,0.099 -0.49711,0.05 -0.97795,0.099 -0.49427,0.05 -0.48933,0.05 -0.49711,0.05 -0.48862,0.05 -0.4971,0.05 -0.48933,0.049 -0.48862,0.047 -0.49428,0.044 -0.49215,0.05 -0.49428,0.05 -0.48862,0.05 -0.4971,0.042 -0.49499,0.05 -0.48862,0.049 -0.4971,0.042 -0.48862,0.05 -0.49782,0.042 -0.48862,0.05 -0.49427,0.044 -0.49711,0.049 -0.48933,0.042 -0.4971,0.05 -0.49428,0.041 -0.48862,0.045 -0.49781,0.049 -0.49711,0.042 -0.48862,0.041 -0.49428,0.05 -0.4971,0.044 -0.48933,0.042 -0.49428,0.041 -0.4971,0.044 -0.49711,0.042 -0.48932,0.041 -0.49428,0.05 -0.49711,0.044 -0.4971,0.042 -0.49428,0.035 -0.48933,0.042 -0.4971,0.041 -0.49711,0.045 -0.49427,0.042 -0.49711,0.044 -0.49498,0.042 -0.49711,0.035 -0.48862,0.042 -0.49711,0.042 -0.49498,0.044 -0.49711,0.036 -0.49427,0.042 -0.49711,0.035 -0.4971,0.042 -0.49428,0.036 -0.49711,0.041 -0.49498,0.036 -0.49711,0.042 -0.4971,0.035 -0.49428,0.044 -0.4971,0.033 -0.49711,0.036 -0.49498,0.044 -0.49711,0.033 -0.49428,0.036 -0.4971,0.036 -0.49711,0.041 -0.49428,0.036 -0.49781,0.036 -0.49428,0.035 -0.50559,0.036 -0.49427,0.033 -0.99421,0.072 -0.49428,0.035 -0.49711,0.036 -0.49498,0.033 -0.49711,0.036 -0.50276,0.036 -0.49711,0.035 -0.49427,0.028 -0.99421,0.071 -0.50277,0.033 -0.49427,0.03 -0.49782,0.033 -0.4971,0.03 -0.50276,0.033 -0.49428,0.035 -0.49711,0.027 -0.4971,0.036 -0.50276,0.03 -0.49711,0.033 -0.49428,0.03 -0.49781,0.028 -0.50206,0.036 -0.49498,0.028 -0.49711,0.027 -0.50276,0.036 -0.99421,0.055 -0.50276,0.03 -0.49428,0.033 -0.4971,0.03 -0.50277,0.028 -0.4971,0.028 -0.50277,0.028 -0.4971,0.03 -0.49499,0.028 -0.50276,0.028 -0.4971,0.028 -0.50277,0.03 -0.4971,0.028 -0.49428,0.019 -0.50276,0.03 -0.49711,0.028 -0.50276,0.028 -0.4971,0.028 -0.50277,0.022 -0.4971,0.028 -0.50277,0.03 -0.4971,0.019 -0.50276,0.03 -0.49428,0.02 -0.50559,0.028 -0.49428,0.022 -0.50276,0.028 -0.49711,0.022 -0.50276,0.028 -0.49781,0.023 -0.50276,0.022 -0.49711,0.028 -0.50276,0.022 -0.49428,0.019 -0.50559,0.028 -0.49428,0.023 -0.50276,0.022 -0.50559,0.022 -0.49428,0.02 -0.50276,0.022 -0.49711,0.022 -0.50276,0.028 -0.49711,0.019 -0.50276,0.023 -0.50276,0.013 -0.49711,0.023 -0.50276,0.022 -0.50276,0.019 -0.49711,0.022 -0.50276,0.023 -0.49428,0.019 -0.50559,0.014 -0.50276,0.023 -0.49428,0.022 -0.50559,0.014 -0.50276,0.022 -0.49428,0.019 -0.50559,0.014 -0.50276,0.022 -0.49428,0.013 -0.50276,0.023 -0.50559,0.013 -0.49428,0.022 -0.50276,0.014 -0.50559,0.022 -0.49428,0.014 -0.50276,0.014 -0.50559,0.02 -0.50277,0.016 -0.49427,0.014 -0.50559,0.013 -0.50277,0.014 -0.50276,0.022 -0.4971,0.013 -1.00553,0.028 -0.49711,0.013 -1.50828,0.042 -0.49711,0.016 -1.00552,0.028 -0.50277,0.01 -0.50276,0.013 -0.4971,0.017 -0.50277,0.013 -0.50276,0.01 -0.50488,0.014 -0.49499,0.016 -0.50276,0.01 -0.50488,0.014 -0.50277,0.013 -0.50276,0.01 -0.4971,0.014 -0.50277,0.01 -0.50276,0.014 -0.50276,0.01 -0.50277,0.01 -0.4971,0.014 -0.50276,0.01 -0.50277,0.017 -0.50559,0.01 -0.50276,0.01 -0.50276,0.01 -0.49428,0.01 -0.50559,0.014 -0.50276,0.01 -0.50277,0.01 -0.50276,0.01 -0.4971,0.01 -0.50277,0.01 -0.50276,0.01 -0.50276,0.01 -0.50559,0.01 -1.00482,0.016 -0.49498,0.01 -0.50489,0 -0.50276,0.01 -0.50276,0.01 -0.50277,0.01 -0.50276,0.01 -0.4971,0 -0.50277,0.01 -0.50276,0 -0.50559,0.01 -0.50276,0.01 -0.50277,0 -0.50276,0.01 -0.4971,0 -0.50277,0.01 -1.00552,0 -0.50276,0.01 -1.00836,0 -0.49427,0.01 -1.51112,0 -0.50206,0.01 -5.02479,0 -0.49711,-0.01 -2.01388,0 -0.50276,-0.01 -1.00552,0 -0.49711,-0.01 -0.50276,0 -0.50206,-0.01 -0.50276,0 -0.50559,-0.01 -0.50276,0 -0.50277,-0.01 -0.4971,0 -0.50277,-0.01 -0.50276,-0.01 -0.50276,0 -0.50276,-0.01 -0.50277,-0.01 -0.50559,0 -0.49427,-0.01 -0.50277,-0.01 -0.50559,-0.01 -1.00552,-0.016 -0.50276,-0.01 -0.49711,-0.01 -0.50276,-0.01 -0.50277,-0.01 -0.50276,-0.01 -0.50488,-0.01 -0.50276,-0.01 -0.49499,-0.01 -0.50205,-0.01 -0.5056,-0.01 -0.50276,-0.014 -0.50276,-0.01 -0.50276,-0.01 -0.49711,-0.01 -0.50276,-0.013 -0.50276,-0.01 -0.50277,-0.01 -0.50559,-0.014 -0.49427,-0.01 -0.50277,-0.014 -0.50559,-0.01 -0.50276,-0.014 -0.50276,-0.01 -0.49711,-0.013 -0.50276,-0.014 -0.50276,-0.01 -0.50277,-0.014 -0.4971,-0.014 -0.50276,-0.01 -1.50829,-0.042 -0.49711,-0.014 -0.50276,-0.014 -0.50276,-0.01 -0.50489,-0.013 -0.49498,-0.014 -0.50276,-0.013 -0.50489,-0.014 -0.50276,-0.016 -0.49498,-0.02 -0.50277,-0.014 -0.50488,-0.017 -0.50276,-0.014 -0.49499,-0.014 -0.50488,-0.013 -0.50276,-0.022 -0.49499,-0.014 -0.50488,-0.013 -0.50276,-0.02 -0.50277,-0.016 -0.4971,-0.014 -0.50277,-0.019 -0.50276,-0.017 -0.4971,-0.019 -0.50277,-0.013 -0.50276,-0.023 -0.49428,-0.013 -0.50559,-0.022 -0.50276,-0.02 -0.49498,-0.016 -0.50489,-0.02 -0.50276,-0.022 -0.49428,-0.013 -0.50559,-0.023 -0.49498,-0.019 -0.50276,-0.022 -0.50489,-0.022 -0.49498,-0.02 -0.50206,-0.022 -0.50559,-0.014 -0.49498,-0.022 -0.50277,-0.022 -0.4971,-0.019 -0.50276,-0.03 -0.50206,-0.02 -0.49781,-0.022 -0.50277,-0.022 -0.4971,-0.02 -0.50276,-0.022 -0.49711,-0.027 -0.50276,-0.022 -0.49428,-0.022 -0.50559,-0.02 -0.50276,-0.028 -0.49428,-0.022 -0.50559,-0.028 -0.49428,-0.022 -0.50276,-0.023 -0.49711,-0.028 -0.50276,-0.022 -0.4971,-0.028 -0.50277,-0.028 -0.4971,-0.022 -0.50276,-0.028 -0.49428,-0.028 -0.50559,-0.023 -0.49428,-0.027 -0.49711,-0.028 -0.50276,-0.022 -0.49781,-0.028 -0.50276,-0.03 -0.49428,-0.028 -0.50559,-0.028 -0.49428,-0.028 -0.4971,-0.03 -0.50277,-0.027 -0.4971,-0.028 -0.50276,-0.028 -0.49428,-0.03 -0.49711,-0.028 -0.50276,-0.028 -0.49711,-0.028 -0.49498,-0.03 -0.50488,-0.033 -0.49499,-0.03 -0.4971,-0.028 -0.50277,-0.028 -0.4971,-0.036 -0.49428,-0.028 -0.50276,-0.028 -0.49711,-0.036 -0.4971,-0.028 -0.49428,-0.036 -0.50559,-0.028 -0.49428,-0.036 -0.49781,-0.028 -0.49428,-0.036 -0.50276,-0.035 -0.49711,-0.028 -0.4971,-0.035 -0.49428,-0.036 -0.50276,-0.028 -0.99421,-0.072 -0.49499,-0.036 -0.4971,-0.027 -0.49711,-0.035 -0.50276,-0.033 -0.49428,-0.036 -0.99421,-0.072 -0.49428,-0.035 -0.49781,-0.033 -0.49428,-0.036 -0.4971,-0.036 -0.50276,-0.036 -0.49711,-0.041 -0.49428,-0.036 -0.99491,-0.072 -0.49428,-0.041 -0.49711,-0.036 -0.49427,-0.033 -0.49711,-0.036 -0.49711,-0.044 -0.49498,-0.033 -0.49711,-0.044 -0.4971,-0.036 -0.49428,-0.042 -0.4971,-0.036 -0.49428,-0.041 -0.49711,-0.036 -0.49781,-0.042 -0.49428,-0.044 -0.4971,-0.033 -0.48862,-0.044 -0.49499,-0.042 -0.4971,-0.036 -0.49711,-0.041 -0.49427,-0.044 -0.99422,-0.083 -0.48932,-0.045 -0.49428,-0.041 -0.49711,-0.036 -0.49427,-0.042 -0.49711,-0.044 -0.48933,-0.05 -0.4971,-0.042 -0.49428,-0.042 -0.4971,-0.044 -0.48933,-0.042 -0.49711,-0.041 -0.49427,-0.045 -0.49711,-0.05 -0.48933,-0.042 -0.4971,-0.041 -0.49428,-0.045 -0.48862,-0.05 -0.4971,-0.042 -0.49499,-0.049 -0.49145,-0.042 -0.49427,-0.044 -0.49711,-0.049 -0.48933,-0.042 -0.49427,-0.049 -0.48862,-0.05 -0.49711,-0.041 -0.48933,-0.05 -0.4971,-0.042 -0.49428,-0.049 -0.48933,-0.05 -0.4971,-0.049 -0.48862,-0.045 -0.49711,-0.047 -0.97795,-0.1 -0.49427,-0.05 -0.48933,-0.049 -0.49711,-0.05 -0.48862,-0.05 -0.4971,-0.05 -0.97795,-0.1 -0.49428,-0.05 -0.49215,-0.05 -0.48579,-0.047 -0.49711,-0.049 -0.48933,-0.05 -0.48862,-0.058 -0.4971,-0.05 -0.97795,-0.099 -0.49711,-0.055 -0.48932,-0.05 -0.48862,-0.055 -0.97795,-0.1 -0.49428,-0.058 -0.48862,-0.05 -0.48932,-0.055 -0.48863,-0.058 -0.49215,-0.049 -0.48862,-0.055 -0.49428,-0.05 -0.48933,-0.055 -0.48862,-0.058 -0.48862,-0.049 -0.49215,-0.055 -0.48579,-0.058 -0.49216,-0.056 -0.48862,-0.058 -0.48862,-0.055 -0.48933,-0.049 -0.48862,-0.058 -0.48932,-0.055 -0.48862,-0.058 -0.48862,-0.055 -0.48933,-0.058 -0.48862,-0.055 -0.48933,-0.064 -0.48862,-0.058 -0.48367,-0.055 -0.48862,-0.059 -0.97795,-0.1103 -0.48862,-0.066 -0.48932,-0.055 -0.48014,-0.055 -0.48933,-0.066 -0.97794,-0.1103 -0.48297,-0.067 -0.48932,-0.055 -0.48862,-0.063 -0.48862,-0.059 -0.48367,-0.063 -0.48862,-0.064 -0.48933,-0.055 -0.48014,-0.064 -0.48932,-0.058 -0.48297,-0.064 -0.97794,-0.1272 -0.48085,-0.055 -0.48862,-0.064 -0.48367,-0.064 -0.48862,-0.063 -0.48084,-0.064 -0.48862,-0.064 -0.48367,-0.058 -0.48862,-0.064 -0.48084,-0.064 -0.48367,-0.064 -0.48862,-0.071 -0.48084,-0.064 -0.48862,-0.064 -0.48367,-0.064 -0.48085,-0.064 -0.48862,-0.063 -0.48296,-0.064 -0.48084,-0.069 -0.48933,-0.064 -0.48296,-0.066 -0.48084,-0.069 -0.48297,-0.064 -0.48932,-0.064 -0.48085,-0.071 -0.48296,-0.064 -0.48084,-0.069 -0.48296,-0.064 -0.48085,-0.072 -0.48932,-0.064 -0.48297,-0.072 -0.48084,-0.064 -0.48296,-0.069 -0.48084,-0.072 -0.48367,-0.064 -0.48014,-0.071 -0.48367,-0.069 -0.48084,-0.072 -0.48296,-0.064 -0.48084,-0.069 -0.48368,-0.071 -0.48013,-0.072 -0.48367,-0.069 -0.48013,-0.072 -0.47519,-0.069 -0.48367,-0.071 -0.48084,-0.072 -0.48297,-0.069 -0.48084,-0.071 -0.48367,-0.069 -0.47165,-0.071 -0.48367,-0.072 -0.48084,-0.069 -0.48296,-0.077 -0.47519,-0.072 -0.48084,-0.071 -0.48367,-0.069 -0.47448,-0.077 -0.48084,-0.072 -0.47518,-0.071 -0.48367,-0.078 -0.48014,-0.069 -0.47518,-0.078 -0.48084,-0.071 -0.47519,-0.078 -0.48296,-0.071 -0.47519,-0.078 -0.48084,-0.071 -0.47518,-0.078 -0.48297,-0.077 -0.47518,-0.072 -0.47236,-0.077 -0.48367,-0.077 -0.47518,-0.078 -0.48014,-0.071 -1.42555,-0.232 -0.48367,-0.078 -0.47448,-0.077 -0.47236,-0.08 -0.47518,-0.078 -0.48367,-0.077 -1.42485,-0.2319 -0.47236,-0.081 -0.95037,-0.1542 -0.48367,-0.078 -0.47518,-0.085 -0.94966,-0.1542 -0.47236,-0.086 -0.47519,-0.077 -0.46952,-0.077 -0.47519,-0.086 -0.47518,-0.078 -0.47236,-0.077 -0.47518,-0.086 -0.47519,-0.078 -0.47518,-0.085 -0.47519,-0.083 -0.46953,-0.08 -0.47235,-0.083 -0.47448,-0.078 -0.47519,-0.085 -0.46952,-0.086 -0.47519,-0.077 -0.47236,-0.085 -0.46952,-0.086 -0.47519,-0.083 -0.47518,-0.086 -0.4667,-0.077 -0.47519,-0.085 -0.4667,-0.086 -0.47518,-0.084 -0.46953,-0.085 -0.47236,-0.086 -0.46952,-0.083 -0.47519,-0.086 -0.4667,-0.086 -0.47518,-0.086 -0.4667,-0.083 -0.46953,-0.094 -0.47518,-0.083 -0.9334,-0.1718 -0.47519,-0.083 -0.46953,-0.094 -0.4674,-0.083 -0.4667,-0.086 -0.47519,-0.091 -0.46952,-0.086 -0.4667,-0.091 -0.4667,-0.086 -0.46953,-0.085 -0.4667,-0.091 -0.4667,-0.086 -0.46953,-0.091 -0.4674,-0.091 -0.4667,-0.086 -0.46953,-0.091 -0.4667,-0.094 -0.4667,-0.083 -0.46953,-0.094 -0.4667,-0.091 -0.4667,-0.086 -0.47023,-0.091 -0.4667,-0.091 -0.4667,-0.094 -0.46104,-0.091 -0.46953,-0.091 -0.4667,-0.091 -0.46741,-0.094 -0.46104,-0.091 -0.4667,-0.091 -0.46953,-0.093 -0.46104,-0.091 -0.93411,-0.1824 -0.46104,-0.094 -0.4667,-0.091 -0.46175,-0.091 -0.46953,-0.099 -0.45821,-0.091 -0.46953,-0.094 -0.45892,-0.091 -0.46104,-0.1 -0.46953,-0.091 -0.45892,-0.091 -0.46953,-0.1 -0.46104,-0.091 -0.45821,-0.1 -0.46175,-0.093 -0.4667,-0.097 -0.46105,-0.094 -0.46175,-0.1 -0.46104,-0.096 -0.4667,-0.094 -0.46104,-0.097 -0.46175,-0.094 -0.46104,-0.099 -0.45892,-0.097 -0.46105,-0.1 -0.46104,-0.093 -0.46175,-0.097 -0.45821,-0.1 -1.84488,-0.3974 -0.45326,-0.097 -0.46104,-0.1 -0.45893,-0.099 -0.92208,-0.1987 -0.45326,-0.1 -0.46105,-0.097 -0.46175,-0.099 -0.45255,-0.1 -0.46175,-0.1075 -0.46105,-0.097 -0.45326,-0.1 -0.46104,-0.099 -0.45327,-0.1054 -0.46104,-0.099 -0.45326,-0.1 -0.46105,-0.1074 -0.45326,-0.097 -0.46104,-0.1075 -0.45327,-0.1 -0.46104,-0.097 -0.45326,-0.1075 -0.45256,-0.1053 -0.46175,-0.099 -0.45256,-0.1082 -0.45326,-0.096 -0.45256,-0.1082 -0.45609,-0.1046 -0.45821,-0.1 -0.4561,-0.1047 -0.45326,-0.1075 -0.45256,-0.1053 -0.45326,-0.099 -0.45539,-0.1054 -0.45326,-0.1075 -0.45327,-0.1053 -0.45255,-0.1075 -0.45327,-0.1047 -0.45538,-0.1053 -0.45327,-0.1075 -0.45326,-0.1054 -0.45256,-0.1074 -0.4476,-0.1047 -0.45327,-0.1054 -0.45256,-0.1074 -0.45609,-0.1054 -0.44478,-0.1075 -0.45255,-0.1131 -0.4561,-0.1054 -0.44478,-0.1046 -0.45538,-0.1075 -0.45327,-0.1139 -0.44477,-0.1046 -0.45539,-0.1047 -0.44478,-0.1138 -0.45609,-0.1075 -0.44478,-0.1131 -0.45256,-0.1054 -0.4476,-0.1075 -0.44761,-0.1131 -0.45326,-0.1103 -0.4469,-0.1082 -0.44478,-0.1132 -0.45327,-0.1046 -0.89521,-0.227 -0.44407,-0.1075 -0.44761,-0.1131 -0.45326,-0.1103 -0.44761,-0.1082 -0.44761,-0.1132 -0.44407,-0.1131 -0.89522,-0.2263 -0.44477,-0.1131 -0.89522,-0.227 -0.44407,-0.1047 -0.43983,-0.1131 -0.4469,-0.1188 -0.44761,-0.1131 -0.44477,-0.1139 -0.44761,-0.1131 -0.43912,-0.1132 -0.44761,-0.1131 -0.44478,-0.1131 -0.43912,-0.1132 -0.44761,-0.1216 -0.4469,-0.1131 -0.43983,-0.1139 -0.44407,-0.1131 -0.43983,-0.1188 -0.4469,-0.1132 -0.43912,-0.1131 -0.44761,-0.1216 -0.43912,-0.1132 -0.43912,-0.1188 -0.44761,-0.1131 -0.43912,-0.1188 -0.43912,-0.1131 -0.44761,-0.1217 -0.43912,-0.1131 -0.43912,-0.1188 -0.43983,-0.1216 -0.43912,-0.1132 -0.43912,-0.1188 -0.44761,-0.1216 -0.43912,-0.1131 -0.43912,-0.1188 -0.43913,-0.1216 -0.43912,-0.1188 -0.43912,-0.1217 -0.43346,-0.1131 -0.43913,-0.1188 -0.43912,-0.1216 -0.43983,-0.1188 -0.87824,-0.2433 -0.43346,-0.1188 -0.43913,-0.1216 -0.43912,-0.1188 -0.43134,-0.1209 -0.43912,-0.1188 -0.43912,-0.1273 -0.43347,-0.1216 -0.43912,-0.1188 -0.43347,-0.1216 -0.43982,-0.1188 -0.43064,-0.1266 -0.43912,-0.1216 -0.43347,-0.1188 -0.43134,-0.1216 -0.43912,-0.1273 -0.43347,-0.1216 -0.43063,-0.1266 -0.44195,-0.1188 -0.43135,-0.1273 -0.43346,-0.1216 -0.43064,-0.1273 -0.43417,-0.1188 -0.43064,-0.1266 -0.43346,-0.1216 -0.43134,-0.1273 -0.43347,-0.1188 -0.43064,-0.1294 -0.43417,-0.1273 -0.43063,-0.1188 -0.43347,-0.1272 -0.43134,-0.1266 -0.43347,-0.1273 -0.43063,-0.1273 -0.42569,-0.1216 -0.43346,-0.1266 -0.43135,-0.1273 -0.43346,-0.1272 -0.42498,-0.1266 -0.43135,-0.1273 -0.42497,-0.1273 -0.43418,-0.1294 -0.42498,-0.1273 -0.43134,-0.1272 -0.42498,-0.1266 -0.43346,-0.1273 -0.42569,-0.1273 -0.43064,-0.1273 -0.42568,-0.135 -0.85067,-0.2539 -0.43346,-0.1273 -0.42569,-0.135 -0.42498,-0.1273 -0.42286,-0.1273 -0.42568,-0.1322 -0.42498,-0.1273 -0.43417,-0.1273 -0.42498,-0.135 -0.42569,-0.1273 -0.42498,-0.1351 -0.4172,-0.1273 -0.42569,-0.135 -0.42498,-0.1273 -0.42568,-0.1322 -0.42498,-0.1273 -0.42569,-0.1358 -0.4172,-0.135 -0.42498,-0.1273 -0.42568,-0.1323 -0.42003,-0.1357 -0.42498,-0.1266 -0.42569,-0.1358 -0.4172,-0.1322 -0.42498,-0.1358 -0.4172,-0.135 -0.42569,-0.1273 -0.41932,-0.1322 -0.4172,-0.1358 -0.42569,-0.1351 -0.4172,-0.1322 -0.41932,-0.1358 -0.42569,-0.135 -0.4172,-0.133 -0.4172,-0.135 -0.41932,-0.133 -0.4172,-0.135 -0.42003,-0.1407 -0.42498,-0.1358 -0.4172,-0.1322 -0.4172,-0.1358 -0.42003,-0.1351 -0.41155,-0.1407 -0.4172,-0.1357 -0.4172,-0.1323 -0.41932,-0.1357 -0.4172,-0.1408 -0.42003,-0.135 -0.40872,-0.133 -0.42003,-0.1435 -0.4172,-0.1322 -0.41154,-0.1415 -0.4172,-0.135 -0.41933,-0.1407 -0.41154,-0.1358 -0.4172,-0.1407 -0.41154,-0.1351 -0.41721,-0.1407 -0.41154,-0.1414 -0.41154,-0.1351 -0.4172,-0.1407 -0.41155,-0.1407 -0.41154,-0.1358 -0.41155,-0.1407 -0.4172,-0.1407 -0.41154,-0.1414 -0.41155,-0.1436 -0.41154,-0.1322 -0.40872,-0.1407 -0.41154,-0.1436 -1.23463,-0.4228 -0.40872,-0.1408 -0.41154,-0.1435 -0.41154,-0.1414 -0.40377,-0.1407 -0.82309,-0.2815 -0.41154,-0.1435 -0.40306,-0.1414 -0.41155,-0.1492 -0.41154,-0.1408 -0.40377,-0.1407 -0.41154,-0.1407 -0.40306,-0.1492 -0.41154,-0.1407 -0.80612,-0.2822 -0.41225,-0.1492 -0.40589,-0.1407 -0.40306,-0.1492 -0.41154,-0.1407 -0.40306,-0.1492 -0.40376,-0.1407 -0.40306,-0.1436 -0.40589,-0.147 -0.40377,-0.1485 -0.40305,-0.1415 -0.40306,-0.1492 -0.40589,-0.1407 -0.80682,-0.2984 -0.40306,-0.1407 -0.4066,-0.1492 -0.40306,-0.1464 -0.3974,-0.1435 -0.40376,-0.1464 -0.40306,-0.1492 -0.3974,-0.1492 -0.40377,-0.1492 -0.40306,-0.1464 -0.39811,-0.1435 -0.40305,-0.1464 -0.39741,-0.1492 -0.40376,-0.1492 -0.3974,-0.1492 -0.39811,-0.1464 -0.40306,-0.1492 -0.39811,-0.1492 -0.39457,-0.1492 -0.39811,-0.1541 -0.40306,-0.1492 -0.3974,-0.1492 -0.39811,-0.1464 -0.39528,-0.1492 -0.3974,-0.1492 -0.39811,-0.1549 -0.39457,-0.1492 -0.39811,-0.1492 -0.3974,-0.1464 -0.39528,-0.1577 -0.39175,-0.1463 -0.39528,-0.1492 -0.39811,-0.157 -0.3974,-0.1464 -0.38962,-0.1577 -0.3974,-0.1463 -0.39529,-0.1577 -0.38962,-0.1464 -0.3974,-0.157 -0.38962,-0.1492 -0.39741,-0.1548 -0.38962,-0.1492 -0.38962,-0.1549 -0.39811,-0.1542 -0.38892,-0.1492 -0.38962,-0.1548 -0.39811,-0.1577 -0.38891,-0.1464 -0.38963,-0.157 -0.77924,-0.3097 -0.38963,-0.1577 -0.38891,-0.1463 -0.39246,-0.157 -0.77924,-0.3097 -0.38892,-0.157 -0.77925,-0.3097 -0.38396,-0.1577 -0.77854,-0.309 -0.38397,-0.1577 -0.77924,-0.309 -0.38114,-0.1577 -0.39245,-0.1598 -0.38114,-0.1577 -0.38397,-0.1549 -0.38891,-0.1548 -0.38185,-0.157 -0.38397,-0.1634 -0.38891,-0.1541 -0.38397,-0.1549 -0.38114,-0.1633 -0.38396,-0.1542 -0.38114,-0.1577 -0.38962,-0.1633 -0.38397,-0.1542 -0.38397,-0.1633 -0.38113,-0.1549 -0.37548,-0.1626 -0.38397,-0.1549 -0.38114,-0.1626 -0.38397,-0.1577 -0.38113,-0.1598 -0.37619,-0.1577 -0.38397,-0.1633 -0.38114,-0.1598 -0.37548,-0.1577 -0.76793,-0.326 -0.37548,-0.1542 -0.37548,-0.1633 -0.38114,-0.1626 -0.37619,-0.1634 -0.38396,-0.1598 -0.37548,-0.1577 -0.37548,-0.1633 -0.37549,-0.1598 -0.38184,-0.1634 -2.62907,-1.1406 -0.37619,-0.1598 -0.37548,-0.1633 -0.36983,-0.1627 -0.75167,-0.3259 -0.36699,-0.1691 -0.75167,-0.3259 -0.367,-0.1627 -0.37618,-0.1683 -0.36983,-0.1633 -0.37548,-0.1626 -0.3677,-0.1712 -0.36982,-0.1633 -0.37549,-0.1598 -0.3677,-0.1719 -0.36982,-0.1626 -0.37619,-0.1683 -0.7347,-0.326 -0.36982,-0.169 -0.3677,-0.1626 -0.36983,-0.1711 -0.3677,-0.169 -0.36983,-0.1627 -0.3677,-0.1683 -0.36699,-0.1633 -0.36205,-0.1711 -0.36982,-0.1683 -0.36771,-0.1634 -0.36204,-0.1683 -0.367,-0.1711 -0.37053,-0.1683 -0.36134,-0.1633 -0.3677,-0.1712 -0.36134,-0.1682 -0.3677,-0.1719 -0.72338,-0.3366 -0.37053,-0.1633 -0.35922,-0.1711 -0.36134,-0.1683 -0.36205,-0.1712 -0.37053,-0.169 -0.35851,-0.1711 -0.72409,-0.3366 -0.36204,-0.1711 -0.36134,-0.1768 -0.36205,-0.169 -0.36204,-0.1711 -0.35356,-0.1683 -0.36134,-0.1711 -0.36205,-0.169 -0.35921,-0.1683 -0.35639,-0.1768 -0.36205,-0.1711 -0.35356,-0.1683 -0.36134,-0.1768 -0.35356,-0.1718 -0.36204,-0.1683 -0.35356,-0.1768 -0.36205,-0.1711 -0.35356,-0.1683 -0.35639,-0.1768 -0.36134,-0.1718 -0.35356,-0.1768 -0.35356,-0.1683 -0.35356,-0.1768 -0.35639,-0.1683 -0.35356,-0.1768 -0.35356,-0.1711 -0.35638,-0.1768 -0.35356,-0.169 -0.35357,-0.1767 -0.35638,-0.1768 -0.35356,-0.1711 -0.34791,-0.1768 -0.35356,-0.1768 -0.35356,-0.1683 -0.3479,-0.1768 -0.35356,-0.1768 -0.34861,-0.1767 -0.35356,-0.1768 -0.3479,-0.1711 -0.35356,-0.1768 -0.69581,-0.3536 -0.35356,-0.1768 -0.3479,-0.1767 -0.34579,-0.1768 -1.04371,-0.5304 -0.34578,-0.1767 -1.04371,-0.5304 -0.34507,-0.1768 -0.69652,-0.3535 -0.33941,-0.1768 -0.34791,-0.1824 -0.34578,-0.1768 -0.34224,-0.1768 -0.34508,-0.1768 -0.34012,-0.1852 -0.34791,-0.1768 -0.33942,-0.1768 -0.34861,-0.1768 -0.33941,-0.1824 -0.34013,-0.1768 -0.3479,-0.1846 -0.67954,-0.3535 -0.34225,-0.1825 -0.34013,-0.1767 -0.33941,-0.1853 -0.34013,-0.1768 -0.33942,-0.1852 -0.33941,-0.1768 -0.34296,-0.1818 -0.33941,-0.1767 -0.34013,-0.1853 -0.33376,-0.1824 -0.34012,-0.1768 -0.33942,-0.1853 -0.33164,-0.1817 -0.34225,-0.1768 -0.33164,-0.1853 -0.34012,-0.1824 -0.33376,-0.1768 -0.34013,-0.1852 -0.33376,-0.1846 -0.33164,-0.1824 -0.33447,-0.1853 -0.33941,-0.1824 -0.33447,-0.1768 -0.33164,-0.1846 -0.33376,-0.1824 -0.33164,-0.1853 -0.33447,-0.1824 -0.33376,-0.1853 -0.33164,-0.1845 -0.33447,-0.1825 -0.32598,-0.1852 -0.33376,-0.1825 -0.33164,-0.1845 -0.33447,-0.1825 -0.32598,-0.1852 -0.33164,-0.1825 -0.32528,-0.193 -0.33446,-0.1825 -0.32599,-0.1852 -0.33446,-0.1818 -0.32599,-0.1852 -0.32598,-0.1825 -0.33093,-0.193 -0.32598,-0.1824 -0.32599,-0.1853 -0.32598,-0.1902 -0.32598,-0.1825 -0.32598,-0.1852 -0.32599,-0.1909 -0.32598,-0.1846 -0.32881,-0.1824 -0.32598,-0.191 -0.32598,-0.1845 -0.32599,-0.1909 -0.32598,-0.1825 -0.3175,-0.193 -0.32598,-0.1825 -0.32032,-0.1902 -0.32599,-0.1852 -0.32598,-0.191 -0.3175,-0.1845 -0.32032,-0.1909 -0.32598,-0.1903 -0.3175,-0.1824 -0.32033,-0.1909 -0.32598,-0.1931 -0.3175,-0.1824 -0.32103,-0.1909 -0.3175,-0.1902 -0.31749,-0.1853 -0.32033,-0.1902 -0.3175,-0.1909 -0.32032,-0.1903 -0.31821,-0.1909 -0.32032,-0.1852 -0.3175,-0.1903 -0.31184,-0.1909 -0.32103,-0.1902 -0.3175,-0.1909 -0.31184,-0.1931 -0.31749,-0.1909 -0.31255,-0.1902 -0.32033,-0.1909 -0.31184,-0.1902 -0.3182,-0.191 -0.93623,-0.5713 -0.3175,-0.1938 -0.93622,-0.572 -0.31255,-0.1987 -0.93623,-0.5714 -0.30406,-0.1909 -0.31184,-0.1987 -0.62439,-0.3811 -0.30335,-0.1987 -0.31255,-0.191 -0.30406,-0.1909 -0.31184,-0.1987 -0.30689,-0.1902 -0.30901,-0.1909 -0.30689,-0.1959 -0.30336,-0.1938 -0.31254,-0.1958 -0.30336,-0.1902 -0.30689,-0.1994 -0.30406,-0.1903 -0.30336,-0.1994 -0.30689,-0.1902 -0.30406,-0.1987 -0.30335,-0.1909 -0.30689,-0.1959 -0.30406,-0.1987 -0.30336,-0.1909 -0.2984,-0.1987 -0.30406,-0.1909 -0.30619,-0.1987 -0.2984,-0.1959 -0.30406,-0.1994 -0.29841,-0.1902 -0.30406,-0.1987 -0.29841,-0.1966 -0.30335,-0.1987 -0.29841,-0.1902 -0.2984,-0.1994 -0.29558,-0.1987 -0.30618,-0.1959 -0.2984,-0.1994 -0.29558,-0.1987 -0.29841,-0.1902 -0.2984,-0.1966 -0.2984,-0.1987 -0.29558,-0.1987 -0.29275,-0.1966 -0.29558,-0.1987 -0.2984,-0.1987 -0.2984,-0.1959 -0.28992,-0.1994 -0.29841,-0.1987 -0.28992,-0.1987 -0.2984,-0.2043 -0.28992,-0.1966 -0.29841,-0.1987 -0.28992,-0.1987 -0.2984,-0.1959 -0.57984,-0.3981 -0.28992,-0.2043 -0.29275,-0.1987 -0.29062,-0.1966 -0.28992,-0.1987 -0.28992,-0.2044 -0.28992,-0.1987 -0.29275,-0.1987 -0.28992,-0.2043 -0.28992,-0.1995 -0.29062,-0.1958 -0.28427,-0.2072 -0.28992,-0.1959 -0.28992,-0.1994 -0.28497,-0.2044 -0.28991,-0.1987 -0.28427,-0.2043 -0.28143,-0.1987 -0.29346,-0.2044 -0.28143,-0.1994 -0.28426,-0.2043 -0.28992,-0.1987 -0.28497,-0.2044 -0.28143,-0.1987 -0.56924,-0.4087 -0.28143,-0.1994 -0.28497,-0.2044 -0.28143,-0.1987 -0.27932,-0.2043 -0.28143,-0.2044 -0.28426,-0.1987 -0.28214,-0.2044 -0.27861,-0.2043 -0.28214,-0.2044 -0.27578,-0.1994 -0.28497,-0.2043 -0.27577,-0.2072 -0.28497,-0.2044 -0.55226,-0.4087 -0.27649,-0.1987 -0.28143,-0.2043 -0.27931,-0.2072 -1.10453,-0.8175 -0.27648,-0.2072 -0.27578,-0.2043 -0.268,-0.2044 -0.27931,-0.205 -0.27578,-0.2072 -0.26799,-0.2044 -0.55297,-0.4087 -0.27012,-0.2072 -0.268,-0.2043 -0.27648,-0.2044 -0.27083,-0.2128 -0.27578,-0.2044 -0.268,-0.2044 -0.27082,-0.2071 -0.268,-0.2044 -0.27083,-0.2128 -0.268,-0.2044 -0.27083,-0.2044 -0.26729,-0.2043 -0.27082,-0.2122 -0.268,-0.205 -0.27083,-0.2072 -0.26234,-0.2044 -0.268,-0.2121 -0.27083,-0.2044 -0.26234,-0.2128 -0.268,-0.2044 -0.26234,-0.2043 -0.27083,-0.2129 -0.26234,-0.2043 -0.268,-0.2129 -0.26234,-0.2043 -0.26234,-0.2129 -0.26234,-0.2043 -0.26234,-0.2129 -0.268,-0.2043 -0.26234,-0.2122 -0.26234,-0.205 -0.26235,-0.2122 -0.25739,-0.2043 -0.52468,-0.4257 -0.25951,-0.2044 -0.26235,-0.2128 -0.25668,-0.2128 -0.26234,-0.2044 -0.25457,-0.2121 -0.26234,-0.2129 -0.25385,-0.2043 -0.26235,-0.2129 -0.25739,-0.2128 -0.25385,-0.21 -0.25669,-0.2072 -0.25951,-0.21 -0.25739,-0.2122 -0.25386,-0.2128 -0.25668,-0.2129 -0.25457,-0.2128 -0.25385,-0.2044 -0.25669,-0.2128 -0.25456,-0.2093 -0.2482,-0.2129 -0.25456,-0.2128 -0.25669,-0.2128 -0.24608,-0.2129 -0.25668,-0.2093 -0.24891,-0.2128 -0.25385,-0.2129 -0.2482,-0.2128 -0.25457,-0.2129 -0.2482,-0.2093 -0.2489,-0.2128 -0.25386,-0.2129 -0.4971,-0.4256 -0.24891,-0.2094 -0.24608,-0.2213 -0.2482,-0.2128 -0.2489,-0.21 -0.2482,-0.2122 -0.24042,-0.2128 -0.24891,-0.2129 -0.2482,-0.2178 -0.24608,-0.2128 -0.24325,-0.2128 -0.24537,-0.2129 -0.24325,-0.2178 -0.2489,-0.2128 -0.24042,-0.2129 -0.23972,-0.2185 -0.2489,-0.2121 -0.24043,-0.21 -0.24042,-0.2213 -0.24254,-0.2129 -0.24042,-0.2093 -0.24042,-0.2213 -0.24042,-0.2129 -0.24325,-0.2178 -0.48014,-0.4256 -0.24042,-0.2178 -0.23476,-0.2129 -0.24042,-0.2185 -0.24042,-0.2128 -0.23477,-0.2178 -0.24042,-0.2129 -0.23476,-0.2185 -0.24042,-0.2206 -0.23477,-0.2128 -0.23476,-0.2178 -0.24042,-0.2129 -0.23476,-0.2185 -0.23194,-0.2178 -0.23476,-0.2128 -0.23477,-0.2213 -0.23193,-0.2178 -0.23477,-0.2129 -0.23476,-0.2185 -0.23194,-0.2178 -0.23476,-0.2128 -0.22628,-0.2213 -0.23547,-0.2178 -0.23194,-0.2185 -0.22627,-0.2122 -0.23477,-0.2213 -0.22628,-0.2185 -0.23476,-0.2178 -0.22699,-0.2213 -0.22627,-0.21 -0.23477,-0.2206 -0.45326,-0.4363 -0.22628,-0.2214 -0.22628,-0.2178 -0.22699,-0.2213 -0.2291,-0.2178 -0.22628,-0.2185 -0.22628,-0.2213 -0.2185,-0.2178 -0.22628,-0.2185 -0.22698,-0.2206 -0.22911,-0.2185 -0.21779,-0.2178 -0.22699,-0.2213 -0.22062,-0.2178 -0.22699,-0.2214 -0.21779,-0.2185 -0.22133,-0.2178 -0.22062,-0.2213 -0.22628,-0.2178 -0.43983,-0.4391 -0.21779,-0.227 -0.22133,-0.2178 -0.65691,-0.6576 -0.21285,-0.2263 -0.22133,-0.2185 -0.21779,-0.2206 -0.21284,-0.2185 -0.22062,-0.2185 -0.22133,-0.2263 -0.21285,-0.2206 -0.21284,-0.2185 -0.21779,-0.2263 -0.21284,-0.2185 -0.21285,-0.2206 -0.22062,-0.227 -0.42569,-0.4363 -0.21001,-0.2263 -0.21214,-0.2213 -0.21284,-0.2234 -0.21284,-0.2214 -0.20719,-0.2178 -0.21284,-0.2262 -0.21285,-0.2185 -0.21213,-0.2263 -0.20436,-0.2214 -0.21284,-0.2262 -0.20719,-0.2185 -0.21284,-0.2263 -0.20436,-0.2185 -0.20436,-0.2263 -0.21284,-0.2263 -0.20719,-0.2213 -0.20436,-0.2234 -0.20718,-0.2214 -0.20436,-0.2263 -0.20436,-0.2185 -0.20718,-0.2262 -0.20436,-0.2263 -0.20719,-0.2185 -0.40871,-0.4526 -0.1987,-0.2185 -0.20719,-0.2262 -0.1987,-0.227 -0.20507,-0.2263 -0.1987,-0.2213 -0.20435,-0.2235 -0.1987,-0.2263 -0.20719,-0.227 -0.19587,-0.2206 -0.39811,-0.4532 -0.1987,-0.2235 -0.1987,-0.2263 -0.19941,-0.2213 -0.19587,-0.2263 -0.1987,-0.227 -0.19941,-0.2234 -0.3974,-0.4533 -0.19093,-0.2263 -0.1987,-0.2262 -0.19021,-0.2263 -0.19941,-0.2185 -0.19022,-0.2263 -0.1987,-0.227 -0.19092,-0.2263 -0.19304,-0.2262 -0.19941,-0.227 -0.57135,-0.6796 -0.19376,-0.2262 -0.19021,-0.2235 -0.19092,-0.2348 -0.19305,-0.2269 -0.18243,-0.2263 -0.19305,-0.2263 -0.19092,-0.227 -0.18527,-0.2263 -0.19021,-0.2234 -0.19092,-0.227 -0.18456,-0.2263 -0.18527,-0.2347 -0.19092,-0.2263 -0.18456,-0.227 -0.18244,-0.2263 -0.19375,-0.2234 -0.18173,-0.227 -0.18526,-0.2348 -0.18527,-0.2263 -0.18244,-0.2262 -0.18455,-0.227 -0.18527,-0.232 -0.17678,-0.2262 -0.18526,-0.2263 -0.18244,-0.232 -0.17961,-0.2269 -0.18173,-0.2263 -0.18527,-0.2348 -0.35356,-0.4532 -0.18526,-0.232 -0.35356,-0.4525 -0.18527,-0.2327 -0.17678,-0.2263 -0.17678,-0.2347 -0.17678,-0.2263 -0.1789,-0.227 -0.17678,-0.2319 -0.17678,-0.2263 -0.169,-0.2319 -0.17961,-0.2263 -0.17678,-0.2348 -0.17678,-0.227 -0.16829,-0.2319 -0.17961,-0.2263 -0.1683,-0.2347 -0.17678,-0.227 -0.17112,-0.232 -0.17112,-0.2262 -0.17678,-0.232 -0.16901,-0.2263 -0.17112,-0.2347 -0.16829,-0.2327 -0.17113,-0.2262 -0.17183,-0.2348 -0.16829,-0.2263 -0.17112,-0.2319 -0.1683,-0.2348 -0.16334,-0.227 -0.34225,-0.4638 -0.16334,-0.2263 -0.1683,-0.2348 -0.16264,-0.2319 -0.17183,-0.227 -0.16263,-0.2348 -0.1683,-0.2319 -0.16334,-0.2348 -0.16264,-0.2262 -0.16335,-0.232 -0.16263,-0.2347 -0.16335,-0.2327 -0.16264,-0.2263 -0.16334,-0.2319 -0.16264,-0.2348 -0.16334,-0.2319 -0.16264,-0.2348 -0.15769,-0.2262 -0.16264,-0.2327 -0.16334,-0.2347 -0.15415,-0.232 -0.16335,-0.2347 -0.15769,-0.232 -0.15415,-0.2347 -0.16334,-0.232 -0.15698,-0.2263 -0.15486,-0.2347 -0.15769,-0.2327 -0.15486,-0.2319 -0.16264,-0.2348 -0.15769,-0.2319 -0.14637,-0.2348 -0.15698,-0.2319 -0.15486,-0.2348 -0.15769,-0.2319 -0.15415,-0.2348 -0.1492,-0.2319 -0.15769,-0.2348 -0.1492,-0.2319 -0.15486,-0.2348 -0.14921,-0.2326 -0.15415,-0.2348 -0.1492,-0.2319 -0.1492,-0.2348 -0.1492,-0.2319 -0.14921,-0.2348 -0.15486,-0.2319 -0.1492,-0.2348 -0.14072,-0.2404 -0.1492,-0.2319 -0.1492,-0.2348 -0.1492,-0.2319 -0.14921,-0.2348 -0.14071,-0.2319 -0.1492,-0.2348 -0.14921,-0.2404 -0.14071,-0.2319 -0.14921,-0.2348 -0.14354,-0.2326 -0.14072,-0.232 -0.1492,-0.2347 -0.14143,-0.2405 -0.14071,-0.2319 -0.14355,-0.2348 -0.14071,-0.2319 -0.14072,-0.2404 -0.14425,-0.2348 -0.14072,-0.2319 -0.14072,-0.2348 -0.14354,-0.2404 -0.13294,-0.2319 -0.14355,-0.2348 -0.14071,-0.2404 -0.13506,-0.232 -0.14143,-0.2347 -0.13506,-0.2404 -0.14072,-0.232 -0.13576,-0.2347 -0.13506,-0.2405 -0.13223,-0.2319 -0.14426,-0.2348 -0.13506,-0.2404 -0.13294,-0.2319 -0.13506,-0.2348 -0.13505,-0.2404 -0.12729,-0.2319 -0.13506,-0.2405 -0.13576,-0.2347 -0.13224,-0.232 -0.12728,-0.2404 -0.13506,-0.2348 -0.13576,-0.2404 -0.12729,-0.2319 -0.12657,-0.2404 -0.13577,-0.2348 -0.12657,-0.2397 -0.12728,-0.2326 -0.13011,-0.2426 -0.13224,-0.2319 -0.13011,-0.2404 -0.12657,-0.2348 -0.12728,-0.2404 -0.12728,-0.232 -0.12163,-0.2404 -0.12657,-0.2348 -0.12728,-0.2404 -0.12729,-0.2319 -0.12162,-0.2404 -0.12657,-0.2405 -0.12163,-0.2347 -0.12728,-0.2404 -0.12163,-0.232 -0.11879,-0.2404 -0.12658,-0.2397 -0.12162,-0.2348 -0.12163,-0.2404 -0.11879,-0.2319 -0.12163,-0.2404 -0.11879,-0.2405 -0.12163,-0.2347 -0.12162,-0.2405 -0.1188,-0.2404 -0.12092,-0.2319 -0.11384,-0.2404 -0.12163,-0.2405 -0.11809,-0.2347 -0.11384,-0.2404 -0.12163,-0.2398 -0.11314,-0.2404 -0.11314,-0.2319 -0.12162,-0.2433 -0.11314,-0.2404 -0.11314,-0.2319 -0.34012,-0.7213 -0.11314,-0.2347 -0.33942,-0.7206 -0.10748,-0.2404 -0.11385,-0.232 -0.11314,-0.2404 -0.10465,-0.2404 -0.11314,-0.2404 -0.10819,-0.2404 -0.11314,-0.2348 -0.10465,-0.2397 -0.10819,-0.2404 -0.10466,-0.2405 -0.11314,-0.2404 -0.10819,-0.2404 -0.10465,-0.2404 -0.10748,-0.2348 -0.10536,-0.2397 -0.099,-0.2404 -0.10819,-0.2404 -0.10465,-0.2405 -0.10819,-0.2404 -0.099,-0.2404 -0.10536,-0.2404 -0.099,-0.2397 -0.10819,-0.2405 -0.0962,-0.2319 -0.10818,-0.2404 -0.19871,-0.4809 -0.0997,-0.2432 -0.1987,-0.4801 -0.0969,-0.2405 -0.4971,-1.2014 -0.0912,-0.2404 -0.099,-0.2404 -0.094,-0.2404 -0.0997,-0.2404 -0.0905,-0.2405 -0.0997,-0.2397 -0.0912,-0.2404 -0.094,-0.2404 -0.18244,-0.4809 -0.099,-0.2404 -0.0941,-0.2482 -0.0827,-0.2404 -0.0941,-0.2404 -0.18244,-0.4809 -0.094,-0.2397 -0.0856,-0.2404 -0.18243,-0.4808 -0.17113,-0.4809 -0.0912,-0.2482 -0.17113,-0.4808 -0.0912,-0.2404 -0.25668,-0.7206 -0.0827,-0.2489 -0.17113,-0.4808 -0.0778,-0.2398 -0.17112,-0.4808 -0.0771,-0.2461 -0.0856,-0.2404 -0.0778,-0.2397 -0.0856,-0.2404 -0.0771,-0.2405 -0.0856,-0.2489 -0.15486,-0.4801 -0.0799,-0.2404 -0.0778,-0.2489 -0.23194,-0.7206 -0.0799,-0.2404 -0.0778,-0.2489 -0.0771,-0.2404 -0.0721,-0.2397 -0.0771,-0.2405 -0.0771,-0.246 -0.14354,-0.4809 -0.0778,-0.2482 -0.0686,-0.2404 -0.0721,-0.2404 -0.0771,-0.2404 -0.0721,-0.2482 -0.0721,-0.2405 -0.0686,-0.2404 -0.0721,-0.2461 -0.0714,-0.2397 -0.0693,-0.2404 -0.0721,-0.2489 -0.0629,-0.2404 -0.0721,-0.2404 -0.0693,-0.2482 -0.0629,-0.2405 -0.0721,-0.2404 -0.0636,-0.2454 -0.0714,-0.2404 -0.0636,-0.2404 -0.0636,-0.2489 -0.0636,-0.2404 -0.0693,-0.2397 -0.0629,-0.2489 -0.0665,-0.2405 -0.0636,-0.2453 -0.12729,-0.4809 -0.0552,-0.2489 -0.12728,-0.4801 -0.058,-0.2489 -0.0629,-0.2404 -0.0636,-0.2454 -0.0552,-0.2404 -0.058,-0.2405 -0.0636,-0.2489 -0.0552,-0.2404 -0.058,-0.2454 -0.0559,-0.2432 -0.0629,-0.2461 -0.058,-0.2397 -0.0559,-0.2404 -0.058,-0.2489 -0.0495,-0.2404 -0.0551,-0.2454 -0.058,-0.2404 -0.0551,-0.2489 -0.0495,-0.2405 -0.0559,-0.2482 -0.058,-0.2404 -0.0495,-0.2404 -0.0495,-0.2454 -0.0552,-0.2404 -0.0502,-0.2489 -0.0495,-0.2404 -0.0495,-0.2482 -0.0552,-0.2404 -0.0502,-0.2461 -0.0495,-0.2404 -0.0495,-0.2482 -0.0446,-0.2405 -0.0495,-0.2489 -0.0474,-0.2397 -0.0495,-0.2461 -0.0438,-0.2404 -0.0502,-0.2489 -0.041,-0.2397 -0.0502,-0.2461 -0.041,-0.2404 -0.0502,-0.2482 -0.0439,-0.2404 -0.0417,-0.2489 -0.041,-0.2405 -0.0502,-0.2453 -0.0439,-0.2404 -0.0417,-0.2489 -0.041,-0.2405 -0.0361,-0.2482 -0.0417,-0.246 -0.0438,-0.2405 -0.0417,-0.2482 -0.0354,-0.2404 -0.0417,-0.2489 -0.0361,-0.2397 -0.041,-0.2461 -0.0361,-0.2404 -0.0446,-0.2489 -0.0332,-0.2397 -0.0354,-0.2461 -0.0361,-0.2489 -0.0417,-0.2397 -0.0361,-0.2489 -0.0354,-0.2405 -0.0361,-0.2453 -0.0276,-0.2404 -0.0721,-0.4972 -0.0332,-0.2404 -0.0304,-0.246 -0.0325,-0.2405 -0.0304,-0.2482 -0.0361,-0.246 -0.0276,-0.2405 -0.0361,-0.2482 -0.0276,-0.2404 -0.0276,-0.2489 -0.0276,-0.2404 -0.0361,-0.2454 -0.0276,-0.2489 -0.0304,-0.2404 -0.0276,-0.2482 -0.0191,-0.2404 -0.0304,-0.2461 -0.0276,-0.2482 -0.0283,-0.2404 -0.0219,-0.2461 -0.0276,-0.2482 -0.0219,-0.2404 -0.0276,-0.2489 -0.0219,-0.2405 -0.0276,-0.2453 -0.0226,-0.2489 -0.0191,-0.2405 -0.0219,-0.2482 -0.0226,-0.2404 -0.0276,-0.2461 -0.0219,-0.2482 -0.0134,-0.2404 -0.0198,-0.2461 -0.0219,-0.2482 -0.0219,-0.2404 -0.0198,-0.2489 -0.0163,-0.2404 -0.0191,-0.2454 -0.0141,-0.2489 -0.0219,-0.2404 -0.0141,-0.2482 -0.0219,-0.2461 -0.0134,-0.2404 -0.0141,-0.2482 -0.0141,-0.2461 -0.0134,-0.2404 -0.0141,-0.2482 -0.0163,-0.2404 -0.0141,-0.2489 -0.0134,-0.2454 -0.0141,-0.2404 -0.0276,-0.4971 -0.008,-0.2404 -0.0142,-0.2461 -0.006,-0.2489 -0.0163,-0.2397 -0.006,-0.2461 -0.0142,-0.2489 -0.008,-0.2397 -0.006,-0.2489 -0.008,-0.2405 -0.006,-0.2453 -0.008,-0.2489 -0.008,-0.2405 -0.006,-0.2482 -0.008,-0.246 -0.005,-0.2405 -0.008,-0.2489 0,-0.2453 -0.006,-0.2405 -0.008,-0.2489 0,-0.2482 -0.005,-0.2404 0,-0.4943 -0.008,-0.2404 0,-1.0607" /><path
   inkscape:connector-curvature="0"
   id="path18801"
   style="fill:none;stroke:#000000;stroke-width:3.19554353;stroke-linecap:butt;stroke-linejoin:miter;stroke-miterlimit:2;stroke-opacity:1;stroke-dasharray:none;marker-start:url(#Arrow1Lstart);marker-end:url(#Arrow1Lend)"
   d="m 243.45908,1733.2376 0,295.1245" /><path
   inkscape:connector-curvature="0"
   id="path18811"
   style="fill:none;stroke:#000000;stroke-width:4.80000019;stroke-linecap:butt;stroke-linejoin:miter;stroke-miterlimit:4;stroke-opacity:1;stroke-dasharray:none;marker-start:url(#Arrow1Lstart);marker-end:none"
   d="m 884.32415,2128.08 0,-395.9874" /><path
   style="fill:none;stroke:#000000;stroke-width:4.80000019;stroke-linecap:butt;stroke-linejoin:miter;stroke-miterlimit:4;stroke-opacity:1;stroke-dasharray:none;marker-start:none;marker-end:url(#Arrow1Lend)"
   d="m 881.78752,1729.1598 703.99998,0"
   id="path5231"
   inkscape:path-effect="#path-effect5233"
   inkscape:original-d="m 881.78752,1729.1598 c 671.99998,0 703.99998,0 703.99998,0"
   inkscape:connector-curvature="0" /><text
   xml:space="preserve"
   style="font-size:80px;font-style:normal;font-variant:normal;font-weight:normal;font-stretch:normal;text-align:start;line-height:125%;letter-spacing:0px;word-spacing:0px;writing-mode:lr-tb;text-anchor:start;fill:#000000;fill-opacity:1;stroke:none;font-family:Monospace;-inkscape-font-specification:Monospace"
   x="177.78752"
   y="-1841.1598"
   id="text5603"
   sodipodi:linespacing="125%"
   transform="scale(1,-1)"><tspan
     sodipodi:role="line"
     id="tspan5605"
     x="177.78752"
     y="-1841.1598">H</tspan></text>



<text
   xml:space="preserve"
   style="font-size:80px;font-style:normal;font-variant:normal;font-weight:normal;font-stretch:normal;text-align:start;line-height:125%;letter-spacing:0px;word-spacing:0px;writing-mode:lr-tb;text-anchor:start;fill:#000000;fill-opacity:1;stroke:none;font-family:Monospace;-inkscape-font-specification:Monospace"
   x="913.78754"
   y="-2081.1597"
   id="text5607"
   sodipodi:linespacing="125%"
   transform="scale(1,-1)"><tspan
     sodipodi:role="line"
     id="tspan5609"
     x="913.78754"
     y="-2081.1597">z</tspan></text>



<text
   xml:space="preserve"
   style="font-size:80px;font-style:normal;font-variant:normal;font-weight:normal;font-stretch:normal;text-align:start;line-height:125%;letter-spacing:0px;word-spacing:0px;writing-mode:lr-tb;text-anchor:start;fill:#000000;fill-opacity:1;stroke:none;font-family:Monospace;-inkscape-font-specification:Monospace"
   x="1534.5875"
   y="-1665.1598"
   id="text5611"
   sodipodi:linespacing="125%"
   transform="scale(1,-1)"><tspan
     sodipodi:role="line"
     id="tspan5613"
     x="1534.5875"
     y="-1665.1598">x</tspan></text>



</g></svg>