<?xml version="1.0" encoding="UTF-8" standalone="no"?>
<svg
   xmlns:dc="http://purl.org/dc/elements/1.1/"
   xmlns:cc="http://creativecommons.org/ns#"
   xmlns:rdf="http://www.w3.org/1999/02/22-rdf-syntax-ns#"
   xmlns:svg="http://www.w3.org/2000/svg"
   xmlns="http://www.w3.org/2000/svg"
   xmlns:sodipodi="http://sodipodi.sourceforge.net/DTD/sodipodi-0.dtd"
   xmlns:inkscape="http://www.inkscape.org/namespaces/inkscape"
   data-name="Layer 1"
   viewBox="0 0 1400 1400"
   x="0px"
   y="0px"
   version="1.1"
   id="svg10"
   sodipodi:docname="noun_Close_1983622_mod.svg"
   width="1400"
   height="1400"
   inkscape:version="0.92.2 5c3e80d, 2017-08-06">
  <metadata
     id="metadata16">
    <rdf:RDF>
      <cc:Work
         rdf:about="">
        <dc:format>image/svg+xml</dc:format>
        <dc:type
           rdf:resource="http://purl.org/dc/dcmitype/StillImage" />
        <dc:title>icon-01</dc:title>
      </cc:Work>
    </rdf:RDF>
  </metadata>
  <defs
     id="defs14" />
  <sodipodi:namedview
     pagecolor="#ffffff"
     bordercolor="#666666"
     borderopacity="1"
     objecttolerance="10"
     gridtolerance="10"
     guidetolerance="10"
     inkscape:pageopacity="0"
     inkscape:pageshadow="2"
     inkscape:window-width="3734"
     inkscape:window-height="2053"
     id="namedview12"
     showgrid="false"
     inkscape:zoom="0.52149125"
     inkscape:cx="149.57781"
     inkscape:cy="504.40678"
     inkscape:window-x="0"
     inkscape:window-y="0"
     inkscape:window-maximized="1"
     inkscape:current-layer="svg10" />
  <title
     id="title2">icon-01</title>
  <path
     d="m 771.35999,699.99996 375.29601,-375.296 c 18.944,-18.944 18.944,-50.176 0,-69.12 l -2.048,-2.048 c -18.944,-18.944 -50.176,-18.944 -69.12,0 l -375.29601,375.80801 -375.296,-375.808 c -18.944,-18.944 -50.176,-18.944 -69.12,0 l -2.048,2.048 c -19.456,18.944 -19.456,50.176 0,69.12 l 375.296,375.29599 -375.296,375.29604 c -18.944,18.944 -18.944,50.176 0,69.12 l 2.048,2.048 c 18.944,18.944 50.176,18.944 69.12,0 L 700.19199,771.16796 1075.488,1146.464 c 18.944,18.944 50.176,18.944 69.12,0 l 2.048,-2.048 c 18.944,-18.944 18.944,-50.176 0,-69.12 z"
     id="path4"
     inkscape:connector-curvature="0"
     style="fill:#000000" />
</svg>
