<?xml version="1.0" encoding="UTF-8" standalone="no"?>
<!-- Created with Inkscape (http://www.inkscape.org/) -->

<svg
   xmlns:dc="http://purl.org/dc/elements/1.1/"
   xmlns:cc="http://creativecommons.org/ns#"
   xmlns:rdf="http://www.w3.org/1999/02/22-rdf-syntax-ns#"
   xmlns:svg="http://www.w3.org/2000/svg"
   xmlns="http://www.w3.org/2000/svg"
   xmlns:xlink="http://www.w3.org/1999/xlink"
   xmlns:sodipodi="http://sodipodi.sourceforge.net/DTD/sodipodi-0.dtd"
   xmlns:inkscape="http://www.inkscape.org/namespaces/inkscape"
   width="48px"
   height="48px"
   id="svg2985"
   version="1.1"
   inkscape:version="0.91 r13725"
   sodipodi:docname="main_instrumentview.svg">
  <defs
     id="defs2987">
    <linearGradient
       id="linearGradient3765">
      <stop
         style="stop-color:#c3c3c3;stop-opacity:1;"
         offset="0"
         id="stop3767" />
      <stop
         style="stop-color:#ffffff;stop-opacity:1;"
         offset="1"
         id="stop3769" />
    </linearGradient>
    <linearGradient
       inkscape:collect="always"
       xlink:href="#linearGradient3765"
       id="linearGradient3791"
       x1="24"
       y1="41"
       x2="24"
       y2="-4"
       gradientUnits="userSpaceOnUse"
       gradientTransform="matrix(0.99497309,0,0,1.0105658,-0.76877828,0.80217941)" />
    <linearGradient
       inkscape:collect="always"
       xlink:href="#linearGradient3765"
       id="linearGradient3805"
       x1="-20.608927"
       y1="4.5766449"
       x2="-20.608927"
       y2="15.071053"
       gradientUnits="userSpaceOnUse"
       gradientTransform="matrix(0.67450641,0,0,0.72943931,26.606296,35.64014)" />
    <linearGradient
       inkscape:collect="always"
       xlink:href="#linearGradient3765"
       id="linearGradient3809"
       gradientUnits="userSpaceOnUse"
       gradientTransform="matrix(0.65896376,0,0,0.72943931,47.09621,0.63835421)"
       x1="-21"
       y1="14"
       x2="-21"
       y2="3" />
    <linearGradient
       inkscape:collect="always"
       xlink:href="#linearGradient3765"
       id="linearGradient3813"
       gradientUnits="userSpaceOnUse"
       gradientTransform="matrix(0.67483679,0,0,0.71519929,40.554,0.77296688)"
       x1="-21"
       y1="14"
       x2="-21"
       y2="3" />
    <linearGradient
       inkscape:collect="always"
       xlink:href="#linearGradient3765"
       id="linearGradient3817"
       gradientUnits="userSpaceOnUse"
       gradientTransform="matrix(0.67211338,0,0,0.70095926,33.411627,0.93716645)"
       x1="-21"
       y1="14"
       x2="-21"
       y2="3" />
    <linearGradient
       inkscape:collect="always"
       xlink:href="#linearGradient3765"
       id="linearGradient3821"
       gradientUnits="userSpaceOnUse"
       gradientTransform="matrix(0.62994115,0,0,0.72231931,25.581295,0.80234289)"
       x1="-21"
       y1="14"
       x2="-21"
       y2="3" />
    <linearGradient
       inkscape:collect="always"
       xlink:href="#linearGradient3765"
       id="linearGradient3825"
       gradientUnits="userSpaceOnUse"
       gradientTransform="matrix(0.68573034,0,0,0.70095923,33.673184,35.938951)"
       x1="-20.608927"
       y1="4.5766449"
       x2="-20.608927"
       y2="15.071053" />
    <linearGradient
       inkscape:collect="always"
       xlink:href="#linearGradient3765"
       id="linearGradient3829"
       gradientUnits="userSpaceOnUse"
       gradientTransform="matrix(0.66328251,0,0,0.69383922,40.239082,35.981005)"
       x1="-20.608927"
       y1="4.5766449"
       x2="-20.608927"
       y2="15.071053" />
    <linearGradient
       inkscape:collect="always"
       xlink:href="#linearGradient3765"
       id="linearGradient3833"
       gradientUnits="userSpaceOnUse"
       gradientTransform="matrix(0.67450642,0,0,0.69383922,47.567173,35.87999)"
       x1="-20.608927"
       y1="4.5766449"
       x2="-20.608927"
       y2="15.071053" />
    <linearGradient
       inkscape:collect="always"
       xlink:href="#linearGradient3765"
       id="linearGradient3837"
       gradientUnits="userSpaceOnUse"
       gradientTransform="matrix(0,0.68573034,-0.71519927,0,12.306164,28.621054)"
       x1="-20.608927"
       y1="4.5766449"
       x2="-20.608927"
       y2="15.071053" />
    <linearGradient
       inkscape:collect="always"
       xlink:href="#linearGradient3765"
       id="linearGradient3841"
       gradientUnits="userSpaceOnUse"
       gradientTransform="matrix(0,0.67450642,-0.69383922,0,12.070325,35.504275)"
       x1="-20.608927"
       y1="4.5766449"
       x2="-20.608927"
       y2="15.071053" />
    <linearGradient
       inkscape:collect="always"
       xlink:href="#linearGradient3765"
       id="linearGradient3845"
       gradientUnits="userSpaceOnUse"
       gradientTransform="matrix(0,0.66328251,-0.72231929,0,12.348215,42.316066)"
       x1="-20.608927"
       y1="4.5766449"
       x2="-20.608927"
       y2="15.071053" />
    <linearGradient
       inkscape:collect="always"
       xlink:href="#linearGradient3765"
       id="linearGradient3849"
       gradientUnits="userSpaceOnUse"
       gradientTransform="matrix(0,0.65205859,-0.70807925,0,12.15443,48.988589)"
       x1="-20.608927"
       y1="4.5766449"
       x2="-20.608927"
       y2="15.071053" />
    <linearGradient
       inkscape:collect="always"
       xlink:href="#linearGradient3765"
       id="linearGradient3853"
       gradientUnits="userSpaceOnUse"
       gradientTransform="matrix(0,0.6296107,-0.70807925,0,47.194573,27.600487)"
       x1="-21"
       y1="14"
       x2="-21"
       y2="3" />
    <linearGradient
       inkscape:collect="always"
       xlink:href="#linearGradient3765"
       id="linearGradient3857"
       gradientUnits="userSpaceOnUse"
       gradientTransform="matrix(0,0.68573029,-0.70807925,0,47.215494,35.649467)"
       x1="-21"
       y1="14"
       x2="-21"
       y2="3" />
    <linearGradient
       inkscape:collect="always"
       xlink:href="#linearGradient3765"
       id="linearGradient3861"
       gradientUnits="userSpaceOnUse"
       gradientTransform="matrix(0,0.68573029,-0.69383922,0,46.988532,42.627059)"
       x1="-21"
       y1="14"
       x2="-21"
       y2="3" />
    <linearGradient
       inkscape:collect="always"
       xlink:href="#linearGradient3765"
       id="linearGradient3865"
       gradientUnits="userSpaceOnUse"
       gradientTransform="matrix(0,0.65205854,-0.71519927,0,47.308054,49.027156)"
       x1="-21"
       y1="14"
       x2="-21"
       y2="3" />
  </defs>
  <sodipodi:namedview
     id="base"
     pagecolor="#ffffff"
     bordercolor="#666666"
     borderopacity="1.0"
     inkscape:pageopacity="0.0"
     inkscape:pageshadow="2"
     inkscape:zoom="14"
     inkscape:cx="15.072076"
     inkscape:cy="24"
     inkscape:current-layer="layer1"
     showgrid="true"
     inkscape:grid-bbox="true"
     inkscape:document-units="px"
     inkscape:window-width="2466"
     inkscape:window-height="1365"
     inkscape:window-x="0"
     inkscape:window-y="0"
     inkscape:window-maximized="1">
    <inkscape:grid
       type="xygrid"
       id="grid3012" />
  </sodipodi:namedview>
  <metadata
     id="metadata2990">
    <rdf:RDF>
      <cc:Work
         rdf:about="">
        <dc:format>image/svg+xml</dc:format>
        <dc:type
           rdf:resource="http://purl.org/dc/dcmitype/StillImage" />
        <dc:title />
      </cc:Work>
    </rdf:RDF>
  </metadata>
  <g
     id="layer1"
     inkscape:label="Layer 1"
     inkscape:groupmode="layer">
    <path
       style="font-size:medium;font-style:normal;font-variant:normal;font-weight:normal;font-stretch:normal;text-indent:0;text-align:start;text-decoration:none;line-height:normal;letter-spacing:normal;word-spacing:normal;text-transform:none;direction:ltr;block-progression:tb;writing-mode:lr-tb;text-anchor:start;baseline-shift:baseline;color:#000000;fill:url(#linearGradient3791);fill-opacity:1;fill-rule:evenodd;stroke:none;stroke-width:2.99999976;marker:none;visibility:visible;display:inline;overflow:visible;enable-background:accumulate;font-family:Sans;-inkscape-font-specification:Sans"
       d="m 10.486854,11.034159 c -0.7282412,0.07753 -1.3409106,0.772153 -1.3369945,1.515849 l 0,24.979923 c 7.81e-5,0.793676 0.7110306,1.515771 1.4924595,1.51585 l 24.874327,0 c 0.781428,-7.9e-5 1.492382,-0.722174 1.492459,-1.51585 l 0,-24.979923 c -7.7e-5,-0.793676 -0.711031,-1.515771 -1.492459,-1.515849 l -24.874327,0 c -0.05178,-0.0027 -0.10369,-0.0027 -0.155465,0 z"
       id="rect3777"
       inkscape:connector-curvature="0"
       sodipodi:nodetypes="cccccccccc" />
    <path
       style="font-size:medium;font-style:normal;font-variant:normal;font-weight:normal;font-stretch:normal;text-indent:0;text-align:start;text-decoration:none;line-height:normal;letter-spacing:normal;word-spacing:normal;text-transform:none;direction:ltr;block-progression:tb;writing-mode:lr-tb;text-anchor:start;baseline-shift:baseline;color:#000000;fill:url(#linearGradient3805);fill-opacity:1;fill-rule:nonzero;stroke:none;stroke-width:1.99999988;marker:none;visibility:visible;display:inline;overflow:visible;enable-background:accumulate;font-family:Sans;-inkscape-font-specification:Sans"
       d="m 11.767155,39.948391 c -0.35316,3.8e-5 -0.674472,0.347516 -0.674507,0.729439 l 0,3.715582 c 3.5e-5,0.381922 0.321347,0.729401 0.674507,0.729439 l 1.686266,0 c 0.353161,-3.8e-5 0.674471,-0.347517 0.674506,-0.729439 l 0,-3.715582 c -3.5e-5,-0.381923 -0.321345,-0.729401 -0.674506,-0.729439 z"
       id="rect3793"
       inkscape:connector-curvature="0"
       sodipodi:nodetypes="ccccccccc" />
    <path
       sodipodi:nodetypes="ccccccccc"
       inkscape:connector-curvature="0"
       id="path3807"
       d="m 32.599008,4.9466051 c -0.345023,3.82e-5 -0.658929,0.3475162 -0.658964,0.7294393 l 0,3.7155816 c 3.5e-5,0.3819227 0.313941,0.729402 0.658964,0.729439 l 1.647409,0 c 0.345023,-3.7e-5 0.65893,-0.3475163 0.658964,-0.729439 l 0,-3.7155816 C 34.905347,5.2941213 34.59144,4.9466433 34.246417,4.9466051 z"
       style="font-size:medium;font-style:normal;font-variant:normal;font-weight:normal;font-stretch:normal;text-indent:0;text-align:start;text-decoration:none;line-height:normal;letter-spacing:normal;word-spacing:normal;text-transform:none;direction:ltr;block-progression:tb;writing-mode:lr-tb;text-anchor:start;baseline-shift:baseline;color:#000000;fill:url(#linearGradient3809);fill-opacity:1;fill-rule:nonzero;stroke:none;stroke-width:1.99999988;marker:none;visibility:visible;display:inline;overflow:visible;enable-background:accumulate;font-family:Sans;-inkscape-font-specification:Sans" />
    <path
       style="font-size:medium;font-style:normal;font-variant:normal;font-weight:normal;font-stretch:normal;text-indent:0;text-align:start;text-decoration:none;line-height:normal;letter-spacing:normal;word-spacing:normal;text-transform:none;direction:ltr;block-progression:tb;writing-mode:lr-tb;text-anchor:start;baseline-shift:baseline;color:#000000;fill:url(#linearGradient3813);fill-opacity:1;fill-rule:nonzero;stroke:none;stroke-width:1.99999988;marker:none;visibility:visible;display:inline;overflow:visible;enable-background:accumulate;font-family:Sans;-inkscape-font-specification:Sans"
       d="m 25.707591,4.9971126 c -0.353335,3.75e-5 -0.674802,0.3407321 -0.674837,0.7151994 l 0,3.6430464 c 3.5e-5,0.3744669 0.321502,0.7151616 0.674837,0.7151996 l 1.687092,0 c 0.353333,-3.8e-5 0.674801,-0.3407327 0.674836,-0.7151996 l 0,-3.6430464 C 28.069484,5.3378447 27.748016,4.9971501 27.394683,4.9971126 z"
       id="path3811"
       inkscape:connector-curvature="0"
       sodipodi:nodetypes="ccccccccc" />
    <path
       sodipodi:nodetypes="ccccccccc"
       inkscape:connector-curvature="0"
       id="path3815"
       d="m 18.625134,5.077207 c -0.351909,3.67e-5 -0.672079,0.3339479 -0.672114,0.7009593 l 0,3.5705112 c 3.5e-5,0.367011 0.320205,0.7009225 0.672114,0.7009595 l 1.680283,0 c 0.351908,-3.7e-5 0.672078,-0.3339485 0.672113,-0.7009595 l 0,-3.5705112 C 20.977495,5.4111549 20.657325,5.0772437 20.305417,5.077207 z"
       style="font-size:medium;font-style:normal;font-variant:normal;font-weight:normal;font-stretch:normal;text-indent:0;text-align:start;text-decoration:none;line-height:normal;letter-spacing:normal;word-spacing:normal;text-transform:none;direction:ltr;block-progression:tb;writing-mode:lr-tb;text-anchor:start;baseline-shift:baseline;color:#000000;fill:url(#linearGradient3817);fill-opacity:1;fill-rule:nonzero;stroke:none;stroke-width:1.99999988;marker:none;visibility:visible;display:inline;overflow:visible;enable-background:accumulate;font-family:Sans;-inkscape-font-specification:Sans" />
    <path
       style="font-size:medium;font-style:normal;font-variant:normal;font-weight:normal;font-stretch:normal;text-indent:0;text-align:start;text-decoration:none;line-height:normal;letter-spacing:normal;word-spacing:normal;text-transform:none;direction:ltr;block-progression:tb;writing-mode:lr-tb;text-anchor:start;baseline-shift:baseline;color:#000000;fill:url(#linearGradient3821);fill-opacity:1;fill-rule:nonzero;stroke:none;stroke-width:1.99999988;marker:none;visibility:visible;display:inline;overflow:visible;enable-background:accumulate;font-family:Sans;-inkscape-font-specification:Sans"
       d="m 11.72259,5.0685412 c -0.329828,3.78e-5 -0.629909,0.3441242 -0.629942,0.7223194 l 0,3.679314 c 3.3e-5,0.3781947 0.300114,0.7222814 0.629942,0.7223194 l 1.574853,0 c 0.329827,-3.8e-5 0.629908,-0.3441247 0.629941,-0.7223194 l 0,-3.679314 C 13.927351,5.4126654 13.62727,5.068579 13.297443,5.0685412 z"
       id="path3819"
       inkscape:connector-curvature="0"
       sodipodi:nodetypes="ccccccccc" />
    <path
       sodipodi:nodetypes="ccccccccc"
       inkscape:connector-curvature="0"
       id="path3823"
       d="m 18.587116,40.078992 c -0.359037,3.7e-5 -0.685695,0.333948 -0.685731,0.700959 l 0,3.570511 c 3.6e-5,0.367011 0.326694,0.700923 0.685731,0.700959 l 1.714326,0 c 0.359038,-3.6e-5 0.685694,-0.333948 0.68573,-0.700959 l 0,-3.570511 c -3.6e-5,-0.367011 -0.326692,-0.700922 -0.68573,-0.700959 z"
       style="font-size:medium;font-style:normal;font-variant:normal;font-weight:normal;font-stretch:normal;text-indent:0;text-align:start;text-decoration:none;line-height:normal;letter-spacing:normal;word-spacing:normal;text-transform:none;direction:ltr;block-progression:tb;writing-mode:lr-tb;text-anchor:start;baseline-shift:baseline;color:#000000;fill:url(#linearGradient3825);fill-opacity:1;fill-rule:nonzero;stroke:none;stroke-width:1.99999988;marker:none;visibility:visible;display:inline;overflow:visible;enable-background:accumulate;font-family:Sans;-inkscape-font-specification:Sans" />
    <path
       style="font-size:medium;font-style:normal;font-variant:normal;font-weight:normal;font-stretch:normal;text-indent:0;text-align:start;text-decoration:none;line-height:normal;letter-spacing:normal;word-spacing:normal;text-transform:none;direction:ltr;block-progression:tb;writing-mode:lr-tb;text-anchor:start;baseline-shift:baseline;color:#000000;fill:url(#linearGradient3829);fill-opacity:1;fill-rule:nonzero;stroke:none;stroke-width:1.99999988;marker:none;visibility:visible;display:inline;overflow:visible;enable-background:accumulate;font-family:Sans;-inkscape-font-specification:Sans"
       d="m 25.646866,40.078993 c -0.347284,3.6e-5 -0.663249,0.330556 -0.663283,0.693839 l 0,3.534244 c 3.4e-5,0.363283 0.315999,0.693803 0.663283,0.693839 l 1.658206,0 c 0.347285,-3.6e-5 0.663248,-0.330556 0.663283,-0.693839 l 0,-3.534244 c -3.5e-5,-0.363283 -0.315998,-0.693803 -0.663283,-0.693839 z"
       id="path3827"
       inkscape:connector-curvature="0"
       sodipodi:nodetypes="ccccccccc" />
    <path
       sodipodi:nodetypes="ccccccccc"
       inkscape:connector-curvature="0"
       id="path3831"
       d="m 32.728031,39.977978 c -0.353161,3.6e-5 -0.674472,0.330556 -0.674507,0.693839 l 0,3.534244 c 3.5e-5,0.363283 0.321346,0.693803 0.674507,0.693839 l 1.686266,0 c 0.353161,-3.6e-5 0.674471,-0.330556 0.674506,-0.693839 l 0,-3.534244 c -3.5e-5,-0.363283 -0.321345,-0.693803 -0.674506,-0.693839 z"
       style="font-size:medium;font-style:normal;font-variant:normal;font-weight:normal;font-stretch:normal;text-indent:0;text-align:start;text-decoration:none;line-height:normal;letter-spacing:normal;word-spacing:normal;text-transform:none;direction:ltr;block-progression:tb;writing-mode:lr-tb;text-anchor:start;baseline-shift:baseline;color:#000000;fill:url(#linearGradient3833);fill-opacity:1;fill-rule:nonzero;stroke:none;stroke-width:1.99999988;marker:none;visibility:visible;display:inline;overflow:visible;enable-background:accumulate;font-family:Sans;-inkscape-font-specification:Sans" />
    <path
       sodipodi:nodetypes="ccccccccc"
       inkscape:connector-curvature="0"
       id="path3835"
       d="M 8.0820167,13.534986 C 8.0819792,13.175949 7.7412845,12.849291 7.366818,12.849255 l -3.643047,0 c -0.3744665,3.6e-5 -0.7151621,0.326694 -0.7151988,0.685731 l 0,1.714326 c 3.67e-5,0.359038 0.3407323,0.685694 0.7151988,0.68573 l 3.643047,0 c 0.3744665,-3.6e-5 0.7151612,-0.326692 0.7151987,-0.68573 z"
       style="font-size:medium;font-style:normal;font-variant:normal;font-weight:normal;font-stretch:normal;text-indent:0;text-align:start;text-decoration:none;line-height:normal;letter-spacing:normal;word-spacing:normal;text-transform:none;direction:ltr;block-progression:tb;writing-mode:lr-tb;text-anchor:start;baseline-shift:baseline;color:#000000;fill:url(#linearGradient3837);fill-opacity:1;fill-rule:nonzero;stroke:none;stroke-width:1.99999988;marker:none;visibility:visible;display:inline;overflow:visible;enable-background:accumulate;font-family:Sans;-inkscape-font-specification:Sans"
       inkscape:transform-center-x="2.1866903"
       inkscape:transform-center-y="2.2952591" />
    <path
       inkscape:transform-center-y="2.2576905"
       inkscape:transform-center-x="2.1213828"
       style="font-size:medium;font-style:normal;font-variant:normal;font-weight:normal;font-stretch:normal;text-indent:0;text-align:start;text-decoration:none;line-height:normal;letter-spacing:normal;word-spacing:normal;text-transform:none;direction:ltr;block-progression:tb;writing-mode:lr-tb;text-anchor:start;baseline-shift:baseline;color:#000000;fill:url(#linearGradient3841);fill-opacity:1;fill-rule:nonzero;stroke:none;stroke-width:1.99999988;marker:none;visibility:visible;display:inline;overflow:visible;enable-background:accumulate;font-family:Sans;-inkscape-font-specification:Sans"
       d="M 7.9723357,20.665133 C 7.9722993,20.311972 7.6417797,19.990661 7.278497,19.990626 l -3.5342442,0 c -0.3632827,3.5e-5 -0.6938031,0.321346 -0.6938387,0.674507 l 0,1.686266 c 3.56e-5,0.353161 0.330556,0.674471 0.6938387,0.674506 l 3.5342442,0 c 0.3632827,-3.5e-5 0.6938023,-0.321345 0.6938387,-0.674506 z"
       id="path3839"
       inkscape:connector-curvature="0"
       sodipodi:nodetypes="ccccccccc" />
    <path
       sodipodi:nodetypes="ccccccccc"
       inkscape:connector-curvature="0"
       id="path3843"
       d="M 8.0820168,27.72385 C 8.0819789,27.376566 7.7378925,27.060601 7.359698,27.060567 l -3.6793145,0 c -0.3781945,3.4e-5 -0.7222817,0.315999 -0.7223188,0.663283 l 0,1.658206 c 3.71e-5,0.347285 0.3441243,0.663248 0.7223188,0.663283 l 3.6793145,0 c 0.3781945,-3.5e-5 0.7222809,-0.315998 0.7223188,-0.663283 z"
       style="font-size:medium;font-style:normal;font-variant:normal;font-weight:normal;font-stretch:normal;text-indent:0;text-align:start;text-decoration:none;line-height:normal;letter-spacing:normal;word-spacing:normal;text-transform:none;direction:ltr;block-progression:tb;writing-mode:lr-tb;text-anchor:start;baseline-shift:baseline;color:#000000;fill:url(#linearGradient3845);fill-opacity:1;fill-rule:nonzero;stroke:none;stroke-width:1.99999988;marker:none;visibility:visible;display:inline;overflow:visible;enable-background:accumulate;font-family:Sans;-inkscape-font-specification:Sans"
       inkscape:transform-center-x="2.2084594"
       inkscape:transform-center-y="2.2201224" />
    <path
       inkscape:transform-center-y="2.1825539"
       inkscape:transform-center-x="2.1649211"
       style="font-size:medium;font-style:normal;font-variant:normal;font-weight:normal;font-stretch:normal;text-indent:0;text-align:start;text-decoration:none;line-height:normal;letter-spacing:normal;word-spacing:normal;text-transform:none;direction:ltr;block-progression:tb;writing-mode:lr-tb;text-anchor:start;baseline-shift:baseline;color:#000000;fill:url(#linearGradient3849);fill-opacity:1;fill-rule:nonzero;stroke:none;stroke-width:1.99999988;marker:none;visibility:visible;display:inline;overflow:visible;enable-background:accumulate;font-family:Sans;-inkscape-font-specification:Sans"
       d="M 7.9723357,34.6433 C 7.9722985,34.301893 7.6349956,33.991275 7.264257,33.991241 l -3.6067794,0 C 3.286739,33.991275 2.9494352,34.301893 2.9493989,34.6433 l 0,1.630146 c 3.63e-5,0.341409 0.3373401,0.652025 0.7080787,0.652059 l 3.6067794,0 c 0.3707386,-3.4e-5 0.7080415,-0.31065 0.7080787,-0.652059 z"
       id="path3847"
       inkscape:connector-curvature="0"
       sodipodi:nodetypes="ccccccccc" />
    <path
       style="font-size:medium;font-style:normal;font-variant:normal;font-weight:normal;font-stretch:normal;text-indent:0;text-align:start;text-decoration:none;line-height:normal;letter-spacing:normal;word-spacing:normal;text-transform:none;direction:ltr;block-progression:tb;writing-mode:lr-tb;text-anchor:start;baseline-shift:baseline;color:#000000;fill:url(#linearGradient3853);fill-opacity:1;fill-rule:nonzero;stroke:none;stroke-width:1.99999988;marker:none;visibility:visible;display:inline;overflow:visible;enable-background:accumulate;font-family:Sans;-inkscape-font-specification:Sans"
       d="m 43.01248,13.749052 c -3.7e-5,-0.329655 -0.337341,-0.629578 -0.70808,-0.629611 l -3.606778,0 c -0.370739,3.3e-5 -0.708043,0.299956 -0.708079,0.629611 l 0,1.574026 c 3.6e-5,0.329654 0.33734,0.629578 0.708079,0.629611 l 3.606778,0 c 0.370739,-3.3e-5 0.708043,-0.299957 0.70808,-0.629611 z"
       id="path3851"
       inkscape:connector-curvature="0"
       sodipodi:nodetypes="ccccccccc" />
    <path
       sodipodi:nodetypes="ccccccccc"
       inkscape:connector-curvature="0"
       id="path3855"
       d="m 43.033401,20.563401 c -3.7e-5,-0.359038 -0.337341,-0.685694 -0.70808,-0.68573 l -3.606778,0 c -0.370739,3.6e-5 -0.708043,0.326692 -0.708079,0.68573 l 0,1.714326 c 3.6e-5,0.359037 0.33734,0.685694 0.708079,0.68573 l 3.606778,0 c 0.370739,-3.6e-5 0.708043,-0.326693 0.70808,-0.68573 z"
       style="font-size:medium;font-style:normal;font-variant:normal;font-weight:normal;font-stretch:normal;text-indent:0;text-align:start;text-decoration:none;line-height:normal;letter-spacing:normal;word-spacing:normal;text-transform:none;direction:ltr;block-progression:tb;writing-mode:lr-tb;text-anchor:start;baseline-shift:baseline;color:#000000;fill:url(#linearGradient3857);fill-opacity:1;fill-rule:nonzero;stroke:none;stroke-width:1.99999988;marker:none;visibility:visible;display:inline;overflow:visible;enable-background:accumulate;font-family:Sans;-inkscape-font-specification:Sans" />
    <path
       style="font-size:medium;font-style:normal;font-variant:normal;font-weight:normal;font-stretch:normal;text-indent:0;text-align:start;text-decoration:none;line-height:normal;letter-spacing:normal;word-spacing:normal;text-transform:none;direction:ltr;block-progression:tb;writing-mode:lr-tb;text-anchor:start;baseline-shift:baseline;color:#000000;fill:url(#linearGradient3861);fill-opacity:1;fill-rule:nonzero;stroke:none;stroke-width:1.99999988;marker:none;visibility:visible;display:inline;overflow:visible;enable-background:accumulate;font-family:Sans;-inkscape-font-specification:Sans"
       d="m 42.890544,27.540993 c -3.7e-5,-0.359038 -0.330557,-0.685694 -0.69384,-0.68573 l -3.534243,0 c -0.363283,3.6e-5 -0.693803,0.326692 -0.693839,0.68573 l 0,1.714326 c 3.6e-5,0.359037 0.330556,0.685694 0.693839,0.68573 l 3.534243,0 c 0.363283,-3.6e-5 0.693803,-0.326693 0.69384,-0.68573 z"
       id="path3859"
       inkscape:connector-curvature="0"
       sodipodi:nodetypes="ccccccccc" />
    <path
       sodipodi:nodetypes="ccccccccc"
       inkscape:connector-curvature="0"
       id="path3863"
       d="m 43.083908,34.681869 c -3.7e-5,-0.341409 -0.340733,-0.652025 -0.715199,-0.652059 l -3.643046,0 c -0.374467,3.4e-5 -0.715162,0.31065 -0.715199,0.652059 l 0,1.630146 c 3.7e-5,0.341407 0.340732,0.652024 0.715199,0.652058 l 3.643046,0 c 0.374466,-3.4e-5 0.715162,-0.310651 0.715199,-0.652058 z"
       style="font-size:medium;font-style:normal;font-variant:normal;font-weight:normal;font-stretch:normal;text-indent:0;text-align:start;text-decoration:none;line-height:normal;letter-spacing:normal;word-spacing:normal;text-transform:none;direction:ltr;block-progression:tb;writing-mode:lr-tb;text-anchor:start;baseline-shift:baseline;color:#000000;fill:url(#linearGradient3865);fill-opacity:1;fill-rule:nonzero;stroke:none;stroke-width:1.99999988;marker:none;visibility:visible;display:inline;overflow:visible;enable-background:accumulate;font-family:Sans;-inkscape-font-specification:Sans" />
  </g>
</svg>
