<?xml version="1.0" encoding="UTF-8" standalone="no"?>
<!-- Created with Inkscape (http://www.inkscape.org/) -->

<svg
   xmlns:dc="http://purl.org/dc/elements/1.1/"
   xmlns:cc="http://creativecommons.org/ns#"
   xmlns:rdf="http://www.w3.org/1999/02/22-rdf-syntax-ns#"
   xmlns:svg="http://www.w3.org/2000/svg"
   xmlns="http://www.w3.org/2000/svg"
   xmlns:xlink="http://www.w3.org/1999/xlink"
   xmlns:sodipodi="http://sodipodi.sourceforge.net/DTD/sodipodi-0.dtd"
   xmlns:inkscape="http://www.inkscape.org/namespaces/inkscape"
   width="48px"
   height="48px"
   id="svg2985"
   version="1.1"
   inkscape:version="0.91 r13725"
   sodipodi:docname="main_sessionmodel.svg">
  <defs
     id="defs2987">
    <linearGradient
       id="linearGradient3765">
      <stop
         style="stop-color:#c3c3c3;stop-opacity:1;"
         offset="0"
         id="stop3767" />
      <stop
         style="stop-color:#ffffff;stop-opacity:1;"
         offset="1"
         id="stop3769" />
    </linearGradient>
    <linearGradient
       inkscape:collect="always"
       xlink:href="#linearGradient3765"
       id="linearGradient3771"
       x1="26"
       y1="43"
       x2="26.111572"
       y2="-4.0193973"
       gradientUnits="userSpaceOnUse"
       gradientTransform="matrix(0.90876041,0,0,1.0336717,-56.997994,-8.8095796)" />
    <linearGradient
       inkscape:collect="always"
       xlink:href="#linearGradient3765"
       id="linearGradient4505"
       x1="-255.26595"
       y1="-109.97279"
       x2="-287.26593"
       y2="-146.97279"
       gradientUnits="userSpaceOnUse" />
    <linearGradient
       inkscape:collect="always"
       xlink:href="#linearGradient3765"
       id="linearGradient4507"
       gradientUnits="userSpaceOnUse"
       x1="-255.26595"
       y1="-109.97279"
       x2="-287.26593"
       y2="-146.97279" />
    <linearGradient
       inkscape:collect="always"
       xlink:href="#linearGradient3765"
       id="linearGradient4509"
       gradientUnits="userSpaceOnUse"
       x1="-255.26595"
       y1="-109.97279"
       x2="-287.26593"
       y2="-146.97279" />
    <linearGradient
       inkscape:collect="always"
       xlink:href="#linearGradient3765"
       id="linearGradient4511"
       gradientUnits="userSpaceOnUse"
       x1="-255.26595"
       y1="-109.97279"
       x2="-287.26593"
       y2="-146.97279" />
    <linearGradient
       inkscape:collect="always"
       xlink:href="#linearGradient3765"
       id="linearGradient4513"
       gradientUnits="userSpaceOnUse"
       x1="-255.26595"
       y1="-109.97279"
       x2="-287.26593"
       y2="-146.97279" />
    <linearGradient
       inkscape:collect="always"
       xlink:href="#linearGradient3765"
       id="linearGradient4515"
       gradientUnits="userSpaceOnUse"
       x1="-255.26595"
       y1="-109.97279"
       x2="-287.26593"
       y2="-146.97279" />
    <linearGradient
       inkscape:collect="always"
       xlink:href="#linearGradient3765"
       id="linearGradient4517"
       gradientUnits="userSpaceOnUse"
       x1="-255.26595"
       y1="-109.97279"
       x2="-287.26593"
       y2="-146.97279" />
    <linearGradient
       inkscape:collect="always"
       xlink:href="#linearGradient3765"
       id="linearGradient4519"
       gradientUnits="userSpaceOnUse"
       x1="-255.26595"
       y1="-109.97279"
       x2="-287.26593"
       y2="-146.97279" />
    <linearGradient
       inkscape:collect="always"
       xlink:href="#linearGradient3765"
       id="linearGradient4521"
       gradientUnits="userSpaceOnUse"
       x1="-255.26595"
       y1="-109.97279"
       x2="-287.26593"
       y2="-146.97279" />
    <linearGradient
       inkscape:collect="always"
       xlink:href="#linearGradient3765"
       id="linearGradient4523"
       gradientUnits="userSpaceOnUse"
       x1="-255.26595"
       y1="-109.97279"
       x2="-287.26593"
       y2="-146.97279" />
    <linearGradient
       inkscape:collect="always"
       xlink:href="#linearGradient3765"
       id="linearGradient4525"
       gradientUnits="userSpaceOnUse"
       x1="-255.26595"
       y1="-109.97279"
       x2="-287.26593"
       y2="-146.97279" />
    <linearGradient
       inkscape:collect="always"
       xlink:href="#linearGradient3765"
       id="linearGradient4527"
       gradientUnits="userSpaceOnUse"
       x1="-255.26595"
       y1="-109.97279"
       x2="-287.26593"
       y2="-146.97279" />
    <linearGradient
       inkscape:collect="always"
       xlink:href="#linearGradient3765"
       id="linearGradient4529"
       gradientUnits="userSpaceOnUse"
       x1="-255.26595"
       y1="-109.97279"
       x2="-287.26593"
       y2="-146.97279" />
    <linearGradient
       inkscape:collect="always"
       xlink:href="#linearGradient3765"
       id="linearGradient4531"
       gradientUnits="userSpaceOnUse"
       x1="-255.26595"
       y1="-109.97279"
       x2="-287.26593"
       y2="-146.97279" />
    <linearGradient
       inkscape:collect="always"
       xlink:href="#linearGradient3765"
       id="linearGradient4533"
       gradientUnits="userSpaceOnUse"
       x1="-255.26595"
       y1="-109.97279"
       x2="-287.26593"
       y2="-146.97279" />
    <linearGradient
       inkscape:collect="always"
       xlink:href="#linearGradient3765"
       id="linearGradient4535"
       gradientUnits="userSpaceOnUse"
       x1="-255.26595"
       y1="-109.97279"
       x2="-287.26593"
       y2="-146.97279" />
    <linearGradient
       inkscape:collect="always"
       xlink:href="#linearGradient3765"
       id="linearGradient4537"
       gradientUnits="userSpaceOnUse"
       x1="-255.26595"
       y1="-109.97279"
       x2="-287.26593"
       y2="-146.97279" />
    <linearGradient
       inkscape:collect="always"
       xlink:href="#linearGradient3765"
       id="linearGradient4539"
       gradientUnits="userSpaceOnUse"
       x1="-255.26595"
       y1="-109.97279"
       x2="-287.26593"
       y2="-146.97279" />
    <linearGradient
       inkscape:collect="always"
       xlink:href="#linearGradient3765"
       id="linearGradient4541"
       gradientUnits="userSpaceOnUse"
       x1="-255.26595"
       y1="-109.97279"
       x2="-287.26593"
       y2="-146.97279" />
  </defs>
  <sodipodi:namedview
     id="base"
     pagecolor="#ffffff"
     bordercolor="#666666"
     borderopacity="1.0"
     inkscape:pageopacity="0.0"
     inkscape:pageshadow="2"
     inkscape:zoom="14"
     inkscape:cx="16.581924"
     inkscape:cy="20.626546"
     inkscape:current-layer="layer1"
     showgrid="true"
     inkscape:grid-bbox="true"
     inkscape:document-units="px"
     inkscape:window-width="2466"
     inkscape:window-height="1365"
     inkscape:window-x="0"
     inkscape:window-y="0"
     inkscape:window-maximized="1">
    <inkscape:grid
       type="xygrid"
       id="grid3012" />
  </sodipodi:namedview>
  <metadata
     id="metadata2990">
    <rdf:RDF>
      <cc:Work
         rdf:about="">
        <dc:format>image/svg+xml</dc:format>
        <dc:type
           rdf:resource="http://purl.org/dc/dcmitype/StillImage" />
        <dc:title />
      </cc:Work>
    </rdf:RDF>
  </metadata>
  <g
     id="layer1"
     inkscape:label="Layer 1"
     inkscape:groupmode="layer">
    <path
       style="color:#000000;font-style:normal;font-variant:normal;font-weight:normal;font-stretch:normal;font-size:medium;line-height:normal;font-family:Sans;-inkscape-font-specification:Sans;text-indent:0;text-align:start;text-decoration:none;text-decoration-line:none;letter-spacing:normal;word-spacing:normal;text-transform:none;direction:ltr;block-progression:tb;writing-mode:lr-tb;baseline-shift:baseline;text-anchor:start;display:inline;overflow:visible;visibility:visible;fill:url(#linearGradient3771);fill-opacity:1;fill-rule:evenodd;stroke:none;stroke-width:1px;marker:none;enable-background:accumulate"
       d="m -48.36477,4.1113174 0,0.516836 0,26.8754646 0,0.516836 0.45438,0 27.262813,0 0.45438,0 0,-0.516836 0,-26.8754646 0,-0.516836 -0.45438,0 -27.262813,0 z"
       id="rect2991"
       inkscape:connector-curvature="0"
       sodipodi:nodetypes="ccccccccccccc" />
    <g
       id="g4479"
       transform="matrix(1.0294216,0,0,1.0294216,295.75276,151.18995)"
       style="fill:url(#linearGradient4505);fill-opacity:1">
      <g
         id="Settings"
         style="fill:url(#linearGradient4511);fill-opacity:1">
        <g
           id="g4439"
           style="fill:url(#linearGradient4509);fill-opacity:1">
          <path
             id="path4441"
             d="m -247.27788,-125.80737 c -0.0537,-0.47795 -0.61103,-0.83711 -1.09291,-0.83711 -1.55794,0 -2.94043,-0.91478 -3.52022,-2.32953 -0.59231,-1.44903 -0.21038,-3.13892 0.95071,-4.204 0.36549,-0.33411 0.40989,-0.8934 0.10335,-1.28191 -0.79738,-1.01257 -1.70368,-1.92723 -2.69323,-2.71993 -0.38749,-0.31096 -0.95602,-0.2677 -1.29203,0.10436 -1.01333,1.12226 -2.83354,1.53936 -4.24006,0.95249 -1.4637,-0.61572 -2.38671,-2.09891 -2.29638,-3.69102 0.0297,-0.50008 -0.33576,-0.9349 -0.83432,-0.99296 -1.2699,-0.14687 -2.55092,-0.15143 -3.82461,-0.0101 -0.49288,0.0544 -0.85836,0.47896 -0.84179,0.97272 0.0554,1.57643 -0.87873,3.03368 -2.32789,3.62725 -1.38969,0.56765 -3.19712,0.15409 -4.20843,-0.95817 -0.33423,-0.36637 -0.89352,-0.41141 -1.28292,-0.10791 -1.0189,0.79941 -1.94557,1.71482 -2.75029,2.71904 -0.31387,0.39041 -0.2677,0.95628 0.10146,1.29216 1.18323,1.07152 1.56529,2.77611 0.95059,4.24184 -0.58688,1.3974 -2.03794,2.29802 -3.69912,2.29802 -0.53904,-0.0174 -0.923,0.34448 -0.98195,0.83457 -0.14954,1.27724 -0.1513,2.57863 -0.008,3.86623 0.0534,0.47997 0.62761,0.83597 1.11479,0.83597 1.48041,-0.0379 2.90173,0.87873 3.49796,2.32966 0.59434,1.44902 0.21229,3.13791 -0.95058,4.20387 -0.36371,0.33411 -0.40989,0.89252 -0.10336,1.28103 0.78992,1.00612 1.69636,1.92166 2.68945,2.72094 0.38951,0.31387 0.95627,0.26959 1.29393,-0.10247 1.01712,-1.12504 2.8372,-1.54138 4.23816,-0.95337 1.46736,0.61382 2.39038,2.09688 2.30005,3.68987 -0.0295,0.50034 0.33777,0.93592 0.83433,0.99309 0.64962,0.0758 1.30316,0.11361 1.95847,0.11361 0.62205,0 1.24421,-0.0342 1.86625,-0.10336 0.49301,-0.0544 0.85824,-0.47896 0.84166,-0.97361 -0.057,-1.57554 0.87873,-3.03278 2.32599,-3.62535 1.39905,-0.57144 3.19889,-0.1532 4.21033,0.95793 0.33613,0.3656 0.8915,0.40975 1.28304,0.10727 1.01701,-0.79751 1.94178,-1.71217 2.7503,-2.71917 0.31375,-0.38952 0.26947,-0.95628 -0.10159,-1.29203 -1.18323,-1.07153 -1.56718,-2.77636 -0.95247,-4.24108 0.57789,-1.37881 1.97504,-2.3046 3.47784,-2.3046 l 0.21025,0.006 c 0.48744,0.0396 0.93591,-0.33587 0.995,-0.83343 0.14978,-1.27837 0.15155,-2.57862 0.008,-3.86623 z m -16.86674,7.5943 c -3.12704,0 -5.67062,-2.54358 -5.67062,-5.67062 0,-3.1269 2.54358,-5.67062 5.67062,-5.67062 3.12691,0 5.67049,2.54372 5.67049,5.67062 0,3.12704 -2.54358,5.67062 -5.67049,5.67062 z"
             style="clip-rule:evenodd;fill:url(#linearGradient4507);fill-opacity:1;fill-rule:evenodd"
             inkscape:connector-curvature="0" />
        </g>
      </g>
      <g
         id="g4443"
         style="fill:url(#linearGradient4513);fill-opacity:1" />
      <g
         id="g4445"
         style="fill:url(#linearGradient4515);fill-opacity:1" />
      <g
         id="g4447"
         style="fill:url(#linearGradient4517);fill-opacity:1" />
      <g
         id="g4449"
         style="fill:url(#linearGradient4519);fill-opacity:1" />
      <g
         id="g4451"
         style="fill:url(#linearGradient4521);fill-opacity:1" />
      <g
         id="g4453"
         style="fill:url(#linearGradient4523);fill-opacity:1" />
      <g
         id="g4455"
         style="fill:url(#linearGradient4525);fill-opacity:1" />
      <g
         id="g4457"
         style="fill:url(#linearGradient4527);fill-opacity:1" />
      <g
         id="g4459"
         style="fill:url(#linearGradient4529);fill-opacity:1" />
      <g
         id="g4461"
         style="fill:url(#linearGradient4531);fill-opacity:1" />
      <g
         id="g4463"
         style="fill:url(#linearGradient4533);fill-opacity:1" />
      <g
         id="g4465"
         style="fill:url(#linearGradient4535);fill-opacity:1" />
      <g
         id="g4467"
         style="fill:url(#linearGradient4537);fill-opacity:1" />
      <g
         id="g4469"
         style="fill:url(#linearGradient4539);fill-opacity:1" />
      <g
         id="g4471"
         style="fill:url(#linearGradient4541);fill-opacity:1" />
    </g>
  </g>
</svg>
