<?xml version="1.0" encoding="UTF-8" standalone="no"?>
<!-- Created with Inkscape (http://www.inkscape.org/) -->

<svg
   xmlns:dc="http://purl.org/dc/elements/1.1/"
   xmlns:cc="http://creativecommons.org/ns#"
   xmlns:rdf="http://www.w3.org/1999/02/22-rdf-syntax-ns#"
   xmlns:svg="http://www.w3.org/2000/svg"
   xmlns="http://www.w3.org/2000/svg"
   xmlns:xlink="http://www.w3.org/1999/xlink"
   xmlns:sodipodi="http://sodipodi.sourceforge.net/DTD/sodipodi-0.dtd"
   xmlns:inkscape="http://www.inkscape.org/namespaces/inkscape"
   width="48px"
   height="48px"
   id="svg2985"
   version="1.1"
   inkscape:version="0.91 r13725"
   sodipodi:docname="main_welcomeview.svg">
  <defs
     id="defs2987">
    <linearGradient
       id="linearGradient3949">
      <stop
         style="stop-color:#c3c3c3;stop-opacity:1;"
         offset="0"
         id="stop3951" />
      <stop
         style="stop-color:#ffffff;stop-opacity:1;"
         offset="1"
         id="stop3953" />
    </linearGradient>
    <inkscape:path-effect
       effect="spiro"
       id="path-effect3943"
       is_visible="true" />
    <linearGradient
       id="linearGradient3933">
      <stop
         style="stop-color:#c3c3c3;stop-opacity:1;"
         offset="0"
         id="stop3935" />
      <stop
         style="stop-color:#ffffff;stop-opacity:1;"
         offset="1"
         id="stop3937" />
    </linearGradient>
    <linearGradient
       id="linearGradient3882">
      <stop
         style="stop-color:#c3c300;stop-opacity:1;"
         offset="0"
         id="stop3884" />
      <stop
         style="stop-color:#1a0000;stop-opacity:0;"
         offset="1"
         id="stop3886" />
    </linearGradient>
    <linearGradient
       inkscape:collect="always"
       xlink:href="#linearGradient3882"
       id="linearGradient3888"
       x1="2.3714912"
       y1="15.73394"
       x2="44.331604"
       y2="15.73394"
       gradientUnits="userSpaceOnUse" />
    <linearGradient
       inkscape:collect="always"
       xlink:href="#linearGradient3933"
       id="linearGradient3939"
       x1="23.375"
       y1="29.21442"
       x2="24.184053"
       y2="-2.0712936"
       gradientUnits="userSpaceOnUse" />
    <linearGradient
       inkscape:collect="always"
       xlink:href="#linearGradient3949"
       id="linearGradient3955"
       x1="-23.50675"
       y1="84.227478"
       x2="-23.221035"
       y2="33.013195"
       gradientUnits="userSpaceOnUse"
       gradientTransform="translate(47.857143,-37.428571)" />
    <filter
       id="filter3957"
       style="color-interpolation-filters:sRGB;"
       inkscape:label="Drop Shadow">
      <feFlood
         id="feFlood3959"
         flood-opacity="0.5"
         flood-color="rgb(0,0,0)"
         result="flood" />
      <feComposite
         id="feComposite3961"
         in2="SourceGraphic"
         in="flood"
         operator="in"
         result="composite1" />
      <feGaussianBlur
         id="feGaussianBlur3963"
         in="composite"
         stdDeviation="0.5"
         result="blur" />
      <feOffset
         id="feOffset3965"
         dx="0"
         dy="0.5"
         result="offset" />
      <feComposite
         id="feComposite3967"
         in2="offset"
         in="SourceGraphic"
         operator="over"
         result="composite2" />
    </filter>
    <filter
       id="filter3969"
       style="color-interpolation-filters:sRGB;"
       inkscape:label="Drop Shadow">
      <feFlood
         id="feFlood3971"
         flood-opacity="0.5"
         flood-color="rgb(0,0,0)"
         result="flood" />
      <feComposite
         id="feComposite3973"
         in2="SourceGraphic"
         in="flood"
         operator="in"
         result="composite1" />
      <feGaussianBlur
         id="feGaussianBlur3975"
         in="composite"
         stdDeviation="0.5"
         result="blur" />
      <feOffset
         id="feOffset3977"
         dx="0"
         dy="0.5"
         result="offset" />
      <feComposite
         id="feComposite3979"
         in2="offset"
         in="SourceGraphic"
         operator="over"
         result="composite2" />
    </filter>
  </defs>
  <sodipodi:namedview
     id="base"
     pagecolor="#ffffff"
     bordercolor="#666666"
     borderopacity="1.0"
     inkscape:pageopacity="0.0"
     inkscape:pageshadow="2"
     inkscape:zoom="4.9497475"
     inkscape:cx="10.277058"
     inkscape:cy="40.422413"
     inkscape:current-layer="layer1"
     showgrid="true"
     inkscape:grid-bbox="true"
     inkscape:document-units="px"
     inkscape:window-width="2466"
     inkscape:window-height="1365"
     inkscape:window-x="0"
     inkscape:window-y="0"
     inkscape:window-maximized="1"
     inkscape:snap-global="false">
    <inkscape:grid
       type="xygrid"
       id="grid3012" />
  </sodipodi:namedview>
  <metadata
     id="metadata2990">
    <rdf:RDF>
      <cc:Work
         rdf:about="">
        <dc:format>image/svg+xml</dc:format>
        <dc:type
           rdf:resource="http://purl.org/dc/dcmitype/StillImage" />
        <dc:title />
      </cc:Work>
    </rdf:RDF>
  </metadata>
  <g
     id="layer1"
     inkscape:label="Layer 1"
     inkscape:groupmode="layer">
    <path
       style="font-size:medium;font-style:normal;font-variant:normal;font-weight:normal;font-stretch:normal;text-indent:0;text-align:start;text-decoration:none;line-height:normal;letter-spacing:normal;word-spacing:normal;text-transform:none;direction:ltr;block-progression:tb;writing-mode:lr-tb;text-anchor:start;baseline-shift:baseline;color:#000000;fill-opacity:1;fill-rule:evenodd;stroke:none;stroke-width:1;marker:none;visibility:visible;display:inline;overflow:visible;enable-background:accumulate;font-family:Sans;-inkscape-font-specification:Sans;fill:url(#linearGradient3939);filter:url(#filter3957)"
       d="m 25.241071,5.5758929 c -0.741297,-0.1866608 -1.593139,-0.1334086 -2.21875,0.25 -0.136056,0.083382 -0.153034,0.1327491 -0.25,0.21875 -0.09697,0.086001 -0.219993,0.2000468 -0.375,0.34375 -0.310013,0.2874063 -0.734511,0.665147 -1.25,1.15625 -1.030979,0.982206 -2.41179,2.3341125 -3.96875,3.8437501 -3.113921,3.019275 -6.890686,6.718509 -9.6874997,9.499999 l -4.53125,4.5 -0.15625,0.15625 0,0.21875 0,0.6875 c 0,0.59595 0.104472,0.994547 0.34375,1.34375 0.178875,0.261049 0.349181,0.484972 0.625,0.65625 0.317057,0.196885 0.64711,0.211247 1,0.21875 0.35289,0.0075 0.732861,-0.03648 1.0625,-0.15625 0.15987,-0.05809 0.13814,-0.08723 0.1875,-0.125 0.04936,-0.03777 0.123957,-0.07037 0.1875,-0.125 0.127086,-0.109263 0.287672,-0.272162 0.5,-0.46875 0.424656,-0.393175 1.023391,-0.956604 1.8125,-1.71875 1.5782187,-1.524292 3.8962097,-3.809086 6.9687497,-6.84375 2.516877,-2.485849 4.79692,-4.737054 6.46875,-6.374999 0.835915,-0.818973 1.527514,-1.479575 2,-1.9375 0.1688,-0.163598 0.293096,-0.266539 0.40625,-0.375 0.110333,0.105907 0.211423,0.21624 0.375,0.375 0.463468,0.449819 1.148895,1.101709 1.96875,1.90625 1.63971,1.609083 3.875596,3.807927 6.34375,6.249999 2.469124,2.443032 4.769357,4.712493 6.46875,6.375 0.849697,0.831254 1.558048,1.513391 2.0625,2 0.252226,0.243304 0.445562,0.422773 0.59375,0.5625 0.07409,0.06986 0.139743,0.144044 0.1875,0.1875 0.04776,0.04346 0.05682,0.04435 0.125,0.09375 0.371606,0.269236 0.77199,0.375 1.34375,0.375 0.302689,0 0.510365,0.01795 0.75,-0.0625 0.239635,-0.08045 0.413761,-0.241303 0.59375,-0.40625 0.180363,-0.165287 0.338595,-0.325751 0.4375,-0.5625 0.09891,-0.236749 0.10557,-0.444818 0.125,-0.75 0.03006,-0.472057 0.02388,-0.866758 -0.125,-1.21875 -0.0795,-0.187953 -0.150697,-0.221641 -0.25,-0.34375 -0.0993,-0.122109 -0.213149,-0.287859 -0.375,-0.46875 -0.323702,-0.361783 -0.788126,-0.853467 -1.34375,-1.4375 -1.111247,-1.168066 -2.640223,-2.716402 -4.40625,-4.499999 -3.532055,-3.567195 -8.009213,-7.997084 -11.875,-11.7187501 -0.619898,-0.5967874 -0.977399,-0.9502344 -1.28125,-1.1875 -0.303851,-0.2372656 -0.584173,-0.3721377 -0.84375,-0.4375 z"
       id="path3880"
       inkscape:connector-curvature="0"
       sodipodi:nodetypes="sscsssccccsssscscssssscssssssccsssccccssssss" />
    <path
       style="fill:url(#linearGradient3955);fill-opacity:1;fill-rule:evenodd;stroke:none;filter:url(#filter3969)"
       d="m 33.850384,44.657366 c -1.866071,-0.04881 -3.838434,-0.09196 -4.383029,-0.09589 l -0.990172,-0.0072 0.02589,-5.543201 0.02589,-5.5432 -0.723145,-0.662932 -0.723145,-0.662932 -0.49114,-0.04242 c -0.270128,-0.02333 -1.434542,-0.0633 -2.587587,-0.08882 l -2.096444,-0.04641 -0.635699,0.632753 -0.635698,0.632753 0,5.697918 0,5.697918 -4.625,-0.0038 -4.625,-0.0038 -0.75,-0.896176 -0.75,-0.896176 -0.04407,-1.367902 c -0.02424,-0.752346 -0.04835,-4.344381 -0.05357,-7.9823 l -0.0095,-6.614397 7.296381,-7.082031 c 4.01301,-3.895118 7.323182,-7.082032 7.355939,-7.082032 0.03276,0 3.386885,3.216706 7.453619,7.148236 l 7.394061,7.148235 0,7.928958 0,7.928958 -0.803572,0.958483 c -0.720697,0.859632 -0.825671,0.957327 -1.017857,0.947272 -0.117857,-0.0062 -1.741071,-0.05114 -3.607143,-0.09995 l 0,0 z"
       id="path3947"
       inkscape:connector-curvature="0" />
  </g>
</svg>
