<?xml version="1.0" encoding="UTF-8" standalone="no"?>
<!-- Created with Inkscape (http://www.inkscape.org/) -->

<svg
   xmlns:dc="http://purl.org/dc/elements/1.1/"
   xmlns:cc="http://creativecommons.org/ns#"
   xmlns:rdf="http://www.w3.org/1999/02/22-rdf-syntax-ns#"
   xmlns:svg="http://www.w3.org/2000/svg"
   xmlns="http://www.w3.org/2000/svg"
   xmlns:xlink="http://www.w3.org/1999/xlink"
   xmlns:sodipodi="http://sodipodi.sourceforge.net/DTD/sodipodi-0.dtd"
   xmlns:inkscape="http://www.inkscape.org/namespaces/inkscape"
   width="48px"
   height="48px"
   id="svg2985"
   version="1.1"
   inkscape:version="0.91 r13725"
   sodipodi:docname="main_jobview.svg">
  <defs
     id="defs2987">
    <linearGradient
       id="linearGradient4619">
      <stop
         style="stop-color:#c3c3c3;stop-opacity:1;"
         offset="0"
         id="stop4621" />
      <stop
         style="stop-color:#ffffff;stop-opacity:1;"
         offset="1"
         id="stop4623" />
    </linearGradient>
    <linearGradient
       id="linearGradient4592">
      <stop
         style="stop-color:#c3c3c3;stop-opacity:1;"
         offset="0"
         id="stop4594" />
      <stop
         style="stop-color:#fafafa;stop-opacity:0.98039216;"
         offset="1"
         id="stop4596" />
    </linearGradient>
    <linearGradient
       inkscape:collect="always"
       xlink:href="#linearGradient4619"
       id="linearGradient4625"
       x1="29"
       y1="43"
       x2="29"
       y2="35"
       gradientUnits="userSpaceOnUse"
       gradientTransform="matrix(0.9869024,0,0,0.88776083,-0.49893682,3.6421611)" />
    <linearGradient
       inkscape:collect="always"
       xlink:href="#linearGradient4619"
       id="linearGradient4656"
       x1="22"
       y1="38"
       x2="22"
       y2="26"
       gradientUnits="userSpaceOnUse"
       gradientTransform="translate(-0.95964496,-0.80812204)" />
    <linearGradient
       inkscape:collect="always"
       xlink:href="#linearGradient4619"
       id="linearGradient4668"
       gradientUnits="userSpaceOnUse"
       x1="22"
       y1="38"
       x2="22"
       y2="26"
       gradientTransform="matrix(1,0,0,1.4537913,3.0304576,-18.009648)" />
    <linearGradient
       inkscape:collect="always"
       xlink:href="#linearGradient4619"
       id="linearGradient4672"
       gradientUnits="userSpaceOnUse"
       gradientTransform="matrix(1,0,0,0.79979796,7.0205601,6.7302795)"
       x1="22"
       y1="38"
       x2="22"
       y2="26" />
    <linearGradient
       inkscape:collect="always"
       xlink:href="#linearGradient4619"
       id="linearGradient4676"
       gradientUnits="userSpaceOnUse"
       gradientTransform="matrix(1.0164907,0,0,0.3860471,10.680337,22.363516)"
       x1="22"
       y1="38"
       x2="22"
       y2="26" />
    <linearGradient
       inkscape:collect="always"
       xlink:href="#linearGradient4619"
       id="linearGradient4680"
       gradientUnits="userSpaceOnUse"
       gradientTransform="matrix(1,0,0,1.1601616,14.89975,-6.9297554)"
       x1="22"
       y1="38"
       x2="22"
       y2="26" />
    <linearGradient
       inkscape:collect="always"
       xlink:href="#linearGradient4619"
       id="linearGradient4700"
       gradientUnits="userSpaceOnUse"
       x1="11"
       y1="12"
       x2="11"
       y2="6"
       gradientTransform="translate(0.15152288,4.939595)" />
    <linearGradient
       inkscape:collect="always"
       xlink:href="#linearGradient4619"
       id="linearGradient4704"
       gradientUnits="userSpaceOnUse"
       gradientTransform="translate(0.15152288,8.8878555)"
       x1="11"
       y1="12"
       x2="11"
       y2="6" />
    <linearGradient
       inkscape:collect="always"
       xlink:href="#linearGradient4619"
       id="linearGradient4708"
       gradientUnits="userSpaceOnUse"
       gradientTransform="translate(-0.90913729,12.020815)"
       x1="11"
       y1="12"
       x2="11"
       y2="6" />
    <linearGradient
       inkscape:collect="always"
       xlink:href="#linearGradient4619"
       id="linearGradient4712"
       gradientUnits="userSpaceOnUse"
       x1="11"
       y1="12"
       x2="11"
       y2="6"
       gradientTransform="matrix(4.6365492,0,0,0.66328254,-31.874979,3.7056015)" />
    <linearGradient
       inkscape:collect="always"
       xlink:href="#linearGradient4619"
       id="linearGradient4716"
       gradientUnits="userSpaceOnUse"
       gradientTransform="matrix(4.6702208,0,0,0.66328257,-32.309483,7.6451953)"
       x1="11"
       y1="12"
       x2="11"
       y2="6" />
    <linearGradient
       inkscape:collect="always"
       xlink:href="#linearGradient4619"
       id="linearGradient4720"
       gradientUnits="userSpaceOnUse"
       gradientTransform="matrix(4.6702208,0,0,0.71090166,-32.208468,11.275024)"
       x1="11"
       y1="12"
       x2="11"
       y2="6" />
    <linearGradient
       inkscape:collect="always"
       xlink:href="#linearGradient4619"
       id="linearGradient4724"
       gradientUnits="userSpaceOnUse"
       gradientTransform="matrix(4.3671751,0,0,0.36023659,-29.207084,18.152322)"
       x1="11"
       y1="12"
       x2="11"
       y2="6" />
    <linearGradient
       inkscape:collect="always"
       xlink:href="#linearGradient4619"
       id="linearGradient4726"
       gradientUnits="userSpaceOnUse"
       x1="11"
       y1="12"
       x2="11"
       y2="6"
       gradientTransform="translate(0.15152293,1.0923495)" />
    <linearGradient
       inkscape:collect="always"
       xlink:href="#linearGradient4619"
       id="linearGradient4759"
       x1="-12"
       y1="130"
       x2="-53"
       y2="80"
       gradientUnits="userSpaceOnUse"
       gradientTransform="matrix(0.99471384,0,0,1,53.784305,-81.014234)" />
    <linearGradient
       inkscape:collect="always"
       xlink:href="#linearGradient4619"
       id="linearGradient4765"
       gradientUnits="userSpaceOnUse"
       gradientTransform="translate(0.08009431,12.999894)"
       x1="11"
       y1="12"
       x2="11"
       y2="6" />
    <linearGradient
       inkscape:collect="always"
       xlink:href="#linearGradient4619"
       id="linearGradient4767"
       gradientUnits="userSpaceOnUse"
       gradientTransform="matrix(4.6365491,0,0,0.7347112,-31.874981,15.053608)"
       x1="11"
       y1="12"
       x2="11"
       y2="6" />
  </defs>
  <sodipodi:namedview
     id="base"
     pagecolor="#ffffff"
     bordercolor="#666666"
     borderopacity="1.0"
     inkscape:pageopacity="0.0"
     inkscape:pageshadow="2"
     inkscape:zoom="9.8994949"
     inkscape:cx="21.676641"
     inkscape:cy="1.7766441"
     inkscape:current-layer="layer1"
     showgrid="true"
     inkscape:grid-bbox="true"
     inkscape:document-units="px"
     inkscape:window-width="2466"
     inkscape:window-height="1365"
     inkscape:window-x="0"
     inkscape:window-y="0"
     inkscape:window-maximized="1">
    <inkscape:grid
       type="xygrid"
       id="grid3012" />
  </sodipodi:namedview>
  <metadata
     id="metadata2990">
    <rdf:RDF>
      <cc:Work
         rdf:about="">
        <dc:format>image/svg+xml</dc:format>
        <dc:type
           rdf:resource="http://purl.org/dc/dcmitype/StillImage" />
        <dc:title />
      </cc:Work>
    </rdf:RDF>
  </metadata>
  <g
     id="layer1"
     inkscape:label="Layer 1"
     inkscape:groupmode="layer">
    <path
       style="font-size:medium;font-style:normal;font-variant:normal;font-weight:normal;font-stretch:normal;text-indent:0;text-align:start;text-decoration:none;line-height:normal;letter-spacing:normal;word-spacing:normal;text-transform:none;direction:ltr;block-progression:tb;writing-mode:lr-tb;text-anchor:start;baseline-shift:baseline;color:#000000;fill:url(#linearGradient4625);fill-opacity:1;fill-rule:nonzero;stroke:none;stroke-width:1;marker:none;visibility:visible;display:inline;overflow:visible;enable-background:accumulate;font-family:Sans;-inkscape-font-specification:Sans"
       d="m 18.992385,38.042893 0,0.44388 0,1.109701 0,0.443881 0.493451,0 18.04181,0 0.493451,0 0,-0.443881 0,-1.109701 0,-0.44388 -0.493451,0 -18.04181,0 z"
       id="rect4603"
       inkscape:connector-curvature="0"
       sodipodi:nodetypes="ccccccccccccc" />
    <path
       style="font-size:medium;font-style:normal;font-variant:normal;font-weight:normal;font-stretch:normal;text-indent:0;text-align:start;text-decoration:none;line-height:normal;letter-spacing:normal;word-spacing:normal;text-transform:none;direction:ltr;block-progression:tb;writing-mode:lr-tb;text-anchor:start;baseline-shift:baseline;color:#000000;fill:url(#linearGradient4656);fill-opacity:1;fill-rule:nonzero;stroke:none;stroke-width:2;marker:none;visibility:visible;display:inline;overflow:visible;enable-background:accumulate;font-family:Sans;-inkscape-font-specification:Sans"
       d="m 19.852855,29.535628 a 1.0001,1.0001 0 0 0 -0.78125,1 l 0,5.5625 a 1.0001,1.0001 0 0 0 1,1 l 1.0625,0 a 1.0001,1.0001 0 0 0 1,-1 l 0,-5.5625 a 1.0001,1.0001 0 0 0 -1,-1 l -1.0625,0 a 1.0001,1.0001 0 0 0 -0.21875,0 z"
       id="rect4605"
       inkscape:connector-curvature="0" />
    <path
       inkscape:connector-curvature="0"
       id="path4666"
       d="m 23.842957,26.103832 a 1.0001,1.4539366 0 0 0 -0.78125,1.453791 l 0,8.086714 a 1.0001,1.4539366 0 0 0 1,1.453791 l 1.0625,0 a 1.0001,1.4539366 0 0 0 1,-1.453791 l 0,-8.086714 a 1.0001,1.4539366 0 0 0 -1,-1.453791 l -1.0625,0 a 1.0001,1.4539366 0 0 0 -0.21875,0 z"
       style="font-size:medium;font-style:normal;font-variant:normal;font-weight:normal;font-stretch:normal;text-indent:0;text-align:start;text-decoration:none;line-height:normal;letter-spacing:normal;word-spacing:normal;text-transform:none;direction:ltr;block-progression:tb;writing-mode:lr-tb;text-anchor:start;baseline-shift:baseline;color:#000000;fill:url(#linearGradient4668);fill-opacity:1;fill-rule:nonzero;stroke:none;stroke-width:2;marker:none;visibility:visible;display:inline;overflow:visible;enable-background:accumulate;font-family:Sans;-inkscape-font-specification:Sans" />
    <path
       style="font-size:medium;font-style:normal;font-variant:normal;font-weight:normal;font-stretch:normal;text-indent:0;text-align:start;text-decoration:none;line-height:normal;letter-spacing:normal;word-spacing:normal;text-transform:none;direction:ltr;block-progression:tb;writing-mode:lr-tb;text-anchor:start;baseline-shift:baseline;color:#000000;fill:url(#linearGradient4672);fill-opacity:1;fill-rule:nonzero;stroke:none;stroke-width:2;marker:none;visibility:visible;display:inline;overflow:visible;enable-background:accumulate;font-family:Sans;-inkscape-font-specification:Sans"
       d="m 27.83306,30.999149 a 1.0001,0.7998779 0 0 0 -0.78125,0.799798 l 0,4.448876 a 1.0001,0.7998779 0 0 0 1,0.799798 l 1.0625,0 a 1.0001,0.7998779 0 0 0 1,-0.799798 l 0,-4.448876 a 1.0001,0.7998779 0 0 0 -1,-0.799798 l -1.0625,0 a 1.0001,0.7998779 0 0 0 -0.21875,0 z"
       id="path4670"
       inkscape:connector-curvature="0" />
    <path
       inkscape:connector-curvature="0"
       id="path4674"
       d="m 31.836052,34.077632 a 1.0165924,0.38608568 0 0 0 -0.794134,0.386047 l 0,2.147387 a 1.0165924,0.38608568 0 0 0 1.01649,0.386047 l 1.080022,0 a 1.0165924,0.38608568 0 0 0 1.016491,-0.386047 l 0,-2.147387 A 1.0165924,0.38608568 0 0 0 33.13843,34.077632 l -1.080022,0 a 1.0165924,0.38608568 0 0 0 -0.222356,0 z"
       style="font-size:medium;font-style:normal;font-variant:normal;font-weight:normal;font-stretch:normal;text-indent:0;text-align:start;text-decoration:none;line-height:normal;letter-spacing:normal;word-spacing:normal;text-transform:none;direction:ltr;block-progression:tb;writing-mode:lr-tb;text-anchor:start;baseline-shift:baseline;color:#000000;fill:url(#linearGradient4676);fill-opacity:1;fill-rule:nonzero;stroke:none;stroke-width:2;marker:none;visibility:visible;display:inline;overflow:visible;enable-background:accumulate;font-family:Sans;-inkscape-font-specification:Sans" />
    <path
       inkscape:connector-curvature="0"
       id="path4678"
       d="M 35.71225,28.273899 A 1.0001,1.1602776 0 0 0 34.931,29.434061 l 0,6.453398 a 1.0001,1.1602776 0 0 0 1,1.160162 l 1.0625,0 a 1.0001,1.1602776 0 0 0 1,-1.160162 l 0,-6.453398 a 1.0001,1.1602776 0 0 0 -1,-1.160162 l -1.0625,0 a 1.0001,1.1602776 0 0 0 -0.21875,0 z"
       style="font-size:medium;font-style:normal;font-variant:normal;font-weight:normal;font-stretch:normal;text-indent:0;text-align:start;text-decoration:none;line-height:normal;letter-spacing:normal;word-spacing:normal;text-transform:none;direction:ltr;block-progression:tb;writing-mode:lr-tb;text-anchor:start;baseline-shift:baseline;color:#000000;fill:url(#linearGradient4680);fill-opacity:1;fill-rule:nonzero;stroke:none;stroke-width:2;marker:none;visibility:visible;display:inline;overflow:visible;enable-background:accumulate;font-family:Sans;-inkscape-font-specification:Sans" />
    <path
       sodipodi:nodetypes="ccccccccccccc"
       inkscape:connector-curvature="0"
       id="path4696"
       d="m 10.055584,9.0974258 0,0.5 0,1.9999992 0,0.5 0.5,0 1.999999,0 0.5,0 0,-0.5 0,-1.9999992 0,-0.5 -0.5,0 -1.999999,0 z"
       style="font-size:medium;font-style:normal;font-variant:normal;font-weight:normal;font-stretch:normal;text-indent:0;text-align:start;text-decoration:none;line-height:normal;letter-spacing:normal;word-spacing:normal;text-transform:none;direction:ltr;block-progression:tb;writing-mode:lr-tb;text-anchor:start;baseline-shift:baseline;color:#000000;fill:url(#linearGradient4726);fill-opacity:1;fill-rule:nonzero;stroke:none;stroke-width:1;marker:none;visibility:visible;display:inline;overflow:visible;enable-background:accumulate;font-family:Sans;-inkscape-font-specification:Sans" />
    <path
       style="font-size:medium;font-style:normal;font-variant:normal;font-weight:normal;font-stretch:normal;text-indent:0;text-align:start;text-decoration:none;line-height:normal;letter-spacing:normal;word-spacing:normal;text-transform:none;direction:ltr;block-progression:tb;writing-mode:lr-tb;text-anchor:start;baseline-shift:baseline;color:#000000;fill:url(#linearGradient4700);fill-opacity:1;fill-rule:nonzero;stroke:none;stroke-width:1;marker:none;visibility:visible;display:inline;overflow:visible;enable-background:accumulate;font-family:Sans;-inkscape-font-specification:Sans"
       d="m 10.055584,12.94467 0,0.5 0,2 0,0.5 0.5,0 1.999999,0 0.5,0 0,-0.5 0,-2 0,-0.5 -0.5,0 -1.999999,0 z"
       id="path4698"
       inkscape:connector-curvature="0"
       sodipodi:nodetypes="ccccccccccccc" />
    <path
       sodipodi:nodetypes="ccccccccccccc"
       inkscape:connector-curvature="0"
       id="path4702"
       d="m 10.055584,16.892931 0,0.5 0,2 0,0.5 0.5,0 1.999999,0 0.5,0 0,-0.5 0,-2 0,-0.5 -0.5,0 -1.999999,0 z"
       style="font-size:medium;font-style:normal;font-variant:normal;font-weight:normal;font-stretch:normal;text-indent:0;text-align:start;text-decoration:none;line-height:normal;letter-spacing:normal;word-spacing:normal;text-transform:none;direction:ltr;block-progression:tb;writing-mode:lr-tb;text-anchor:start;baseline-shift:baseline;color:#000000;fill:url(#linearGradient4704);fill-opacity:1;fill-rule:nonzero;stroke:none;stroke-width:1;marker:none;visibility:visible;display:inline;overflow:visible;enable-background:accumulate;font-family:Sans;-inkscape-font-specification:Sans" />
    <path
       style="font-size:medium;font-style:normal;font-variant:normal;font-weight:normal;font-stretch:normal;text-indent:0;text-align:start;text-decoration:none;line-height:normal;letter-spacing:normal;word-spacing:normal;text-transform:none;direction:ltr;block-progression:tb;writing-mode:lr-tb;text-anchor:start;baseline-shift:baseline;color:#000000;fill:url(#linearGradient4712);fill-opacity:1;fill-rule:nonzero;stroke:none;stroke-width:1;marker:none;visibility:visible;display:inline;overflow:visible;enable-background:accumulate;font-family:Sans;-inkscape-font-specification:Sans"
       d="m 14.045686,9.0152289 0,0.3316413 0,1.3265648 0,0.33164 2.318275,0 9.273097,0 2.318276,0 0,-0.33164 0,-1.3265648 0,-0.3316413 -2.318276,0 -9.273097,0 z"
       id="path4710"
       inkscape:connector-curvature="0"
       sodipodi:nodetypes="ccccccccccccc" />
    <path
       sodipodi:nodetypes="ccccccccccccc"
       inkscape:connector-curvature="0"
       id="path4714"
       d="m 13.94467,12.954824 0,0.331641 0,1.326564 0,0.331641 2.33511,0 9.340441,0 2.335112,0 0,-0.331641 0,-1.326564 0,-0.331641 -2.335112,0 -9.340441,0 z"
       style="font-size:medium;font-style:normal;font-variant:normal;font-weight:normal;font-stretch:normal;text-indent:0;text-align:start;text-decoration:none;line-height:normal;letter-spacing:normal;word-spacing:normal;text-transform:none;direction:ltr;block-progression:tb;writing-mode:lr-tb;text-anchor:start;baseline-shift:baseline;color:#000000;fill:url(#linearGradient4716);fill-opacity:1;fill-rule:nonzero;stroke:none;stroke-width:1;marker:none;visibility:visible;display:inline;overflow:visible;enable-background:accumulate;font-family:Sans;-inkscape-font-specification:Sans" />
    <path
       style="font-size:medium;font-style:normal;font-variant:normal;font-weight:normal;font-stretch:normal;text-indent:0;text-align:start;text-decoration:none;line-height:normal;letter-spacing:normal;word-spacing:normal;text-transform:none;direction:ltr;block-progression:tb;writing-mode:lr-tb;text-anchor:start;baseline-shift:baseline;color:#000000;fill:url(#linearGradient4720);fill-opacity:1;fill-rule:nonzero;stroke:none;stroke-width:1;marker:none;visibility:visible;display:inline;overflow:visible;enable-background:accumulate;font-family:Sans;-inkscape-font-specification:Sans"
       d="m 14.045685,16.965848 0,0.355451 0,1.421803 0,0.355449 2.33511,0 9.340441,0 2.335112,0 0,-0.355449 0,-1.421803 0,-0.355451 -2.335112,0 -9.340441,0 z"
       id="path4718"
       inkscape:connector-curvature="0"
       sodipodi:nodetypes="ccccccccccccc" />
    <path
       style="font-size:medium;font-style:normal;font-variant:normal;font-weight:normal;font-stretch:normal;text-indent:0;text-align:start;text-decoration:none;line-height:normal;letter-spacing:normal;word-spacing:normal;text-transform:none;direction:ltr;block-progression:tb;writing-mode:lr-tb;text-anchor:start;baseline-shift:baseline;color:#000000;fill:url(#linearGradient4759);fill-opacity:1;fill-rule:nonzero;stroke:none;stroke-width:5.00000048;marker:none;visibility:visible;display:inline;overflow:visible;enable-background:accumulate;font-family:Sans;-inkscape-font-specification:Sans"
       d="m 7.5611959,2.9857658 c -1.3020416,1.31e-4 -2.4866543,1.191039 -2.4867846,2.5 l 0,37.0312502 c 1.303e-4,1.30896 1.184743,2.49987 2.4867846,2.5 l 33.0431511,0 c 1.302042,-1.3e-4 2.486654,-1.19104 2.486784,-2.5 l 0,-37.0312502 c -1.3e-4,-1.308961 -1.184742,-2.499869 -2.486784,-2.5 l -33.0431511,0 z m 1.8029188,3.125 29.1886353,0 c 0.735058,7.4e-5 1.398742,0.668616 1.398816,1.40625 l 0,33.0937502 c -7.4e-5,0.73764 -0.663758,1.40617 -1.398816,1.40625 l -29.1886353,0 c -0.7350587,-8e-5 -1.3987427,-0.66861 -1.3988163,-1.40625 l 0,-33.0937502 c 7.36e-5,-0.737634 0.6637576,-1.406176 1.3988163,-1.40625 z"
       id="path4748"
       inkscape:connector-curvature="0" />
    <path
       style="font-size:medium;font-style:normal;font-variant:normal;font-weight:normal;font-stretch:normal;text-indent:0;text-align:start;text-decoration:none;line-height:normal;letter-spacing:normal;word-spacing:normal;text-transform:none;direction:ltr;block-progression:tb;writing-mode:lr-tb;text-anchor:start;baseline-shift:baseline;color:#000000;fill:url(#linearGradient4765);fill-opacity:1;fill-rule:nonzero;stroke:none;stroke-width:1;marker:none;visibility:visible;display:inline;overflow:visible;enable-background:accumulate;font-family:Sans;-inkscape-font-specification:Sans"
       d="m 9.9841554,21.004969 0,0.5 0,2 0,0.5 0.4999996,0 1.999999,0 0.5,0 0,-0.5 0,-2 0,-0.5 -0.5,0 -1.999999,0 z"
       id="path4761"
       inkscape:connector-curvature="0"
       sodipodi:nodetypes="ccccccccccccc" />
    <path
       sodipodi:nodetypes="ccccccccccccc"
       inkscape:connector-curvature="0"
       id="path4763"
       d="m 14.045685,20.935029 0,0.367355 0,1.469423 0,0.367354 2.318274,0 9.273098,0 2.318276,0 0,-0.367354 0,-1.469423 0,-0.367355 -2.318276,0 -9.273098,0 z"
       style="font-size:medium;font-style:normal;font-variant:normal;font-weight:normal;font-stretch:normal;text-indent:0;text-align:start;text-decoration:none;line-height:normal;letter-spacing:normal;word-spacing:normal;text-transform:none;direction:ltr;block-progression:tb;writing-mode:lr-tb;text-anchor:start;baseline-shift:baseline;color:#000000;fill:url(#linearGradient4767);fill-opacity:1;fill-rule:nonzero;stroke:none;stroke-width:1;marker:none;visibility:visible;display:inline;overflow:visible;enable-background:accumulate;font-family:Sans;-inkscape-font-specification:Sans" />
  </g>
</svg>
