<?xml version="1.0" encoding="UTF-8" standalone="no"?>
<svg
   xmlns:dc="http://purl.org/dc/elements/1.1/"
   xmlns:cc="http://creativecommons.org/ns#"
   xmlns:rdf="http://www.w3.org/1999/02/22-rdf-syntax-ns#"
   xmlns:svg="http://www.w3.org/2000/svg"
   xmlns="http://www.w3.org/2000/svg"
   xmlns:sodipodi="http://sodipodi.sourceforge.net/DTD/sodipodi-0.dtd"
   xmlns:inkscape="http://www.inkscape.org/namespaces/inkscape"
   inkscape:version="1.0 (4035a4fb49, 2020-05-01)"
   sodipodi:docname="rotate-left.svg"
   id="svg4"
   viewBox="0 0 24 24"
   height="24"
   width="24"
   version="1.1">
  <metadata
     id="metadata10">
    <rdf:RDF>
      <cc:Work
         rdf:about="">
        <dc:format>image/svg+xml</dc:format>
        <dc:type
           rdf:resource="http://purl.org/dc/dcmitype/StillImage" />
      </cc:Work>
    </rdf:RDF>
  </metadata>
  <defs
     id="defs8" />
  <sodipodi:namedview
     inkscape:current-layer="svg4"
     inkscape:window-maximized="1"
     inkscape:window-y="0"
     inkscape:window-x="0"
     inkscape:cy="12"
     inkscape:cx="12"
     inkscape:zoom="29.791667"
     showgrid="false"
     id="namedview6"
     inkscape:window-height="2063"
     inkscape:window-width="3774"
     inkscape:pageshadow="2"
     inkscape:pageopacity="0"
     guidetolerance="10"
     gridtolerance="10"
     objecttolerance="10"
     borderopacity="1"
     bordercolor="#666666"
     pagecolor="#ffffff" />
  <path
     style="fill:#838686;fill-opacity:1"
     id="path2"
     d="M13,4.07V1L8.45,5.55L13,10V6.09C15.84,6.57 18,9.03 18,12C18,14.97 15.84,17.43 13,17.91V19.93C16.95,19.44 20,16.08 20,12C20,7.92 16.95,4.56 13,4.07M7.1,18.32C8.26,19.22 9.61,19.76 11,19.93V17.9C10.13,17.75 9.29,17.41 8.54,16.87L7.1,18.32M6.09,13H4.07C4.24,14.39 4.79,15.73 5.69,16.89L7.1,15.47C6.58,14.72 6.23,13.88 6.09,13M7.11,8.53L5.7,7.11C4.8,8.27 4.24,9.61 4.07,11H6.09C6.23,10.13 6.58,9.28 7.11,8.53Z" />
</svg>
