<?xml version="1.0" encoding="UTF-8" standalone="no"?>
<svg
   xmlns:dc="http://purl.org/dc/elements/1.1/"
   xmlns:cc="http://creativecommons.org/ns#"
   xmlns:rdf="http://www.w3.org/1999/02/22-rdf-syntax-ns#"
   xmlns:svg="http://www.w3.org/2000/svg"
   xmlns="http://www.w3.org/2000/svg"
   xmlns:xlink="http://www.w3.org/1999/xlink"
   xmlns:sodipodi="http://sodipodi.sourceforge.net/DTD/sodipodi-0.dtd"
   xmlns:inkscape="http://www.inkscape.org/namespaces/inkscape"
   viewBox="0 0 16 16"
   sodipodi:docname="toolbar16light_recycle.svg"
   inkscape:version="1.0 (4035a4fb49, 2020-05-01)"
   version="1.1"
   id="svg2985"
   height="17.066668"
   width="17.066668">
  <defs
     id="defs2987">
    <linearGradient
       id="linearGradient4824">
      <stop
         style="stop-color:#0f0f0f;stop-opacity:1;"
         offset="0"
         id="stop4826" />
      <stop
         style="stop-color:#ffffff;stop-opacity:1;"
         offset="1"
         id="stop4828" />
    </linearGradient>
    <inkscape:path-effect
       lpeversion="0"
       is_visible="true"
       id="path-effect3138"
       effect="spiro" />
    <linearGradient
       id="linearGradient4619">
      <stop
         id="stop4621"
         offset="0"
         style="stop-color:#c3c3c3;stop-opacity:1;" />
      <stop
         id="stop4623"
         offset="1"
         style="stop-color:#ffffff;stop-opacity:1;" />
    </linearGradient>
    <linearGradient
       id="linearGradient4592">
      <stop
         id="stop4594"
         offset="0"
         style="stop-color:#c3c3c3;stop-opacity:1;" />
      <stop
         id="stop4596"
         offset="1"
         style="stop-color:#fafafa;stop-opacity:0.98039216;" />
    </linearGradient>
    <linearGradient
       y2="6"
       x2="11"
       y1="12"
       x1="11"
       gradientTransform="translate(-0.90913729,12.020815)"
       gradientUnits="userSpaceOnUse"
       id="linearGradient4708"
       xlink:href="#linearGradient4619"
       inkscape:collect="always" />
    <linearGradient
       y2="6"
       x2="11"
       y1="12"
       x1="11"
       gradientTransform="matrix(4.3671751,0,0,0.36023659,-29.207084,18.152322)"
       gradientUnits="userSpaceOnUse"
       id="linearGradient4724"
       xlink:href="#linearGradient4619"
       inkscape:collect="always" />
    <linearGradient
       y2="26"
       x2="22"
       y1="38"
       x1="22"
       gradientTransform="matrix(0.62685746,0,0,1,-8.55667,-29.093836)"
       gradientUnits="userSpaceOnUse"
       id="linearGradient3048"
       xlink:href="#linearGradient4619"
       inkscape:collect="always" />
    <linearGradient
       gradientUnits="userSpaceOnUse"
       y2="37.1903"
       x2="9.2564144"
       y1="34.109333"
       x1="10.956502"
       id="linearGradient3969"
       xlink:href="#linearGradient4619"
       inkscape:collect="always" />
    <linearGradient
       gradientTransform="translate(0,-32)"
       y2="37.1903"
       x2="9.2564144"
       y1="34.109333"
       x1="10.956502"
       gradientUnits="userSpaceOnUse"
       id="linearGradient3994"
       xlink:href="#linearGradient4619"
       inkscape:collect="always" />
  </defs>
  <sodipodi:namedview
     inkscape:document-rotation="0"
     inkscape:snap-global="false"
     inkscape:window-maximized="1"
     inkscape:window-y="0"
     inkscape:window-x="0"
     inkscape:window-height="2063"
     inkscape:window-width="3774"
     inkscape:document-units="px"
     inkscape:grid-bbox="true"
     showgrid="true"
     inkscape:current-layer="layer1"
     inkscape:cy="4.2709337"
     inkscape:cx="-18.41048"
     inkscape:zoom="9.899495"
     inkscape:pageshadow="2"
     inkscape:pageopacity="0.0"
     borderopacity="1.0"
     bordercolor="#666666"
     pagecolor="#ffffff"
     id="base">
    <inkscape:grid
       spacingy="1"
       spacingx="1"
       originy="0"
       originx="0"
       snapvisiblegridlinesonly="true"
       enabled="true"
       visible="true"
       empspacing="5"
       id="grid3012"
       type="xygrid" />
  </sodipodi:namedview>
  <metadata
     id="metadata2990">
    <rdf:RDF>
      <cc:Work
         rdf:about="">
        <dc:format>image/svg+xml</dc:format>
        <dc:type
           rdf:resource="http://purl.org/dc/dcmitype/StillImage" />
        <dc:title />
      </cc:Work>
    </rdf:RDF>
  </metadata>
  <g
     transform="translate(0,-32)"
     inkscape:groupmode="layer"
     inkscape:label="Layer 1"
     id="layer1">
    <path
       inkscape:connector-curvature="0"
       id="path3136"
       d="m 12.406072,36.489584 -8.8025482,0.06809 H 3.0533645 v 0.544737 l -0.06877,7.72845 c 0.014455,0.06267 0.017073,0.152855 0.034385,0.204276 0.017312,0.05142 0.048841,0.06267 0.06877,0.102139 0.4635293,0.922955 0.9852587,1.3564 1.8911725,1.770393 0,0 0.062964,0.02823 0.1031545,0.03405 0.04019,0.0058 0.1375397,0 0.1375397,0 H 10.58367 c 0,0 0.09748,0.0068 0.13754,0 0.04006,-0.0068 0.103158,-0.03405 0.103158,-0.03405 1.106752,-0.329151 1.503955,-0.93136 2.063096,-1.872532 0,0 0.02313,-0.09055 0.03439,-0.136184 0.01127,-0.04565 0.03439,-0.136184 0.03439,-0.136184 v -7.72845 -0.544737 h -0.550159 z m -7.42715,1.872532 a 0.55021429,0.54479105 0 0 1 0.1031544,0 0.55021429,0.54479105 0 0 1 0.1031545,0 h 0.1719248 a 0.55021429,0.54479105 0 0 1 0.5501593,0.544737 v 5.787826 A 0.55021429,0.54479105 0 0 1 5.3571557,45.239416 H 5.1852309 A 0.55021429,0.54479105 0 0 1 4.6350724,44.694679 V 38.906853 A 0.55021429,0.54479105 0 0 1 4.978922,38.362116 Z m 5.570364,0 a 0.55021429,0.54479105 0 0 1 0.103157,0 h 0.171925 a 0.55021429,0.54479105 0 0 1 0.550158,0.544737 v 5.787826 a 0.55021429,0.54479105 0 0 1 -0.550158,0.544737 h -0.171925 a 0.55021429,0.54479105 0 0 1 -0.550162,-0.544737 v -5.787826 a 0.55021429,0.54479105 0 0 1 0.447005,-0.544737 z m -2.7507977,0.03405 a 0.55021429,0.54479105 0 0 1 0.1031554,0 h 0.1719248 a 0.55021429,0.54479105 0 0 1 0.5501592,0.544737 v 5.787826 A 0.55021429,0.54479105 0 0 1 8.073568,45.273462 H 7.9016432 A 0.55021429,0.54479105 0 0 1 7.3514838,44.728725 v -5.787826 a 0.55021429,0.54479105 0 0 1 0.4470045,-0.544737 z"
       style="color:#000000;font-style:normal;font-variant:normal;font-weight:normal;font-stretch:normal;font-size:medium;line-height:normal;font-family:Sans;-inkscape-font-specification:Sans;text-indent:0;text-align:start;text-decoration:none;text-decoration-line:none;letter-spacing:normal;word-spacing:normal;text-transform:none;writing-mode:lr-tb;direction:ltr;baseline-shift:baseline;text-anchor:start;display:inline;overflow:visible;visibility:visible;fill:#838686;fill-opacity:1;stroke:none;stroke-width:1px;marker:none;enable-background:accumulate" />
    <path
       inkscape:connector-curvature="0"
       id="rect3946"
       d="m 5.6756762,32.261669 a 1.1835909,0.9360691 0.43620069 0 0 -0.980719,0.467314 l -0.105077,0.251631 a 1.1835909,0.9360691 0.43620069 0 0 0.7705649,1.330047 l 7.7406749,3.307144 a 1.1835909,0.9360691 0.43620069 0 0 1.436053,-0.431367 L 14.64225,36.970755 A 1.1835909,0.9360691 0.43620069 0 0 13.90671,35.640708 L 12.015324,34.849869 C 12.228922,33.994171 11.633257,32.954257 10.579271,32.5133 9.5418654,32.079279 8.5191312,32.413145 8.0924479,33.16035 L 6.13101,32.333564 a 1.1835909,0.9360691 0.43620069 0 0 -0.1050771,-0.03595 1.1835909,0.9360691 0.43620069 0 0 -0.3502567,-0.03595 z m 4.1680556,0.682997 c 0.1677032,0.0044 0.3524582,0.03549 0.5253852,0.107842 0.618217,0.258644 1.040081,0.90655 0.945693,1.473836 L 8.8630128,33.483875 C 9.0804609,33.14805 9.41949,32.933561 9.8437318,32.944666 Z"
       style="color:#000000;font-style:normal;font-variant:normal;font-weight:normal;font-stretch:normal;font-size:medium;line-height:normal;font-family:Sans;-inkscape-font-specification:Sans;text-indent:0;text-align:start;text-decoration:none;text-decoration-line:none;letter-spacing:normal;word-spacing:normal;text-transform:none;writing-mode:lr-tb;direction:ltr;baseline-shift:baseline;text-anchor:start;display:inline;overflow:visible;visibility:visible;fill:#838686;fill-opacity:1;fill-rule:evenodd;stroke:none;stroke-width:2;marker:none;enable-background:accumulate" />
  </g>
</svg>
