<?xml version="1.0" encoding="UTF-8" standalone="no"?>
<svg
   xmlns:dc="http://purl.org/dc/elements/1.1/"
   xmlns:cc="http://creativecommons.org/ns#"
   xmlns:rdf="http://www.w3.org/1999/02/22-rdf-syntax-ns#"
   xmlns:svg="http://www.w3.org/2000/svg"
   xmlns="http://www.w3.org/2000/svg"
   xmlns:sodipodi="http://sodipodi.sourceforge.net/DTD/sodipodi-0.dtd"
   xmlns:inkscape="http://www.inkscape.org/namespaces/inkscape"
   inkscape:version="1.0 (4035a4fb49, 2020-05-01)"
   sodipodi:docname="hand-right.svg"
   id="svg4"
   viewBox="0 0 24 24"
   height="24"
   width="24"
   version="1.1">
  <metadata
     id="metadata10">
    <rdf:RDF>
      <cc:Work
         rdf:about="">
        <dc:format>image/svg+xml</dc:format>
        <dc:type
           rdf:resource="http://purl.org/dc/dcmitype/StillImage" />
      </cc:Work>
    </rdf:RDF>
  </metadata>
  <defs
     id="defs8" />
  <sodipodi:namedview
     inkscape:current-layer="svg4"
     inkscape:window-maximized="0"
     inkscape:window-y="117"
     inkscape:window-x="1466"
     inkscape:cy="12"
     inkscape:cx="12"
     inkscape:zoom="29.791667"
     showgrid="false"
     id="namedview6"
     inkscape:window-height="1365"
     inkscape:window-width="1817"
     inkscape:pageshadow="2"
     inkscape:pageopacity="0"
     guidetolerance="10"
     gridtolerance="10"
     objecttolerance="10"
     borderopacity="1"
     bordercolor="#666666"
     pagecolor="#ffffff" />
  <path
     style="fill:#838686;fill-opacity:1"
     id="path2"
     d="M21,6.58V18.67A3.33,3.33 0 0,1 17.67,22H11.58C10.68,22 9.83,21.64 9.21,21L2.67,14.36C2.67,14.36 3.72,13.33 3.75,13.32C3.93,13.16 4.16,13.07 4.41,13.07C4.59,13.07 4.76,13.12 4.91,13.21C4.94,13.22 8.5,15.26 8.5,15.26V5.33A1.25,1.25 0 0,1 9.75,4.08A1.25,1.25 0 0,1 11,5.33V11.17H11.83V3.25A1.25,1.25 0 0,1 13.08,2C13.78,2 14.33,2.56 14.33,3.25V11.17H15.17V4.08C15.17,3.39 15.72,2.83 16.42,2.83A1.25,1.25 0 0,1 17.67,4.08V11.17H18.5V6.58A1.25,1.25 0 0,1 19.75,5.33A1.25,1.25 0 0,1 21,6.58Z" />
</svg>
